<svg width="468" height="350" viewBox="0 0 468 350" fill="none" xmlns="http://www.w3.org/2000/svg">
<path d="M467.439 306.907H0.156189V307.141H467.439V306.907Z" fill="#E6E6E6"/>
<path d="M106.566 314.402H74.4168V314.636H106.566V314.402Z" fill="#E6E6E6"/>
<path d="M122.332 314.402H112.725V314.636H122.332V314.402Z" fill="#E6E6E6"/>
<path d="M169.733 309.814H151.64V310.047H169.733V309.814Z" fill="#E6E6E6"/>
<path d="M402.589 319.589H362.225V319.823H402.589V319.589Z" fill="#E6E6E6"/>
<path d="M416.832 319.589H410.916V319.823H416.832V319.589Z" fill="#E6E6E6"/>
<path d="M372.44 311.384H284.89V311.617H372.44V311.384Z" fill="#E6E6E6"/>
<path d="M221.648 265.225H41.193C39.7793 265.223 38.4244 264.66 37.4256 263.659C36.4269 262.659 35.866 261.303 35.866 259.889V6.22C35.8783 4.81444 36.4446 3.47049 37.4421 2.48007C38.4395 1.48966 39.7874 0.932767 41.193 0.930359H221.648C223.063 0.930359 224.421 1.49258 225.422 2.49335C226.422 3.49411 226.985 4.85143 226.985 6.26673V259.889C226.985 261.304 226.422 262.662 225.422 263.662C224.421 264.663 223.063 265.225 221.648 265.225ZM41.193 1.11727C39.8413 1.11975 38.5458 1.65845 37.5909 2.61512C36.6359 3.5718 36.0996 4.86829 36.0996 6.22V259.889C36.0996 261.241 36.6359 262.537 37.5909 263.494C38.5458 264.451 39.8413 264.989 41.193 264.992H221.648C223.001 264.989 224.297 264.451 225.254 263.494C226.21 262.538 226.748 261.242 226.751 259.889V6.22C226.748 4.86743 226.21 3.57097 225.254 2.61455C224.297 1.65814 223.001 1.11974 221.648 1.11727H41.193Z" fill="#E6E6E6"/>
<path d="M423.804 265.225H243.339C241.925 265.223 240.569 264.66 239.569 263.66C238.569 262.659 238.005 261.304 238.003 259.889V6.22C238.018 4.81358 238.586 3.46964 239.585 2.47949C240.584 1.48933 241.933 0.93274 243.339 0.930359H423.804C425.208 0.935223 426.553 1.4932 427.549 2.48335C428.544 3.4735 429.109 4.81605 429.122 6.22V259.889C429.122 261.301 428.562 262.656 427.565 263.656C426.569 264.656 425.216 265.22 423.804 265.225ZM243.339 1.11727C241.987 1.11974 240.69 1.65814 239.734 2.61455C238.778 3.57097 238.239 4.86743 238.237 6.22V259.889C238.239 261.242 238.778 262.538 239.734 263.494C240.69 264.451 241.987 264.989 243.339 264.992H423.804C425.157 264.989 426.453 264.451 427.409 263.494C428.366 262.538 428.904 261.242 428.907 259.889V6.22C428.904 4.86743 428.366 3.57097 427.409 2.61455C426.453 1.65814 425.157 1.11974 423.804 1.11727H243.339Z" fill="#E6E6E6"/>
<path d="M391.758 179.535H326.273V306.907H391.758V179.535Z" fill="#F5F5F5"/>
<path d="M391.758 179.535H386.356V306.907H391.758V179.535Z" fill="#F0F0F0"/>
<path d="M180.546 210.684L331.319 210.684V183.171L180.546 183.171V210.684Z" fill="#E0E0E0"/>
<path d="M243.414 307.001H178.77C178.522 307.001 178.285 306.902 178.109 306.727C177.934 306.551 177.836 306.314 177.836 306.066C177.836 305.818 177.934 305.58 178.109 305.405C178.285 305.23 178.522 305.131 178.77 305.131H243.414C252.76 305.131 254.003 302.402 254.003 291.58V155.134C254.003 154.886 254.101 154.648 254.277 154.473C254.452 154.298 254.69 154.199 254.937 154.199C255.185 154.199 255.423 154.298 255.598 154.473C255.774 154.648 255.872 154.886 255.872 155.134V291.58C255.872 303.15 254.078 307.001 243.414 307.001Z" fill="#E0E0E0"/>
<path d="M186.34 189.582L390.281 189.582V180.03L186.34 180.03V189.582Z" fill="#F0F0F0"/>
<path d="M187.817 179.535H122.332V306.907H187.817V179.535Z" fill="#F5F5F5"/>
<path d="M187.808 179.535H182.406V306.907H187.808V179.535Z" fill="#F0F0F0"/>
<path d="M141.444 306.907V80.0881H85.2484L85.2484 306.907H141.444Z" fill="#FAFAFA"/>
<path d="M138.36 136.741V86.7141H88.3324V136.741H138.36Z" fill="#F5F5F5"/>
<path d="M102.267 86.0413H124.453C124.453 87.4169 123.907 88.7362 122.934 89.7089C121.962 90.6817 120.642 91.2281 119.267 91.2281H107.491C106.807 91.233 106.128 91.1025 105.495 90.8441C104.861 90.5856 104.285 90.2043 103.799 89.7222C103.314 89.2401 102.928 88.6666 102.665 88.0349C102.402 87.4031 102.267 86.7256 102.267 86.0413Z" fill="#E0E0E0"/>
<path d="M138.35 191.255V141.227H88.323V191.255H138.35Z" fill="#F5F5F5"/>
<path d="M138.36 245.768V195.741H88.3324V245.768H138.36Z" fill="#F5F5F5"/>
<path d="M138.36 300.29V250.263H88.3324V300.29H138.36Z" fill="#F5F5F5"/>
<path d="M102.267 140.564H124.453C124.451 141.939 123.904 143.256 122.932 144.229C121.959 145.201 120.641 145.748 119.267 145.751H107.491C106.807 145.754 106.129 145.623 105.496 145.364C104.863 145.105 104.287 144.724 103.802 144.242C103.317 143.76 102.931 143.187 102.668 142.556C102.404 141.925 102.268 141.248 102.267 140.564Z" fill="#E0E0E0"/>
<path d="M102.267 195.077H124.453C124.453 196.453 123.907 197.772 122.934 198.745C121.962 199.717 120.642 200.264 119.267 200.264H107.491C106.807 200.269 106.128 200.138 105.495 199.88C104.861 199.621 104.285 199.24 103.799 198.758C103.314 198.276 102.928 197.702 102.665 197.071C102.402 196.439 102.267 195.761 102.267 195.077Z" fill="#E0E0E0"/>
<path d="M102.267 249.59H124.453C124.453 250.966 123.907 252.285 122.934 253.258C121.962 254.23 120.642 254.777 119.267 254.777H107.491C106.807 254.782 106.128 254.651 105.495 254.393C104.861 254.134 104.285 253.753 103.799 253.271C103.314 252.789 102.928 252.215 102.665 251.584C102.402 250.952 102.267 250.274 102.267 249.59Z" fill="#E0E0E0"/>
<path d="M85.2484 306.907L85.2484 80.0881H57.1834L57.1834 306.907H85.2484Z" fill="#F0F0F0"/>
<path d="M247.246 179.535H233.125L236.554 152.04H250.685L247.246 179.535Z" fill="#F0F0F0"/>
<path d="M250.377 179.535H236.246L239.685 152.04H253.807L250.377 179.535Z" fill="#F5F5F5"/>
<path d="M280.675 179.535H270.461L268.507 176.423H278.713L280.675 179.535Z" fill="#F0F0F0"/>
<path d="M335.403 179.535H273.582L271.629 176.423H327.067L335.403 179.535Z" fill="#FAFAFA"/>
<path d="M202.452 171.647H206.919C209.011 171.647 211.018 172.478 212.497 173.958C213.976 175.437 214.807 177.443 214.807 179.535H194.546C194.546 178.498 194.75 177.47 195.148 176.512C195.545 175.554 196.128 174.684 196.863 173.951C197.597 173.218 198.469 172.638 199.428 172.242C200.387 171.847 201.415 171.645 202.452 171.647Z" fill="#F0F0F0"/>
<path d="M252.087 165.788H237.966L239.685 152.04H253.807L252.087 165.788Z" fill="#F0F0F0"/>
<path d="M200.153 162.498H300.152C300.348 162.498 300.543 162.457 300.722 162.376C300.902 162.295 301.062 162.176 301.192 162.029C301.322 161.881 301.419 161.707 301.476 161.519C301.534 161.331 301.551 161.132 301.525 160.937L293.825 99.3308C293.784 98.9954 293.621 98.6867 293.368 98.4629C293.115 98.239 292.789 98.1156 292.451 98.1158H192.48C192.284 98.1157 192.091 98.1572 191.912 98.2376C191.733 98.3179 191.574 98.4353 191.444 98.582C191.314 98.7287 191.217 98.9013 191.159 99.0884C191.1 99.2754 191.083 99.4727 191.107 99.6672L198.807 161.283C198.848 161.614 199.006 161.919 199.253 162.142C199.501 162.365 199.82 162.491 200.153 162.498Z" fill="#F0F0F0"/>
<path d="M201.667 162.498H301.6C301.797 162.498 301.992 162.457 302.171 162.376C302.35 162.295 302.511 162.176 302.641 162.029C302.771 161.881 302.868 161.707 302.925 161.519C302.983 161.331 302.999 161.132 302.974 160.937L295.273 99.3308C295.23 98.9962 295.067 98.6886 294.815 98.4652C294.562 98.2417 294.237 98.1176 293.899 98.1158H193.966C193.77 98.1157 193.577 98.1572 193.398 98.2376C193.219 98.3179 193.06 98.4353 192.93 98.582C192.8 98.7287 192.703 98.9013 192.645 99.0884C192.586 99.2754 192.569 99.4727 192.593 99.6672L200.293 161.283C200.334 161.618 200.497 161.927 200.75 162.151C201.003 162.375 201.329 162.498 201.667 162.498Z" fill="#F5F5F5"/>
<path d="M299.75 159.087L292.544 101.424C292.531 101.33 292.483 101.244 292.411 101.182C292.339 101.12 292.247 101.087 292.152 101.088H196.2C196.145 101.086 196.09 101.096 196.04 101.117C195.989 101.139 195.944 101.171 195.907 101.213C195.871 101.254 195.844 101.302 195.828 101.355C195.812 101.408 195.809 101.463 195.817 101.518L203.022 159.19C203.034 159.283 203.079 159.369 203.15 159.431C203.22 159.493 203.311 159.527 203.405 159.526H299.367C299.422 159.525 299.476 159.513 299.526 159.49C299.575 159.466 299.62 159.433 299.656 159.392C299.692 159.35 299.719 159.302 299.735 159.249C299.751 159.197 299.756 159.141 299.75 159.087Z" fill="#E0E0E0"/>
<path d="M263.227 179.535H240.218V179.245C240.218 178.638 240.459 178.056 240.889 177.626C241.318 177.197 241.9 176.956 242.508 176.956H260.937C261.544 176.956 262.127 177.197 262.556 177.626C262.986 178.056 263.227 178.638 263.227 179.245V179.535Z" fill="#FAFAFA"/>
<path d="M242.9 179.535H227.293V179.245C227.293 178.638 227.534 178.056 227.964 177.626C228.393 177.197 228.975 176.956 229.583 176.956H240.61C241.218 176.956 241.8 177.197 242.23 177.626C242.659 178.056 242.9 178.638 242.9 179.245V179.535Z" fill="#F0F0F0"/>
<path d="M108.996 54.4716V54.4248C109.211 53.7052 109.416 52.9763 109.594 52.2473C109.91 52.7512 110.341 53.1736 110.85 53.4804C111.36 53.7872 111.935 53.9699 112.528 54.0136H112.781C114.341 53.8641 115.837 52.3501 116.781 49.9669C116.799 49.9241 116.808 49.878 116.808 49.8314C116.808 49.7849 116.799 49.7388 116.781 49.6959C116.735 49.6106 116.658 49.5467 116.566 49.5184C115.445 49.2344 114.278 49.19 113.139 49.3881C112.001 49.5862 110.917 50.0223 109.958 50.6679C110.098 49.9763 110.22 49.2754 110.323 48.5838C110.569 48.6313 110.819 48.6563 111.07 48.6586C113.612 48.6586 115.482 46.3876 115.575 46.2754C115.608 46.2342 115.631 46.1859 115.642 46.1343C115.652 46.0827 115.651 46.0292 115.637 45.9783C115.624 45.9274 115.598 45.8804 115.563 45.8411C115.528 45.8018 115.484 45.7713 115.435 45.7521C114.844 45.4589 114.198 45.294 113.54 45.2682C112.881 45.2425 112.224 45.3564 111.612 45.6025C110.96 45.9346 110.432 46.469 110.108 47.1259C109.632 45.6635 108.761 44.3608 107.592 43.3616C106.423 42.3623 105 41.7051 103.482 41.4624C103.435 41.4513 103.386 41.4514 103.338 41.4627C103.291 41.4741 103.248 41.4964 103.211 41.5278C103.172 41.5554 103.139 41.5917 103.117 41.6339C103.094 41.676 103.081 41.7229 103.08 41.7708C102.949 44.0792 103.024 46.9109 104.753 48.2567C105.476 48.79 106.36 49.0604 107.257 49.023C108.062 49.0037 108.86 48.878 109.631 48.6492C109.384 50.3194 109.025 51.9711 108.556 53.5931C106.865 51.2885 104.466 49.6013 101.725 48.7894C101.638 48.7692 101.547 48.7832 101.47 48.8285C101.394 48.8737 101.338 48.9468 101.314 49.0324C100.79 51.023 101.061 52.6398 102.089 53.7052C102.612 54.1748 103.224 54.5344 103.889 54.7624C104.554 54.9904 105.257 55.0822 105.958 55.0323C106.712 55.0275 107.463 54.9493 108.201 54.7986C107.771 56.1631 107.267 57.4995 106.79 58.7706C105.753 57.836 102.697 55.5183 99.3697 56.4902C99.2803 56.5198 99.2064 56.5837 99.1641 56.6678C99.1458 56.7106 99.1364 56.7567 99.1364 56.8033C99.1364 56.8499 99.1458 56.896 99.1641 56.9388C100.099 59.1444 101.099 60.3687 102.388 60.7892C102.732 60.9025 103.092 60.9594 103.454 60.9574C104.441 60.9155 105.404 60.6332 106.257 60.135C105.547 61.8266 104.79 63.406 104.071 64.8078C103.216 63.9368 102.143 63.3121 100.964 62.9997C99.7848 62.6872 98.5431 62.6984 97.3697 63.0322C97.2897 63.048 97.2184 63.0933 97.17 63.159C97.1216 63.2247 97.0995 63.3061 97.108 63.3873C97.1907 64.0941 97.4579 64.7667 97.8828 65.3376C98.3077 65.9084 98.8753 66.3575 99.5286 66.6396C100.021 66.8516 100.553 66.9597 101.089 66.9573C101.834 66.948 102.565 66.7588 103.22 66.4059C102.491 67.7611 101.818 68.8919 101.295 69.7517H94.9398C93.9305 68.0227 92.7623 65.8733 91.6221 63.4621C92.1532 63.6206 92.7035 63.7055 93.2576 63.7144C93.9392 63.7229 94.6135 63.5743 95.2283 63.2802C95.8432 62.9861 96.382 62.5543 96.8032 62.0184C97.2243 61.4825 97.5164 60.8569 97.6568 60.1899C97.7972 59.523 97.7821 58.8326 97.6127 58.1724C97.5909 58.0958 97.5418 58.0297 97.4746 57.9867C97.4075 57.9437 97.327 57.9266 97.2482 57.9388C95.9504 58.0654 94.7022 58.5026 93.609 59.2134C92.5159 59.9243 91.61 60.8879 90.9679 62.0228C90.2203 60.3406 89.4913 58.5556 88.8558 56.7145C89.6647 57.1748 90.571 57.4373 91.5006 57.4809C91.8696 57.4851 92.2364 57.425 92.5847 57.3033C94.4539 56.6865 95.5286 54.4342 96.4445 52.0978C96.4651 52.0556 96.4759 52.0092 96.4759 51.9622C96.4759 51.9153 96.4651 51.8689 96.4445 51.8267C96.423 51.7838 96.3927 51.7459 96.3557 51.7153C96.3187 51.6848 96.2757 51.6622 96.2295 51.6492C92.4913 50.6024 89.4166 54.2005 88.4633 55.4902C87.9648 53.9341 87.5499 52.3524 87.2203 50.752C88.0056 50.9057 88.8033 50.987 89.6035 50.995C90.3987 51.0531 91.1973 50.947 91.9497 50.6834C92.7021 50.4197 93.3923 50.004 93.9772 49.4623C95.1081 48.266 95.3791 46.4717 94.7716 44.2848C94.7609 44.2419 94.7415 44.2017 94.7148 44.1665C94.688 44.1313 94.6544 44.1019 94.616 44.0801C94.5775 44.0582 94.5351 44.0444 94.4912 44.0394C94.4472 44.0345 94.4028 44.0385 94.3604 44.0511C91.378 44.9818 88.7819 46.8625 86.968 49.4062L86.8278 48.5558C86.8179 48.4822 86.7853 48.4135 86.7344 48.3595C86.5802 47.8065 86.3118 47.2921 85.9463 46.8494C85.5809 46.4067 85.1266 46.0456 84.6129 45.7894C83.9387 45.5293 83.2171 45.4148 82.4955 45.4535C81.7739 45.4921 81.0686 45.6831 80.426 46.0137C80.3767 46.0351 80.3326 46.0671 80.2971 46.1075C80.2615 46.1479 80.2353 46.1957 80.2204 46.2474C80.209 46.2981 80.2098 46.3509 80.2228 46.4013C80.2358 46.4517 80.2606 46.4982 80.2952 46.5371C80.3887 46.6586 82.4447 49.0885 85.211 49.0885C85.5092 49.0846 85.8064 49.0533 86.0989 48.995C86.2204 49.7894 86.3699 50.5838 86.5381 51.3688C85.4723 50.6672 84.2699 50.1995 83.0102 49.9965C81.7505 49.7935 80.462 49.8599 79.2298 50.1912C79.1375 50.2196 79.0601 50.2835 79.0149 50.3688C78.9963 50.4132 78.9868 50.4609 78.9868 50.509C78.9868 50.5571 78.9963 50.6048 79.0149 50.6492C80.0896 53.2473 81.7531 54.8921 83.4727 55.0323H83.7064C84.5755 55.0323 85.7531 54.6304 86.9493 53.0323C87.4204 54.8495 87.9882 56.6401 88.6502 58.3967C87.0334 57.6304 83.398 56.3126 80.7999 58.322C80.7642 58.3478 80.734 58.3806 80.7113 58.4183C80.6886 58.4561 80.6737 58.498 80.6676 58.5417C80.6615 58.5853 80.6643 58.6297 80.6758 58.6723C80.6872 58.7148 80.7072 58.7546 80.7345 58.7892C82.4167 61.0789 83.968 62.1911 85.4914 62.1911C86.7531 62.1911 87.9586 61.3967 89.1642 59.8266C89.8558 61.5462 90.6035 63.191 91.3418 64.705C89.725 63.7051 87.9493 63.8639 85.8559 65.1817C85.8074 65.2107 85.7674 65.2518 85.7395 65.3009C85.7117 65.3501 85.697 65.4056 85.697 65.462C85.6932 65.517 85.7042 65.5721 85.7288 65.6214C85.7535 65.6707 85.7909 65.7125 85.8372 65.7424C87.084 66.6411 88.5564 67.175 90.0895 67.2844C90.8804 67.3001 91.6559 67.0646 92.3044 66.6116C92.9025 67.7611 93.4913 68.8171 94.0333 69.761H91.1455V71.4059H92.1922L93.0614 80.116H105.856L106.715 71.4059H107.771V69.761H102.024C102.659 68.705 103.472 67.2938 104.342 65.6396C104.368 65.6063 104.387 65.5682 104.398 65.5275C104.622 65.1069 104.837 64.677 105.061 64.2284C105.441 64.8035 105.954 65.2792 106.555 65.6158C107.157 65.9523 107.83 66.14 108.519 66.163C108.662 66.1723 108.806 66.1723 108.949 66.163C109.71 66.0767 110.433 65.7813 111.037 65.3095C111.64 64.8377 112.102 64.208 112.369 63.4901C112.397 63.4163 112.397 63.3351 112.37 63.2613C112.342 63.1874 112.289 63.126 112.22 63.0882C111.24 62.5347 110.142 62.2223 109.018 62.1768C107.893 62.1313 106.774 62.354 105.753 62.8266C106.239 61.8079 106.687 60.7144 107.173 59.5836C107.21 59.5417 107.233 59.4895 107.239 59.4341C107.37 59.1163 107.491 58.7986 107.622 58.4995C108.734 59.9014 109.837 60.593 110.986 60.593C112.379 60.593 113.79 59.5649 115.304 57.4435C115.357 57.3726 115.379 57.2838 115.367 57.1964C115.355 57.109 115.309 57.0299 115.239 56.9762C112.855 55.1912 109.631 56.4154 108.117 57.1257C108.426 56.2846 108.706 55.4342 108.968 54.565L108.996 54.4716Z" fill="#E0E0E0"/>
<path d="M376.291 50.5277H328.497V103.004H376.291V50.5277Z" fill="#E0E0E0"/>
<path d="M370.394 52.6773C370.354 52.6868 370.312 52.6868 370.272 52.6773C370.16 52.6025 358.87 45.8923 355.319 45.8923C351.768 45.8923 340.973 52.6025 340.861 52.6679C340.836 52.6848 340.807 52.6962 340.777 52.7016C340.747 52.707 340.716 52.7061 340.686 52.6991C340.657 52.6921 340.629 52.6791 340.604 52.6609C340.579 52.6427 340.559 52.6196 340.544 52.5932C340.512 52.5409 340.502 52.4784 340.516 52.4191C340.53 52.3597 340.567 52.3081 340.618 52.2754C341.067 51.995 351.599 45.425 355.319 45.425C359.039 45.425 370.085 51.967 370.552 52.2754C370.579 52.2907 370.602 52.3113 370.62 52.3358C370.638 52.3604 370.651 52.3884 370.658 52.4182C370.665 52.4479 370.666 52.4788 370.661 52.5089C370.656 52.539 370.644 52.5677 370.627 52.5932C370.601 52.6286 370.565 52.6555 370.523 52.6705C370.482 52.6855 370.436 52.6878 370.394 52.6773Z" fill="#EBEBEB"/>
<path d="M381.459 50.5277H332.095V103.004H381.459V50.5277Z" fill="#F5F5F5"/>
<path d="M377.328 98.8634V54.6585H336.235V98.8634H377.328Z" fill="white"/>
<path d="M364.74 84.7247C369.138 80.3268 369.138 73.1964 364.74 68.7985C360.342 64.4006 353.212 64.4006 348.814 68.7985C344.416 73.1964 344.416 80.3268 348.814 84.7247C353.212 89.1226 360.342 89.1226 364.74 84.7247Z" fill="#E0E0E0"/>
<path d="M355.824 243.216H397.711C401.554 243.22 405.245 241.715 407.991 239.025C410.736 236.336 412.317 232.676 412.393 228.833L413.963 152.143C413.992 150.72 413.736 149.305 413.211 147.982C412.686 146.659 411.902 145.454 410.906 144.437C409.909 143.421 408.72 142.613 407.407 142.062C406.095 141.511 404.686 141.227 403.262 141.227H377.001C374.374 141.227 371.838 142.193 369.878 143.943C367.918 145.693 366.671 148.103 366.375 150.713L355.824 243.216Z" fill="#E6E6E6"/>
<path d="M378.683 243.216H334.048C333.493 243.216 332.961 242.996 332.568 242.603C332.175 242.211 331.955 241.678 331.955 241.123V240.927C331.955 239.405 332.559 237.945 333.636 236.869C334.712 235.793 336.171 235.189 337.693 235.189H378.683V243.216Z" fill="#E6E6E6"/>
<path d="M375.16 307.954C374.943 307.959 374.73 307.887 374.56 307.753C374.389 307.618 374.271 307.428 374.225 307.215L361.141 244.151H338.338L325.254 307.215C325.203 307.463 325.056 307.681 324.845 307.82C324.634 307.959 324.376 308.009 324.128 307.958C323.88 307.908 323.663 307.76 323.523 307.549C323.384 307.338 323.334 307.08 323.385 306.832L336.637 243.029C336.681 242.815 336.798 242.623 336.969 242.486C337.14 242.35 337.353 242.277 337.572 242.282H361.87C362.089 242.277 362.302 242.35 362.473 242.486C362.644 242.623 362.761 242.815 362.805 243.029L376.048 306.832C376.098 307.074 376.05 307.325 375.915 307.532C375.78 307.738 375.569 307.883 375.328 307.935C375.273 307.948 375.216 307.954 375.16 307.954Z" fill="#E6E6E6"/>
<path d="M360.945 307.954C360.883 307.963 360.82 307.963 360.758 307.954C360.638 307.929 360.524 307.881 360.422 307.813C360.32 307.744 360.233 307.656 360.165 307.553C360.098 307.451 360.051 307.336 360.027 307.216C360.004 307.095 360.005 306.971 360.029 306.851L373.281 243.048C373.325 242.834 373.443 242.642 373.613 242.505C373.784 242.369 373.997 242.296 374.216 242.301H398.515C398.733 242.296 398.947 242.369 399.117 242.505C399.288 242.642 399.406 242.834 399.449 243.048L412.692 306.851C412.717 306.974 412.718 307.1 412.694 307.223C412.67 307.346 412.623 307.463 412.554 307.568C412.485 307.672 412.396 307.762 412.292 307.833C412.188 307.903 412.072 307.952 411.949 307.977C411.826 308.002 411.7 308.003 411.577 307.979C411.454 307.956 411.337 307.908 411.232 307.839C411.128 307.77 411.038 307.681 410.967 307.577C410.897 307.473 410.848 307.357 410.823 307.234L397.739 244.17H374.917L361.833 307.234C361.785 307.435 361.673 307.615 361.512 307.745C361.351 307.876 361.152 307.949 360.945 307.954Z" fill="#E6E6E6"/>
<path d="M233.798 349.112C333.873 349.112 415 344.375 415 338.533C415 332.69 333.873 327.953 233.798 327.953C133.722 327.953 52.5947 332.69 52.5947 338.533C52.5947 344.375 133.722 349.112 233.798 349.112Z" fill="#F5F5F5"/>
<path d="M249.788 329.897C249.495 329.897 249.211 329.795 248.985 329.609C248.758 329.424 248.603 329.166 248.545 328.879L230.788 241.441H199.863L182.107 328.879C182.022 329.19 181.822 329.458 181.547 329.627C181.273 329.797 180.944 329.855 180.627 329.791C180.311 329.727 180.031 329.545 179.844 329.281C179.657 329.018 179.577 328.694 179.621 328.374L197.583 239.917C197.643 239.631 197.799 239.374 198.025 239.189C198.251 239.003 198.534 238.901 198.826 238.899H231.816C232.109 238.899 232.393 239.001 232.619 239.187C232.846 239.372 233.001 239.63 233.059 239.917L251.031 328.374C251.097 328.704 251.03 329.046 250.844 329.326C250.659 329.606 250.37 329.802 250.04 329.869L249.788 329.897Z" fill="#407BFF"/>
<path d="M200.153 329.897C199.861 329.895 199.578 329.793 199.352 329.607C199.126 329.422 198.97 329.165 198.91 328.879L181.153 241.441H150.229L132.472 328.879C132.448 329.051 132.39 329.217 132.3 329.365C132.21 329.514 132.09 329.643 131.949 329.743C131.807 329.844 131.646 329.915 131.476 329.951C131.306 329.987 131.13 329.987 130.96 329.953C130.789 329.918 130.628 329.849 130.485 329.75C130.343 329.65 130.222 329.522 130.131 329.374C130.039 329.226 129.979 329.061 129.955 328.889C129.93 328.717 129.94 328.542 129.986 328.374L147.958 239.917C148.016 239.63 148.171 239.372 148.398 239.187C148.624 239.001 148.908 238.899 149.201 238.899H182.191C182.482 238.9 182.765 239.002 182.99 239.188C183.215 239.373 183.368 239.631 183.424 239.917L201.396 328.374C201.462 328.704 201.395 329.046 201.21 329.326C201.024 329.606 200.735 329.802 200.405 329.869L200.153 329.897Z" fill="#407BFF"/>
<path d="M207.097 240.179H150.275C145.06 240.18 140.052 238.136 136.327 234.486C132.601 230.836 130.456 225.87 130.35 220.656L128.238 134.302C128.199 132.372 128.544 130.453 129.255 128.658C129.966 126.863 131.028 125.228 132.379 123.849C133.73 122.469 135.342 121.373 137.122 120.625C138.901 119.876 140.812 119.49 142.743 119.489H178.368C181.934 119.492 185.374 120.805 188.033 123.18C190.692 125.555 192.385 128.825 192.789 132.368L207.097 240.179Z" fill="#407BFF"/>
<path d="M176.107 229.245H231.713C233.778 229.245 235.758 230.065 237.218 231.525C238.678 232.985 239.498 234.965 239.498 237.03V237.301C239.498 238.044 239.203 238.757 238.677 239.283C238.151 239.809 237.438 240.104 236.695 240.104H176.107V229.245Z" fill="#407BFF"/>
<g opacity="0.3">
<path d="M249.788 329.897C249.495 329.897 249.211 329.795 248.985 329.609C248.758 329.424 248.603 329.166 248.545 328.879L230.788 241.441H199.863L182.107 328.879C182.022 329.19 181.822 329.458 181.547 329.627C181.273 329.797 180.944 329.855 180.627 329.791C180.311 329.727 180.031 329.545 179.844 329.281C179.657 329.018 179.577 328.694 179.621 328.374L197.583 239.917C197.643 239.631 197.799 239.374 198.025 239.189C198.251 239.003 198.534 238.901 198.826 238.899H231.816C232.109 238.899 232.393 239.001 232.619 239.187C232.846 239.372 233.001 239.63 233.059 239.917L251.031 328.374C251.097 328.704 251.03 329.046 250.844 329.326C250.659 329.606 250.37 329.802 250.04 329.869L249.788 329.897Z" fill="black"/>
<path d="M200.153 329.897C199.861 329.895 199.578 329.793 199.352 329.607C199.126 329.422 198.97 329.165 198.91 328.879L181.153 241.441H150.229L132.472 328.879C132.448 329.051 132.39 329.217 132.3 329.365C132.21 329.514 132.09 329.643 131.949 329.743C131.807 329.844 131.646 329.915 131.476 329.951C131.306 329.987 131.13 329.987 130.96 329.953C130.789 329.918 130.628 329.849 130.485 329.75C130.343 329.65 130.222 329.522 130.131 329.374C130.039 329.226 129.979 329.061 129.955 328.889C129.93 328.717 129.94 328.542 129.986 328.374L147.958 239.917C148.016 239.63 148.171 239.372 148.398 239.187C148.624 239.001 148.908 238.899 149.201 238.899H182.191C182.482 238.9 182.765 239.002 182.99 239.188C183.215 239.373 183.368 239.631 183.424 239.917L201.396 328.374C201.462 328.704 201.395 329.046 201.21 329.326C201.024 329.606 200.735 329.802 200.405 329.869L200.153 329.897Z" fill="black"/>
<path d="M207.097 240.179H150.275C145.06 240.18 140.052 238.136 136.327 234.486C132.601 230.836 130.456 225.87 130.35 220.656L128.238 134.302C128.199 132.372 128.544 130.453 129.255 128.658C129.966 126.863 131.028 125.228 132.379 123.849C133.73 122.469 135.342 121.373 137.122 120.625C138.901 119.876 140.812 119.49 142.743 119.489H178.368C181.934 119.492 185.374 120.805 188.033 123.18C190.692 125.555 192.385 128.825 192.789 132.368L207.097 240.179Z" fill="black"/>
<path d="M176.107 229.245H231.713C233.778 229.245 235.758 230.065 237.218 231.525C238.678 232.985 239.498 234.965 239.498 237.03V237.301C239.498 238.044 239.203 238.757 238.677 239.283C238.151 239.809 237.438 240.104 236.695 240.104H176.107V229.245Z" fill="black"/>
</g>
<path d="M191.284 114.723C191.284 114.723 199.228 125.097 194.088 145.751C188.948 166.405 162.425 155.19 160.817 136.573C158.948 114.63 183.583 129.76 187.92 110.247L191.284 114.723Z" fill="#263238"/>
<path d="M185.518 108.564C182.069 110.994 180.705 114.527 184.518 117.985C188.331 121.443 193.77 121.33 195.415 119.91C197.06 118.489 196.733 111.275 196.733 111.275L185.518 108.564Z" fill="#407BFF"/>
<path opacity="0.8" d="M185.518 108.564C182.069 110.994 180.705 114.527 184.518 117.985C188.331 121.443 193.77 121.33 195.415 119.91C197.06 118.489 196.733 111.275 196.733 111.275L185.518 108.564Z" fill="white"/>
<path d="M229.069 154.536C229.162 154.956 229.321 155.61 229.47 156.162L229.919 157.919C230.237 159.096 230.583 160.274 230.947 161.451C231.639 163.825 232.405 166.19 233.209 168.554C234.012 170.918 234.835 173.227 235.732 175.619C236.171 176.788 236.61 177.965 237.078 179.133L237.62 180.535C237.728 180.775 237.87 180.998 238.04 181.199C239.371 182.544 240.992 183.567 242.779 184.189C244.961 185.068 247.212 185.768 249.507 186.283C251.881 186.834 254.32 187.292 256.788 187.675C259.255 188.058 261.788 188.367 264.218 188.61L264.302 193.638C258.97 194.189 253.596 194.189 248.264 193.638C245.478 193.351 242.723 192.816 240.031 192.04C238.573 191.6 237.154 191.04 235.788 190.367C234.215 189.603 232.776 188.59 231.526 187.367C230.801 186.645 230.173 185.831 229.657 184.946C229.517 184.722 229.396 184.47 229.265 184.236L229.022 183.731L228.592 182.797C228.012 181.61 227.433 180.423 226.9 179.217C225.816 176.806 224.76 174.376 223.816 171.9C222.872 169.423 221.947 166.928 221.162 164.423C220.779 163.134 220.405 161.853 220.059 160.535L219.545 158.564C219.396 157.853 219.256 157.264 219.106 156.423L229.069 154.536Z" fill="#E58A7B"/>
<path d="M225.891 143.919C229.9 144.938 232.695 161.423 232.695 161.423L221.657 168.9C221.657 168.9 211.069 152.265 214.181 147.863C217.368 143.339 220.041 142.461 225.891 143.919Z" fill="#407BFF"/>
<path opacity="0.5" d="M225.891 143.919C229.9 144.938 232.695 161.423 232.695 161.423L221.657 168.9C221.657 168.9 211.069 152.265 214.181 147.863C217.368 143.339 220.041 142.461 225.891 143.919Z" fill="white"/>
<path opacity="0.2" d="M224.452 148.068L214.854 155.676C216.723 160.297 218.997 164.744 221.648 168.965L229.302 163.76L224.452 148.068Z" fill="#407BFF"/>
<path d="M225.891 143.919C225.891 143.919 230.564 145.545 221.218 202.582H181.761C182.424 186.516 182.443 176.61 174.77 143.629C180.295 142.491 185.896 141.754 191.527 141.424C197.498 140.998 203.491 140.998 209.461 141.424C217.162 142.162 225.891 143.919 225.891 143.919Z" fill="#407BFF"/>
<path opacity="0.5" d="M225.891 143.919C225.891 143.919 230.564 145.545 221.218 202.582H181.761C182.424 186.516 182.443 176.61 174.77 143.629C180.295 142.491 185.896 141.754 191.527 141.424C197.498 140.998 203.491 140.998 209.461 141.424C217.162 142.162 225.891 143.919 225.891 143.919Z" fill="white"/>
<path d="M262.769 188.563L269.657 181.572L270.591 191.423C270.591 191.423 265.423 194.918 261.853 193.04L262.769 188.563Z" fill="#E58A7B"/>
<path d="M277.787 180.535L278.096 188.815L270.582 191.423L269.675 181.572L277.787 180.535Z" fill="#E58A7B"/>
<path d="M266.003 320.832H275.722L277.217 298.318H267.498L266.003 320.832Z" fill="#E58A7B"/>
<path d="M228.386 320.832H238.106L241.227 298.318H231.508L228.386 320.832Z" fill="#E58A7B"/>
<path d="M238.713 319.701H227.788C227.6 319.697 227.417 319.763 227.274 319.885C227.131 320.007 227.038 320.178 227.013 320.365L225.77 329.009C225.747 329.228 225.771 329.448 225.839 329.657C225.908 329.866 226.019 330.058 226.166 330.22C226.313 330.383 226.493 330.514 226.693 330.603C226.894 330.692 227.111 330.738 227.33 330.738C231.134 330.673 232.938 330.449 237.769 330.449C240.723 330.449 248.302 330.757 252.386 330.757C256.47 330.757 256.685 326.72 254.984 326.355C247.367 324.71 242.9 322.458 240.33 320.299C239.879 319.914 239.306 319.702 238.713 319.701Z" fill="#263238"/>
<path d="M276.479 319.701H265.573C265.385 319.699 265.203 319.765 265.06 319.887C264.918 320.009 264.824 320.179 264.797 320.365L263.554 329.009C263.532 329.228 263.556 329.448 263.624 329.657C263.692 329.865 263.803 330.057 263.951 330.22C264.098 330.383 264.277 330.514 264.478 330.603C264.678 330.692 264.895 330.738 265.115 330.738C268.918 330.673 270.722 330.449 275.554 330.449C278.516 330.449 284.619 330.757 288.703 330.757C292.787 330.757 293.002 326.72 291.301 326.355C283.684 324.71 280.685 322.458 278.124 320.299C277.664 319.911 277.081 319.699 276.479 319.701Z" fill="#263238"/>
<path d="M218.143 101.602C221.639 101.826 223.414 119.358 213.162 118.34C202.91 117.321 218.143 101.602 218.143 101.602Z" fill="#263238"/>
<path d="M277.217 298.318L276.442 309.926H266.722L267.489 298.318H277.217Z" fill="#CF6F64"/>
<path d="M231.508 298.318H241.237L239.62 309.926H229.891L231.508 298.318Z" fill="#CF6F64"/>
<path opacity="0.2" d="M178.714 161.965C179.649 166.75 180.312 170.881 180.817 174.601L183.125 156.741L178.714 161.965Z" fill="#407BFF"/>
<path d="M193.303 121.274C194.434 127.041 195.564 137.611 191.527 141.461C191.527 141.461 193.106 147.311 203.826 147.311C215.611 147.311 209.433 141.461 209.433 141.461C202.994 139.928 203.162 135.153 204.284 130.676L193.303 121.274Z" fill="#E58A7B"/>
<path d="M201.695 148.564L205.284 147.274L204.807 146.293L201.695 148.564Z" fill="#263238"/>
<path d="M208.658 147.816L205.284 147.274L206.013 146.181L208.658 147.816Z" fill="#263238"/>
<path d="M192.835 138.741L190.396 141.115C190.323 141.19 190.282 141.291 190.282 141.396C190.282 141.5 190.323 141.601 190.396 141.676L200.676 153.386C201.165 150.605 202.655 148.099 204.863 146.339C196.359 143.125 194.144 139.797 193.387 138.863C193.369 138.809 193.338 138.76 193.296 138.721C193.253 138.683 193.202 138.656 193.146 138.644C193.09 138.632 193.032 138.634 192.978 138.651C192.923 138.668 192.874 138.7 192.835 138.741Z" fill="#407BFF"/>
<path d="M207.527 140.536L210.555 141.358C210.645 141.383 210.728 141.432 210.793 141.499C210.859 141.567 210.906 141.65 210.929 141.741C211.784 145.582 211.623 149.58 210.461 153.339C210.032 151.751 208.592 147.947 206.013 146.181C208.817 144.246 207.686 141.751 207.284 140.807C207.271 140.772 207.268 140.734 207.275 140.697C207.282 140.66 207.298 140.626 207.324 140.598C207.349 140.57 207.381 140.549 207.417 140.538C207.452 140.528 207.491 140.527 207.527 140.536Z" fill="#407BFF"/>
<path d="M197.798 125.106L204.34 130.667C204.068 131.709 203.884 132.772 203.789 133.844C201.331 133.489 197.957 130.798 197.695 128.237C197.535 127.196 197.57 126.134 197.798 125.106Z" fill="#CF6F64"/>
<path d="M192.677 106.078C191.564 115.658 190.882 119.695 194.807 125.415C200.695 134.022 212.714 133.293 216.667 124.237C220.228 116.088 221.442 101.807 212.844 96.3495C210.953 95.1423 208.785 94.4387 206.545 94.3057C204.305 94.1726 202.068 94.6145 200.047 95.5894C198.026 96.5643 196.288 98.0397 194.998 99.8756C193.708 101.711 192.909 103.847 192.677 106.078Z" fill="#E58A7B"/>
<path d="M214.583 90.2562C198.742 84.0039 186.845 91.0599 184.387 101.088C180.527 116.658 192.854 117.751 192.854 117.751L194.396 113.77C196.611 115.106 202.807 114.517 200.938 102.957C199.835 96.415 208.116 105.527 218.62 104.508C221.414 104.237 225.237 94.4617 214.583 90.2562Z" fill="#263238"/>
<path d="M219.975 94.1066C217.891 90.901 213.63 88.1534 204.798 86.8543C204.798 86.8543 209.387 87.8917 210.873 91.2468C212.359 94.6019 222.489 97.9663 219.975 94.1066Z" fill="#263238"/>
<path d="M189.63 114.368C189.565 115.289 189.683 116.214 189.977 117.09C190.27 117.965 190.733 118.775 191.34 119.471C192.976 121.34 195.125 120.19 195.798 117.947C196.396 115.919 196.275 112.518 194.088 111.49C191.901 110.462 189.808 112.088 189.63 114.368Z" fill="#E58A7B"/>
<path d="M221.246 202.619C221.246 202.619 286.423 208.684 285.787 238.319C285.124 269.16 278.526 307.683 278.526 307.683H265.059C265.059 307.683 263.909 275.085 263.517 244.721C263.32 228.908 200.34 225.74 200.34 225.74L192.209 202.619H221.246Z" fill="#263238"/>
<path d="M210.817 202.619C210.817 202.619 252.937 216.591 254.003 233.88C255.956 265.711 241.966 307.711 241.966 307.711H228.704C228.704 307.711 229.461 279.861 231.041 251.02C233.04 214.778 169.098 250.515 181.761 202.647L210.817 202.619Z" fill="#263238"/>
<path d="M206.536 111.303C206.396 112.069 206.695 112.77 207.2 112.863C207.704 112.957 208.218 112.396 208.359 111.63C208.499 110.863 208.2 110.153 207.695 110.069C207.19 109.985 206.695 110.527 206.536 111.303Z" fill="#263238"/>
<path d="M215.256 112.863C215.115 113.63 215.415 114.331 215.919 114.424C216.424 114.518 216.947 113.957 217.087 113.19C217.228 112.424 216.929 111.714 216.424 111.63C215.919 111.546 215.396 112.088 215.256 112.863Z" fill="#263238"/>
<path d="M216.19 111.63L218.144 111.424C218.144 111.424 216.975 112.704 216.19 111.63Z" fill="#263238"/>
<path d="M212.714 113.77C213.088 115.653 213.716 117.477 214.583 119.19C214.143 119.391 213.665 119.494 213.181 119.494C212.697 119.494 212.219 119.391 211.779 119.19L212.714 113.77Z" fill="#DF5753"/>
<path d="M208.564 121.686C207.539 121.523 206.566 121.121 205.725 120.512C204.884 119.903 204.198 119.104 203.723 118.181C203.707 118.145 203.706 118.104 203.72 118.068C203.734 118.031 203.762 118.001 203.798 117.985C203.835 117.972 203.876 117.973 203.912 117.989C203.949 118.004 203.978 118.033 203.994 118.069C204.443 118.942 205.091 119.697 205.884 120.275C206.678 120.852 207.596 121.236 208.564 121.396C208.603 121.405 208.637 121.428 208.66 121.461C208.682 121.494 208.691 121.534 208.686 121.573C208.679 121.602 208.663 121.628 208.642 121.648C208.62 121.668 208.593 121.681 208.564 121.686Z" fill="#263238"/>
<path d="M204.489 107.854C204.449 107.856 204.409 107.848 204.371 107.832C204.334 107.816 204.301 107.791 204.275 107.761C204.246 107.734 204.224 107.703 204.208 107.667C204.193 107.632 204.185 107.594 204.185 107.555C204.185 107.516 204.193 107.478 204.208 107.443C204.224 107.407 204.246 107.376 204.275 107.349C204.778 106.857 205.392 106.494 206.065 106.289C206.739 106.084 207.452 106.044 208.144 106.172C208.217 106.194 208.279 106.243 208.317 106.309C208.355 106.375 208.367 106.453 208.349 106.527C208.341 106.565 208.324 106.6 208.302 106.632C208.279 106.663 208.25 106.689 208.217 106.709C208.184 106.729 208.147 106.743 208.109 106.748C208.071 106.754 208.032 106.752 207.994 106.742C207.397 106.636 206.783 106.676 206.204 106.856C205.626 107.036 205.098 107.353 204.667 107.779C204.617 107.822 204.555 107.848 204.489 107.854Z" fill="#263238"/>
<path d="M220.022 109.387C219.964 109.389 219.907 109.373 219.858 109.341C219.81 109.309 219.772 109.263 219.751 109.209C219.523 108.648 219.165 108.149 218.707 107.753C218.249 107.357 217.704 107.074 217.116 106.929C217.039 106.915 216.971 106.872 216.926 106.81C216.881 106.747 216.862 106.669 216.873 106.592C216.886 106.514 216.93 106.445 216.995 106.399C217.06 106.354 217.14 106.336 217.218 106.349C217.903 106.508 218.539 106.83 219.073 107.287C219.607 107.744 220.022 108.323 220.284 108.976C220.315 109.047 220.317 109.129 220.289 109.202C220.261 109.276 220.206 109.335 220.134 109.368L220.022 109.387Z" fill="#263238"/>
<path d="M180.667 157.732C179.817 160.535 178.901 163.339 178.088 166.218C177.275 169.096 176.415 171.9 175.677 174.75C174.939 177.601 174.238 180.423 173.714 183.161C173.462 184.544 173.228 185.918 173.097 187.208C173.023 187.853 172.985 188.46 172.976 189.021C172.976 189.152 172.976 189.021 172.882 188.806C172.768 188.553 172.61 188.322 172.415 188.124C171.939 187.713 171.761 187.787 171.976 187.853C172.367 187.948 172.77 187.989 173.172 187.974C174.43 187.931 175.682 187.772 176.91 187.498C179.694 186.884 182.438 186.101 185.125 185.152C190.649 183.283 196.256 181.002 201.714 178.675L204.125 183.077C198.947 186.472 193.535 189.495 187.929 192.124C185.026 193.493 182.031 194.658 178.966 195.61C177.26 196.129 175.507 196.483 173.733 196.666C172.625 196.779 171.507 196.751 170.406 196.582C169.675 196.472 168.962 196.268 168.284 195.974C167.408 195.595 166.615 195.049 165.948 194.367C164.652 193.001 163.909 191.202 163.864 189.32C163.817 188.386 163.808 187.451 163.864 186.61C163.929 184.881 164.088 183.245 164.303 181.647C164.752 178.451 165.331 175.367 166.041 172.302C166.752 169.236 167.509 166.274 168.34 163.302C169.172 160.33 170.069 157.414 171.144 154.442L180.667 157.732Z" fill="#E58A7B"/>
<path d="M242.04 321.337C241.179 321.316 240.323 321.196 239.489 320.982C239.458 320.976 239.429 320.96 239.407 320.938C239.384 320.916 239.369 320.887 239.363 320.856C239.357 320.825 239.36 320.792 239.373 320.763C239.385 320.734 239.406 320.709 239.433 320.692C239.76 320.477 242.676 318.589 243.788 319.084C243.905 319.137 244.005 319.221 244.077 319.326C244.149 319.432 244.192 319.555 244.199 319.683C244.246 319.89 244.237 320.106 244.175 320.309C244.113 320.512 243.999 320.696 243.844 320.841C243.32 321.214 242.681 321.389 242.04 321.337ZM239.938 320.757C241.741 321.131 243.096 321.084 243.62 320.598C243.734 320.488 243.817 320.35 243.863 320.198C243.909 320.046 243.915 319.884 243.881 319.729C243.878 319.656 243.854 319.585 243.813 319.524C243.772 319.463 243.715 319.414 243.648 319.384C242.938 319.066 240.966 320.122 239.938 320.757Z" fill="#407BFF"/>
<path d="M239.526 320.991H239.442C239.416 320.976 239.394 320.954 239.38 320.928C239.365 320.902 239.357 320.872 239.358 320.842C239.358 320.729 239.358 317.963 240.405 317.047C240.527 316.93 240.676 316.842 240.838 316.792C241 316.742 241.172 316.73 241.339 316.757C241.508 316.756 241.672 316.813 241.803 316.919C241.934 317.024 242.024 317.172 242.059 317.337C242.255 318.346 240.629 320.412 239.61 320.991H239.526ZM241.171 317.047C240.965 317.049 240.768 317.129 240.62 317.271C239.881 317.926 239.732 319.776 239.685 320.514C240.62 319.842 241.872 318.141 241.713 317.384C241.713 317.262 241.62 317.103 241.283 317.057L241.171 317.047Z" fill="#407BFF"/>
<path d="M280.133 321.337C279.106 321.314 278.083 321.198 277.077 320.991C277.044 320.983 277.014 320.965 276.991 320.94C276.968 320.915 276.953 320.884 276.946 320.851C276.941 320.816 276.948 320.781 276.965 320.751C276.982 320.721 277.008 320.697 277.04 320.683C277.47 320.458 281.311 318.496 282.479 319.131C282.58 319.187 282.666 319.268 282.728 319.366C282.79 319.464 282.827 319.576 282.834 319.692C282.86 319.887 282.838 320.085 282.77 320.269C282.702 320.453 282.589 320.618 282.442 320.748C281.762 321.202 280.947 321.41 280.133 321.337ZM277.619 320.757C278.872 320.972 281.358 321.281 282.217 320.514C282.325 320.414 282.407 320.29 282.457 320.152C282.507 320.014 282.525 319.866 282.507 319.72C282.506 319.657 282.489 319.595 282.456 319.54C282.423 319.486 282.376 319.442 282.32 319.412C281.554 319 278.974 320.094 277.619 320.757Z" fill="#407BFF"/>
<path d="M277.115 320.991C277.084 321 277.052 321 277.021 320.991C276.998 320.973 276.98 320.95 276.967 320.925C276.954 320.899 276.947 320.87 276.946 320.841C276.946 320.729 277.18 318.141 278.376 317.103C278.544 316.96 278.739 316.853 278.95 316.789C279.16 316.725 279.382 316.705 279.6 316.729C280.199 316.785 280.367 317.085 280.414 317.318C280.582 318.393 278.32 320.449 277.18 320.963L277.115 320.991ZM279.423 317.047C279.116 317.046 278.819 317.159 278.591 317.365C277.713 318.094 277.404 319.841 277.311 320.542C278.535 319.86 280.208 318.103 280.114 317.384C280.114 317.309 280.114 317.103 279.6 317.057L279.423 317.047Z" fill="#407BFF"/>
<path d="M201.49 178.825L210.704 176.488L206.312 185.339C206.312 185.339 200.078 185.61 198.022 182.133L201.49 178.825Z" fill="#E58A7B"/>
<path d="M218.153 179.843L214.078 187.058L206.312 185.339L210.704 176.488L218.153 179.843Z" fill="#E58A7B"/>
<path d="M207.461 110.069L209.415 109.863C209.415 109.863 208.209 111.144 207.461 110.069Z" fill="#263238"/>
<path d="M181.172 200.301L180.854 203.834C180.723 204.114 181.041 204.395 181.499 204.395H221.442C221.798 204.395 222.087 204.217 222.115 203.993L222.471 200.46C222.471 200.217 222.181 200.011 221.798 200.011H181.817C181.694 200.001 181.57 200.022 181.457 200.073C181.344 200.124 181.246 200.202 181.172 200.301Z" fill="#407BFF"/>
<path d="M186.546 204.778H185.471C185.256 204.778 185.097 204.666 185.107 204.535L185.611 199.937C185.611 199.806 185.817 199.694 186.032 199.694H187.069C187.284 199.694 187.443 199.806 187.434 199.937L186.929 204.535C186.938 204.666 186.751 204.778 186.546 204.778Z" fill="#263238"/>
<path d="M218.433 204.778H217.358C217.144 204.778 216.985 204.666 216.994 204.535L217.499 199.937C217.499 199.806 217.704 199.694 217.919 199.694H218.985C219.2 199.694 219.358 199.806 219.349 199.937L218.844 204.535C218.844 204.666 218.639 204.778 218.433 204.778Z" fill="#263238"/>
<path d="M202.49 204.778H201.415C201.2 204.778 201.041 204.666 201.05 204.535L201.555 199.937C201.555 199.806 201.761 199.694 201.976 199.694H203.041C203.256 199.694 203.415 199.806 203.405 199.937L202.901 204.535C202.882 204.666 202.705 204.778 202.49 204.778Z" fill="#263238"/>
<path d="M174.77 143.666C170.808 144.872 166.06 158.489 166.06 158.489L178.817 170.946C178.817 170.946 187.004 158.096 185.359 152.984C183.611 147.657 179.284 142.302 174.77 143.666Z" fill="#407BFF"/>
<path opacity="0.5" d="M174.77 143.666C170.808 144.872 166.06 158.489 166.06 158.489L178.817 170.946C178.817 170.946 187.004 158.096 185.359 152.984C183.611 147.657 179.284 142.302 174.77 143.666Z" fill="white"/>
<path d="M386.748 192.909H312.394V337.533H386.748V192.909Z" fill="#407BFF"/>
<path opacity="0.6" d="M386.748 192.909H312.394V337.533H386.748V192.909Z" fill="white"/>
<path d="M242.704 192.909H168.35V337.533H242.704V192.909Z" fill="#407BFF"/>
<path opacity="0.6" d="M242.704 192.909H168.35V337.533H242.704V192.909Z" fill="white"/>
<path d="M389.533 192.909H383.403V337.533H389.533V192.909Z" fill="#407BFF"/>
<path opacity="0.3" d="M389.533 192.909H383.403V337.533H389.533V192.909Z" fill="black"/>
<path d="M243.592 203.759L391.431 203.759V192.909L243.592 192.909V203.759Z" fill="#407BFF"/>
<path opacity="0.3" d="M243.592 203.759L391.431 203.759V192.909L243.592 192.909V203.759Z" fill="black"/>
<path d="M245.498 192.909H239.368V337.533H245.498V192.909Z" fill="#407BFF"/>
<path opacity="0.3" d="M245.498 192.909H239.368V337.533H245.498V192.909Z" fill="black"/>
<path d="M243.237 227.506L386.468 227.506V196.264L243.237 196.264V227.506Z" fill="#407BFF"/>
<path opacity="0.3" d="M243.237 227.506L386.468 227.506V196.264L243.237 196.264V227.506Z" fill="black"/>
<path d="M386.786 341.738H345.506C342.703 341.736 340.016 340.621 338.035 338.64C336.053 336.658 334.939 333.971 334.936 331.168V200.927C334.936 198.449 333.952 196.072 332.199 194.319C330.446 192.566 328.069 191.582 325.59 191.582H313.236V190.647H325.581C328.308 190.647 330.922 191.73 332.85 193.658C334.778 195.586 335.861 198.201 335.861 200.927V331.168C335.864 333.723 336.88 336.172 338.686 337.979C340.493 339.785 342.942 340.801 345.497 340.804H386.786C387.488 340.805 388.174 340.585 388.744 340.174C389.313 339.763 389.739 339.182 389.96 338.515C390.18 337.848 390.185 337.128 389.972 336.458C389.76 335.789 389.341 335.203 388.776 334.785L389.328 334.037C390.049 334.573 390.583 335.321 390.854 336.177C391.126 337.034 391.12 337.953 390.838 338.806C390.557 339.659 390.014 340.401 389.286 340.928C388.559 341.454 387.684 341.738 386.786 341.738Z" fill="#407BFF"/>
<path opacity="0.3" d="M386.786 341.738H345.506C342.703 341.736 340.016 340.621 338.035 338.64C336.053 336.658 334.939 333.971 334.936 331.168V200.927C334.936 198.449 333.952 196.072 332.199 194.319C330.446 192.566 328.069 191.582 325.59 191.582H313.236V190.647H325.581C328.308 190.647 330.922 191.73 332.85 193.658C334.778 195.586 335.861 198.201 335.861 200.927V331.168C335.864 333.723 336.88 336.172 338.686 337.979C340.493 339.785 342.942 340.801 345.497 340.804H386.786C387.488 340.805 388.174 340.585 388.744 340.174C389.313 339.763 389.739 339.182 389.96 338.515C390.18 337.848 390.185 337.128 389.972 336.458C389.76 335.789 389.341 335.203 388.776 334.785L389.328 334.037C390.049 334.573 390.583 335.321 390.854 336.177C391.126 337.034 391.12 337.953 390.838 338.806C390.557 339.659 390.014 340.401 389.286 340.928C388.559 341.454 387.684 341.738 386.786 341.738Z" fill="black"/>
<path d="M392.804 235.581H391.87V253.646H392.804V235.581Z" fill="#407BFF"/>
<path opacity="0.3" d="M392.804 235.581H391.87V253.646H392.804V235.581Z" fill="black"/>
<path d="M392.804 224.918H391.87V229.665H392.804V224.918Z" fill="#407BFF"/>
<path opacity="0.3" d="M392.804 224.918H391.87V229.665H392.804V224.918Z" fill="black"/>
<path d="M324.357 149.732H255.068L245.031 190.647H314.31L324.357 149.732Z" fill="#407BFF"/>
<path opacity="0.4" d="M324.357 149.732H255.068L245.031 190.647H314.31L324.357 149.732Z" fill="white"/>
<path d="M247.152 190.647L246.872 192.909H219.686L219.966 190.647H247.152Z" fill="#407BFF"/>
<path opacity="0.4" d="M247.152 190.647L246.872 192.909H219.686L219.966 190.647H247.152Z" fill="white"/>
<path d="M316.441 190.647L316.161 192.909H246.872L247.152 190.647H316.441Z" fill="#407BFF"/>
<path opacity="0.5" d="M316.441 190.647L316.161 192.909H246.872L247.152 190.647H316.441Z" fill="black"/>
<path d="M326.488 149.732H257.199L247.162 190.647H316.441L326.488 149.732Z" fill="#407BFF"/>
<path opacity="0.5" d="M326.488 149.732H257.199L247.162 190.647H316.441L326.488 149.732Z" fill="black"/>
<path d="M353.244 182.6C353.244 182.6 343.048 165.021 357.16 151.031C357.16 151.031 360.852 153.442 360.796 156.638C360.739 159.834 356.842 160.694 357.674 163.386C358.506 166.077 362.197 168.741 359.777 170.974C357.356 173.208 360.169 175.189 360.001 177.918C359.833 180.647 353.244 182.6 353.244 182.6Z" fill="#407BFF"/>
<path d="M354.02 184.208C354.02 184.208 358.151 164.311 340.319 155.498C340.319 155.498 337.572 158.947 338.646 162.04C339.721 165.133 343.674 164.638 343.73 167.47C343.786 170.302 341.132 173.965 344.132 175.32C347.132 176.675 345.067 179.451 346.104 181.993C347.142 184.535 354.02 184.208 354.02 184.208Z" fill="#407BFF"/>
<path opacity="0.5" d="M354.02 184.208C354.02 184.208 358.151 164.311 340.319 155.498C340.319 155.498 337.572 158.947 338.646 162.04C339.721 165.133 343.674 164.638 343.73 167.47C343.786 170.302 341.132 173.965 344.132 175.32C347.132 176.675 345.067 179.451 346.104 181.993C347.142 184.535 354.02 184.208 354.02 184.208Z" fill="black"/>
<path d="M338.394 179.797C338.394 179.797 338.74 192.881 351.74 192.881C364.739 192.881 365.076 179.797 365.076 179.797H338.394Z" fill="#407BFF"/>
<path opacity="0.5" d="M338.394 179.797C338.394 179.797 338.74 192.881 351.74 192.881C364.739 192.881 365.076 179.797 365.076 179.797H338.394Z" fill="black"/>
<path d="M268.517 94.0692L257.414 79.7237L246.311 94.0692H251.536V112.639H263.292V94.0692H268.517Z" fill="#407BFF"/>
<path d="M301.086 110.938C301.086 103.998 303.843 97.3421 308.751 92.4347C313.658 87.5272 320.314 84.7703 327.254 84.7703V91.5833C324.714 91.582 322.199 92.0813 319.852 93.0525C317.505 94.0237 315.372 95.4477 313.575 97.2434C311.779 99.039 310.354 101.171 309.381 103.518C308.409 105.864 307.909 108.379 307.909 110.919L301.086 110.938Z" fill="#407BFF"/>
<path d="M301.086 110.938H307.909C307.909 116.069 309.947 120.989 313.575 124.617C317.203 128.245 322.123 130.284 327.254 130.284C330.649 130.29 333.984 129.393 336.917 127.686L340.338 133.639C336.36 135.935 331.847 137.145 327.254 137.145C322.66 137.144 318.148 135.935 314.17 133.638C310.192 131.342 306.888 128.038 304.592 124.06C302.295 120.082 301.086 115.569 301.086 110.975V110.938Z" fill="#407BFF"/>
<path opacity="0.5" d="M301.086 110.938H307.909C307.909 116.069 309.947 120.989 313.575 124.617C317.203 128.245 322.123 130.284 327.254 130.284C330.649 130.29 333.984 129.393 336.917 127.686L340.338 133.639C336.36 135.935 331.847 137.145 327.254 137.145C322.66 137.144 318.148 135.935 314.17 133.638C310.192 131.342 306.888 128.038 304.592 124.06C302.295 120.082 301.086 115.569 301.086 110.975V110.938Z" fill="white"/>
<path d="M327.254 91.5833V84.7516C333.033 84.7295 338.657 86.6209 343.247 90.1308C347.838 93.6407 351.138 98.5715 352.632 104.154C354.126 109.736 353.73 115.656 351.506 120.99C349.282 126.324 345.355 130.771 340.338 133.639L336.927 127.723C340.643 125.608 343.552 122.32 345.201 118.375C346.85 114.43 347.144 110.05 346.039 105.92C344.933 101.79 342.49 98.1421 339.091 95.5481C335.692 92.9541 331.53 91.5598 327.254 91.5833Z" fill="#407BFF"/>
<path opacity="0.7" d="M327.254 91.5833V84.7516C333.033 84.7295 338.657 86.6209 343.247 90.1308C347.838 93.6407 351.138 98.5715 352.632 104.154C354.126 109.736 353.73 115.656 351.506 120.99C349.282 126.324 345.355 130.771 340.338 133.639L336.927 127.723C340.643 125.608 343.552 122.32 345.201 118.375C346.85 114.43 347.144 110.05 346.039 105.92C344.933 101.79 342.49 98.1421 339.091 95.5481C335.692 92.9541 331.53 91.5598 327.254 91.5833Z" fill="black"/>
<path d="M302.684 46.7242H278.844C277.993 46.7242 277.178 47.0619 276.577 47.663C275.976 48.2642 275.638 49.0795 275.638 49.9297V94.0132C275.645 94.8585 275.986 95.6666 276.587 96.2617C277.187 96.8568 277.998 97.1907 278.844 97.1907H309.357C310.206 97.1882 311.019 96.8494 311.618 96.2485C312.217 95.6476 312.553 94.8337 312.553 93.9851V56.6025L302.684 46.7242Z" fill="#263238"/>
<path d="M301.282 92.8076H281.46C281.089 92.8076 280.732 92.6599 280.469 92.397C280.206 92.1341 280.058 91.7775 280.058 91.4057C280.061 91.0355 280.21 90.6814 280.472 90.4205C280.735 90.1596 281.09 90.0132 281.46 90.0132H301.292C301.662 90.0132 302.017 90.1596 302.28 90.4205C302.542 90.6814 302.691 91.0355 302.694 91.4057C302.691 91.7784 302.541 92.1349 302.277 92.3975C302.013 92.6602 301.655 92.8076 301.282 92.8076Z" fill="#407BFF"/>
<path d="M291.937 53.9483H281.46C281.09 53.9484 280.735 53.8019 280.472 53.5411C280.21 53.2802 280.061 52.926 280.058 52.5558C280.058 52.184 280.206 51.8275 280.469 51.5646C280.732 51.3017 281.089 51.154 281.46 51.154H291.946C292.318 51.154 292.675 51.3017 292.937 51.5646C293.2 51.8275 293.348 52.184 293.348 52.5558C293.347 52.7399 293.309 52.922 293.238 53.0916C293.166 53.2612 293.062 53.4151 292.931 53.5444C292.8 53.6737 292.645 53.7759 292.474 53.8452C292.303 53.9145 292.121 53.9496 291.937 53.9483Z" fill="#407BFF"/>
<path d="M298.787 59.4996H281.46C281.09 59.4996 280.735 59.3532 280.472 59.0924C280.21 58.8315 280.061 58.4773 280.058 58.1071C280.058 57.7353 280.206 57.3788 280.469 57.1159C280.732 56.853 281.089 56.7053 281.46 56.7053H298.796C299.167 56.7078 299.521 56.8565 299.782 57.1192C300.043 57.3818 300.189 57.737 300.189 58.1071C300.189 58.2908 300.153 58.4726 300.082 58.6422C300.012 58.8118 299.908 58.9657 299.778 59.0951C299.648 59.2245 299.493 59.3269 299.323 59.3963C299.153 59.4658 298.971 59.5009 298.787 59.4996Z" fill="#407BFF"/>
<path d="M306.75 65.0509H281.46C281.09 65.051 280.735 64.9045 280.472 64.6437C280.21 64.3828 280.061 64.0286 280.058 63.6584C280.058 63.2867 280.206 62.9301 280.469 62.6672C280.732 62.4043 281.089 62.2566 281.46 62.2566H306.759C307.131 62.2566 307.487 62.4043 307.75 62.6672C308.013 62.9301 308.161 63.2867 308.161 63.6584C308.16 63.8425 308.122 64.0246 308.051 64.1942C307.979 64.3638 307.875 64.5177 307.744 64.647C307.613 64.7763 307.457 64.8785 307.287 64.9478C307.116 65.0171 306.934 65.0522 306.75 65.0509Z" fill="#407BFF"/>
<path d="M306.75 70.6022H292.04C291.669 70.6022 291.314 70.4558 291.052 70.1949C290.789 69.9341 290.64 69.5799 290.638 69.2097C290.638 68.8379 290.785 68.4814 291.048 68.2185C291.311 67.9556 291.668 67.8079 292.04 67.8079H306.75C307.121 67.8079 307.478 67.9556 307.741 68.2185C308.004 68.4814 308.152 68.8379 308.152 69.2097C308.149 69.5799 308 69.9341 307.738 70.1949C307.475 70.4558 307.12 70.6022 306.75 70.6022Z" fill="#407BFF"/>
<path d="M285.292 70.6022H281.46C281.09 70.6022 280.735 70.4558 280.472 70.1949C280.21 69.9341 280.061 69.5799 280.058 69.2097C280.058 68.8379 280.206 68.4814 280.469 68.2185C280.732 67.9556 281.089 67.8079 281.46 67.8079H285.301C285.673 67.8079 286.03 67.9556 286.293 68.2185C286.556 68.4814 286.703 68.8379 286.703 69.2097C286.702 69.3938 286.665 69.5759 286.593 69.7455C286.521 69.9151 286.417 70.0689 286.286 70.1982C286.155 70.3275 286 70.4298 285.829 70.4991C285.659 70.5684 285.476 70.6035 285.292 70.6022Z" fill="#407BFF"/>
<path d="M306.75 76.1536H281.46C281.089 76.1536 280.732 76.0059 280.469 75.743C280.206 75.4801 280.058 75.1235 280.058 74.7517C280.061 74.3816 280.21 74.0274 280.472 73.7665C280.735 73.5056 281.09 73.3592 281.46 73.3592H306.759C307.129 73.3592 307.484 73.5056 307.747 73.7665C308.01 74.0274 308.158 74.3816 308.161 74.7517C308.161 74.9366 308.124 75.1197 308.053 75.2904C307.982 75.4611 307.878 75.616 307.747 75.7463C307.616 75.8766 307.46 75.9797 307.289 76.0496C307.118 76.1195 306.935 76.1548 306.75 76.1536Z" fill="#407BFF"/>
<path d="M296.983 81.705H281.46C281.089 81.705 280.732 81.5573 280.469 81.2944C280.206 81.0315 280.058 80.6749 280.058 80.3031C280.061 79.9329 280.21 79.5788 280.472 79.3179C280.735 79.057 281.09 78.9106 281.46 78.9106H296.993C297.363 78.9106 297.718 79.057 297.981 79.3179C298.243 79.5788 298.392 79.9329 298.395 80.3031C298.395 80.488 298.358 80.6711 298.287 80.8417C298.216 81.0124 298.112 81.1674 297.981 81.2977C297.85 81.428 297.694 81.531 297.523 81.6009C297.352 81.6708 297.168 81.7062 296.983 81.705Z" fill="#407BFF"/>
<path d="M306.75 81.705H302.6C302.23 81.7025 301.876 81.5537 301.615 81.2911C301.354 81.0284 301.208 80.6733 301.208 80.3031C301.208 79.9338 301.354 79.5796 301.616 79.3185C301.877 79.0573 302.231 78.9106 302.6 78.9106H306.75C307.12 78.9106 307.475 79.057 307.738 79.3179C308 79.5788 308.149 79.9329 308.152 80.3031C308.152 80.6749 308.004 81.0315 307.741 81.2944C307.478 81.5573 307.121 81.705 306.75 81.705Z" fill="#407BFF"/>
<path d="M306.75 87.2562H281.46C281.089 87.2562 280.732 87.1085 280.469 86.8456C280.206 86.5827 280.058 86.2262 280.058 85.8544C280.061 85.4842 280.21 85.13 280.472 84.8692C280.735 84.6083 281.09 84.4619 281.46 84.4619H306.759C307.129 84.4619 307.484 84.6083 307.747 84.8692C308.01 85.13 308.158 85.4842 308.161 85.8544C308.161 86.0393 308.124 86.2223 308.053 86.393C307.982 86.5637 307.878 86.7187 307.747 86.8489C307.616 86.9792 307.46 87.0823 307.289 87.1522C307.118 87.2221 306.935 87.2575 306.75 87.2562Z" fill="#407BFF"/>
<g opacity="0.5">
<path d="M301.282 92.8076H281.46C281.089 92.8076 280.732 92.6599 280.469 92.397C280.206 92.1341 280.058 91.7775 280.058 91.4057C280.061 91.0355 280.21 90.6814 280.472 90.4205C280.735 90.1596 281.09 90.0132 281.46 90.0132H301.292C301.662 90.0132 302.017 90.1596 302.28 90.4205C302.542 90.6814 302.691 91.0355 302.694 91.4057C302.691 91.7784 302.541 92.1349 302.277 92.3975C302.013 92.6602 301.655 92.8076 301.282 92.8076Z" fill="white"/>
</g>
<g opacity="0.5">
<path d="M291.937 53.9484H281.46C281.09 53.9484 280.735 53.802 280.472 53.5411C280.21 53.2802 280.061 52.926 280.058 52.5559C280.058 52.1841 280.206 51.8275 280.469 51.5646C280.732 51.3017 281.089 51.154 281.46 51.154H291.946C292.318 51.154 292.675 51.3017 292.937 51.5646C293.2 51.8275 293.348 52.1841 293.348 52.5559C293.347 52.74 293.309 52.922 293.238 53.0916C293.166 53.2612 293.062 53.4151 292.931 53.5444C292.8 53.6737 292.645 53.7759 292.474 53.8452C292.303 53.9146 292.121 53.9496 291.937 53.9484Z" fill="white"/>
</g>
<g opacity="0.5">
<path d="M298.787 59.4996H281.46C281.09 59.4996 280.735 59.3532 280.472 59.0924C280.21 58.8315 280.061 58.4773 280.058 58.1071C280.058 57.7353 280.206 57.3788 280.469 57.1159C280.732 56.853 281.089 56.7053 281.46 56.7053H298.796C299.167 56.7078 299.521 56.8565 299.782 57.1192C300.043 57.3818 300.189 57.737 300.189 58.1071C300.189 58.2908 300.153 58.4726 300.082 58.6422C300.012 58.8118 299.908 58.9657 299.778 59.0951C299.648 59.2245 299.493 59.3269 299.323 59.3963C299.153 59.4658 298.971 59.5009 298.787 59.4996Z" fill="white"/>
</g>
<g opacity="0.5">
<path d="M306.75 65.0509H281.46C281.09 65.0509 280.735 64.9045 280.472 64.6436C280.21 64.3828 280.061 64.0286 280.058 63.6584C280.058 63.2866 280.206 62.9301 280.469 62.6672C280.732 62.4043 281.089 62.2566 281.46 62.2566H306.759C307.131 62.2566 307.487 62.4043 307.75 62.6672C308.013 62.9301 308.161 63.2866 308.161 63.6584C308.16 63.8425 308.122 64.0246 308.051 64.1942C307.979 64.3638 307.875 64.5176 307.744 64.6469C307.613 64.7762 307.457 64.8785 307.287 64.9478C307.116 65.0171 306.934 65.0521 306.75 65.0509Z" fill="white"/>
</g>
<g opacity="0.5">
<path d="M306.75 70.6022H292.04C291.669 70.6022 291.314 70.4558 291.052 70.1949C290.789 69.9341 290.64 69.5799 290.638 69.2097C290.638 68.8379 290.785 68.4814 291.048 68.2185C291.311 67.9556 291.668 67.8079 292.04 67.8079H306.75C307.121 67.8079 307.478 67.9556 307.741 68.2185C308.004 68.4814 308.152 68.8379 308.152 69.2097C308.149 69.5799 308 69.9341 307.738 70.1949C307.475 70.4558 307.12 70.6022 306.75 70.6022Z" fill="white"/>
</g>
<g opacity="0.5">
<path d="M285.292 70.6022H281.46C281.09 70.6022 280.735 70.4558 280.472 70.1949C280.21 69.9341 280.061 69.5799 280.058 69.2097C280.058 68.8379 280.206 68.4814 280.469 68.2185C280.732 67.9556 281.089 67.8079 281.46 67.8079H285.301C285.673 67.8079 286.03 67.9556 286.293 68.2185C286.556 68.4814 286.703 68.8379 286.703 69.2097C286.702 69.3938 286.665 69.5759 286.593 69.7455C286.521 69.9151 286.417 70.0689 286.286 70.1982C286.155 70.3275 286 70.4298 285.829 70.4991C285.659 70.5684 285.476 70.6035 285.292 70.6022Z" fill="white"/>
</g>
<g opacity="0.5">
<path d="M306.75 76.1536H281.46C281.089 76.1536 280.732 76.0059 280.469 75.743C280.206 75.4801 280.058 75.1235 280.058 74.7517C280.061 74.3816 280.21 74.0274 280.472 73.7665C280.735 73.5056 281.09 73.3592 281.46 73.3592H306.759C307.129 73.3592 307.484 73.5056 307.747 73.7665C308.01 74.0274 308.158 74.3816 308.161 74.7517C308.161 74.9366 308.124 75.1197 308.053 75.2904C307.982 75.4611 307.878 75.616 307.747 75.7463C307.616 75.8766 307.46 75.9797 307.289 76.0496C307.118 76.1195 306.935 76.1548 306.75 76.1536Z" fill="white"/>
</g>
<g opacity="0.5">
<path d="M296.983 81.7049H281.46C281.089 81.7049 280.732 81.5572 280.469 81.2943C280.206 81.0314 280.058 80.6749 280.058 80.3031C280.061 79.9329 280.21 79.5787 280.472 79.3179C280.735 79.057 281.09 78.9106 281.46 78.9106H296.993C297.363 78.9106 297.718 79.057 297.981 79.3179C298.243 79.5787 298.392 79.9329 298.395 80.3031C298.395 80.488 298.358 80.671 298.287 80.8417C298.216 81.0124 298.112 81.1674 297.981 81.2977C297.85 81.428 297.694 81.531 297.523 81.6009C297.352 81.6708 297.168 81.7062 296.983 81.7049Z" fill="white"/>
</g>
<g opacity="0.5">
<path d="M306.75 81.7049H302.6C302.23 81.7025 301.876 81.5537 301.615 81.291C301.354 81.0284 301.208 80.6733 301.208 80.3031C301.208 79.9338 301.354 79.5796 301.616 79.3184C301.877 79.0573 302.231 78.9106 302.6 78.9106H306.75C307.12 78.9106 307.475 79.057 307.738 79.3179C308 79.5787 308.149 79.9329 308.152 80.3031C308.152 80.6749 308.004 81.0314 307.741 81.2943C307.478 81.5572 307.121 81.7049 306.75 81.7049Z" fill="white"/>
</g>
<g opacity="0.5">
<path d="M306.75 87.2562H281.46C281.089 87.2562 280.732 87.1085 280.469 86.8456C280.206 86.5827 280.058 86.2262 280.058 85.8544C280.061 85.4842 280.21 85.13 280.472 84.8692C280.735 84.6083 281.09 84.4619 281.46 84.4619H306.759C307.129 84.4619 307.484 84.6083 307.747 84.8692C308.01 85.13 308.158 85.4842 308.161 85.8544C308.161 86.0393 308.124 86.2223 308.053 86.393C307.982 86.5637 307.878 86.7187 307.747 86.8489C307.616 86.9792 307.46 87.0823 307.289 87.1522C307.118 87.2221 306.935 87.2575 306.75 87.2562Z" fill="white"/>
</g>
<path d="M302.684 46.7242V53.3969C302.683 53.8183 302.765 54.2356 302.926 54.6251C303.086 55.0146 303.323 55.3685 303.62 55.6664C303.918 55.9643 304.272 56.2004 304.662 56.361C305.051 56.5217 305.469 56.6037 305.89 56.6025H312.553L302.684 46.7242Z" fill="#407BFF"/>
<path opacity="0.5" d="M302.684 46.7242V53.3969C302.683 53.8183 302.765 54.2356 302.926 54.6251C303.086 55.0146 303.323 55.3685 303.62 55.6664C303.918 55.9643 304.272 56.2004 304.662 56.361C305.051 56.5217 305.469 56.6037 305.89 56.6025H312.553L302.684 46.7242Z" fill="white"/>
</svg>
