<svg xmlns="http://www.w3.org/2000/svg" id="Capa_1" viewBox="0 0 1080 1080"><defs><style>.cls-1{fill:#1a1a1a;stroke-width:0}</style></defs><path d="M445.29 611.65c-10.24 0-19.58-2.64-28-7.91-8.42-5.27-15.14-12.34-20.15-21.21-5.01-8.87-7.51-18.68-7.51-29.45 0-8.16 1.45-15.79 4.34-22.88 2.89-7.09 6.88-13.32 11.97-18.7 5.08-5.38 11-9.59 17.76-12.64 6.75-3.04 13.95-4.56 21.6-4.56 10.24 0 19.57 2.63 28 7.9 8.42 5.27 15.14 12.36 20.15 21.26 5.01 8.91 7.51 18.78 7.51 29.61 0 8.09-1.45 15.66-4.34 22.71-2.89 7.05-6.89 13.27-11.97 18.65a55.99 55.99 0 0 1-17.7 12.64c-6.72 3.04-13.94 4.56-21.65 4.56Zm0-33.4c4.23 0 8.03-1.15 11.41-3.45 3.38-2.3 6.03-5.36 7.96-9.18 1.93-3.82 2.89-8 2.89-12.52s-1.02-8.94-3.06-12.8c-2.04-3.86-4.75-6.92-8.13-9.18-3.38-2.26-7.07-3.4-11.08-3.4s-7.92 1.17-11.3 3.51c-3.38 2.34-6.05 5.44-8.02 9.3-1.97 3.86-2.95 8.05-2.95 12.58 0 4.75 1.02 9.02 3.06 12.8 2.04 3.78 4.75 6.79 8.13 9.02 3.38 2.23 7.07 3.34 11.08 3.34ZM598.7 497.43h33.4v111.33h-23.37c-5.84 0-10.8-4.25-11.7-10.02-2.75 3.86-6.22 6.98-10.41 9.35-4.19 2.37-9.07 3.56-14.64 3.56-8.31 0-16.09-1.56-23.32-4.68-7.24-3.12-13.6-7.44-19.09-12.97s-9.78-11.91-12.86-19.15c-3.08-7.24-4.62-15.01-4.62-23.32s1.45-15.36 4.34-22.27c2.89-6.9 6.96-12.97 12.19-18.2 5.23-5.23 11.28-9.33 18.15-12.3 6.86-2.97 14.23-4.45 22.1-4.45 6.38 0 12.19 1.32 17.42 3.95 5.23 2.63 9.89 5.92 13.97 9.85l-1.56-10.69Zm-27.61 82.16c4.6 0 8.79-1.19 12.58-3.56 3.78-2.38 6.79-5.57 9.02-9.57 2.23-4.01 3.34-8.46 3.34-13.36s-1.11-9.35-3.34-13.36c-2.23-4.01-5.23-7.2-9.02-9.57-3.79-2.37-7.98-3.56-12.58-3.56s-8.78 1.19-12.52 3.56c-3.75 2.38-6.72 5.57-8.91 9.57-2.19 4.01-3.28 8.46-3.28 13.36s1.11 9.35 3.34 13.36c2.23 4.01 5.21 7.2 8.96 9.57 3.75 2.38 7.89 3.56 12.41 3.56ZM654.36 575.36V441.77c18.45 0 33.4 14.95 33.4 33.4v133.59c-18.45 0-33.4-14.95-33.4-33.4ZM792.18 497.43h33.4v111.33h-23.37c-5.84 0-10.8-4.25-11.7-10.02-2.75 3.86-6.22 6.98-10.41 9.35-4.19 2.37-9.07 3.56-14.64 3.56-8.31 0-16.09-1.56-23.32-4.68-7.24-3.12-13.6-7.44-19.09-12.97s-9.78-11.91-12.86-19.15c-3.08-7.24-4.62-15.01-4.62-23.32s1.45-15.36 4.34-22.27c2.89-6.9 6.96-12.97 12.19-18.2 5.23-5.23 11.28-9.33 18.15-12.3 6.86-2.97 14.23-4.45 22.1-4.45 6.38 0 12.19 1.32 17.42 3.95 5.23 2.63 9.89 5.92 13.97 9.85l-1.56-10.69Zm-27.61 82.16c4.6 0 8.79-1.19 12.58-3.56 3.78-2.38 6.79-5.57 9.02-9.57 2.23-4.01 3.34-8.46 3.34-13.36s-1.11-9.35-3.34-13.36c-2.23-4.01-5.23-7.2-9.02-9.57-3.79-2.37-7.98-3.56-12.58-3.56s-8.78 1.19-12.52 3.56c-3.75 2.38-6.72 5.57-8.91 9.57-2.19 4.01-3.28 8.46-3.28 13.36s1.11 9.35 3.34 13.36c2.23 4.01 5.21 7.2 8.96 9.57 3.75 2.38 7.89 3.56 12.41 3.56ZM330.71 541.7l-28.06 30.95 35.32 36.15h62.82l-68.5-68.74-1.58 1.64zM257.3 541.79l-2.33-2.5v69.51h39.64v-27.56l-37.31-39.45zM411.32 406.19 347 415.81l15.8 14.4-68.19 71.61-39.64-40.51v62.11l8.31 8.88 31.33 33.13.48-.53 29.51-32.55 67.91-75.06 15.16 13.83 3.65-64.93zM268.98 664.82c-1.79 0-3.48-.36-5.06-1.07-1.58-.71-2.97-1.7-4.16-2.96a14.04 14.04 0 0 1-2.81-4.39c-.68-1.67-1.01-3.45-1.01-5.35s.34-3.68 1.01-5.35c.68-1.67 1.61-3.13 2.81-4.39a13.17 13.17 0 0 1 4.16-2.96c1.58-.71 3.27-1.07 5.06-1.07 2.15 0 4.13.5 5.93 1.5s3.3 2.33 4.49 3.98l-2.35 1.27c-.94-1.25-2.12-2.25-3.55-2.99s-2.94-1.11-4.52-1.11c-1.45 0-2.81.29-4.07.88-1.26.59-2.36 1.39-3.31 2.42s-1.69 2.21-2.22 3.54-.8 2.76-.8 4.26.27 2.96.81 4.3c.54 1.34 1.28 2.52 2.24 3.54s2.06 1.82 3.32 2.4 2.6.86 4.03.86c1.64 0 3.17-.38 4.58-1.13 1.41-.75 2.57-1.73 3.5-2.95l2.35 1.27c-1.19 1.66-2.69 2.98-4.49 3.97s-3.78 1.49-5.93 1.49ZM333.48 664.82c-1.79 0-3.48-.36-5.06-1.07s-2.97-1.7-4.17-2.97c-1.2-1.26-2.14-2.73-2.82-4.39-.68-1.66-1.02-3.44-1.02-5.34s.34-3.67 1.02-5.34c.68-1.66 1.62-3.12 2.82-4.39 1.2-1.26 2.59-2.25 4.17-2.97s3.27-1.07 5.06-1.07 3.5.36 5.08 1.07 2.97 1.7 4.17 2.97 2.14 2.73 2.81 4.39c.68 1.66 1.01 3.44 1.01 5.34s-.34 3.67-1.01 5.34c-.68 1.66-1.61 3.12-2.81 4.39-1.2 1.26-2.59 2.25-4.17 2.97s-3.27 1.07-5.08 1.07Zm0-2.65c1.45 0 2.81-.29 4.07-.88a10.67 10.67 0 0 0 3.32-2.42c.95-1.02 1.7-2.21 2.24-3.54.54-1.34.81-2.76.81-4.26s-.27-2.95-.81-4.29c-.54-1.35-1.29-2.53-2.25-3.54-.95-1.02-2.06-1.82-3.32-2.4s-2.61-.87-4.05-.87-2.81.29-4.07.88c-1.26.59-2.36 1.39-3.32 2.42s-1.7 2.21-2.24 3.54-.81 2.76-.81 4.26.27 2.96.82 4.3c.54 1.34 1.29 2.52 2.25 3.54.95 1.02 2.06 1.82 3.32 2.4s2.61.86 4.05.86ZM388.32 664.33v-26.54h2.88l14.01 21.74v-21.74h2.65v26.54H405l-14.03-21.74v21.74h-2.65ZM459.59 664.82c-1.42 0-2.78-.22-4.1-.66-1.32-.44-2.47-1.07-3.46-1.9-.99-.82-1.68-1.8-2.08-2.94l2.48-.93c.28.78.79 1.46 1.53 2.02s1.6 1 2.6 1.3c.99.3 2.01.46 3.04.46 1.21 0 2.34-.2 3.39-.61s1.9-.97 2.54-1.7.97-1.58.97-2.57-.33-1.82-1-2.46-1.53-1.15-2.59-1.53c-1.06-.37-2.16-.66-3.31-.86-1.81-.32-3.43-.75-4.86-1.29-1.43-.54-2.57-1.31-3.4-2.3s-1.25-2.3-1.25-3.93c0-1.53.44-2.86 1.33-3.98.88-1.12 2.05-2 3.5-2.62s3.01-.93 4.69-.93c1.38 0 2.72.21 4.04.64 1.31.43 2.47 1.06 3.48 1.88 1 .82 1.73 1.83 2.17 3.01l-2.52.91c-.28-.8-.79-1.48-1.53-2.04s-1.6-.99-2.59-1.29c-.99-.3-2-.45-3.05-.45-1.2-.01-2.32.19-3.36.6s-1.89.98-2.53 1.71-.97 1.58-.97 2.55c0 1.14.3 2.01.9 2.63.6.61 1.42 1.07 2.46 1.37 1.04.3 2.2.58 3.51.81 1.69.29 3.27.74 4.72 1.36 1.45.61 2.62 1.43 3.51 2.45.88 1.02 1.33 2.27 1.33 3.76s-.44 2.84-1.33 3.97c-.88 1.13-2.05 2.01-3.5 2.63-1.45.62-3.02.93-4.73.93ZM521.65 664.82c-2.12 0-3.96-.52-5.5-1.55-1.54-1.04-2.73-2.43-3.55-4.18-.83-1.75-1.24-3.69-1.24-5.83v-15.47h2.65v15.47c0 1.62.3 3.1.89 4.45.59 1.35 1.46 2.43 2.6 3.24s2.52 1.21 4.15 1.21 3.07-.41 4.2-1.22c1.13-.81 1.99-1.9 2.57-3.25.58-1.35.87-2.83.87-4.44v-15.47h2.65v15.47c0 1.6-.24 3.11-.71 4.5-.47 1.4-1.16 2.63-2.05 3.69-.89 1.06-1.97 1.89-3.24 2.48s-2.7.89-4.29.89ZM574.21 664.33v-26.54h2.65v23.88h12.19v2.65h-14.84ZM648.36 637.79v2.65h-9.1v23.88h-2.65v-23.88h-9.08v-2.65h20.83ZM690.63 664.33v-26.54h2.65v26.54h-2.65ZM736.31 664.33v-26.54h2.88l14.01 21.74v-21.74h2.65v26.54h-2.86l-14.03-21.74v21.74h-2.65ZM810.61 664.82c-1.82 0-3.52-.36-5.11-1.07s-2.97-1.71-4.16-2.98a14.084 14.084 0 0 1-2.79-4.4c-.67-1.66-1-3.44-1-5.34s.35-3.73 1.04-5.4c.7-1.67 1.65-3.12 2.86-4.37s2.61-2.21 4.18-2.91c1.57-.69 3.24-1.04 5.01-1.04 2.03 0 3.96.47 5.77 1.42 1.81.95 3.35 2.29 4.62 4.04l-2.37 1.29c-1.01-1.33-2.23-2.34-3.65-3.05s-2.88-1.06-4.39-1.06-2.77.29-4.03.86c-1.26.58-2.37 1.37-3.33 2.4a11.57 11.57 0 0 0-2.26 3.54c-.54 1.34-.82 2.78-.82 4.32s.27 2.96.82 4.3c.54 1.34 1.29 2.52 2.25 3.53.95 1.02 2.06 1.81 3.33 2.39s2.62.86 4.06.86c1.19 0 2.32-.21 3.38-.62 1.07-.41 2.04-.99 2.93-1.73.88-.75 1.63-1.62 2.25-2.62.61-1 1.06-2.08 1.34-3.26h-7.17v-2.41h10.25c-.04 1.83-.4 3.55-1.1 5.16s-1.64 3.02-2.83 4.24-2.57 2.17-4.11 2.86-3.21 1.03-4.98 1.03Z" class="cls-1"/></svg>