<?xml version="1.0" encoding="utf-8"?>
<!-- Generator: Adobe Illustrator 27.1.0, SVG Export Plug-In . SVG Version: 6.00 Build 0)  -->
<svg version="1.1" id="Capa_1" xmlns="http://www.w3.org/2000/svg" xmlns:xlink="http://www.w3.org/1999/xlink" x="0px" y="0px"
	 viewBox="0 0 574.6 261.9" style="enable-background:new 0 0 574.6 261.9;" xml:space="preserve">
<style type="text/css">
	.st0{fill:#0281DE;}
	.st1{fill:#38C6B8;}
	.st2{fill:#4D4D4D;}
</style>
<path class="st0" d="M192.1,207.4c-10.2,0-19.6-2.6-28-7.9c-8.4-5.3-15.1-12.3-20.1-21.2c-5-8.9-7.5-18.7-7.5-29.5
	c0-8.2,1.5-15.8,4.3-22.9c2.9-7.1,6.9-13.3,12-18.7c5.1-5.4,11-9.6,17.8-12.6c6.8-3,14-4.6,21.6-4.6c10.2,0,19.6,2.6,28,7.9
	c8.4,5.3,15.1,12.4,20.1,21.3c5,8.9,7.5,18.8,7.5,29.6c0,8.1-1.5,15.7-4.3,22.7c-2.9,7-6.9,13.3-12,18.7c-5,5.3-11,9.6-17.7,12.6
	C207.1,205.8,199.9,207.3,192.1,207.4L192.1,207.4z M192.1,174c4.2,0,8-1.2,11.4-3.5s6-5.4,8-9.2s2.9-8,2.9-12.5s-1-8.9-3.1-12.8
	s-4.8-6.9-8.1-9.2s-7.1-3.4-11.1-3.4s-7.9,1.2-11.3,3.5c-3.4,2.3-6,5.4-8,9.3s-3,8-3,12.6c0,4.8,1,9,3.1,12.8c2,3.8,4.8,6.8,8.1,9
	C184.4,172.9,188.1,174,192.1,174L192.1,174z M345.6,93.1H379v111.3h-23.4c-5.8,0-10.8-4.2-11.7-10c-2.8,3.9-6.2,7-10.4,9.3
	s-9.1,3.6-14.6,3.6c-8.3,0-16.1-1.6-23.3-4.7c-7.2-3.1-13.6-7.4-19.1-13s-9.8-11.9-12.9-19.2c-3.1-7.2-4.6-15-4.6-23.3
	s1.5-15.4,4.3-22.3c2.9-6.9,7-13,12.2-18.2c5.2-5.2,11.3-9.3,18.2-12.3c6.9-3,14.2-4.5,22.1-4.5c6.4,0,12.2,1.3,17.4,4
	s9.9,5.9,14,9.9L345.6,93.1L345.6,93.1z M317.9,175.3c4.6,0,8.8-1.2,12.6-3.6c3.8-2.4,6.8-5.6,9-9.6c2.2-4,3.3-8.5,3.3-13.4
	s-1.1-9.3-3.3-13.4c-2.2-4-5.2-7.2-9-9.6c-3.8-2.4-8-3.6-12.6-3.6s-8.8,1.2-12.5,3.6c-3.8,2.4-6.7,5.6-8.9,9.6
	c-2.2,4-3.3,8.5-3.3,13.4s1.1,9.3,3.3,13.4c2.2,4,5.2,7.2,9,9.6C309.3,174.1,313.4,175.3,317.9,175.3z M401.2,171.1V37.5
	c18.5,0,33.4,15,33.4,33.4v133.6C416.2,204.5,401.2,189.5,401.2,171.1z M539,93.1h33.4v111.3h-23.4c-5.8,0-10.8-4.2-11.7-10
	c-2.8,3.9-6.2,7-10.4,9.3s-9.1,3.6-14.6,3.6c-8.3,0-16.1-1.6-23.3-4.7c-7.2-3.1-13.6-7.4-19.1-13s-9.8-11.9-12.9-19.2
	c-3.1-7.2-4.6-15-4.6-23.3s1.5-15.4,4.3-22.3c2.9-6.9,7-13,12.2-18.2c5.2-5.2,11.3-9.3,18.2-12.3c6.9-3,14.2-4.5,22.1-4.5
	c6.4,0,12.2,1.3,17.4,4s9.9,5.9,14,9.9L539,93.1L539,93.1z M511.4,175.3c4.6,0,8.8-1.2,12.6-3.6c3.8-2.4,6.8-5.6,9-9.6
	c2.2-4,3.3-8.5,3.3-13.4s-1.1-9.3-3.3-13.4c-2.2-4-5.2-7.2-9-9.6c-3.8-2.4-8-3.6-12.6-3.6c-4.6,0-8.8,1.2-12.5,3.6
	c-3.8,2.4-6.7,5.6-8.9,9.6c-2.2,4-3.3,8.5-3.3,13.4s1.1,9.3,3.3,13.4c2.2,4,5.2,7.2,9,9.6C502.8,174.1,506.9,175.3,511.4,175.3z
	 M77.6,137.4l-28.1,31l35.3,36.2h62.8l-68.5-68.7L77.6,137.4L77.6,137.4z M4.2,137.5L1.8,135v69.5h39.6v-27.6L4.2,137.5z"/>
<path class="st1" d="M158.2,1.9l-64.3,9.6l15.8,14.4L41.5,97.5L1.8,57v62.1l8.3,8.9l31.3,33.1l0.5-0.5l29.5-32.5L139.4,53l15.2,13.8
	L158.2,1.9L158.2,1.9z"/>
<path class="st2" d="M15.8,260.5c-1.8,0-3.5-0.4-5.1-1.1s-3-1.7-4.2-3c-1.2-1.3-2.2-2.8-2.8-4.4c-0.7-1.7-1-3.5-1-5.3s0.3-3.7,1-5.3
	c0.7-1.7,1.6-3.1,2.8-4.4c1.2-1.2,2.6-2.3,4.2-3c1.6-0.7,3.3-1.1,5.1-1.1c2.1,0,4.1,0.5,5.9,1.5s3.3,2.3,4.5,4l-2.4,1.3
	c-0.9-1.2-2.1-2.2-3.5-3s-2.9-1.1-4.5-1.1c-1.5,0-2.8,0.3-4.1,0.9s-2.4,1.4-3.3,2.4s-1.7,2.2-2.2,3.5s-0.8,2.8-0.8,4.3
	s0.3,3,0.8,4.3c0.5,1.3,1.3,2.5,2.2,3.5s2.1,1.8,3.3,2.4s2.6,0.9,4,0.9c1.6,0,3.2-0.4,4.6-1.1c1.4-0.8,2.6-1.7,3.5-3l2.4,1.3
	c-1.2,1.7-2.7,3-4.5,4S18,260.5,15.8,260.5L15.8,260.5z M80.3,260.5c-1.8,0-3.5-0.4-5.1-1.1s-3-1.7-4.2-3c-1.2-1.3-2.1-2.7-2.8-4.4
	c-0.7-1.7-1-3.4-1-5.3s0.3-3.7,1-5.3c0.7-1.7,1.6-3.1,2.8-4.4c1.2-1.3,2.6-2.2,4.2-3s3.3-1.1,5.1-1.1s3.5,0.4,5.1,1.1s3,1.7,4.2,3
	s2.1,2.7,2.8,4.4c0.7,1.7,1,3.4,1,5.3s-0.3,3.7-1,5.3c-0.7,1.7-1.6,3.1-2.8,4.4c-1.2,1.3-2.6,2.2-4.2,3S82.1,260.5,80.3,260.5z
	 M80.3,257.9c1.5,0,2.8-0.3,4.1-0.9c1.3-0.6,2.4-1.4,3.3-2.4c1-1,1.7-2.2,2.2-3.5c0.5-1.3,0.8-2.8,0.8-4.3s-0.3-3-0.8-4.3
	c-0.5-1.3-1.3-2.5-2.2-3.5c-1-1-2.1-1.8-3.3-2.4s-2.6-0.9-4-0.9s-2.8,0.3-4.1,0.9s-2.4,1.4-3.3,2.4s-1.7,2.2-2.2,3.5
	s-0.8,2.8-0.8,4.3s0.3,3,0.8,4.3c0.5,1.3,1.3,2.5,2.2,3.5c1,1,2.1,1.8,3.3,2.4S78.9,257.9,80.3,257.9L80.3,257.9z M135.2,260v-26.5
	h2.9l14,21.7v-21.7h2.6V260h-2.9l-14-21.7V260H135.2z M206.4,260.5c-1.4,0-2.8-0.2-4.1-0.7s-2.5-1.1-3.5-1.9c-1-0.8-1.7-1.8-2.1-2.9
	l2.5-0.9c0.3,0.8,0.8,1.5,1.5,2s1.6,1,2.6,1.3c1,0.3,2,0.5,3,0.5c1.2,0,2.3-0.2,3.4-0.6s1.9-1,2.5-1.7s1-1.6,1-2.6s-0.3-1.8-1-2.5
	s-1.5-1.2-2.6-1.5c-1.1-0.4-2.2-0.7-3.3-0.9c-1.8-0.3-3.4-0.8-4.9-1.3s-2.6-1.3-3.4-2.3s-1.2-2.3-1.2-3.9c0-1.5,0.4-2.9,1.3-4
	c0.9-1.1,2-2,3.5-2.6s3-0.9,4.7-0.9c1.4,0,2.7,0.2,4,0.6c1.3,0.4,2.5,1.1,3.5,1.9c1,0.8,1.7,1.8,2.2,3l-2.5,0.9
	c-0.3-0.8-0.8-1.5-1.5-2s-1.6-1-2.6-1.3s-2-0.5-3-0.5c-1.2,0-2.3,0.2-3.4,0.6s-1.9,1-2.5,1.7s-1,1.6-1,2.5c0,1.1,0.3,2,0.9,2.6
	c0.6,0.6,1.4,1.1,2.5,1.4c1,0.3,2.2,0.6,3.5,0.8c1.7,0.3,3.3,0.7,4.7,1.4c1.5,0.6,2.6,1.4,3.5,2.5c0.9,1,1.3,2.3,1.3,3.8
	s-0.4,2.8-1.3,4c-0.9,1.1-2,2-3.5,2.6S208.2,260.5,206.4,260.5L206.4,260.5z M268.5,260.5c-2.1,0-4-0.5-5.5-1.5
	c-1.5-1-2.7-2.4-3.5-4.2c-0.8-1.8-1.2-3.7-1.2-5.8v-15.5h2.7V249c0,1.6,0.3,3.1,0.9,4.5c0.6,1.3,1.5,2.4,2.6,3.2s2.5,1.2,4.2,1.2
	s3.1-0.4,4.2-1.2s2-1.9,2.6-3.2s0.9-2.8,0.9-4.4v-15.5h2.7V249c0,1.6-0.2,3.1-0.7,4.5c-0.5,1.4-1.2,2.6-2,3.7s-2,1.9-3.2,2.5
	S270.1,260.5,268.5,260.5L268.5,260.5z M321.1,260v-26.5h2.7v23.9h12.2v2.7L321.1,260L321.1,260z M395.2,233.5v2.7h-9.1V260h-2.7
	v-23.9h-9.1v-2.7H395.2z M437.5,260v-26.5h2.7V260H437.5z M483.2,260v-26.5h2.9l14,21.7v-21.7h2.7V260h-2.9l-14-21.7V260H483.2z
	 M557.5,260.5c-1.8,0-3.5-0.4-5.1-1.1s-3-1.7-4.2-3c-1.2-1.3-2.1-2.8-2.8-4.4c-0.7-1.7-1-3.4-1-5.3s0.3-3.7,1-5.4
	c0.7-1.7,1.7-3.1,2.9-4.4s2.6-2.2,4.2-2.9c1.6-0.7,3.2-1,5-1c2,0,4,0.5,5.8,1.4s3.3,2.3,4.6,4l-2.4,1.3c-1-1.3-2.2-2.3-3.7-3
	s-2.9-1.1-4.4-1.1s-2.8,0.3-4,0.9c-1.3,0.6-2.4,1.4-3.3,2.4c-1,1-1.7,2.2-2.3,3.5c-0.5,1.3-0.8,2.8-0.8,4.3s0.3,3,0.8,4.3
	c0.5,1.3,1.3,2.5,2.2,3.5c1,1,2.1,1.8,3.3,2.4s2.6,0.9,4.1,0.9c1.2,0,2.3-0.2,3.4-0.6c1.1-0.4,2-1,2.9-1.7c0.9-0.8,1.6-1.6,2.2-2.6
	c0.6-1,1.1-2.1,1.3-3.3h-7.2v-2.4h10.2c0,1.8-0.4,3.5-1.1,5.2s-1.6,3-2.8,4.2s-2.6,2.2-4.1,2.9S559.2,260.5,557.5,260.5L557.5,260.5
	z"/>
</svg>
