<svg xmlns="http://www.w3.org/2000/svg" id="Capa_1" viewBox="0 0 1080 1080"><defs><style>.cls-2{stroke-width:0;fill:#0281de}</style></defs><path d="M445.29 611.65c-10.24 0-19.58-2.64-28-7.91-8.42-5.27-15.14-12.34-20.15-21.21-5.01-8.87-7.51-18.68-7.51-29.45 0-8.16 1.45-15.79 4.34-22.88 2.89-7.09 6.88-13.32 11.97-18.7 5.08-5.38 11-9.59 17.76-12.64 6.75-3.04 13.95-4.56 21.6-4.56 10.24 0 19.57 2.63 28 7.9 8.42 5.27 15.14 12.36 20.15 21.26 5.01 8.91 7.51 18.78 7.51 29.61 0 8.09-1.45 15.66-4.34 22.71-2.89 7.05-6.89 13.27-11.97 18.65a55.99 55.99 0 0 1-17.7 12.64c-6.72 3.04-13.94 4.56-21.65 4.56Zm0-33.4c4.23 0 8.03-1.15 11.41-3.45 3.38-2.3 6.03-5.36 7.96-9.18 1.93-3.82 2.89-8 2.89-12.52s-1.02-8.94-3.06-12.8c-2.04-3.86-4.75-6.92-8.13-9.18-3.38-2.26-7.07-3.4-11.08-3.4s-7.92 1.17-11.3 3.51c-3.38 2.34-6.05 5.44-8.02 9.3-1.97 3.86-2.95 8.05-2.95 12.58 0 4.75 1.02 9.02 3.06 12.8 2.04 3.78 4.75 6.79 8.13 9.02 3.38 2.23 7.07 3.34 11.08 3.34ZM598.7 497.43h33.4v111.33h-23.37c-5.84 0-10.8-4.25-11.7-10.02-2.75 3.86-6.22 6.98-10.41 9.35-4.19 2.37-9.07 3.56-14.64 3.56-8.31 0-16.09-1.56-23.32-4.68-7.24-3.12-13.6-7.44-19.09-12.97s-9.78-11.91-12.86-19.15c-3.08-7.24-4.62-15.01-4.62-23.32s1.45-15.36 4.34-22.27c2.89-6.9 6.96-12.97 12.19-18.2 5.23-5.23 11.28-9.33 18.15-12.3 6.86-2.97 14.23-4.45 22.1-4.45 6.38 0 12.19 1.32 17.42 3.95 5.23 2.63 9.89 5.92 13.97 9.85l-1.56-10.69Zm-27.61 82.16c4.6 0 8.79-1.19 12.58-3.56 3.78-2.38 6.79-5.57 9.02-9.57 2.23-4.01 3.34-8.46 3.34-13.36s-1.11-9.35-3.34-13.36c-2.23-4.01-5.23-7.2-9.02-9.57-3.79-2.37-7.98-3.56-12.58-3.56s-8.78 1.19-12.52 3.56c-3.75 2.38-6.72 5.57-8.91 9.57-2.19 4.01-3.28 8.46-3.28 13.36s1.11 9.35 3.34 13.36c2.23 4.01 5.21 7.2 8.96 9.57 3.75 2.38 7.89 3.56 12.41 3.56ZM654.36 575.36V441.77c18.45 0 33.4 14.95 33.4 33.4v133.59c-18.45 0-33.4-14.95-33.4-33.4ZM792.18 497.43h33.4v111.33h-23.37c-5.84 0-10.8-4.25-11.7-10.02-2.75 3.86-6.22 6.98-10.41 9.35-4.19 2.37-9.07 3.56-14.64 3.56-8.31 0-16.09-1.56-23.32-4.68-7.24-3.12-13.6-7.44-19.09-12.97s-9.78-11.91-12.86-19.15c-3.08-7.24-4.62-15.01-4.62-23.32s1.45-15.36 4.34-22.27c2.89-6.9 6.96-12.97 12.19-18.2 5.23-5.23 11.28-9.33 18.15-12.3 6.86-2.97 14.23-4.45 22.1-4.45 6.38 0 12.19 1.32 17.42 3.95 5.23 2.63 9.89 5.92 13.97 9.85l-1.56-10.69Zm-27.61 82.16c4.6 0 8.79-1.19 12.58-3.56 3.78-2.38 6.79-5.57 9.02-9.57 2.23-4.01 3.34-8.46 3.34-13.36s-1.11-9.35-3.34-13.36c-2.23-4.01-5.23-7.2-9.02-9.57-3.79-2.37-7.98-3.56-12.58-3.56s-8.78 1.19-12.52 3.56c-3.75 2.38-6.72 5.57-8.91 9.57-2.19 4.01-3.28 8.46-3.28 13.36s1.11 9.35 3.34 13.36c2.23 4.01 5.21 7.2 8.96 9.57 3.75 2.38 7.89 3.56 12.41 3.56ZM330.71 541.7l-28.06 30.95 35.32 36.15h62.82l-68.5-68.74-1.58 1.64zM257.3 541.79l-2.33-2.5v69.51h39.64v-27.56l-37.31-39.45z" class="cls-2"/><path d="M411.32 406.19 347 415.81l15.8 14.4-68.19 71.61-39.64-40.51v62.11l8.31 8.88 31.33 33.13.48-.53 29.51-32.55 67.91-75.06 15.16 13.83 3.65-64.93z" style="stroke-width:0;fill:#38c6b8"/></svg>