<svg width="36" height="36" viewBox="0 0 36 36" fill="none" xmlns="http://www.w3.org/2000/svg">
<path d="M34.3884 29.714L31.5004 30.3966C30.8527 30.5541 30.3451 31.0442 30.2051 31.6918L29.5925 34.2648C29.2599 35.6651 27.4746 36.1027 26.5469 35L21.3135 28.9788C20.8934 28.4887 21.1209 27.7186 21.751 27.5611C24.8491 26.8084 27.6321 25.0756 29.68 22.6076C30.0126 22.2051 30.6077 22.1526 30.9753 22.5201L34.861 26.4059C36.1912 27.7361 35.7186 29.3989 34.3884 29.714Z" fill="white"/>
<path d="M1.91803 29.714L4.80607 30.3966C5.45369 30.5541 5.96128 31.0442 6.10131 31.6918L6.71392 34.2648C7.04649 35.6651 8.83182 36.1027 9.75949 35L14.993 28.9788C15.4131 28.4887 15.1855 27.7186 14.5554 27.5611C11.4573 26.8084 8.67429 25.0756 6.62641 22.6076C6.29385 22.2051 5.69873 22.1526 5.33116 22.5201L1.44544 26.4059C0.115189 27.7361 0.587778 29.3989 1.91803 29.714Z" fill="white"/>
<path d="M18.1975 0.885864C11.4237 0.885864 5.94519 6.36439 5.94519 13.1382C5.94519 15.6761 6.69783 18.0041 7.99307 19.9469C9.88343 22.7475 12.8765 24.7253 16.3596 25.2329C16.9547 25.3379 17.5674 25.3904 18.1975 25.3904C18.8276 25.3904 19.4402 25.3379 20.0353 25.2329C23.5185 24.7253 26.5115 22.7475 28.4019 19.9469C29.6971 18.0041 30.4498 15.6761 30.4498 13.1382C30.4498 6.36439 24.9712 0.885864 18.1975 0.885864ZM23.5535 12.7531L22.1007 14.2059C21.8557 14.4509 21.7156 14.9235 21.8032 15.2736L22.2232 17.0764C22.5558 18.4942 21.8032 19.0543 20.5429 18.3016L18.7926 17.2689C18.4775 17.0764 17.9524 17.0764 17.6374 17.2689L15.887 18.3016C14.6268 19.0368 13.8742 18.4942 14.2067 17.0764L14.6268 15.2736C14.6968 14.941 14.5743 14.4509 14.3293 14.2059L12.8415 12.7531C11.9838 11.8954 12.2639 11.0378 13.4541 10.8452L15.3269 10.5302C15.642 10.4777 16.0096 10.1976 16.1496 9.91755L17.1823 7.85217C17.7424 6.73196 18.6526 6.73196 19.2127 7.85217L20.2454 9.91755C20.3854 10.1976 20.753 10.4777 21.0855 10.5302L22.9584 10.8452C24.1311 11.0378 24.4111 11.8954 23.5535 12.7531Z" fill="white"/>
</svg>
