<svg xmlns="http://www.w3.org/2000/svg" width="3232" height="2409" fill="none"><path fill="#E6E6E6" d="M3232 2116.72H0v1.62h3232v-1.62ZM2881.97 2172.63h-222.36v1.62h222.36v-1.62ZM1678.38 2172.63h-66.45v1.62h66.45v-1.62ZM2592.06 2204.44h-125.14v1.61h125.14v-1.61ZM747.433 2176.45h-279.18v1.61h279.18v-1.61ZM831.726 2153.44H718.348v1.61h113.378v-1.61ZM2064.22 2221.89h-605.55v1.61h605.55v-1.61ZM1531.97 1828.42H283.836a36.876 36.876 0 0 1-26.057-10.83 36.915 36.915 0 0 1-10.788-26.08V36.991A36.912 36.912 0 0 1 283.836.405H1531.97a36.907 36.907 0 0 1 36.91 36.91V1791.51c0 9.79-3.89 19.18-10.81 26.1a36.872 36.872 0 0 1-26.1 10.81ZM283.836 1.698a35.291 35.291 0 0 0-35.229 35.293V1791.51a35.29 35.29 0 0 0 35.229 35.3H1531.97a35.36 35.36 0 0 0 24.94-10.36 35.333 35.333 0 0 0 10.35-24.94V36.991a35.344 35.344 0 0 0-35.29-35.293H283.836ZM2930.2 1828.42H1682a36.962 36.962 0 0 1-26.08-10.82 36.995 36.995 0 0 1-10.83-26.09V36.991a36.959 36.959 0 0 1 10.94-25.871A36.98 36.98 0 0 1 1682 .405h1248.2a36.915 36.915 0 0 1 25.9 10.742 36.953 36.953 0 0 1 10.88 25.844V1791.51c0 9.77-3.87 19.14-10.77 26.06a36.87 36.87 0 0 1-26.01 10.85ZM1682 1.698a35.364 35.364 0 0 0-35.3 35.293V1791.51c.02 9.36 3.75 18.33 10.36 24.94a35.36 35.36 0 0 0 24.94 10.36h1248.2c9.35-.02 18.32-3.74 24.93-10.36a35.342 35.342 0 0 0 10.36-24.94V36.991a35.354 35.354 0 0 0-10.36-24.937 35.341 35.341 0 0 0-24.93-10.356H1682Z"/><path fill="#FAFAFA" d="M1320.47 2116.72h548.27c-53.71-202.58-21.52-420.74 96.45-623.32h-548.28c-118.03 202.58-149.96 420.74-96.44 623.32Z"/><path fill="#E6E6E6" d="M1301.79 1784.47h554.22a890.699 890.699 0 0 1 109.05-290.88H1410.9a891.722 891.722 0 0 0-109.11 290.88Z"/><path fill="#E6E6E6" d="M484.155 1707.81H2700.27c36.42 0 65.94-29.52 65.94-65.94V277.063c0-36.413-29.52-65.932-65.94-65.932H484.155c-36.414 0-65.933 29.519-65.933 65.932V1641.87c0 36.42 29.519 65.94 65.933 65.94Z"/><path fill="#F5F5F5" d="M515.248 1707.81H2731.37c36.41 0 65.93-29.52 65.93-65.94V277.063c0-36.413-29.52-65.932-65.93-65.932H515.248c-36.413 0-65.933 29.519-65.933 65.932V1641.87c0 36.42 29.52 65.94 65.933 65.94Z"/><path fill="#fff" d="M449.315 1493.46H2797.3V286.955H449.315V1493.46Z"/><path fill="#E6E6E6" d="M1623.37 1648.27c24.81 0 44.93-20.11 44.93-44.92 0-24.81-20.12-44.93-44.93-44.93s-44.92 20.12-44.92 44.93 20.11 44.92 44.92 44.92Z"/><path fill="#F5F5F5" d="M1422.08 2073.35h625.91c11.5 0 22.53 4.57 30.67 12.7a43.387 43.387 0 0 1 12.7 30.67h-712.52c0-11.48 4.55-22.49 12.65-30.62a43.333 43.333 0 0 1 30.59-12.75Z"/><path fill="#E6E6E6" d="M1273.41 2073.35h112.09c11.49.01 22.5 4.59 30.62 12.72a43.398 43.398 0 0 1 12.68 30.65h-199.09c.01-5.72 1.15-11.38 3.35-16.66a43.588 43.588 0 0 1 9.49-14.11c4.06-4.03 8.88-7.21 14.17-9.38a43.42 43.42 0 0 1 16.69-3.22ZM1839.01 114.494a36.583 36.583 0 0 0-10.72-25.806 36.565 36.565 0 0 0-25.8-10.716H664.822a36.652 36.652 0 0 0-36.521 36.522V232.01H1839.01V114.494Z"/><path fill="#fff" d="M1543.8 182.625c15.24 0 27.6-12.357 27.6-27.601s-12.36-27.601-27.6-27.601c-15.25 0-27.6 12.357-27.6 27.601s12.35 27.601 27.6 27.601ZM1641.6 182.625c15.24 0 27.6-12.357 27.6-27.601s-12.36-27.601-27.6-27.601c-15.25 0-27.61 12.357-27.61 27.601s12.36 27.601 27.61 27.601ZM1739.47 182.625c15.24 0 27.6-12.357 27.6-27.601s-12.36-27.601-27.6-27.601c-15.25 0-27.61 12.357-27.61 27.601s12.36 27.601 27.61 27.601Z"/><path fill="#FAFAFA" d="M665.145 1023.53H1802.81c9.67-.02 18.94-3.86 25.78-10.7a36.53 36.53 0 0 0 10.74-25.759v-755.06H628.623v755.06a36.663 36.663 0 0 0 10.757 25.749 36.71 36.71 0 0 0 25.765 10.71Z"/><path fill="#F5F5F5" d="M1920.45 236.663a36.563 36.563 0 0 0-10.71-25.742 36.6 36.6 0 0 0-25.74-10.715H746.654a36.59 36.59 0 0 0-25.783 10.692 36.59 36.59 0 0 0-10.738 25.765v117.58H1920.45v-117.58Z"/><path fill="#E6E6E6" d="M1625.25 304.794c15.24 0 27.6-12.357 27.6-27.601s-12.36-27.601-27.6-27.601c-15.25 0-27.6 12.357-27.6 27.601s12.35 27.601 27.6 27.601ZM1723.11 304.794c15.24 0 27.6-12.357 27.6-27.601s-12.36-27.601-27.6-27.601c-15.24 0-27.6 12.357-27.6 27.601s12.36 27.601 27.6 27.601ZM1848.7 277.193c0 5.459-1.61 10.795-4.65 15.334a27.586 27.586 0 0 1-28.33 11.737 27.572 27.572 0 0 1-14.13-7.554 27.648 27.648 0 0 1-7.56-14.132 27.637 27.637 0 0 1 1.57-15.948 27.613 27.613 0 0 1 25.5-17.038c7.32 0 14.34 2.908 19.52 8.084a27.58 27.58 0 0 1 8.08 19.517Z"/><path fill="#fff" d="M746.654 1145.76H1884.32a36.53 36.53 0 0 0 25.76-10.74 36.598 36.598 0 0 0 10.7-25.78V354.245H710.133v754.995a36.573 36.573 0 0 0 36.521 36.52Z"/><path fill="#FAFAFA" d="M2001.97 358.899a36.627 36.627 0 0 0-10.72-25.806 36.606 36.606 0 0 0-25.81-10.715H828.103a36.586 36.586 0 0 0-36.522 36.521v117.516H2001.97V358.899Z"/><path fill="#F0F0F0" d="M1706.76 427.027c15.24 0 27.6-12.357 27.6-27.601s-12.36-27.601-27.6-27.601c-15.25 0-27.6 12.357-27.6 27.601s12.35 27.601 27.6 27.601ZM1804.55 427.027c15.25 0 27.6-12.357 27.6-27.601s-12.35-27.601-27.6-27.601c-15.24 0-27.6 12.357-27.6 27.601s12.36 27.601 27.6 27.601ZM1930.02 399.426a27.544 27.544 0 0 1-4.63 15.388 27.665 27.665 0 0 1-50.16-9.902 27.706 27.706 0 0 1 1.56-15.994 27.661 27.661 0 0 1 10.19-12.426 27.658 27.658 0 0 1 15.38-4.667c7.32 0 14.35 2.906 19.54 8.08a27.657 27.657 0 0 1 8.12 19.521Z"/><path fill="#E6E6E6" d="M828.103 1268H1965.77a36.68 36.68 0 0 0 25.78-10.74 36.642 36.642 0 0 0 10.74-25.79V476.414H791.581v755.056a36.646 36.646 0 0 0 10.735 25.79 36.687 36.687 0 0 0 25.787 10.74Z"/><path fill="#E6E6E6" d="M2307.65 798.061h-416.87v622.479h622.55V798.061h-205.68Zm-205.88 4.848h200.96v201.031h-201.15l.19-201.031Zm200.96 406.911h-201.15v-201.03h200.96l.19 201.03Zm-406.84-406.911h200.97v201.031H1895.7l.19-201.031Zm0 205.881h200.97v201.03H1895.7l.19-201.03Zm200.77 407.23H1895.7v-201.03h200.96v201.03Zm205.88 0h-200.96v-201.03h200.96v201.03Zm205.88 0h-200.77v-201.03h200.96l-.19 201.03Zm0-205.88h-200.77v-201.35h200.96l-.19 201.35Zm-200.77-206.2V802.909h200.96v201.031h-200.96Z" opacity=".5"/><path fill="#F5F5F5" d="M2139.46 702.202h726.61v-330.44h-726.61v330.44Z"/><path fill="#fff" d="M2866.08 500.588v201.677h-726.49v-250.48c120.55 0 184.87 110.534 333.99 110.534 149.13 0 194.05-61.731 392.5-61.731Z"/><path fill="#E6E6E6" d="M2866.08 596.966c-163.29 0-217.2-72.203-308.92-72.203-91.72 0-136.78 75.823-251.06 75.823-119.07 0-166.64-59.598-166.64-59.598v161.6h726.62V596.966Z"/><path fill="#F5F5F5" d="M1616 2408.63c692.18 0 1253.31-32.76 1253.31-73.17 0-40.41-561.13-73.17-1253.31-73.17-692.181 0-1253.305 32.76-1253.305 73.17 0 40.41 561.124 73.17 1253.305 73.17Z"/><path fill="#407BFF" d="M1305.73 1012.15a396.292 396.292 0 0 1 250.02-480.469l24.37 77.18a315.706 315.706 0 0 0-172.19 151.137 315.735 315.735 0 0 0-24.64 227.783l-77.56 24.369ZM1503.46 1255.97a388.95 388.95 0 0 1-84.03-58.56 396.42 396.42 0 0 1-106.07-160.63l77.18-24.37a315.196 315.196 0 0 0 88.33 129.7 315.195 315.195 0 0 0 139.93 71.02c51.88 11.5 105.83 9.7 156.83-5.25 51-14.94 97.4-42.54 134.87-80.22l59.66 54.69a397.374 397.374 0 0 1-221.22 113.69c-84 13.26-170.05-.79-245.48-40.07Z"/><path fill="#fff" d="M1503.46 1255.97a388.95 388.95 0 0 1-84.03-58.56 396.42 396.42 0 0 1-106.07-160.63l77.18-24.37a315.196 315.196 0 0 0 88.33 129.7 315.195 315.195 0 0 0 139.93 71.02c51.88 11.5 105.83 9.7 156.83-5.25 51-14.94 97.4-42.54 134.87-80.22l59.66 54.69a397.374 397.374 0 0 1-221.22 113.69c-84 13.26-170.05-.79-245.48-40.07Z" opacity=".7"/><path fill="#407BFF" d="M1928.27 1108.59a315.184 315.184 0 0 0 73.58-182.18 315.225 315.225 0 0 0-48.63-190.363 315.216 315.216 0 0 0-151.94-124.572 315.203 315.203 0 0 0-196.21-10.371l-24.37-77.568a396.325 396.325 0 0 1 295.48 33.066c90.46 48.949 158.36 131.154 189.32 229.243a397.354 397.354 0 0 1-77.18 377.105l-60.05-54.36Z"/><path fill="#000" d="M1928.27 1108.59a315.184 315.184 0 0 0 73.58-182.18 315.225 315.225 0 0 0-48.63-190.363 315.216 315.216 0 0 0-151.94-124.572 315.203 315.203 0 0 0-196.21-10.371l-24.37-77.568a396.325 396.325 0 0 1 295.48 33.066c90.46 48.949 158.36 131.154 189.32 229.243a397.354 397.354 0 0 1-77.18 377.105l-60.05-54.36Z" opacity=".3"/><path fill="#407BFF" d="M1761.11 809.697a98.389 98.389 0 0 0-31.91-21.335 98.374 98.374 0 0 0-107.22 21.303 98.41 98.41 0 0 0-21.34 31.913 98.468 98.468 0 0 0-7.5 37.649 98.47 98.47 0 0 0 7.48 37.652 98.417 98.417 0 0 0 21.32 31.923l69.56 69.548 69.61-69.548a98.387 98.387 0 0 0 0-139.105Z"/><path fill="#000" d="M1761.11 809.697a98.389 98.389 0 0 0-31.91-21.335 98.374 98.374 0 0 0-107.22 21.303 98.41 98.41 0 0 0-21.34 31.913 98.468 98.468 0 0 0-7.5 37.649 98.47 98.47 0 0 0 7.48 37.652 98.417 98.417 0 0 0 21.32 31.923l69.56 69.548 69.61-69.548a98.387 98.387 0 0 0 0-139.105Z" opacity=".3"/><path fill="#407BFF" d="M1695.44 1038.97h-7.75V1070h7.75v-31.03Z"/><path fill="#000" d="M1695.44 1038.97h-7.75V1070h7.75v-31.03Z" opacity=".3"/><path fill="#407BFF" d="M1695.44 1093.98h-7.75v31.03h7.75v-31.03Z"/><path fill="#000" d="M1695.44 1093.98h-7.75v31.03h7.75v-31.03Z" opacity=".3"/><path fill="#407BFF" d="M1423.05 1345.05h-263.28v953.31h263.28v-953.31Z"/><path fill="#fff" d="M1423.05 1345.05h-263.28v953.31h263.28v-953.31Z" opacity=".7"/><path fill="#407BFF" d="M1549.42 1345.05h-126.37v953.31h126.37v-953.31Z"/><path fill="#fff" d="M1549.42 1345.05h-126.37v953.31h126.37v-953.31Z" opacity=".5"/><path fill="#263238" d="M1909.85 1695.91h-6.72v148.42h6.72v-148.42ZM1909.85 1608.65h-6.72v59.66h6.72v-59.66Z"/><path fill="#407BFF" d="M2096.86 1936.37h-263.28v361.99h263.28v-361.99Z"/><path fill="#000" d="M2096.86 1936.37h-263.28v361.99h263.28v-361.99Z" opacity=".5"/><path fill="#407BFF" d="M2223.23 1936.37h-126.37v361.99h126.37v-361.99Z"/><path fill="#000" d="M2223.23 1936.37h-126.37v361.99h126.37v-361.99Z" opacity=".6"/><path fill="#407BFF" d="M1759.95 1143.5h-263.28v1154.86h263.28V1143.5Z"/><path fill="#000" d="M1759.95 1143.5h-263.28v1154.86h263.28V1143.5Z" opacity=".7"/><path fill="#407BFF" d="M1886.32 1143.5h-126.37v1154.86h126.37V1143.5Z"/><path fill="#000" d="M1886.32 1143.5h-126.37v1154.86h126.37V1143.5Z" opacity=".8"/><path fill="#E58A7B" d="M2276.82 877.118c-9.05 71.491-20.43 143.182-30.58 214.092a263.14 263.14 0 0 1-5.62 30.76 206.871 206.871 0 0 1-11.12 30.32 258.823 258.823 0 0 1-31.93 51.71 358.25 358.25 0 0 1-39.69 42.73c-6.98 6.46-14.42 12.93-21.92 18.55-7.49 5.62-14.93 11.44-23.52 17.07l-22.95-28.64c5.36-5.95 11.44-12.93 16.93-19.39 5.5-6.47 10.93-13.45 16.23-20.3a391.332 391.332 0 0 0 28.38-42.08c8.22-13.72 15-28.26 20.23-43.37 2.4-7 4.24-14.17 5.49-21.46 1.13-7.65 1.87-15.35 2.2-23.08 2.39-36.72 6.01-73.04 10.02-109.306a2347.13 2347.13 0 0 1 14.48-108.143l73.37 10.537Z"/><path fill="#407BFF" d="M2292.91 852.553c16.48 43.761-66.97 172.587-66.97 172.587l-97.8-53.068a592.545 592.545 0 0 1 56.69-114.477c34.39-51.583 90.04-53.07 108.08-5.042Z"/><path fill="#000" d="M2292.91 852.553c16.48 43.761-66.97 172.587-66.97 172.587l-97.8-53.068a592.545 592.545 0 0 1 56.69-114.477c34.39-51.583 90.04-53.07 108.08-5.042Z" opacity=".2"/><path fill="#407BFF" d="M2234.86 819.071s-57.72 147.702-2.91 422.679h261.6c1.81-40.14-23.46-236 15.26-425.136a677.316 677.316 0 0 0-87.53-11.118 965.298 965.298 0 0 0-111.18 0 490.18 490.18 0 0 0-75.24 13.575Z"/><path fill="#000" d="M2234.86 819.071s-57.72 147.702-2.91 422.679h261.6c1.81-40.14-23.46-236 15.26-425.136a677.316 677.316 0 0 0-87.53-11.118 965.298 965.298 0 0 0-111.18 0 490.18 490.18 0 0 0-75.24 13.575Z" opacity=".2"/><path fill="#E58A7B" d="M2269.57 2275.22h-48.87l-13.06-113.25h48.94l12.99 113.25ZM2613.71 2275.22h-48.86l-38.14-113.25h48.93l38.07 113.25Z"/><path fill="#263238" d="M2558.32 2269.27h59.6c.97-.01 1.91.32 2.67.94.75.61 1.27 1.47 1.47 2.42l9.69 43.5c.21 1.06.19 2.15-.08 3.19a7.127 7.127 0 0 1-1.44 2.85c-.69.83-1.55 1.5-2.53 1.95-.98.45-2.05.68-3.12.67-19.4-.32-33.16-1.42-57.34-1.42-14.87 0-45.25 1.55-66 1.55s-23.2-20.29-14.8-22.17c37.69-8.21 51.71-19.39 63.93-30.44 2.18-1.97 5.02-3.05 7.95-3.04ZM2221.03 2269.27h53.39c.98 0 1.92.34 2.69.95.76.61 1.29 1.46 1.51 2.41l9.63 43.5a6.97 6.97 0 0 1-.02 3.18 6.963 6.963 0 0 1-1.4 2.86 7.28 7.28 0 0 1-2.51 1.96c-.97.45-2.04.68-3.11.66-19.4-.32-47.13-1.42-71.11-1.42-28.31 0-52.74 1.55-85.97 1.55-20.1 0-25.85-20.29-17.26-22.17 38.27-8.34 69.49-9.24 102.59-29.67 3.43-2.3 7.43-3.62 11.57-3.81Z"/><path fill="#E58A7B" d="m2107.26 1235.03-40.98 34.26 53.84 31.61a46.952 46.952 0 0 0 16.46-24.28 46.954 46.954 0 0 0-1.14-29.31l-28.18-12.28Z"/><path fill="#CF6F64" d="m2207.71 2162.03 6.66 58.37h48.93l-6.72-58.37h-48.87ZM2575.64 2162.03h-48.93l19.65 58.37h48.93l-19.65-58.37Z"/><path fill="#000" d="M2455.54 906.982c8.53-43.18 25.15-35.682 40.92-14.415a1365.18 1365.18 0 0 0-9.31 172.463c-10.73-18.3-45.89-85.716-31.61-158.048Z" opacity=".2"/><path fill="#E58A7B" d="M2410.23 680.353c-6.98 35.745-13.96 101.29 11.05 125.143 0 0-9.76 36.327-76.27 36.327-73.11 0-34.91-36.263-34.91-36.263 39.89-9.567 38.79-39.172 31.87-66.967l68.26-58.24Z"/><path fill="#CF6F64" d="m2382.43 704.141-40.4 34.453a111.707 111.707 0 0 1 3.43 19.715c15.26-2.198 36.2-18.939 37.81-34.905.88-6.42.6-12.945-.84-19.263Z"/><path fill="#263238" d="M2296.53 570.272c-24.05 10.213-37.11 77.568-6.47 93.147 30.64 15.578 52.04-112.409 6.47-93.147Z"/><path fill="#E58A7B" d="M2414.49 626.508c-2.97 48.415-2.26 76.921-26.69 101.808-36.78 37.362-96.64 15.19-108.15-33.161-10.4-43.502-3.81-115.447 43.64-134.709a66.186 66.186 0 0 1 91.2 66.062Z"/><path fill="#263238" d="M2265.11 539.89c29.28-44.407 33.87-23.011 33.42-1.874 25.85-24.434 73.62-55.591 96.96-27.149a19.739 19.739 0 0 1 5.15 10.633c.59 3.987-.06 8.059-1.86 11.668 30.06-8.016 60.38-10.278 54.88 22.171-4.84 28.701-25.33 39.237-54.04 39.431-51.45 7.11-176.01 7.821-134.51-54.88Z"/><path fill="#263238" d="M2411.07 673.953c-25.86 10.536-77.89-84.42.38-95.603 78.28-11.182 41.05 78.603-.38 95.603Z"/><path fill="#E58A7B" d="M2436.41 679.899a46.506 46.506 0 0 1-28.77 20.362c-15.77 3.49-22.82-10.86-17.64-25.339 4.65-12.928 18.42-30.446 33.93-27.472 3.38.722 6.52 2.274 9.14 4.517a20.712 20.712 0 0 1 5.89 8.328 20.802 20.802 0 0 1 1.21 10.125 20.82 20.82 0 0 1-3.76 9.479Z"/><path fill="#263238" d="M2461.94 593.024a32.272 32.272 0 0 0-13.2-8.852 32.307 32.307 0 0 0-15.82-1.491s25.27-19.909 29.02 10.343Z"/><path fill="#407BFF" d="M2231.95 1241.49s-137.62 349.71-132.58 498.89c5.5 155.14 96.96 468.71 96.96 468.71h82.87s-33.93-304.58-30.25-456.88c4.01-166.12 155.14-510.65 155.14-510.65l-172.14-.07Z"/><path fill="#000" d="m2341.84 1357.26 7.95 18.04c-29 74.73-54.2 150.89-75.5 228.18-2.26-88.17 15.97-185.39 67.55-246.22Z" opacity=".2"/><path fill="#407BFF" d="M2324.77 1241.49s-27.86 357.59 2.59 497.73c33.35 153.33 195.99 469.74 195.99 469.74h89.59s-119.84-303.81-138.91-455.84c-20.62-164.77 19.39-511.5 19.39-511.5l-168.65-.13Z"/><path fill="#263238" d="M2341.06 640.34c0 3.943-2.13 7.175-4.71 7.175-2.59 0-4.66-3.232-4.66-7.175 0-3.943 2.07-7.111 4.66-7.111 2.58 0 4.71 2.845 4.71 7.111ZM2296.47 640.34c0 3.943-2.14 7.175-4.66 7.175s-4.72-3.232-4.72-7.175c0-3.943 2.14-7.111 4.72-7.111 2.59 0 4.66 2.845 4.66 7.111Z"/><path fill="#DF5753" d="M2310.62 642.021a141.303 141.303 0 0 1-18.81 33.678 22.595 22.595 0 0 0 9.01 3.865c3.25.614 6.59.508 9.8-.31v-37.233Z"/><path fill="#263238" d="M2322.13 690.178c-.31 0-.61-.123-.83-.341a1.198 1.198 0 0 1-.34-.823c0-.308.13-.604.34-.823.22-.218.52-.34.83-.34a31.21 31.21 0 0 0 25.46-12.217c.09-.128.2-.237.33-.323.12-.085.27-.144.42-.174.15-.03.3-.031.45-.001.15.03.29.089.42.174.24.17.41.425.47.713.06.287.01.587-.15.839a32.824 32.824 0 0 1-27.4 13.316ZM2354.44 625.669a2.37 2.37 0 0 1-1-.252 2.46 2.46 0 0 1-.81-.653 18.306 18.306 0 0 0-6.5-5.668 18.382 18.382 0 0 0-8.36-2.089c-.31.026-.62-.01-.91-.108-.3-.098-.57-.254-.8-.46a2.295 2.295 0 0 1-.75-1.63c-.04-.607.17-1.204.57-1.663.39-.459.96-.744 1.56-.793 3.68-.021 7.32.835 10.6 2.499a23.182 23.182 0 0 1 8.28 7.067 2.4 2.4 0 0 1 .44 1.74 2.446 2.446 0 0 1-.89 1.557c-.43.275-.92.431-1.43.453ZM2276.94 624.698c-.34.062-.69.062-1.03 0-.28-.13-.53-.315-.73-.544-.2-.229-.36-.496-.45-.786-.1-.29-.14-.596-.11-.901.02-.305.11-.601.25-.871a22.86 22.86 0 0 1 6.73-8.494 22.8 22.8 0 0 1 9.88-4.434c.58-.01 1.13.193 1.57.568.43.375.71.897.78 1.466.07.568-.07 1.144-.39 1.615-.33.472-.82.806-1.37.94a18.422 18.422 0 0 0-7.71 3.7 18.362 18.362 0 0 0-5.22 6.772 2.266 2.266 0 0 1-2.2.969Z"/><path fill="#E58A7B" d="M2527.42 854.623c4.2 9.049 7.76 17.129 11.12 25.856 3.36 8.726 6.46 17 9.89 25.856 6.46 17.194 11.83 34.647 16.74 52.423 4.91 17.776 8.98 35.94 12.35 54.422l2.32 13.9 1.68 14.22c.65 4.72.91 9.57 1.3 14.42l.45 7.24V1074.27c-1.28 12.73-4.97 25.1-10.86 36.46-4.59 9.13-9.8 17.94-15.58 26.37a420.393 420.393 0 0 1-35.1 43.95 691.786 691.786 0 0 1-79.05 74.41l-25.86-25.86c21.14-27.02 42.21-54.94 61.41-82.68 9.35-13.5 17.98-27.48 25.86-41.88 3.6-6.47 6.73-13.19 9.37-20.1 1.92-4.42 3.01-9.16 3.23-13.97v-1.48l-.9-5.82c-.59-3.94-1.1-7.82-2.01-11.77l-2.33-11.83-2.78-11.89c-3.94-15.9-8.4-31.866-13.57-47.768a1223.007 1223.007 0 0 0-16.55-47.575c-5.88-15.837-12.34-31.803-18.36-46.411l67.23-31.803Z"/><path fill="#407BFF" d="M2542.09 2278.12c-3.32.26-6.62-.63-9.37-2.52a7.035 7.035 0 0 1-2.05-2.91 6.933 6.933 0 0 1-.34-3.55c-.01-.67.17-1.32.51-1.89.35-.57.84-1.03 1.43-1.34 5.49-2.78 21.2 6.91 23.01 8.01.19.12.34.3.43.51.09.2.12.43.09.66-.05.23-.15.44-.31.61-.16.17-.37.3-.6.35a59.668 59.668 0 0 1-12.8 2.07Zm-7.24-10.15c-.51-.04-1.03.08-1.48.33-.33 0-.71.45-.78 1.36-.08.77.03 1.56.31 2.29s.73 1.38 1.31 1.91a23.78 23.78 0 0 0 17.32.84 46.93 46.93 0 0 0-16.68-6.73Z"/><path fill="#407BFF" d="M2554.63 2276.38h-.51c-5.11-2.78-14.87-13.45-13.84-18.94.18-.85.64-1.62 1.31-2.17.67-.55 1.51-.86 2.38-.87.87-.1 1.76-.02 2.61.24.84.25 1.63.68 2.3 1.25 5.69 4.65 6.85 18.74 6.92 19.39a1.215 1.215 0 0 1-.52 1.03c-.2.09-.43.11-.65.07Zm-9.82-20.04h-.58c-1.49 0-1.62.84-1.68 1.16-.59 3.24 5.62 11.32 10.66 15.13-.35-5.57-2.35-10.9-5.75-15.32-.74-.63-1.68-.97-2.65-.97ZM2200.67 2278.12c-4.18.38-8.35-.7-11.83-3.03-.8-.69-1.41-1.56-1.8-2.54-.38-.98-.52-2.04-.4-3.09.04-.63.23-1.24.55-1.78.33-.54.78-1 1.33-1.32 6.01-3.3 25.85 6.46 27.86 7.82.22.11.4.28.52.5.12.22.16.47.12.72-.03.24-.15.47-.32.65-.18.17-.4.29-.65.33a86.363 86.363 0 0 1-15.38 1.74Zm-8.86-10.15a4.03 4.03 0 0 0-2.13.46 1.23 1.23 0 0 0-.71 1.23c-.1.67-.03 1.37.21 2.01.24.64.63 1.22 1.15 1.67 3.03 2.71 11.11 3.17 21.84 1.36a63.161 63.161 0 0 0-20.36-6.73Z"/><path fill="#407BFF" d="M2215.86 2276.38c-.17.06-.35.06-.52 0-5.88-2.65-17.58-12.93-16.68-18.75 0-1.29 1.1-2.9 4.33-3.23a8.7 8.7 0 0 1 6.47 2.01c6.46 5.1 7.56 18.29 7.56 18.81.03.2 0 .42-.08.61s-.21.36-.37.49c-.23.09-.48.11-.71.06Zm-11.64-20.04h-.71c-2.07 0-2.2 1.04-2.26 1.29-.52 3.3 7.43 11.64 13.44 15.26-.55-5.57-2.8-10.83-6.46-15.06a6.039 6.039 0 0 0-4.01-1.49Z"/><path fill="#E58A7B" d="m2428.14 1222.42-47.97 12.93 39.76 48.22s38.46-19.97 30.18-41.49l-21.97-19.66Z"/><path fill="#E58A7B" d="m2355.35 1267.61 34.71 38.27 29.86-22.5-39.75-48.22-24.82 32.45Z"/><path fill="#407BFF" d="M2507.51 2211.03h117.13v-31.54l-130.9-2.01 13.77 33.55Z"/><path fill="#000" d="M2507.51 2211.03h117.13v-31.54l-130.9-2.01 13.77 33.55Z" opacity=".4"/><path fill="#407BFF" d="M2177.52 2211.03h117.13v-31.87l-130.89-1.68 13.76 33.55Z"/><path fill="#000" d="M2177.52 2211.03h117.13v-31.87l-130.89-1.68 13.76 33.55Z" opacity=".4"/><path fill="#407BFF" d="M2519.02 819.783c43.63 16.806 87.26 171.554 87.26 171.554l-116.35 45.763s-34.71-80.022-46.54-139.491c-12.15-62.377 26.18-96.831 75.63-77.826Z"/><path fill="#000" d="M2519.02 819.783c43.63 16.806 87.26 171.554 87.26 171.554l-116.35 45.763s-34.71-80.022-46.54-139.491c-12.15-62.377 26.18-96.831 75.63-77.826Z" opacity=".2"/><path fill="#407BFF" d="M2047.34 1065.35a218.409 218.409 0 0 0 3.56 131.67c13.45 39.54 38 74.36 70.71 100.32a219.242 219.242 0 0 0 154.03 46.62 219.256 219.256 0 0 0 201.31-221.61 219.233 219.233 0 0 0-61.16-148.855 216.737 216.737 0 0 0-96.44-58.176 220.181 220.181 0 0 0-104.42-4.381 220.12 220.12 0 0 0-94.67 44.264 174.948 174.948 0 0 0-14.35 12.928 218.485 218.485 0 0 0-58.57 97.22Z"/><path fill="#000" d="M2047.34 1065.35a218.409 218.409 0 0 0 3.56 131.67c13.45 39.54 38 74.36 70.71 100.32a219.242 219.242 0 0 0 154.03 46.62 219.256 219.256 0 0 0 201.31-221.61 219.233 219.233 0 0 0-61.16-148.855 216.737 216.737 0 0 0-96.44-58.176 220.181 220.181 0 0 0-104.42-4.381 220.12 220.12 0 0 0-94.67 44.264 174.948 174.948 0 0 0-14.35 12.928 218.485 218.485 0 0 0-58.57 97.22Z" opacity=".6"/><path fill="#407BFF" d="m2388.25 964.899-157.72 152.231-60.44 210.72a219.17 219.17 0 0 0 140.78-6.72 219.132 219.132 0 0 0 107.58-91.04 219.196 219.196 0 0 0 29.92-137.72 219.165 219.165 0 0 0-60.12-127.471Z"/><path fill="#fff" d="m2388.25 964.899-157.72 152.231-60.44 210.72a219.17 219.17 0 0 0 140.78-6.72 219.132 219.132 0 0 0 107.58-91.04 219.196 219.196 0 0 0 29.92-137.72 219.165 219.165 0 0 0-60.12-127.471Z" opacity=".9"/><g opacity=".7"><path fill="#407BFF" d="m2230.53 1117.12 157.72-152.288a219.23 219.23 0 0 0-97.28-58.474 219.213 219.213 0 0 0-113.49-1.976 219.181 219.181 0 0 0-99.26 55.051 219.165 219.165 0 0 0-58.42 97.317l210.73 60.37Z"/><path fill="#fff" d="m2230.53 1117.12 157.72-152.288a219.23 219.23 0 0 0-97.28-58.474 219.213 219.213 0 0 0-113.49-1.976 219.181 219.181 0 0 0-99.26 55.051 219.165 219.165 0 0 0-58.42 97.317l210.73 60.37Z" opacity=".44"/></g><path fill="#E58A7B" d="m2062.92 1298.38 47.51 14.99 9.5-12.28-53.84-31.61-3.17 28.9Z"/><path fill="#407BFF" d="m2230.53 1117.12-210.66-60.37c-16 55.88-9.16 115.83 19.02 166.66 28.18 50.84 75.4 88.4 131.27 104.44l60.37-210.73Z"/><path fill="#000" d="m2230.53 1117.12-210.66-60.37c-16 55.88-9.16 115.83 19.02 166.66 28.18 50.84 75.4 88.4 131.27 104.44l60.37-210.73Z" opacity=".6"/><path fill="#E58A7B" d="M1022.86 820.429c-11.31 11.57-23.46 24.369-34.643 37.168s-22.43 25.856-32.967 39.236c-10.536 13.381-20.49 27.149-30.057 41.047l-6.981 10.536-6.464 10.666c-2.198 3.555-4.267 7.175-6.464 10.795l-5.365 9.889a55.523 55.523 0 0 0-3.685 17.647 176.667 176.667 0 0 0 0 23.397 444.481 444.481 0 0 0 6.464 49.97 702.276 702.276 0 0 0 10.666 50.81c4.201 16.87 8.338 34.06 12.928 50.74l-24.887 9.31a727.525 727.525 0 0 1-37.685-101.75 414.69 414.69 0 0 1-11.829-54.49 218.87 218.87 0 0 1-2.068-29.667 95.609 95.609 0 0 1 5.817-34.324c1.551-3.749 2.392-5.301 3.426-7.499l3.038-6.464c2.004-4.266 4.137-8.467 6.464-12.54l6.464-12.346 7.111-12.023a521.774 521.774 0 0 1 30.962-45.83c10.989-14.673 22.366-29.023 34.389-42.791 12.023-13.769 24.24-26.955 38.137-40.207l37.229 38.72Z"/><path fill="#E58A7B" d="m919.44 1161.79 44.214 12.93-29.411 29.87s-31.868-9.83-36.328-31.55l21.525-11.25ZM990.481 1208.98l-7.498 28.51-48.739-32.71 29.411-29.8 26.826 34ZM594.685 2010.39l36.198 38.85 98.253-70.33-36.263-38.85-98.188 70.33Z"/><path fill="#CF6F64" d="m1075.03 2152.73-8.66 66.83-51.78-8.66 8.02-62.05 52.42 3.88ZM692.874 1940.06l36.199 38.91-40.659 29.09-37.491-38.01 41.951-29.99Z"/><path fill="#407BFF" d="M1165.72 1088.75s-102.39 342.92-152.42 540.59c-52.751 208.33-304.653 378.2-304.653 378.2l-53.781-53.45s168.387-142.21 219.776-336.58c103.812-394.76 53.91-478.34 136.648-558.62l154.43 29.86Z"/><path fill="#000" d="M1165.72 1088.75s-102.39 342.92-152.42 540.59c-52.751 208.33-304.653 378.2-304.653 378.2l-53.781-53.45s168.387-142.21 219.776-336.58c103.812-394.76 53.91-478.34 136.648-558.62l154.43 29.86Z" opacity=".6"/><path fill="#263238" d="m646.723 2043.03-30.187-51.71a4.214 4.214 0 0 0-2.264-1.93 4.225 4.225 0 0 0-2.972.06l-43.05 17.32a8.463 8.463 0 0 0-3.62 12.02c10.859 17.78 16.935 25.86 30.251 48.55 8.21 13.96 18.746 35.16 29.993 54.42 11.248 19.27 30.446 9.44 27.408.46-13.575-40.4-6.464-52.1-3.814-70.07.48-3.15-.137-6.37-1.745-9.12Z"/><path fill="#F5F5F5" d="m713.236 2015.17-67.096-66.77 18.228-20.23 81.705 69.55-32.837 17.45Z"/><path fill="#000" d="M1117.63 1161.79c-67.16 51.72-71.69 249.25-70.14 338.46 34.2-124.69 74.6-263.47 98.19-343.69-6.46-5.56-15.71-4.33-28.05 5.23Z" opacity=".3"/><path fill="#407BFF" d="M657.581 2071.21a6.295 6.295 0 0 1-1.875-.32c-6.464-1.94-10.924-13.64-12.928-20.42-.074-.24-.076-.5-.008-.74.069-.24.207-.46.396-.62.198-.14.435-.22.679-.22.243 0 .481.08.678.22 1.94.97 18.94 9.82 19.392 16.55.07.72-.048 1.45-.343 2.12a4.26 4.26 0 0 1-1.337 1.69 7.552 7.552 0 0 1-4.654 1.74Zm-11.571-18.55c3.168 8.99 6.981 14.81 10.407 15.9.761.2 1.559.19 2.317-.01.759-.21 1.452-.6 2.014-1.15.274-.16.494-.4.633-.69.138-.29.187-.61.143-.93-.388-3.36-8.662-9.37-15.514-13.12Z"/><path fill="#407BFF" d="M659.325 2054.86a37.808 37.808 0 0 1-16.16-3.68c-.174-.13-.315-.3-.412-.49a1.334 1.334 0 0 1 0-1.23c.097-.19.238-.36.412-.48.582 0 13.316-7.69 20.555-5.3.938.26 1.803.74 2.531 1.39a6.489 6.489 0 0 1 1.671 2.36c.498.86.686 1.87.533 2.86a4.41 4.41 0 0 1-1.373 2.57 12.108 12.108 0 0 1-7.757 2Zm-12.928-4.85c5.947 2.39 16.225 3.36 18.939.97.453-.39.841-1.03 0-2.52a4.323 4.323 0 0 0-2.714-2.46 28.437 28.437 0 0 0-16.225 4.01Z"/><path fill="#E58A7B" d="m1007.09 2269.14 52.43 3.88 15.51-120.36-52.36-3.88-15.58 120.36Z"/><path fill="#407BFF" d="M1218.08 1099.29s12.93 414.92-16.23 571.22c-30.51 162.57-123.39 532.31-123.39 532.31l-75.57-9.76s47.84-373.55 68.07-535.03c22.17-176.08-6.85-588.54-6.85-588.54l153.97 29.8Z"/><path fill="#000" d="M1218.08 1099.29s12.93 414.92-16.23 571.22c-30.51 162.57-123.39 532.31-123.39 532.31l-75.57-9.76s47.84-373.55 68.07-535.03c22.17-176.08-6.85-588.54-6.85-588.54l153.97 29.8Z" opacity=".6"/><path fill="#263238" d="M1276.25 605.696c-.71 4.202.97 7.951 3.69 8.533 2.71.581 5.49-2.457 6.46-6.464.97-4.008-.97-7.951-3.68-8.468-2.72-.517-5.76 2.262-6.47 6.399Z"/><path fill="#263238" d="m1281.17 599.166 10.53-.97s-6.46 6.852-10.53.97Z"/><path fill="#DF5753" d="M1279.1 610.413a115.68 115.68 0 0 0 10.54 29.411 18.519 18.519 0 0 1-7.7 1.677c-2.65 0-5.28-.572-7.69-1.677l4.85-29.411Z"/><path fill="#263238" d="M1286.33 588.631c-.48.001-.95-.139-1.35-.404-.4-.264-.72-.641-.91-1.083a20.876 20.876 0 0 0-5.48-7.64 20.81 20.81 0 0 0-8.29-4.447 2.395 2.395 0 0 1-.89-.345 2.415 2.415 0 0 1-.7-.662 2.377 2.377 0 0 1-.39-.878 2.387 2.387 0 0 1-.02-.96c.12-.648.5-1.221 1.04-1.596a2.54 2.54 0 0 1 1.87-.407c3.86.952 7.45 2.799 10.47 5.393a25.474 25.474 0 0 1 6.92 9.538c.26.602.28 1.283.05 1.898a2.53 2.53 0 0 1-1.28 1.399l-1.04.194Z"/><path fill="#E58A7B" d="M1143.61 640.342c.97 31.674-2.26 88.816-27.08 105.04 0 0 3.23 32.32 60.31 43.632 62.76 12.153 35.16-25.145 35.16-25.145-32.96-14.802-27.86-39.883-17.97-62.442l-50.42-61.085ZM1305.21 809.83c12.93 9.825 27.15 20.232 41.18 29.734 14.02 9.502 28.37 19.392 42.98 27.989 14.61 8.597 29.41 17.065 44.28 25.016a470.494 470.494 0 0 0 45.57 20.556c1.36.517.91 0 1.23.452h.84c.84.12 1.69.12 2.52 0a36.62 36.62 0 0 0 7.69-.776 95.83 95.83 0 0 0 19.85-7.239 292.697 292.697 0 0 0 41.82-25.856c13.83-9.761 27.34-20.427 40.59-31.545 13.26-11.118 26.44-22.688 39.11-34.194l19.39 17.776a599.018 599.018 0 0 1-73.94 80.089 301.489 301.489 0 0 1-45.83 33.742 141.637 141.637 0 0 1-29.09 12.928 75.65 75.65 0 0 1-18.42 3.103c-3.59.196-7.18.045-10.73-.453a45.72 45.72 0 0 1-5.69-1.034c-1.68-.453-4.33-1.164-5.05-1.487a527.573 527.573 0 0 1-101.09-45.636c-15.77-9.179-31.35-18.681-46.48-28.894-15.12-10.213-29.6-20.62-44.41-32.708l33.68-41.563Z"/><path fill="#E58A7B" d="m1628.93 818.878 15.38-39.624 32.32 32.32s-15.32 29.476-37.3 29.541l-10.4-22.237ZM1676.18 767.812l30.7 9.632-29.99 34.065-32.45-32.255 31.74-11.442Z"/><path fill="#263238" d="M1062.75 2265.52h-58.89c-1.03-.01-2.02.35-2.81 1.02a4.27 4.27 0 0 0-1.455 2.6l-7.951 46.61a8.238 8.238 0 0 0 .279 3.48 8.31 8.31 0 0 0 1.7 3.05 8.099 8.099 0 0 0 2.813 2.06c1.075.48 2.24.73 3.417.72 20.557-.33 30.447-1.56 56.367-1.56 15.9 0 48.87 1.69 71.1 1.69 22.24 0 23.73-21.79 14.61-23.79-40.85-8.79-56.69-21.01-70.26-32.65a13.373 13.373 0 0 0-8.92-3.23Z"/><path fill="#E58A7B" d="M1138.44 567.298c-5.24 51.712-8.6 73.237 12.93 104.458 32.32 46.864 96.96 43.955 117.83-4.589 18.56-43.632 24.12-120.683-22.75-150.676a69.359 69.359 0 0 0-95.7 17.474 69.343 69.343 0 0 0-12.31 33.333Z"/><path fill="#263238" d="M1144.13 679.773c-24.57-10.019-47.51-49.579-46.61-111.439.91-61.861 46.99-97.736 129.28-71.686 82.29 26.05-2.39 215.962-82.67 183.125Z"/><path fill="#263238" d="M1213.81 502.336c24.24-9.502 77.89 2.262 77.89 52.746l-52.16 42.339-25.73-95.085Z"/><path fill="#263238" d="M1207.02 501.884c32.32-1.874 44.86-1.745 74.14 6.464-19.26-23.141-55.33-15.513-74.14-6.464Z"/><path fill="#E58A7B" d="M1235.01 594.189c-1 9.601.96 19.278 5.63 27.731 6.46 11.893 16.22 10.277 19.84.646 3.3-8.662 3.88-25.274-5.17-34.195-9.05-8.92-18.75-4.848-20.3 5.818Z"/><path fill="#407BFF" d="M1102.63 522.632c18.74 11.506 82.48 2.004 96.24-22.494 13.77-24.499-33.8-65.481-76.92-63.994-43.11 1.487-61.08 60.762-19.32 86.488Z"/><path fill="#F5F5F5" d="m1094.55 2207.35-107.757-13.9 1.357-25.6 117.19 5.11-10.79 34.39Z"/><path fill="#407BFF" d="M1082.27 2274.7c-5.54-.1-11.06-.72-16.48-1.87-.26-.04-.49-.17-.67-.35-.17-.19-.28-.43-.3-.69-.04-.25.01-.51.12-.74.12-.23.3-.42.52-.55 2.39-1.23 23.6-11.96 29.93-8.34.6.32 1.1.8 1.45 1.38.35.58.54 1.24.55 1.92.13 1.12-.02 2.26-.44 3.3a6.737 6.737 0 0 1-1.95 2.71 19.344 19.344 0 0 1-12.73 3.23Zm-12.35-3.62c11.57 1.94 20.17 1.42 23.47-1.42.55-.5.99-1.12 1.25-1.82.27-.69.37-1.44.3-2.19 0-.27-.07-.54-.21-.78-.13-.24-.33-.44-.57-.57-3.42-1.94-15.51 2.65-24.24 6.78Z"/><path fill="#407BFF" d="M1066.04 2272.83c-.25.05-.52.05-.77 0-.17-.14-.3-.32-.38-.53-.08-.2-.1-.42-.07-.64 0-.9 2.52-22.36 14.22-22.36h1.03c3.36.32 4.33 2.06 4.59 3.42.97 5.95-11.76 17.33-18.1 20.17l-.52-.06Zm12.93-21.21c-7.56 0-10.53 12.41-11.5 17.78 6.46-3.94 15.19-12.93 14.6-16.42 0 0 0-1.1-2.39-1.36h-.71ZM1025.77 739.501c-36.392 1.68-71.104 61.989-71.104 61.989l48.024 98.124s65.1-54.233 65.94-107.561c.71-34.647-7.11-54.168-42.86-52.552Z"/><path fill="#fff" d="M1025.77 739.501c-36.392 1.68-71.104 61.989-71.104 61.989l48.024 98.124s65.1-54.233 65.94-107.561c.71-34.647-7.11-54.168-42.86-52.552Z" opacity=".8"/><path fill="#407BFF" d="m1011.03 1058.76 210.21 40.72c99.29-292.431 75.56-301.868 75.56-301.868a438.088 438.088 0 0 0-47.7-22.172l-2.91-1.099c-13.38-4.848-16.22-5.623-34.26-10.859-30.96-7.305-59.79-13.251-95.47-18.423l-6.79-.969a774.423 774.423 0 0 0-19.07-2.069c-4.13-.452-8.34-.711-12.28-1.034l-13.57-.711c-23.01-1.164-39.43-.776-39.43-.776 12.02 182.479 3.23 234.902-14.29 319.26Z"/><path fill="#fff" d="m1011.03 1058.76 210.21 40.72c99.29-292.431 75.56-301.868 75.56-301.868a438.088 438.088 0 0 0-47.7-22.172l-2.91-1.099c-13.38-4.848-16.22-5.623-34.26-10.859-30.96-7.305-59.79-13.251-95.47-18.423l-6.79-.969a774.423 774.423 0 0 0-19.07-2.069c-4.13-.452-8.34-.711-12.28-1.034l-13.57-.711c-23.01-1.164-39.43-.776-39.43-.776 12.02 182.479 3.23 234.902-14.29 319.26Z" opacity=".6"/><path fill="#407BFF" d="M1245.55 867.94c8.34 16.419 18.23 38.203 31.48 53.264 3.81-13.833 6.98-25.856 9.69-37.039l-41.17-16.225Z" opacity=".2"/><path fill="#263238" d="M1077.03 911.831c52.42-41.434 63.48-79.96 56.17-113.637-7.3-33.678-15.7-92.435-9.69-112.086 6.01-19.65 26.95-60.438 22.69-95.279-4.27-34.841-14.22-83.256-4.66-104.2 9.57-20.943 39.95-33.354 15.32-63.088-11.96-14.415-62.63-16.613-75.89 23.593-13.25 40.206-67.67 57.594-89.069 61.602-21.396 4.008-59.081 28.054-65.61 67.226-6.528 39.171-32.837 54.62-68.971 74.723-36.133 20.104-88.104 98.9-67.419 168.84 27.924 95.732 209.046 154.231 287.129 92.306Z"/><path fill="#407BFF" d="M1234.62 779.901c16.29-12.928 86.43 29.605 107.89 47.381l-12.54 92.176s-100.2-41.498-107.05-69.875c-7.37-29.541-1.23-59.792 11.7-69.682Z"/><path fill="#fff" d="M1234.62 779.901c16.29-12.928 86.43 29.605 107.89 47.381l-12.54 92.176s-100.2-41.498-107.05-69.875c-7.37-29.541-1.23-59.792 11.7-69.682Z" opacity=".6"/><path fill="#407BFF" d="m1009.87 1045.89-12.538 16.88c-.969 1.29.518 3.1 2.908 3.62l220.49 42.66c1.87.39 3.62 0 3.94-1.42l4.98-18.36c.32-1.23-1.1-2.65-3.17-3.04l-212.92-41.24c-.64-.19-1.32-.21-1.97-.05-.65.16-1.24.49-1.72.95Z"/><path fill="#407BFF" d="m1034.56 1075.11-5.68-1.1c-1.1 0-1.88-.97-1.68-1.68l6.46-23.79c0-.71 1.29-1.09 2.46-.9l5.68 1.1c1.1 0 1.88.97 1.68 1.68l-6.46 23.79c-.19.71-1.29 1.1-2.46.9ZM1178.58 1103.29l-5.75-1.1c-1.1 0-1.87-.97-1.68-1.68l6.46-23.78c0-.65 1.3-1.04 2.46-.84l5.69 1.09c1.16 0 1.94.97 1.74 1.69l-6.46 23.78c-.26.71-1.36 1.1-2.46.84Z"/><path fill="#000" d="m1034.56 1075.11-5.68-1.1c-1.1 0-1.88-.97-1.68-1.68l6.46-23.79c0-.71 1.29-1.09 2.46-.9l5.68 1.1c1.1 0 1.88.97 1.68 1.68l-6.46 23.79c-.19.71-1.29 1.1-2.46.9ZM1178.58 1103.29l-5.75-1.1c-1.1 0-1.87-.97-1.68-1.68l6.46-23.78c0-.65 1.3-1.04 2.46-.84l5.69 1.09c1.16 0 1.94.97 1.74 1.69l-6.46 23.78c-.26.71-1.36 1.1-2.46.84Z" opacity=".6"/></svg>