<svg width="3325" height="2477" viewBox="0 0 3325 2477" fill="none" xmlns="http://www.w3.org/2000/svg">
<path d="M3324.3 2176.75H0V2178.41H3324.3V2176.75Z" fill="#E6E6E6"/>
<path d="M901.349 2247.16H672.638V2248.82H901.349V2247.16Z" fill="#E6E6E6"/>
<path d="M623.904 2247.96H495.188V2249.62H623.904V2247.96Z" fill="#E6E6E6"/>
<path d="M1424.39 2244.1H1163.5V2245.76H1424.39V2244.1Z" fill="#E6E6E6"/>
<path d="M2091.38 2220.43H1321.61V2222.09H2091.38V2220.43Z" fill="#E6E6E6"/>
<path d="M2750.32 2221.3H2398.02V2222.96H2750.32V2221.3Z" fill="#E6E6E6"/>
<path d="M1575.72 1880.22H291.939C281.882 1880.21 272.243 1876.2 265.138 1869.08C258.033 1861.96 254.042 1852.32 254.042 1842.26V37.6311C254.13 27.6317 258.159 18.0707 265.254 11.0248C272.35 3.97891 281.939 0.0171294 291.939 0H1575.72C1585.78 0 1595.44 3.99971 1602.56 11.1192C1609.68 18.2388 1613.68 27.8949 1613.68 37.9635V1842.26C1613.68 1852.33 1609.68 1861.98 1602.56 1869.1C1595.44 1876.22 1585.78 1880.22 1575.72 1880.22ZM291.939 1.32972C282.323 1.34734 273.106 5.17969 266.313 11.9856C259.52 18.7915 255.704 28.0148 255.704 37.6311V1842.26C255.704 1851.88 259.52 1861.1 266.313 1867.9C273.106 1874.71 282.323 1878.54 291.939 1878.56H1575.72C1585.34 1878.54 1594.56 1874.71 1601.37 1867.91C1608.17 1861.1 1612 1851.88 1612.02 1842.26V37.6311C1612 28.0087 1608.17 18.7856 1601.37 11.9815C1594.56 5.17753 1585.34 1.3473 1575.72 1.32972H291.939Z" fill="#E6E6E6"/>
<path d="M3013.87 1880.22H1730.03C1719.97 1880.21 1710.32 1876.2 1703.21 1869.08C1696.09 1861.97 1692.08 1852.32 1692.07 1842.26V37.6311C1692.17 27.6257 1696.22 18.0647 1703.32 11.0207C1710.43 3.97658 1720.02 0.0169425 1730.03 0H3013.87C3023.86 0.0346026 3033.43 4.00411 3040.52 11.0482C3047.6 18.0922 3051.62 27.6432 3051.71 37.6311V1842.26C3051.71 1852.3 3047.72 1861.94 3040.63 1869.06C3033.54 1876.17 3023.92 1880.19 3013.87 1880.22ZM1730.03 1.32972C1720.41 1.3473 1711.19 5.17753 1704.38 11.9815C1697.58 18.7856 1693.75 28.0087 1693.73 37.6311V1842.26C1693.75 1851.88 1697.58 1861.1 1704.38 1867.91C1711.19 1874.71 1720.41 1878.54 1730.03 1878.56H3013.87C3023.5 1878.54 3032.72 1874.71 3039.52 1867.91C3046.33 1861.1 3050.16 1851.88 3050.18 1842.26V37.6311C3050.16 28.0087 3046.33 18.7856 3039.52 11.9815C3032.72 5.17753 3023.5 1.3473 3013.87 1.32972H1730.03Z" fill="#E6E6E6"/>
<path d="M2869.07 199.325H1163.5V968.634H2869.07V199.325Z" fill="#E0E0E0"/>
<path d="M2905.24 199.325H1180.39V968.634H2905.24V199.325Z" fill="#F5F5F5"/>
<path d="M2869.07 968.634H1163.5V1035.85H2869.07V968.634Z" fill="#E0E0E0"/>
<path d="M2965.54 968.634H1240.69V1035.85H2965.54V968.634Z" fill="#F5F5F5"/>
<path d="M2854.57 918.038V249.987L1231.05 249.987V918.038L2854.57 918.038Z" fill="#FAFAFA"/>
<path d="M1660.69 917.972L1957.94 249.921H2262.12L1964.93 917.972H1660.69Z" fill="white"/>
<path d="M1254.52 806.342C1253.56 806.342 1252.64 805.966 1251.96 805.294C1251.28 804.623 1250.88 803.71 1250.87 802.751V282.898C1250.88 281.939 1251.28 281.026 1251.96 280.355C1252.64 279.683 1253.56 279.307 1254.52 279.307C1255.48 279.307 1256.39 279.686 1257.06 280.359C1257.73 281.032 1258.11 281.946 1258.11 282.898V802.751C1258.11 803.704 1257.73 804.617 1257.06 805.29C1256.39 805.963 1255.48 806.342 1254.52 806.342Z" fill="#E6E6E6"/>
<path d="M2079.28 917.972L2376.47 249.921H2481.72L2184.46 917.972H2079.28Z" fill="white"/>
<path d="M2854.57 918.038V249.987H2848.12V918.038H2854.57Z" fill="#E6E6E6"/>
<path d="M2917.2 300.982H1211.64L1206.99 269.667H2912.55L2917.2 300.982Z" fill="#E0E0E0"/>
<path d="M2917.2 352.775H1211.64L1206.99 321.393H2912.55L2917.2 352.775Z" fill="#E0E0E0"/>
<path d="M2917.2 404.567H1211.64L1206.99 373.252H2912.55L2917.2 404.567Z" fill="#E0E0E0"/>
<path d="M2917.2 456.36H1211.64L1206.99 424.978H2912.55L2917.2 456.36Z" fill="#E0E0E0"/>
<path d="M2917.2 508.152H1211.64L1206.99 476.771H2912.55L2917.2 508.152Z" fill="#E0E0E0"/>
<path d="M2917.2 559.945H1211.64L1206.99 528.563H2912.55L2917.2 559.945Z" fill="#E0E0E0"/>
<path d="M2389.64 795.637C2439.24 802.286 2469.95 694.645 2360.32 603.293C2366.23 709.006 2303.07 783.736 2389.64 795.637Z" fill="#F0F0F0"/>
<path d="M2420.89 863.852C2492.83 813.389 2443.63 637.135 2220.83 649.9C2317.24 779.615 2295.43 951.747 2420.89 863.852Z" fill="#E0E0E0"/>
<path d="M2395.49 862.655C2347.62 811.129 2415.77 681.481 2587.83 728.819C2490.7 814.187 2478.93 952.478 2395.49 862.655Z" fill="#E0E0E0"/>
<path d="M2321.42 968.634H2469.29L2480.46 870.301H2310.25L2321.42 968.634Z" fill="#EBEBEB"/>
<path d="M2299.22 887.854H2491.49V866.179H2299.22V887.854Z" fill="#EBEBEB"/>
<path d="M1592.54 843.64C1592.54 843.64 1599.99 969.099 1885.08 969.099C2170.17 969.099 2177.62 843.64 2177.62 843.64H1592.54Z" fill="#E0E0E0"/>
<path d="M657.281 1393.35H475.642V2141.45H657.281V1393.35Z" fill="#E6E6E6"/>
<path d="M1972.04 2141.45H510.479V2176.75H1972.04V2141.45Z" fill="#E6E6E6"/>
<path d="M657.214 2141.45H2006.88V1393.35H657.214V2141.45Z" fill="#FAFAFA"/>
<path d="M728.619 1858.75L1935.47 1858.75V1676.04L728.619 1676.04V1858.75Z" fill="#E6E6E6"/>
<path d="M728.619 2074.83H1935.47V1892.12L728.619 1892.12V2074.83Z" fill="#E6E6E6"/>
<path d="M1692.13 1696.06H972.025C968.704 1696.06 965.518 1694.74 963.163 1692.4C960.808 1690.06 959.477 1686.88 959.459 1683.56C959.459 1680.22 960.783 1677.03 963.139 1674.67C965.496 1672.32 968.692 1670.99 972.025 1670.99H1692.13C1695.47 1670.99 1698.66 1672.32 1701.02 1674.67C1703.38 1677.03 1704.7 1680.22 1704.7 1683.56C1704.68 1686.88 1703.35 1690.06 1701 1692.4C1698.64 1694.74 1695.46 1696.06 1692.13 1696.06Z" fill="#FAFAFA"/>
<path d="M728.619 1642.67L1935.47 1642.67V1459.97L728.619 1459.97V1642.67Z" fill="#E6E6E6"/>
<path d="M1692.13 1480.04H972.025C968.692 1480.04 965.496 1478.72 963.139 1476.36C960.783 1474.01 959.459 1470.81 959.459 1467.48C959.477 1464.16 960.808 1460.98 963.163 1458.63C965.518 1456.29 968.704 1454.98 972.025 1454.98H1692.13C1695.46 1454.98 1698.64 1456.29 1701 1458.63C1703.35 1460.98 1704.68 1464.16 1704.7 1467.48C1704.7 1470.81 1703.38 1474.01 1701.02 1476.36C1698.66 1478.72 1695.47 1480.04 1692.13 1480.04Z" fill="#FAFAFA"/>
<path d="M1692.13 1912.14H972.025C968.692 1912.14 965.496 1910.81 963.139 1908.46C960.783 1906.1 959.459 1902.9 959.459 1899.57C959.477 1896.25 960.808 1893.07 963.163 1890.73C965.518 1888.39 968.704 1887.07 972.025 1887.07H1692.13C1695.46 1887.07 1698.64 1888.39 1701 1890.73C1703.35 1893.07 1704.68 1896.25 1704.7 1899.57C1704.7 1902.9 1703.38 1906.1 1701.02 1908.46C1698.66 1910.81 1695.47 1912.14 1692.13 1912.14Z" fill="#FAFAFA"/>
<path d="M2031.15 1331.91H657.281V1393.35H2031.15V1331.91Z" fill="#E6E6E6"/>
<path d="M450.244 1393.41H657.281V1331.98H450.244V1393.41Z" fill="#E0E0E0"/>
<path d="M877.948 367.202H442.531V845.303H877.948V367.202Z" fill="#E0E0E0"/>
<path d="M824.425 388.345C823.79 388.332 823.169 388.149 822.63 387.813C821.566 387.214 719.111 326.247 686.865 326.247C654.62 326.247 556.885 387.148 555.955 387.746C555.553 387.999 555.105 388.171 554.637 388.251C554.17 388.331 553.69 388.319 553.227 388.214C552.764 388.109 552.326 387.914 551.939 387.64C551.551 387.365 551.221 387.018 550.968 386.616C550.715 386.214 550.543 385.767 550.463 385.299C550.383 384.831 550.396 384.352 550.501 383.889C550.606 383.426 550.801 382.988 551.075 382.6C551.349 382.213 551.697 381.883 552.098 381.63C556.154 379.103 652.559 319 686.865 319C721.172 319 822.031 378.837 826.486 381.563C827.108 381.997 827.58 382.614 827.836 383.328C828.092 384.042 828.12 384.818 827.915 385.548C827.711 386.279 827.284 386.927 826.694 387.405C826.105 387.882 825.381 388.164 824.624 388.212L824.425 388.345Z" fill="#E0E0E0"/>
<path d="M925.02 367.202H475.309V845.303H925.02V367.202Z" fill="#F5F5F5"/>
<path d="M887.387 807.671V404.899H513.004V807.671H887.387Z" fill="white"/>
<path d="M791.182 700.961H609.077C608.124 700.961 607.211 700.583 606.538 699.91C605.865 699.236 605.486 698.323 605.486 697.371V515.133C605.486 514.181 605.865 513.268 606.538 512.594C607.211 511.921 608.124 511.543 609.077 511.543H791.182C792.134 511.543 793.047 511.921 793.72 512.594C794.394 513.268 794.772 514.181 794.772 515.133V697.371C794.772 698.323 794.394 699.236 793.72 699.91C793.047 700.583 792.134 700.961 791.182 700.961ZM612.534 693.714H787.525V518.59H612.667L612.534 693.714Z" fill="#F5F5F5"/>
<path d="M640.99 547.046L759.402 665.458V547.046H640.99Z" fill="#F5F5F5"/>
<path d="M2176.48 2177.61H2432.59V1870.72H2176.48V2177.61Z" fill="#E6E6E6"/>
<path d="M2176.42 1870.65H2432.52L2381.13 1779.1H2125.02L2176.42 1870.65Z" fill="#E6E6E6"/>
<path d="M2682.24 1779.1H2938.35L2886.95 1870.65H2630.85L2682.24 1779.1Z" fill="#F0F0F0"/>
<path d="M2886.89 1870.65H2432.52V2177.55H2886.89V1870.65Z" fill="#FAFAFA"/>
<path d="M2533.05 1972.04H2428.93V2076.16H2533.05V1972.04Z" fill="#E6E6E6"/>
<path d="M1662.15 2477C2374.1 2477 2951.25 2443.3 2951.25 2401.74C2951.25 2360.17 2374.1 2326.48 1662.15 2326.48C950.202 2326.48 373.054 2360.17 373.054 2401.74C373.054 2443.3 950.202 2477 1662.15 2477Z" fill="#F5F5F5"/>
<path d="M1520.13 353.106C1528.38 327.908 1532.57 190.216 1394.34 223.392C1291.62 248.059 1322.21 378.77 1222.28 393.53C1222.28 393.53 1369.34 463.34 1417.21 366.936C1454.91 290.809 1494.07 359.888 1494.07 359.888L1520.13 353.106Z" fill="#263238"/>
<path d="M1491.88 377.108C1485.69 371.523 1483.03 357.561 1487.82 355.3C1492.61 353.04 1517.94 345.992 1525.05 347.255C1533.16 348.652 1531.7 368.265 1531.7 368.265L1491.88 377.108Z" fill="#407BFF"/>
<path opacity="0.2" d="M1491.88 377.108C1485.69 371.523 1483.03 357.561 1487.82 355.3C1492.61 353.04 1517.94 345.992 1525.05 347.255C1533.16 348.652 1531.7 368.265 1531.7 368.265L1491.88 377.108Z" fill="black"/>
<path d="M1127.53 1935.27L1176.47 1940.06L1227.33 1823.71L1178.4 1818.92L1127.53 1935.27Z" fill="#E4897B"/>
<path d="M687.129 1631.5L709.136 1677.04L821.696 1640.67L799.69 1595.13L687.129 1631.5Z" fill="#E4897B"/>
<path d="M721.437 1674.12L725.294 1617.34C725.364 1616.36 725.079 1615.39 724.493 1614.61C723.907 1613.83 723.058 1613.29 722.102 1613.08L677.69 1603.57C676.568 1603.38 675.417 1603.42 674.311 1603.69C673.206 1603.97 672.171 1604.47 671.274 1605.18C670.377 1605.88 669.638 1606.76 669.105 1607.77C668.573 1608.78 668.258 1609.88 668.182 1611.02C667.118 1630.97 667.65 1640.47 665.922 1665.41C664.858 1680.76 660.337 1714.54 658.874 1735.68C657.411 1756.82 678.288 1759.48 680.814 1750.77C691.984 1711.81 705.614 1694.86 717.714 1682.29C719.867 1680.08 721.183 1677.19 721.437 1674.12Z" fill="#263238"/>
<path d="M1182.92 1924.97H1123.08C1122 1924.99 1120.96 1925.35 1120.11 1926.01C1119.26 1926.67 1118.65 1927.59 1118.36 1928.62L1105.06 1976.09C1104.74 1977.22 1104.68 1978.4 1104.9 1979.55C1105.12 1980.69 1105.6 1981.77 1106.31 1982.7C1107.03 1983.62 1107.95 1984.37 1109 1984.87C1110.05 1985.38 1111.21 1985.63 1112.38 1985.6C1133.52 1985.6 1143.56 1985.6 1169.95 1985.6H1250.67C1272.54 1985.6 1277.26 1963.4 1268.09 1961.4C1227.4 1952.36 1203.93 1939.99 1191.36 1928.16C1189.05 1926.07 1186.03 1924.93 1182.92 1924.97Z" fill="#263238"/>
<path d="M1227.26 1823.78L1201.07 1883.75H1150.07L1178.4 1818.99L1227.26 1823.78Z" fill="#CE6F64"/>
<path d="M799.692 1595.13L821.698 1640.67L763.656 1659.42L741.649 1613.81L799.692 1595.13Z" fill="#CE6F64"/>
<path d="M718.844 1702.97C717.812 1703.02 716.782 1702.83 715.835 1702.42C714.889 1702 714.052 1701.37 713.392 1700.58C709.403 1695.52 712.129 1683.96 714.124 1677.57C714.187 1677.35 714.315 1677.14 714.492 1676.99C714.67 1676.84 714.888 1676.74 715.121 1676.71C715.355 1676.7 715.587 1676.75 715.796 1676.86C716.005 1676.96 716.184 1677.12 716.318 1677.31C717.315 1679.1 726.158 1695.13 722.966 1700.84C722.622 1701.48 722.114 1702.01 721.494 1702.39C720.875 1702.76 720.166 1702.96 719.442 1702.97H718.844ZM715.586 1681.03C713.259 1689.74 713.126 1696.39 715.586 1699.05C716.089 1699.65 716.74 1700.11 717.475 1700.37C718.211 1700.64 719.004 1700.71 719.775 1700.58C720.085 1700.59 720.393 1700.52 720.663 1700.36C720.933 1700.21 721.155 1699.99 721.304 1699.71C722.634 1696.72 718.977 1687.55 715.586 1681.03Z" fill="#407BFF"/>
<path d="M732.008 1692.67C726.157 1692.67 716.517 1683.22 714.19 1678.44C714.091 1678.25 714.039 1678.05 714.039 1677.84C714.039 1677.63 714.091 1677.42 714.19 1677.24C714.323 1677.09 714.485 1676.96 714.668 1676.87C714.851 1676.78 715.05 1676.72 715.254 1676.71C715.918 1676.71 730.412 1677.84 735.199 1683.36C735.757 1684.09 736.157 1684.93 736.374 1685.82C736.592 1686.71 736.622 1687.64 736.463 1688.54C736.379 1689.5 735.97 1690.39 735.304 1691.08C734.639 1691.77 733.757 1692.21 732.806 1692.33L732.008 1692.67ZM717.514 1679.37C721.038 1684.49 728.817 1690.87 732.34 1690.27C732.872 1690.27 733.604 1689.94 733.87 1688.41C734.006 1687.84 734.005 1687.25 733.866 1686.68C733.727 1686.12 733.455 1685.59 733.072 1685.15C728.6 1681.67 723.174 1679.63 717.514 1679.3V1679.37Z" fill="#407BFF"/>
<path d="M1209.58 1934.74C1204.05 1934.61 1198.55 1933.92 1193.15 1932.68C1192.91 1932.62 1192.68 1932.49 1192.52 1932.3C1192.35 1932.11 1192.25 1931.87 1192.22 1931.62C1192.19 1931.37 1192.23 1931.12 1192.35 1930.91C1192.47 1930.69 1192.66 1930.52 1192.89 1930.42C1196.94 1928.49 1217.36 1919.25 1222.81 1922.91C1223.33 1923.27 1223.74 1923.76 1224.01 1924.33C1224.28 1924.9 1224.39 1925.53 1224.34 1926.16C1224.29 1927.29 1223.99 1928.4 1223.46 1929.4C1222.93 1930.4 1222.18 1931.27 1221.28 1931.95C1217.76 1934.06 1213.67 1935.04 1209.58 1934.74ZM1197.28 1931.08C1208.05 1933.01 1216.29 1932.68 1219.82 1930.02C1220.44 1929.56 1220.96 1928.96 1221.33 1928.27C1221.7 1927.58 1221.91 1926.81 1221.94 1926.03C1221.94 1925.3 1221.94 1925.03 1221.48 1924.9C1218.55 1923.04 1206.25 1927.29 1197.28 1931.22V1931.08Z" fill="#407BFF"/>
<path d="M1193.42 1932.81C1193.17 1932.92 1192.88 1932.92 1192.62 1932.81C1192.46 1932.67 1192.34 1932.48 1192.27 1932.27C1192.19 1932.06 1192.18 1931.83 1192.23 1931.62C1192.23 1930.69 1197.48 1909.08 1209.45 1910.47C1212.5 1910.81 1213.37 1912.34 1213.5 1913.6C1214.3 1919.25 1200.6 1930.22 1193.56 1933.01L1193.42 1932.81ZM1208.32 1912.87C1201.13 1912.87 1196.81 1924.5 1195.02 1929.75C1201.67 1925.96 1211.37 1917.26 1210.97 1914C1210.97 1913.4 1210.18 1913.07 1208.91 1912.87H1208.32Z" fill="#407BFF"/>
<path d="M1470.2 941.574C1470.2 941.574 1476.85 1343.08 1424.39 1488.15C1373.87 1627.24 1223.14 1866.33 1223.14 1866.33L1135.78 1864.13C1135.78 1864.13 1274.54 1561.42 1297.27 1441.61C1335.04 1243.02 1326.73 896.43 1326.73 896.43L1470.2 941.574Z" fill="#407BFF"/>
<path opacity="0.5" d="M1470.2 941.574C1470.2 941.574 1476.85 1343.08 1424.39 1488.15C1373.87 1627.24 1223.14 1866.33 1223.14 1866.33L1135.78 1864.13C1135.78 1864.13 1274.54 1561.42 1297.27 1441.61C1335.04 1243.02 1326.73 896.43 1326.73 896.43L1470.2 941.574Z" fill="white"/>
<path opacity="0.22" d="M1391.75 975.881L1368.28 909.395L1326.73 896.098C1326.73 896.098 1330.51 1053.87 1321.41 1217.49C1359.1 1145.22 1391.75 1012.25 1391.75 975.881Z" fill="#407BFF"/>
<path d="M1427.25 928.609C1427.25 928.609 1290.96 1240.36 1202.86 1417.81C1131.72 1561.16 784.002 1664.81 784.002 1664.81L756.609 1600.72C756.609 1600.72 1016.57 1483.57 1065.7 1386.36C1222.94 1075.34 1184.18 947.159 1274.6 879.542L1427.25 928.609Z" fill="#407BFF"/>
<path opacity="0.5" d="M1427.25 928.609C1427.25 928.609 1290.96 1240.36 1202.86 1417.81C1131.72 1561.16 784.002 1664.81 784.002 1664.81L756.609 1600.72C756.609 1600.72 1016.57 1483.57 1065.7 1386.36C1222.94 1075.34 1184.18 947.159 1274.6 879.542L1427.25 928.609Z" fill="white"/>
<path d="M1610.69 415.537C1613.75 433.023 1615.08 490.932 1574.59 503.631C1534.1 516.33 1610.69 415.537 1610.69 415.537Z" fill="#263238"/>
<path d="M1593.87 677.226L1596.46 680.616L1599.59 684.539C1601.78 687.198 1603.97 689.858 1606.23 692.451C1610.82 697.77 1615.87 702.823 1620.93 707.743C1631.05 717.794 1641.92 727.062 1653.44 735.467C1664.9 743.996 1676.97 751.684 1689.54 758.471C1695.79 762.062 1702.37 764.788 1708.82 767.912L1709.89 768.444C1709.89 768.444 1710.22 768.444 1710.42 768.444C1711.01 768.5 1711.62 768.5 1712.21 768.444C1714.31 768.722 1716.43 768.722 1718.53 768.444C1731.22 765.599 1743.35 760.68 1754.43 753.884C1767.25 746.537 1779.68 738.525 1791.66 729.882C1803.9 721.173 1815.93 711.798 1827.77 702.158C1839.6 692.517 1851.5 682.611 1862.94 672.771L1881.55 690.456C1861.19 715.085 1838.96 738.112 1815.07 759.336C1802.87 770.278 1789.97 780.406 1776.44 789.653C1761.62 800.234 1745.05 808.132 1727.5 812.99C1721.97 814.264 1716.3 814.889 1710.62 814.851C1707.36 814.773 1704.11 814.439 1700.91 813.854C1699.18 813.455 1697.52 813.123 1695.79 812.591L1691.4 811.062C1683.56 807.937 1675.65 805.078 1668.07 801.355C1652.7 794.456 1637.98 786.224 1624.05 776.755C1610.11 767.238 1596.93 756.657 1584.63 745.108C1578.58 739.257 1572.66 733.207 1567.01 726.758C1564.15 723.566 1561.42 720.109 1558.7 716.851L1554.71 711.599C1553.31 709.737 1552.18 708.141 1550.45 705.549L1593.87 677.226Z" fill="#E4897B"/>
<path d="M1537.09 641.922C1598.05 647.107 1635.15 705.682 1635.15 705.682L1562.02 777.287C1562.02 777.287 1512.22 727.023 1507.7 699.432C1503.11 670.643 1505.77 639.262 1537.09 641.922Z" fill="#263238"/>
<path d="M1859.15 685.602L1861.61 640.458L1908.15 666.189C1908.15 666.189 1894.85 691.254 1875.43 698.767L1859.15 685.602Z" fill="#E4897B"/>
<path d="M1891.26 607.282L1921.98 632.813L1907.81 666.189L1861.61 640.459L1891.26 607.282Z" fill="#E4897B"/>
<path d="M1586.49 658.809C1586.49 658.809 1605.83 673.037 1470.2 941.574L1274.27 879.542C1302.79 800.823 1318.41 751.69 1332.11 575.968C1361.25 578.987 1390.14 584.12 1418.54 591.326C1448.85 598.583 1478.6 608.004 1507.57 619.516C1534.53 631.257 1560.87 644.372 1586.49 658.809Z" fill="#263238"/>
<path d="M1459.3 493.924C1455.84 524.374 1444.87 578.561 1418.74 591.326C1418.74 591.326 1417.41 622.84 1470.6 639.661C1529.11 658.211 1507.77 619.715 1507.77 619.715C1478.25 601.964 1486.56 578.561 1499.12 558.083L1459.3 493.924Z" fill="#E4897B"/>
<path d="M1475.52 519.987L1499.12 557.817C1496.11 562.562 1493.53 567.569 1491.41 572.776C1479.78 567.125 1464.82 550.371 1467.54 537.206C1469.17 531.042 1471.87 525.213 1475.52 519.987Z" fill="#CE6F64"/>
<path d="M1473.13 426.175C1456.37 473.579 1448.33 493.259 1461.56 526.835C1481.5 577.297 1543.34 587.47 1573.85 546.115C1601.38 508.817 1624.12 437.677 1586.75 399.846C1578.52 391.547 1568.31 385.488 1557.08 382.247C1545.85 379.006 1533.98 378.689 1522.6 381.328C1511.21 383.966 1500.69 389.471 1492.03 397.32C1483.37 405.169 1476.87 415.102 1473.13 426.175Z" fill="#E4897B"/>
<path d="M1463.69 465.401C1488.15 462.609 1528.84 436.014 1531.57 415.67C1531.57 415.67 1580.57 449.445 1606.37 433.421C1628.9 419.393 1578.31 353.638 1518.07 363.212C1452.58 373.518 1444.21 431.759 1463.69 465.401Z" fill="#263238"/>
<path d="M1448.33 464.803C1445.52 474.106 1446.5 484.143 1451.06 492.727C1457.24 504.029 1469.47 500.705 1475.46 490.067C1480.84 480.493 1484.17 463.14 1474.26 455.362C1472.07 453.721 1469.5 452.653 1466.79 452.253C1464.08 451.854 1461.32 452.135 1458.74 453.072C1456.17 454.009 1453.87 455.572 1452.05 457.62C1450.23 459.668 1448.96 462.136 1448.33 464.803Z" fill="#E4897B"/>
<path d="M1235.44 1870.85L1127.53 1868.12L1133.78 1834.95L1251.6 1840.53L1235.44 1870.85Z" fill="#407BFF"/>
<path d="M784.532 1672.79L750.092 1592.34L780.143 1574.25L816.112 1665.61L784.532 1672.79Z" fill="#407BFF"/>
<path d="M1537.62 468.792C1536.09 472.515 1536.76 476.438 1539.22 477.435C1541.68 478.432 1544.93 476.305 1546.53 472.582C1548.12 468.858 1547.46 464.869 1545 463.872C1542.54 462.875 1539.22 465.002 1537.62 468.792Z" fill="#263238"/>
<path d="M1580.1 486.81C1578.51 490.533 1579.24 494.456 1581.7 495.453C1584.16 496.45 1587.42 494.323 1589.01 490.533C1590.61 486.743 1589.94 482.887 1587.48 481.89C1585.02 480.893 1581.7 483.02 1580.1 486.81Z" fill="#263238"/>
<path d="M1586.29 481.624L1596.39 482.821C1596.39 482.821 1589.01 487.94 1586.29 481.624Z" fill="#263238"/>
<path d="M1566.14 488.472C1565.86 498.459 1566.96 508.437 1569.4 518.125C1566.9 518.684 1564.31 518.694 1561.81 518.155C1559.31 517.615 1556.95 516.539 1554.91 515L1566.14 488.472Z" fill="#DE5753"/>
<path d="M1535.83 524.241H1535.36C1530.25 522.236 1525.7 519.033 1522.09 514.902C1518.48 510.772 1515.92 505.834 1514.62 500.506C1514.57 500.199 1514.65 499.888 1514.82 499.631C1514.99 499.373 1515.25 499.188 1515.55 499.109C1515.7 499.081 1515.87 499.084 1516.02 499.119C1516.18 499.154 1516.33 499.22 1516.46 499.313C1516.59 499.406 1516.7 499.524 1516.78 499.661C1516.86 499.797 1516.92 499.949 1516.94 500.107C1518.24 505.014 1520.67 509.552 1524.03 513.36C1527.39 517.168 1531.58 520.142 1536.29 522.047C1536.58 522.165 1536.81 522.391 1536.93 522.677C1537.06 522.962 1537.07 523.285 1536.96 523.576C1536.85 523.785 1536.69 523.959 1536.49 524.077C1536.29 524.195 1536.06 524.252 1535.83 524.241Z" fill="#263238"/>
<path d="M1531.57 449.843C1531.05 449.839 1530.54 449.663 1530.13 449.343C1529.71 449.023 1529.41 448.576 1529.28 448.071C1529.14 447.565 1529.18 447.03 1529.37 446.545C1529.57 446.061 1529.92 445.654 1530.37 445.388C1533.63 443.404 1537.32 442.229 1541.12 441.963C1544.93 441.697 1548.74 442.347 1552.25 443.859C1552.53 444 1552.79 444.197 1553 444.438C1553.21 444.68 1553.37 444.96 1553.47 445.264C1553.56 445.568 1553.6 445.888 1553.58 446.206C1553.55 446.524 1553.46 446.834 1553.31 447.117C1552.99 447.66 1552.48 448.068 1551.88 448.264C1551.28 448.46 1550.63 448.43 1550.05 448.181C1547.27 447.006 1544.26 446.513 1541.25 446.744C1538.24 446.976 1535.33 447.924 1532.77 449.511C1532.42 449.76 1532 449.878 1531.57 449.843Z" fill="#263238"/>
<path d="M1608.96 475.574C1608.4 475.582 1607.87 475.392 1607.44 475.039C1607.01 474.685 1606.73 474.191 1606.63 473.645C1606.14 470.677 1604.97 467.864 1603.2 465.429C1601.44 462.994 1599.13 461.004 1596.46 459.617C1596.16 459.508 1595.89 459.338 1595.66 459.119C1595.43 458.9 1595.24 458.636 1595.12 458.343C1594.99 458.05 1594.93 457.734 1594.93 457.416C1594.93 457.098 1595 456.783 1595.13 456.492C1595.38 455.911 1595.84 455.449 1596.43 455.202C1597.01 454.954 1597.66 454.94 1598.25 455.162C1601.72 456.801 1604.74 459.252 1607.05 462.308C1609.37 465.364 1610.91 468.934 1611.55 472.715C1611.61 473.025 1611.61 473.343 1611.54 473.651C1611.47 473.96 1611.35 474.252 1611.17 474.512C1610.99 474.771 1610.76 474.993 1610.5 475.163C1610.23 475.334 1609.93 475.451 1609.62 475.507L1608.96 475.574Z" fill="#263238"/>
<path d="M1334.64 653.556C1328.52 661.335 1322.8 667.851 1316.62 674.566C1310.44 681.281 1304.25 687.863 1297.87 694.113C1284.97 706.745 1271.28 718.779 1257.51 730.215C1243.43 741.795 1228.62 752.455 1213.17 762.128C1209.38 764.654 1205.32 766.915 1201.4 769.242C1197.48 771.569 1193.49 773.962 1189.3 775.89C1185.11 777.819 1181.32 780.146 1176.73 782.539L1169.29 785.797L1161.71 788.456C1142.66 793.998 1122.81 796.246 1103 795.105C1084.58 794.237 1066.27 791.745 1048.28 787.659C1030.78 783.682 1013.5 778.822 996.491 773.098C979.621 767.32 963.066 760.663 946.893 753.152L956.467 729.35C972.29 733.938 988.978 738.326 1005.4 741.783C1021.69 745.457 1038.15 748.298 1054.73 750.293C1070.82 752.356 1087.05 753.178 1103.27 752.753C1110.95 752.528 1118.61 751.817 1126.21 750.626C1133.24 749.393 1140.16 747.569 1146.88 745.174L1151.47 743.312L1155.79 741.118C1158.92 739.456 1162.44 737.063 1165.96 735.135C1169.49 733.207 1172.61 730.946 1176.2 728.486C1179.79 726.026 1182.85 724.164 1186.24 721.837C1199.54 712.463 1212.24 701.892 1224.87 691.32C1237.5 680.749 1249.34 669.181 1260.97 657.346C1266.89 651.495 1272.61 645.512 1278.26 639.461C1283.91 633.411 1289.49 626.962 1294.28 621.377L1334.64 653.556Z" fill="#E4897B"/>
<path d="M972.157 736.93L946.493 699.764L920.563 745.839C920.563 745.839 944.764 760.399 965.441 756.543L972.157 736.93Z" fill="#E4897B"/>
<path d="M903.807 686.999L890.976 724.829L920.562 745.839L946.491 699.764L903.807 686.999Z" fill="#E4897B"/>
<path d="M1332.11 575.967C1306.65 574.837 1256.58 637.4 1256.58 637.4L1310.17 713.261C1310.17 713.261 1366.95 664.46 1371.47 632.015C1375.33 604.423 1364.56 577.43 1332.11 575.967Z" fill="#263238"/>
<path d="M1543.8 463.606L1553.91 464.802C1553.91 464.802 1546.33 469.922 1543.8 463.606Z" fill="#263238"/>
<path d="M1439.55 565.13C1435.9 562.072 1432.9 572.577 1431.71 576.832C1431.55 577.388 1431.56 577.976 1431.72 578.529C1431.89 579.082 1432.2 579.577 1432.64 579.957C1439.82 586.14 1471.07 604.158 1488.88 598.506C1489.28 598.381 1489.63 598.134 1489.88 597.8C1490.13 597.466 1490.27 597.062 1490.28 596.645C1489.85 592.648 1489.63 588.631 1489.62 584.611C1489.64 584.35 1489.62 584.086 1489.54 583.837C1489.46 583.588 1489.32 583.358 1489.15 583.163C1488.97 582.969 1488.76 582.814 1488.52 582.708C1488.28 582.602 1488.02 582.548 1487.75 582.55C1470.1 582.79 1452.97 576.598 1439.55 565.13Z" fill="#407BFF"/>
<path opacity="0.2" d="M1439.55 565.13C1435.9 562.072 1432.9 572.577 1431.71 576.832C1431.55 577.388 1431.56 577.976 1431.72 578.529C1431.89 579.082 1432.2 579.577 1432.64 579.957C1439.82 586.14 1471.07 604.158 1488.88 598.506C1489.28 598.381 1489.63 598.134 1489.88 597.8C1490.13 597.466 1490.27 597.062 1490.28 596.645C1489.85 592.648 1489.63 588.631 1489.62 584.611C1489.64 584.35 1489.62 584.086 1489.54 583.837C1489.46 583.588 1489.32 583.358 1489.15 583.163C1488.97 582.969 1488.76 582.814 1488.52 582.708C1488.28 582.602 1488.02 582.548 1487.75 582.55C1470.1 582.79 1452.97 576.598 1439.55 565.13Z" fill="black"/>
<path d="M1274.93 867.11L1260.57 881.869C1259.44 883 1260.57 884.928 1262.9 885.659L1468.41 950.749C1470.14 951.347 1471.87 950.749 1472.33 949.884L1479.64 932.864C1480.18 931.667 1478.98 930.205 1477.05 929.606L1278.59 866.777C1278 866.518 1277.36 866.413 1276.72 866.471C1276.08 866.529 1275.47 866.749 1274.93 867.11Z" fill="#407BFF"/>
<path opacity="0.2" d="M1274.93 867.11L1260.57 881.869C1259.44 883 1260.57 884.928 1262.9 885.659L1468.41 950.749C1470.14 951.347 1471.87 950.749 1472.33 949.884L1479.64 932.864C1480.18 931.667 1478.98 930.205 1477.05 929.606L1278.59 866.777C1278 866.518 1277.36 866.413 1276.72 866.471C1276.08 866.529 1275.47 866.749 1274.93 867.11Z" fill="black"/>
<path d="M1294.61 897.56L1289.29 895.831C1288.23 895.499 1287.57 894.701 1287.9 894.103L1297.54 872.096C1297.82 871.737 1298.22 871.483 1298.67 871.375C1299.11 871.266 1299.58 871.309 1300 871.498L1305.32 873.226C1306.38 873.226 1307.05 874.357 1306.71 874.955L1297.01 896.962C1296.47 897.56 1295.68 898.092 1294.61 897.56Z" fill="#407BFF"/>
<path d="M1452.85 947.824L1447.53 946.161C1446.47 945.829 1445.87 945.031 1446.14 944.366L1455.84 922.359C1455.84 921.695 1457.24 921.429 1458.3 921.828L1463.62 923.49C1464.62 923.49 1465.28 924.62 1465.02 925.285L1455.31 947.225C1455.04 947.89 1453.91 948.156 1452.85 947.824Z" fill="#407BFF"/>
<path d="M1373.73 922.758L1368.41 921.096C1367.35 921.096 1366.75 919.966 1367.02 919.301L1376.72 897.294C1376.72 896.696 1378.05 896.43 1379.12 896.762L1384.44 898.424C1385.5 898.757 1386.16 899.554 1385.9 900.219L1376.26 922.226C1375.86 922.891 1374.79 923.09 1373.73 922.758Z" fill="#407BFF"/>
<path opacity="0.5" d="M1294.61 897.56L1289.29 895.831C1288.23 895.499 1287.57 894.701 1287.9 894.103L1297.54 872.096C1297.82 871.737 1298.22 871.483 1298.67 871.375C1299.11 871.266 1299.58 871.309 1300 871.498L1305.32 873.226C1306.38 873.226 1307.05 874.357 1306.71 874.955L1297.01 896.962C1296.47 897.56 1295.68 898.092 1294.61 897.56Z" fill="white"/>
<path opacity="0.5" d="M1452.85 947.824L1447.53 946.161C1446.47 945.829 1445.87 945.031 1446.14 944.366L1455.84 922.359C1455.84 921.695 1457.24 921.429 1458.3 921.828L1463.62 923.49C1464.62 923.49 1465.28 924.62 1465.02 925.285L1455.31 947.225C1455.04 947.89 1453.91 948.156 1452.85 947.824Z" fill="white"/>
<path opacity="0.5" d="M1373.73 922.758L1368.41 921.096C1367.35 921.096 1366.75 919.966 1367.02 919.301L1376.72 897.294C1376.72 896.696 1378.05 896.43 1379.12 896.762L1384.44 898.424C1385.5 898.757 1386.16 899.554 1385.9 900.219L1376.26 922.226C1375.86 922.891 1374.79 923.09 1373.73 922.758Z" fill="white"/>
<path opacity="0.2" d="M663.729 1951.23C769.707 2110.8 1082.92 2135.46 1215.96 2040.19C1404.78 1904.95 1394.34 1547.53 1590.48 1420.87C1951.1 1188.17 2391.77 1827.23 2670.54 1192.29V2378.73H663.729V1951.23Z" fill="#407BFF"/>
<path d="M1002.94 2098.89C968.956 2098.88 935.042 2095.79 901.616 2089.65C792.047 2069.71 706.679 2020.97 661.402 1952.82C661.106 1952.2 661.045 1951.5 661.229 1950.83C661.414 1950.17 661.832 1949.59 662.406 1949.21C662.98 1948.83 663.672 1948.67 664.355 1948.76C665.038 1948.85 665.665 1949.18 666.122 1949.7C709.937 2015.59 796.102 2064.59 902.613 2084.07C1022.29 2106.01 1144.49 2087.86 1214.3 2037.86C1306.32 1971.97 1351.59 1850.5 1395.34 1733.02C1441.02 1610.36 1488.42 1483.5 1588.95 1418.48C1737.61 1322.47 1900.23 1373.73 2057.61 1423.26C2287.25 1495.67 2504.26 1564.01 2667.95 1191.16C2668.31 1190.58 2668.87 1190.15 2669.53 1189.94C2670.18 1189.74 2670.89 1189.78 2671.52 1190.05C2672.15 1190.33 2672.66 1190.82 2672.95 1191.44C2673.25 1192.06 2673.31 1192.76 2673.13 1193.42C2597.67 1365.22 2506.92 1456.11 2387.84 1479.31C2282.79 1499.92 2172.56 1465.22 2055.88 1428.45C1899.84 1379.32 1738.41 1328.72 1592.01 1423.06C1492.94 1487.02 1445.74 1612.95 1400.59 1734.82C1356.58 1853.1 1310.97 1975.36 1217.62 2042.31C1166.56 2079.02 1088.04 2098.89 1002.94 2098.89Z" fill="#407BFF"/>
<path d="M830.009 1800.31H545.516V2378.73H830.009V1800.31Z" fill="#407BFF"/>
<path opacity="0.3" d="M830.009 1800.31H545.516V2378.73H830.009V1800.31Z" fill="black"/>
<path d="M1298.34 1985.74H1013.84V2378.73H1298.34V1985.74Z" fill="#407BFF"/>
<path opacity="0.3" d="M1298.34 1985.74H1013.84V2378.73H1298.34V1985.74Z" fill="black"/>
<path d="M1766.66 1653.7H1482.17V2378.73H1766.66V1653.7Z" fill="#407BFF"/>
<path opacity="0.3" d="M1766.66 1653.7H1482.17V2378.73H1766.66V1653.7Z" fill="black"/>
<path d="M2234.92 1255.32H1950.43V2378.73H2234.92V1255.32Z" fill="#407BFF"/>
<path opacity="0.3" d="M2234.92 1255.32H1950.43V2378.73H2234.92V1255.32Z" fill="black"/>
<path d="M2703.25 703.354H2418.76V2378.73H2703.25V703.354Z" fill="#407BFF"/>
<path opacity="0.3" d="M2703.25 703.354H2418.76V2378.73H2703.25V703.354Z" fill="black"/>
<path d="M905.537 1800.31H621.044V2378.73H905.537V1800.31Z" fill="#407BFF"/>
<path opacity="0.1" d="M905.537 1800.31H621.044V2378.73H905.537V1800.31Z" fill="black"/>
<path d="M1373.86 1985.74H1089.37V2378.73H1373.86V1985.74Z" fill="#407BFF"/>
<path opacity="0.1" d="M1373.86 1985.74H1089.37V2378.73H1373.86V1985.74Z" fill="black"/>
<path d="M1842.12 1653.7H1557.63V2378.73H1842.12V1653.7Z" fill="#407BFF"/>
<path opacity="0.1" d="M1842.12 1653.7H1557.63V2378.73H1842.12V1653.7Z" fill="black"/>
<path d="M2310.45 1255.32H2025.96V2378.73H2310.45V1255.32Z" fill="#407BFF"/>
<path opacity="0.1" d="M2310.45 1255.32H2025.96V2378.73H2310.45V1255.32Z" fill="black"/>
<path d="M2778.78 703.354H2494.29V2378.73H2778.78V703.354Z" fill="#407BFF"/>
<path opacity="0.1" d="M2778.78 703.354H2494.29V2378.73H2778.78V703.354Z" fill="black"/>
<path d="M2192.31 938.316C2174.03 920.031 2149.24 909.754 2123.39 909.748C2097.53 909.742 2072.73 920.006 2054.45 938.283C2036.16 956.56 2025.89 981.352 2025.88 1007.21C2025.87 1033.06 2036.14 1057.86 2054.42 1076.14L2123.36 1145.02L2192.24 1076.08C2201.29 1067.03 2208.47 1056.3 2213.37 1044.48C2218.28 1032.67 2220.8 1020 2220.81 1007.21C2220.81 994.417 2218.3 981.749 2213.41 969.928C2208.52 958.107 2201.35 947.365 2192.31 938.316Z" fill="#407BFF"/>
<path opacity="0.1" d="M2192.31 938.316C2174.03 920.031 2149.24 909.754 2123.39 909.748C2097.53 909.742 2072.73 920.006 2054.45 938.283C2036.16 956.56 2025.89 981.352 2025.88 1007.21C2025.87 1033.06 2036.14 1057.86 2054.42 1076.14L2123.36 1145.02L2192.24 1076.08C2201.29 1067.03 2208.47 1056.3 2213.37 1044.48C2218.28 1032.67 2220.8 1020 2220.81 1007.21C2220.81 994.417 2218.3 981.749 2213.41 969.928C2208.52 958.107 2201.35 947.365 2192.31 938.316Z" fill="black"/>
</svg>
