<svg width="3073" height="2341" viewBox="0 0 3073 2341" fill="none" xmlns="http://www.w3.org/2000/svg">
<path d="M3072.98 2012.18H0V2013.72H3072.98V2012.18Z" fill="#E6E6E6"/>
<path d="M590.072 2066.33H382.708V2067.87H590.072V2066.33Z" fill="#E6E6E6"/>
<path d="M758.227 2065.53H635.185V2067.07H758.227V2065.53Z" fill="#E6E6E6"/>
<path d="M1348.11 2105.85H765.539V2107.38H1348.11V2105.85Z" fill="#E6E6E6"/>
<path d="M1973.65 2052.56H1558.92V2054.1H1973.65V2052.56Z" fill="#E6E6E6"/>
<path d="M2542.4 2066.21H2172.59V2067.74H2542.4V2066.21Z" fill="#E6E6E6"/>
<path d="M1456.59 1738.07H269.868C260.571 1738.06 251.661 1734.35 245.093 1727.77C238.525 1721.19 234.836 1712.28 234.836 1702.98V34.7861C234.917 25.5427 238.641 16.7046 245.201 10.1913C251.76 3.67809 260.624 0.0158343 269.868 0H1456.59C1465.9 0 1474.82 3.69733 1481.4 10.2786C1487.99 16.8599 1491.68 25.786 1491.68 35.0934V1702.98C1491.68 1712.29 1487.99 1721.21 1481.4 1727.8C1474.82 1734.38 1465.9 1738.07 1456.59 1738.07ZM269.868 1.22919C260.979 1.24548 252.459 4.78809 246.179 11.0795C239.899 17.3708 236.372 25.8969 236.372 34.7861V1702.98C236.372 1711.87 239.899 1720.4 246.179 1726.69C252.459 1732.98 260.979 1736.52 269.868 1736.54H1456.59C1465.48 1736.52 1474.01 1732.98 1480.3 1726.69C1486.59 1720.4 1490.13 1711.88 1490.15 1702.98V34.7861C1490.13 25.8912 1486.59 17.3653 1480.3 11.0757C1474.01 4.7861 1465.48 1.24544 1456.59 1.22919H269.868Z" fill="#E6E6E6"/>
<path d="M2786.02 1738.07H1599.24C1589.93 1738.06 1581.02 1734.36 1574.44 1727.78C1567.86 1721.2 1564.16 1712.28 1564.14 1702.98V34.7861C1564.24 25.5371 1567.98 16.699 1574.55 10.1875C1581.12 3.67595 1589.99 0.0156617 1599.24 0H2786.02C2795.25 0.0319866 2804.1 3.70139 2810.65 10.2129C2817.19 16.7244 2820.91 25.5533 2820.99 34.7861V1702.98C2820.99 1712.27 2817.31 1721.17 2810.76 1727.75C2804.2 1734.33 2795.31 1738.04 2786.02 1738.07ZM1599.24 1.22919C1590.34 1.24544 1581.82 4.7861 1575.53 11.0757C1569.24 17.3653 1565.7 25.8912 1565.68 34.7861V1702.98C1565.7 1711.88 1569.24 1720.4 1575.53 1726.69C1581.82 1732.98 1590.34 1736.52 1599.24 1736.54H2786.02C2794.91 1736.52 2803.44 1732.98 2809.73 1726.69C2816.02 1720.4 2819.56 1711.88 2819.58 1702.98V34.7861C2819.56 25.8912 2816.02 17.3653 2809.73 11.0757C2803.44 4.7861 2794.91 1.24544 2786.02 1.22919H1599.24Z" fill="#E6E6E6"/>
<path d="M1680.73 1616.38C1571.64 1447.31 1584 1945.62 1383.58 1724.18C1137.31 1452.16 783.979 1360.96 938.426 1569.18C1092.87 1777.41 1000.99 1849.5 611.154 1616.38C328.441 1447.31 849.802 1954.41 707.031 1934.93C564.261 1915.45 347.678 1868.37 532.363 2011.69L1730.45 2012.18C1730.45 2012.18 1789.82 1785.28 1680.73 1616.38Z" fill="#F5F5F5"/>
<path d="M2209.53 2012.18H1942.98C1804.08 1916.49 1726.77 1660.21 1922.15 1381.67C1957.95 1331.19 1998.49 1284.25 2043.22 1241.48C2117.16 1632.67 2435.76 1896.15 2209.53 2012.18Z" fill="#EBEBEB"/>
<path d="M1717.42 2012.18H1983.97C2107.69 1941.44 2144.08 1752.03 1904.38 1546.14C1859.3 1507.96 1811.34 1473.32 1760.94 1442.52C1749.32 1731.68 1472.75 1926.39 1717.42 2012.18Z" fill="#EBEBEB"/>
<path d="M2401.59 2012.18H2181.14C2078.81 1953.67 2048.69 1797.08 2246.96 1626.71C2284.23 1595.12 2323.89 1566.46 2365.58 1540.97C2375.16 1780.17 2603.98 1941.2 2401.59 2012.18Z" fill="#EBEBEB"/>
<path d="M2243.27 2012.18C2243.27 2012.18 2249.42 1939.05 2316.29 1901.56C2299.64 1935.94 2292.25 1974.07 2294.84 2012.18H2243.27Z" fill="#F5F5F5"/>
<path d="M1882.69 2012.18C1882.69 2012.18 1876.54 1939.05 1809.68 1901.56C1826.32 1935.94 1833.72 1974.07 1831.13 2012.18H1882.69Z" fill="#F5F5F5"/>
<path d="M967.618 2012.18C967.618 2012.18 961.472 1939.05 894.604 1901.56C911.252 1935.94 918.646 1974.07 916.054 2012.18H967.618Z" fill="#EBEBEB"/>
<path d="M388.792 2012.18C388.792 2012.18 367.282 1910.04 267.226 1857.43C296.327 1904.11 313.371 1957.29 316.823 2012.18H388.792Z" fill="#FAFAFA"/>
<path d="M2696.84 2012.18C2696.84 2012.18 2713.81 1861.98 2591.81 1784.78C2626.6 1893.69 2591.01 2012.18 2591.01 2012.18H2696.84Z" fill="#EBEBEB"/>
<path d="M2629.05 2012.18C2629.05 2012.18 2663.47 1889.26 2788.05 1826.33C2749.41 1881.62 2724.55 1945.34 2715.53 2012.18H2629.05Z" fill="#EBEBEB"/>
<path d="M2204.55 2012.18C2204.55 2012.18 2209.04 1889.26 2290.6 1844.83C2254.21 1907.83 2256.3 2012.18 2256.3 2012.18H2204.55Z" fill="#F5F5F5"/>
<path d="M1374.97 2012.18C1376.56 1999.82 1380.95 1987.98 1387.81 1977.58C1394.67 1967.17 1403.82 1958.47 1414.55 1952.14C1405.51 1970.8 1401.5 1991.5 1402.94 2012.18H1374.97Z" fill="#EBEBEB"/>
<path d="M1373.93 2012.18C1372.34 1999.82 1367.95 1987.98 1361.09 1977.58C1354.23 1967.17 1345.08 1958.47 1334.35 1952.14C1343.39 1970.8 1347.4 1991.5 1345.96 2012.18H1373.93Z" fill="#EBEBEB"/>
<path d="M1354.14 2012.18C1354.14 2012.18 1356.6 1945.62 1400.72 1921.41C1381 1955.58 1382.29 2012.18 1382.29 2012.18H1354.14Z" fill="#EBEBEB"/>
<path d="M617.914 2012.18C617.914 2012.18 623.138 1959.08 556.454 1921.41C583.865 1974.45 566.472 2012.18 566.472 2012.18H617.914Z" fill="#EBEBEB"/>
<path d="M619.818 2012.18C619.818 2012.18 625.964 1939.05 692.832 1901.56C676.184 1935.94 668.791 1974.07 671.383 2012.18H619.818Z" fill="#EBEBEB"/>
<path d="M656.326 2012.18C656.326 2012.18 651.839 1889.26 570.282 1844.83C606.666 1907.83 604.577 2012.18 604.577 2012.18H656.326Z" fill="#EBEBEB"/>
<path d="M328.992 804.628C351.179 776.602 395.86 754.907 428.864 756.259C433.746 756.093 438.613 756.898 443.181 758.628C447.75 760.359 451.929 762.979 455.476 766.338C515.767 731.429 585.155 709.918 642.436 712.315C671.567 713.483 694.246 720.674 710.041 732.413C774.758 679.68 857.544 642.313 917.159 642.313C951.147 642.313 972.473 654.605 979.848 674.579C1046.29 639.24 1114.51 617.483 1169.57 617.483C1257.28 617.483 1285.79 672.797 1249.9 750.297C1264.28 764.863 1333.49 785.329 1330.66 809.79H325.12C326.349 808.069 327.578 806.41 328.992 804.628Z" fill="#F5F5F5"/>
<path d="M1315.23 319.958C1331.52 320.757 1342.89 326.719 1349.16 336.368C1431.27 279.456 1523.89 244.547 1598.44 248.419C1636.54 250.263 1665.49 262.063 1684.79 281.177C1774.03 195.134 1885.33 134.719 1963.69 134.719C2008.25 134.719 2034.8 154.386 2042.67 187.206C2132.77 129.495 2223.97 94.1559 2296 94.1559C2385.24 94.1559 2424.7 148.486 2412.41 232.132C2455.43 207.549 2497.65 193.474 2532.07 193.474C2579.76 193.474 2602.07 221.008 2598.2 264.091C2602.31 264.071 2606.41 264.297 2610.49 264.767C2683.26 271.897 2711.16 327.641 2676.19 391.251H1185.43C1218.06 349.274 1274.3 317.868 1315.23 319.958Z" fill="#F5F5F5"/>
<path d="M2064.67 878.871C2067.86 878.745 2071.04 879.401 2073.92 880.783C2076.8 882.165 2079.3 884.23 2081.2 886.799C2121.27 859.081 2166.39 842.056 2202.77 843.777C2218.3 843.676 2233.31 849.374 2244.87 859.757C2288.38 817.964 2342.65 788.341 2380.82 788.341C2402.57 788.341 2415.48 797.928 2419.35 813.908C2463.3 785.821 2507.73 768.551 2542.82 768.551C2586.4 768.551 2605.57 795.04 2599.61 836.156C2620.57 824.295 2641.16 817.288 2657.94 817.288C2681.17 817.288 2692.11 830.686 2690.2 851.706C2692.23 851.706 2694.26 851.706 2696.35 851.706C2731.81 855.209 2745.52 882.435 2728.31 913.165H2001.49C2017.41 893.068 2044.82 877.764 2064.67 878.871Z" fill="#F5F5F5"/>
<path d="M1536.49 2289.73C2194.61 2289.73 2728.13 2258.59 2728.13 2220.16C2728.13 2181.74 2194.61 2150.59 1536.49 2150.59C878.365 2150.59 344.851 2181.74 344.851 2220.16C344.851 2258.59 878.365 2289.73 1536.49 2289.73Z" fill="#F5F5F5"/>
<path d="M909.246 355.442C933.584 331.105 933.584 291.646 909.246 267.308C884.909 242.971 845.45 242.971 821.113 267.308C796.775 291.646 796.775 331.105 821.113 355.442C845.45 379.78 884.909 379.78 909.246 355.442Z" fill="#407BFF"/>
<path opacity="0.1" d="M909.246 355.442C933.584 331.105 933.584 291.646 909.246 267.308C884.909 242.971 845.45 242.971 821.113 267.308C796.775 291.646 796.775 331.105 821.113 355.442C845.45 379.78 884.909 379.78 909.246 355.442Z" fill="white"/>
<path d="M977.003 1256.44C1010.44 1248.3 1030.95 1214.58 1022.8 1181.14C1014.66 1147.7 980.945 1127.2 947.505 1135.34C914.064 1143.49 893.559 1177.2 901.704 1210.64C909.85 1244.08 943.562 1264.59 977.003 1256.44Z" fill="#407BFF"/>
<path opacity="0.2" d="M977.003 1256.44C1010.44 1248.3 1030.95 1214.58 1022.8 1181.14C1014.66 1147.7 980.945 1127.2 947.505 1135.34C914.064 1143.49 893.559 1177.2 901.704 1210.64C909.85 1244.08 943.562 1264.59 977.003 1256.44Z" fill="#407BFF"/>
<g opacity="0.1">
<path d="M977.003 1256.44C1010.44 1248.3 1030.95 1214.58 1022.8 1181.14C1014.66 1147.7 980.945 1127.2 947.505 1135.34C914.064 1143.49 893.559 1177.2 901.704 1210.64C909.85 1244.08 943.562 1264.59 977.003 1256.44Z" fill="white"/>
<path opacity="0.2" d="M977.003 1256.44C1010.44 1248.3 1030.95 1214.58 1022.8 1181.14C1014.66 1147.7 980.945 1127.2 947.505 1135.34C914.064 1143.49 893.559 1177.2 901.704 1210.64C909.85 1244.08 943.562 1264.59 977.003 1256.44Z" fill="white"/>
</g>
<path d="M1919.12 366.461C1949.53 336.051 1949.53 286.747 1919.12 256.337C1888.71 225.928 1839.41 225.928 1809 256.337C1778.59 286.747 1778.59 336.051 1809 366.461C1839.41 396.871 1888.71 396.871 1919.12 366.461Z" fill="#407BFF"/>
<path opacity="0.2" d="M1919.12 366.461C1949.53 336.051 1949.53 286.747 1919.12 256.337C1888.71 225.928 1839.41 225.928 1809 256.337C1778.59 286.747 1778.59 336.051 1809 366.461C1839.41 396.871 1888.71 396.871 1919.12 366.461Z" fill="#407BFF"/>
<g opacity="0.1">
<path d="M1919.12 366.461C1949.53 336.051 1949.53 286.747 1919.12 256.338C1888.71 225.928 1839.41 225.928 1809 256.338C1778.59 286.747 1778.59 336.051 1809 366.461C1839.41 396.871 1888.71 396.871 1919.12 366.461Z" fill="white"/>
<path opacity="0.2" d="M1919.12 366.461C1949.53 336.051 1949.53 286.747 1919.12 256.338C1888.71 225.928 1839.41 225.928 1809 256.338C1778.59 286.747 1778.59 336.051 1809 366.461C1839.41 396.871 1888.71 396.871 1919.12 366.461Z" fill="white"/>
</g>
<path d="M2195.27 389.223C2234 389.223 2265.4 357.827 2265.4 319.097C2265.4 280.368 2234 248.972 2195.27 248.972C2156.54 248.972 2125.15 280.368 2125.15 319.097C2125.15 357.827 2156.54 389.223 2195.27 389.223Z" fill="#407BFF"/>
<path opacity="0.2" d="M2195.27 389.223C2234 389.223 2265.4 357.827 2265.4 319.097C2265.4 280.368 2234 248.972 2195.27 248.972C2156.54 248.972 2125.15 280.368 2125.15 319.097C2125.15 357.827 2156.54 389.223 2195.27 389.223Z" fill="#407BFF"/>
<g opacity="0.3">
<path d="M2195.27 389.223C2234 389.223 2265.4 357.827 2265.4 319.097C2265.4 280.368 2234 248.972 2195.27 248.972C2156.54 248.972 2125.15 280.368 2125.15 319.097C2125.15 357.827 2156.54 389.223 2195.27 389.223Z" fill="white"/>
<path opacity="0.2" d="M2195.27 389.223C2234 389.223 2265.4 357.827 2265.4 319.097C2265.4 280.368 2234 248.972 2195.27 248.972C2156.54 248.972 2125.15 280.368 2125.15 319.097C2125.15 357.827 2156.54 389.223 2195.27 389.223Z" fill="white"/>
</g>
<path d="M1037.85 605.981C1087.56 578.099 1105.25 515.203 1077.37 465.499C1049.49 415.794 986.591 398.103 936.887 425.984C887.182 453.866 869.491 516.762 897.373 566.466C925.254 616.171 988.15 633.862 1037.85 605.981Z" fill="#407BFF"/>
<path opacity="0.2" d="M1037.85 605.981C1087.56 578.099 1105.25 515.203 1077.37 465.499C1049.49 415.794 986.591 398.103 936.887 425.984C887.182 453.866 869.491 516.762 897.373 566.466C925.254 616.171 988.15 633.862 1037.85 605.981Z" fill="#407BFF"/>
<g opacity="0.3">
<path d="M1037.85 605.98C1087.56 578.099 1105.25 515.203 1077.37 465.498C1049.49 415.794 986.591 398.103 936.887 425.984C887.182 453.866 869.491 516.762 897.373 566.466C925.254 616.171 988.15 633.862 1037.85 605.98Z" fill="white"/>
<path opacity="0.2" d="M1037.85 605.98C1087.56 578.099 1105.25 515.203 1077.37 465.498C1049.49 415.794 986.591 398.103 936.887 425.984C887.182 453.866 869.491 516.762 897.373 566.466C925.254 616.171 988.15 633.862 1037.85 605.98Z" fill="white"/>
</g>
<path d="M1375.35 153.933C1383.88 120.589 1363.76 86.6423 1330.42 78.1119C1297.07 69.5815 1263.12 89.6973 1254.59 123.042C1246.06 156.386 1266.18 190.333 1299.52 198.863C1332.87 207.393 1366.81 187.278 1375.35 153.933Z" fill="#407BFF"/>
<path opacity="0.2" d="M1375.35 153.933C1383.88 120.589 1363.76 86.6423 1330.42 78.1119C1297.07 69.5815 1263.12 89.6973 1254.59 123.042C1246.06 156.386 1266.18 190.333 1299.52 198.863C1332.87 207.393 1366.81 187.278 1375.35 153.933Z" fill="#407BFF"/>
<g opacity="0.3">
<path d="M1375.35 153.933C1383.88 120.589 1363.76 86.6423 1330.42 78.1119C1297.07 69.5815 1263.12 89.6973 1254.59 123.042C1246.06 156.386 1266.18 190.333 1299.52 198.863C1332.87 207.393 1366.81 187.278 1375.35 153.933Z" fill="white"/>
<path opacity="0.2" d="M1375.35 153.933C1383.88 120.589 1363.76 86.6423 1330.42 78.1119C1297.07 69.5815 1263.12 89.6973 1254.59 123.042C1246.06 156.386 1266.18 190.333 1299.52 198.863C1332.87 207.393 1366.81 187.278 1375.35 153.933Z" fill="white"/>
</g>
<path d="M957.184 898.348C997.483 858.05 997.483 792.713 957.184 752.414C916.886 712.116 851.549 712.116 811.251 752.415C770.952 792.713 770.952 858.049 811.251 898.348C851.549 938.646 916.886 938.646 957.184 898.348Z" fill="#407BFF"/>
<path opacity="0.1" d="M957.184 898.348C997.483 858.05 997.483 792.713 957.184 752.414C916.886 712.116 851.549 712.116 811.251 752.415C770.952 792.713 770.952 858.049 811.251 898.348C851.549 938.646 916.886 938.646 957.184 898.348Z" fill="white"/>
<path d="M1711.65 223.651C1746.07 223.651 1773.97 195.749 1773.97 161.331C1773.97 126.913 1746.07 99.0112 1711.65 99.0112C1677.23 99.0112 1649.33 126.913 1649.33 161.331C1649.33 195.749 1677.23 223.651 1711.65 223.651Z" fill="#407BFF"/>
<path opacity="0.1" d="M1711.65 223.651C1746.07 223.651 1773.97 195.749 1773.97 161.331C1773.97 126.913 1746.07 99.0112 1711.65 99.0112C1677.23 99.0112 1649.33 126.913 1649.33 161.331C1649.33 195.749 1677.23 223.651 1711.65 223.651Z" fill="white"/>
<path d="M1625.2 289.066C1638.8 233.72 1604.95 177.834 1549.61 164.24C1494.26 150.645 1438.37 184.491 1424.78 239.837C1411.19 295.182 1445.03 351.069 1500.38 364.663C1555.72 378.257 1611.61 344.411 1625.2 289.066Z" fill="#407BFF"/>
<path opacity="0.1" d="M1625.2 289.066C1638.8 233.72 1604.95 177.834 1549.61 164.24C1494.26 150.645 1438.37 184.491 1424.78 239.837C1411.19 295.182 1445.03 351.069 1500.38 364.663C1555.72 378.257 1611.61 344.411 1625.2 289.066Z" fill="white"/>
<path d="M833.327 1164.02C846.331 1108.53 811.892 1053.01 756.405 1040C700.918 1027 645.395 1061.44 632.391 1116.92C619.387 1172.41 653.826 1227.93 709.313 1240.94C764.8 1253.94 820.323 1219.5 833.327 1164.02Z" fill="#407BFF"/>
<path opacity="0.4" d="M833.327 1164.02C846.331 1108.53 811.892 1053.01 756.405 1040C700.918 1027 645.395 1061.44 632.391 1116.92C619.387 1172.41 653.826 1227.93 709.313 1240.94C764.8 1253.94 820.323 1219.5 833.327 1164.02Z" fill="black"/>
<path d="M2084.75 206.283C2092.62 172.777 2071.84 139.234 2038.33 131.363C2004.83 123.492 1971.29 144.273 1963.41 177.779C1955.54 211.285 1976.32 244.828 2009.83 252.699C2043.34 260.571 2076.88 239.789 2084.75 206.283Z" fill="#407BFF"/>
<path opacity="0.4" d="M2084.75 206.283C2092.62 172.777 2071.84 139.234 2038.33 131.363C2004.83 123.492 1971.29 144.273 1963.41 177.779C1955.54 211.285 1976.32 244.828 2009.83 252.699C2043.34 260.571 2076.88 239.789 2084.75 206.283Z" fill="black"/>
<path d="M768.496 624.975C798.906 594.565 798.906 545.261 768.496 514.851C738.086 484.442 688.782 484.442 658.372 514.851C627.963 545.261 627.963 594.565 658.372 624.975C688.782 655.385 738.086 655.385 768.496 624.975Z" fill="#407BFF"/>
<path opacity="0.4" d="M768.496 624.975C798.906 594.565 798.906 545.261 768.496 514.851C738.086 484.442 688.782 484.442 658.372 514.851C627.963 545.261 627.963 594.565 658.372 624.975C688.782 655.385 738.086 655.385 768.496 624.975Z" fill="black"/>
<path d="M782.258 1153.59C788.3 1147.55 792.466 1139.89 794.253 1131.53C796.04 1123.17 795.372 1114.48 792.33 1106.49C789.288 1098.5 784.001 1091.57 777.106 1086.52C770.212 1081.47 762.004 1078.52 753.472 1078.03C744.94 1077.53 736.447 1079.52 729.018 1083.74C721.588 1087.97 715.539 1094.25 711.599 1101.83C707.658 1109.42 705.995 1117.98 706.81 1126.49C707.624 1135 710.881 1143.09 716.189 1149.78C713.177 1152.12 710.043 1154.52 707.4 1156.98C703.282 1160.48 699.226 1164.1 695.108 1167.73C690.99 1171.36 687.18 1175.11 683.308 1178.92L677.162 1184.57C676.129 1185.5 675.293 1186.63 674.704 1187.89C674.369 1188.57 674.141 1189.29 674.028 1190.04C673.894 1190.92 673.894 1191.81 674.028 1192.68C674.178 1194.26 674.873 1195.74 675.995 1196.86C677.117 1197.98 678.594 1198.68 680.174 1198.83C681.072 1198.93 681.979 1198.93 682.878 1198.83C683.616 1198.65 684.335 1198.4 685.029 1198.09C686.261 1197.49 687.366 1196.65 688.286 1195.63L694.002 1189.86C697.751 1185.98 701.439 1181.99 705.126 1178.06C708.814 1174.12 712.378 1169.94 715.882 1165.76C718.34 1162.88 720.737 1159.99 723.072 1157.04C731.62 1163.87 742.397 1167.31 753.325 1166.67C764.254 1166.04 774.56 1161.38 782.258 1153.59ZM726.207 1147.02C721.255 1142.14 717.866 1135.9 716.471 1129.09C715.076 1122.28 715.739 1115.21 718.375 1108.78C721.011 1102.35 725.501 1096.84 731.273 1092.97C737.045 1089.1 743.839 1087.03 750.791 1087.03C757.742 1087.03 764.536 1089.1 770.308 1092.97C776.081 1096.84 780.57 1102.35 783.206 1108.78C785.842 1115.21 786.505 1122.28 785.11 1129.09C783.715 1135.9 780.327 1142.14 775.374 1147.02C768.828 1153.49 759.995 1157.12 750.791 1157.12C741.586 1157.12 732.753 1153.49 726.207 1147.02Z" fill="white"/>
<path d="M2226.74 329.177C2230.74 325.179 2233.5 320.11 2234.68 314.58C2235.87 309.05 2235.42 303.296 2233.41 298.012C2231.4 292.727 2227.9 288.137 2223.34 284.795C2218.78 281.453 2213.35 279.501 2207.7 279.176C2202.06 278.85 2196.44 280.164 2191.52 282.96C2186.61 285.756 2182.6 289.913 2180 294.932C2177.39 299.95 2176.29 305.615 2176.83 311.244C2177.37 316.873 2179.53 322.226 2183.04 326.657C2181.08 328.193 2179.17 329.73 2177.27 331.389C2175.36 333.049 2171.8 336.06 2169.15 338.457L2161.35 345.832C2160.06 347.062 2158.83 348.352 2157.54 349.643C2156.85 350.234 2156.31 350.968 2155.94 351.794C2155.45 352.785 2155.24 353.889 2155.33 354.99C2155.41 356.054 2155.87 357.053 2156.63 357.808C2157.38 358.562 2158.38 359.023 2159.44 359.108C2160.03 359.204 2160.64 359.204 2161.23 359.108L2162.64 358.616C2163.45 358.227 2164.18 357.684 2164.79 357.018L2168.54 353.146C2171.06 350.626 2173.52 347.983 2175.91 345.341C2178.31 342.698 2180.71 340.055 2183.04 337.289C2185.38 334.524 2186.24 333.479 2187.78 331.512C2193.43 335.962 2200.52 338.182 2207.7 337.752C2214.88 337.321 2221.66 334.27 2226.74 329.177ZM2189.87 324.752C2186.64 321.516 2184.45 317.398 2183.57 312.918C2182.69 308.438 2183.15 303.798 2184.91 299.581C2186.66 295.365 2189.62 291.763 2193.42 289.228C2197.22 286.694 2201.68 285.341 2206.24 285.341C2210.81 285.341 2215.27 286.694 2219.07 289.228C2222.87 291.763 2225.83 295.365 2227.58 299.581C2229.34 303.798 2229.8 308.438 2228.92 312.918C2228.03 317.398 2225.84 321.516 2222.62 324.752C2220.47 326.946 2217.9 328.69 2215.07 329.88C2212.24 331.07 2209.19 331.683 2206.12 331.683C2203.05 331.683 2200.01 331.07 2197.17 329.88C2194.34 328.69 2191.77 326.946 2189.62 324.752H2189.87Z" fill="white"/>
<path d="M894.421 320.696C898.141 316.973 900.705 312.253 901.805 307.107C902.904 301.96 902.491 296.605 900.616 291.687C898.741 286.769 895.485 282.499 891.238 279.39C886.991 276.281 881.937 274.466 876.682 274.164C871.428 273.863 866.198 275.087 861.624 277.69C857.05 280.292 853.325 284.162 850.9 288.833C848.475 293.504 847.452 298.777 847.955 304.016C848.458 309.254 850.465 314.236 853.735 318.36C851.891 319.774 850.109 321.249 848.327 322.785C846.544 324.322 843.287 327.149 840.829 329.423C838.37 331.697 835.912 333.971 833.515 336.245C832.347 337.413 831.179 338.642 829.95 339.81C829.345 340.371 828.845 341.038 828.475 341.776C828.268 342.204 828.123 342.659 828.045 343.128C827.946 343.677 827.946 344.239 828.045 344.788C828.103 345.779 828.524 346.715 829.226 347.417C829.928 348.12 830.864 348.54 831.856 348.598C832.404 348.697 832.966 348.697 833.515 348.598C833.984 348.52 834.439 348.375 834.867 348.168C835.606 347.798 836.272 347.299 836.834 346.693L840.398 343.128C842.672 340.731 845.008 338.273 847.22 335.815C849.433 333.356 851.707 330.836 853.858 328.317C856.009 325.797 856.869 324.752 858.283 322.908C863.531 327.033 870.111 329.087 876.773 328.679C883.436 328.271 889.716 325.43 894.421 320.696ZM859.881 316.639C856.896 313.61 854.872 309.766 854.065 305.59C853.258 301.414 853.704 297.093 855.346 293.169C856.988 289.246 859.753 285.895 863.294 283.539C866.834 281.182 870.993 279.925 875.246 279.925C879.499 279.925 883.657 281.182 887.198 283.539C890.739 285.895 893.504 289.246 895.146 293.169C896.788 297.093 897.233 301.414 896.426 305.59C895.619 309.766 893.596 313.61 890.611 316.639C888.604 318.676 886.212 320.293 883.574 321.397C880.936 322.501 878.105 323.07 875.246 323.07C872.387 323.07 869.556 322.501 866.918 321.397C864.28 320.293 861.888 318.676 859.881 316.639Z" fill="white"/>
<path d="M918.821 795.101C918.933 794.428 918.826 793.737 918.517 793.128C918.207 792.52 917.711 792.027 917.1 791.721C910.28 788.832 902.935 787.388 895.528 787.48C882.83 787.513 870.662 792.576 861.688 801.561C852.715 810.546 847.667 822.72 847.651 835.419C847.651 853.058 859.451 862.277 871.129 862.277C875.992 862.364 880.807 861.295 885.177 859.158C889.547 857.021 893.348 853.877 896.266 849.985C897.003 852.648 898.374 855.094 900.26 857.114C901.866 858.733 903.783 860.008 905.896 860.864C908.009 861.72 910.273 862.138 912.552 862.092C930.99 862.092 949.428 845.56 949.428 814.031C949.781 806.324 948.518 798.629 945.72 791.439C942.922 784.25 938.651 777.725 933.181 772.284C927.711 766.843 921.164 762.607 913.96 759.847C906.756 757.087 899.054 755.865 891.349 756.259C850.232 756.259 819.195 788.832 819.195 831.977C819.195 867.992 844.578 894.113 879.61 894.113C891.792 894.497 903.87 891.768 914.703 886.184C915.363 885.83 915.87 885.248 916.13 884.546C916.39 883.845 916.386 883.072 916.117 882.374L913.106 874.261C912.955 873.846 912.719 873.466 912.411 873.149C912.104 872.831 911.733 872.582 911.323 872.417C910.921 872.222 910.48 872.12 910.033 872.12C909.585 872.12 909.144 872.222 908.742 872.417C900.375 876.672 891.083 878.784 881.7 878.563C854.412 878.563 836.097 859.265 836.097 830.564C836.097 795.9 858.714 770.825 889.812 770.825C916.178 770.825 932.834 787.665 932.834 814.83C933.489 824.907 930.205 834.844 923.676 842.548C921.558 844.817 918.66 846.2 915.564 846.42C915.095 846.449 914.626 846.364 914.198 846.171C913.769 845.978 913.394 845.684 913.106 845.314C912.061 843.962 910.586 840.09 912.798 828.843L918.821 795.101ZM893.254 803.644C895.316 803.625 897.375 803.81 899.4 804.197L895.958 822.635C894.053 833.329 884.834 845.805 875.861 845.805C866.888 845.805 866.581 838.861 866.581 834.62C866.581 817.841 878.873 803.644 893.254 803.644Z" fill="white"/>
<path d="M1732.61 143.016C1732.7 142.609 1732.64 142.184 1732.45 141.813C1732.26 141.442 1731.95 141.151 1731.56 140.988C1727.45 139.225 1723.01 138.345 1718.53 138.407C1710.84 138.423 1703.47 141.484 1698.04 146.921C1692.6 152.358 1689.54 159.727 1689.52 167.416C1689.32 169.43 1689.53 171.465 1690.15 173.395C1690.76 175.324 1691.76 177.107 1693.1 178.633C1694.43 180.16 1696.05 181.397 1697.88 182.269C1699.71 183.141 1701.7 183.629 1703.72 183.702C1706.66 183.787 1709.58 183.168 1712.23 181.895C1714.88 180.623 1717.19 178.735 1718.96 176.389C1719.4 177.994 1720.23 179.47 1721.36 180.691C1722.34 181.68 1723.51 182.458 1724.8 182.976C1726.09 183.494 1727.47 183.741 1728.86 183.702C1739.92 183.702 1751.11 173.684 1751.11 154.571C1751.3 149.906 1750.52 145.251 1748.81 140.905C1747.11 136.558 1744.52 132.614 1741.2 129.324C1737.89 126.034 1733.93 123.471 1729.57 121.796C1725.21 120.122 1720.55 119.374 1715.89 119.6C1709.97 119.61 1704.11 120.82 1698.68 123.155C1693.24 125.49 1688.33 128.903 1684.24 133.188C1680.16 137.473 1676.99 142.54 1674.92 148.085C1672.84 153.629 1671.92 159.536 1672.19 165.449C1671.99 170.327 1672.79 175.194 1674.53 179.754C1676.28 184.313 1678.93 188.469 1682.34 191.967C1685.74 195.465 1689.83 198.231 1694.34 200.096C1698.85 201.962 1703.69 202.887 1708.58 202.816C1715.96 203.07 1723.28 201.419 1729.84 198.022C1730.25 197.823 1730.56 197.48 1730.73 197.061C1730.9 196.642 1730.91 196.175 1730.76 195.748L1728.92 190.832C1728.83 190.575 1728.69 190.342 1728.49 190.151C1728.3 189.959 1728.07 189.814 1727.81 189.725C1727.57 189.606 1727.31 189.544 1727.04 189.544C1726.78 189.544 1726.51 189.606 1726.28 189.725C1721.2 192.3 1715.56 193.587 1709.87 193.474C1706.08 193.591 1702.32 192.908 1698.82 191.468C1695.32 190.028 1692.16 187.865 1689.56 185.12C1686.95 182.375 1684.96 179.111 1683.7 175.541C1682.44 171.971 1681.96 168.176 1682.27 164.404C1682.27 143.446 1695.98 128.266 1714.78 128.266C1718.3 128.069 1721.81 128.628 1725.09 129.906C1728.37 131.184 1731.33 133.151 1733.79 135.674C1736.24 138.196 1738.12 141.217 1739.31 144.53C1740.49 147.843 1740.95 151.372 1740.66 154.878C1741.06 160.976 1739.07 166.991 1735.13 171.656C1734.5 172.351 1733.75 172.915 1732.9 173.316C1732.06 173.717 1731.14 173.947 1730.21 173.992C1729.93 174.016 1729.65 173.973 1729.4 173.866C1729.14 173.759 1728.91 173.591 1728.73 173.377C1728.06 172.578 1727.2 170.181 1728.73 163.359L1732.61 143.016ZM1717.18 148.179C1718.38 148.176 1719.57 148.3 1720.74 148.548L1718.66 159.795C1717.49 166.309 1711.96 173.869 1706.36 173.869C1700.77 173.869 1700.65 169.567 1700.65 167.047C1700.39 162.366 1701.98 157.77 1705.07 154.244C1708.16 150.718 1712.51 148.541 1717.18 148.179Z" fill="white"/>
<path d="M2196.55 531.229C2209.73 475.785 2175.48 420.148 2120.03 406.96C2064.59 393.772 2008.95 428.027 1995.77 483.471C1982.58 538.914 2016.83 594.551 2072.28 607.739C2127.72 620.927 2183.36 586.672 2196.55 531.229Z" fill="#407BFF"/>
<path opacity="0.5" d="M2196.55 531.229C2209.73 475.785 2175.48 420.148 2120.03 406.96C2064.59 393.772 2008.95 428.027 1995.77 483.471C1982.58 538.914 2016.83 594.551 2072.28 607.739C2127.72 620.927 2183.36 586.672 2196.55 531.229Z" fill="black"/>
<path d="M2130.8 477.11C2130.95 476.435 2130.85 475.73 2130.54 475.115C2130.23 474.499 2129.71 474.01 2129.08 473.73C2122.26 470.834 2114.92 469.389 2107.51 469.489C2094.8 469.505 2082.62 474.561 2073.63 483.548C2064.64 492.534 2059.59 504.718 2059.57 517.427C2059.57 535.128 2071.43 544.347 2083.11 544.347C2087.98 544.443 2092.81 543.379 2097.19 541.242C2101.57 539.105 2105.38 535.955 2108.31 532.055C2109 534.723 2110.35 537.174 2112.24 539.184C2113.85 540.803 2115.76 542.078 2117.88 542.934C2119.99 543.79 2122.25 544.208 2124.53 544.162C2142.97 544.162 2161.41 527.63 2161.41 496.039C2161.77 488.322 2160.51 480.615 2157.71 473.413C2154.92 466.212 2150.64 459.676 2145.16 454.228C2139.69 448.78 2133.13 444.539 2125.91 441.779C2118.7 439.02 2110.98 437.803 2103.27 438.206C2062.09 438.206 2031.05 470.841 2031.05 514.047C2031.05 550.062 2056.44 576.183 2091.53 576.183C2103.71 576.567 2115.79 573.838 2126.62 568.254C2127.3 567.933 2127.83 567.367 2128.1 566.671C2128.37 565.975 2128.37 565.201 2128.1 564.505L2125.09 556.331C2124.93 555.915 2124.69 555.538 2124.37 555.229C2124.05 554.921 2123.66 554.688 2123.24 554.549C2122.84 554.366 2122.4 554.271 2121.95 554.271C2121.51 554.271 2121.07 554.366 2120.66 554.549C2112.28 558.818 2102.96 560.93 2093.56 560.695C2066.33 560.695 2047.95 541.397 2047.95 512.634C2047.95 477.97 2070.57 452.833 2101.73 452.833C2128.1 452.833 2144.75 469.735 2144.75 496.9C2145.38 506.992 2142.1 516.938 2135.6 524.68C2133.48 526.982 2130.54 528.352 2127.42 528.49C2126.96 528.527 2126.49 528.451 2126.06 528.269C2125.64 528.087 2125.26 527.804 2124.96 527.445C2123.92 526.093 2122.44 522.16 2124.96 510.913L2130.8 477.11ZM2105.23 485.53C2107.3 485.51 2109.36 485.696 2111.38 486.083L2107.94 504.521C2106.03 515.276 2096.81 527.753 2087.84 527.753C2078.87 527.753 2078.38 520.685 2078.38 516.444C2078.19 499.85 2090.61 485.53 2105.23 485.53Z" fill="white"/>
<path d="M1051.7 516.26C1051.7 516.26 1051.7 516.26 1051.7 515.891C1051.72 512.578 1051.48 509.268 1050.96 505.996C1048.53 491.175 1040.99 477.67 1029.66 467.817C1018.32 457.964 1003.9 452.381 988.886 452.035H985.69C982.828 452.121 979.975 452.388 977.147 452.834C962.153 455.288 948.512 462.974 938.646 474.529C928.779 486.083 923.324 500.759 923.247 515.952C923.247 515.952 923.247 515.952 923.247 516.26C923.247 516.567 923.247 516.26 923.247 516.69C923.22 520.003 923.467 523.313 923.985 526.585C926.453 541.617 934.165 555.29 945.752 565.178C957.34 575.067 972.055 580.533 987.288 580.608H987.595C1004.6 580.51 1020.88 573.69 1032.88 561.635C1044.88 549.579 1051.62 533.268 1051.64 516.26H1051.7ZM1034.8 541.704H1023.55C1025.27 535.09 1026.28 528.312 1026.56 521.484H1040.94C1040.23 528.482 1038.14 535.27 1034.8 541.458V541.704ZM939.964 490.877H951.211C949.541 497.499 948.553 504.274 948.261 511.097H934.187C934.711 503.955 936.677 496.993 939.964 490.631V490.877ZM1015.87 507.287C1015.87 508.577 1015.87 509.807 1015.87 511.097H992.389V490.877H1012.42C1014.1 496.139 1015.25 501.553 1015.87 507.041V507.287ZM992.635 480.429V463.405C994.163 463.944 995.61 464.688 996.937 465.617C1002.04 469.486 1006.07 474.581 1008.68 480.429H992.635ZM982.187 463.405V480.429H966.084C969.034 472.817 974.8 466.633 982.187 463.159V463.405ZM982.187 490.877V511.097H958.771C959.146 504.248 960.3 497.464 962.212 490.877H982.187ZM934.248 524.926C934.065 523.786 933.942 522.637 933.88 521.484H948.261C948.261 523.082 948.261 524.618 948.568 526.216C949.034 531.445 949.938 536.626 951.273 541.704H939.964C937.086 536.398 935.132 530.641 934.187 524.68L934.248 524.926ZM958.832 525.294C958.832 524.004 958.832 522.774 958.832 521.484H982.31V541.704H962.274C960.548 536.284 959.374 530.704 958.771 525.048L958.832 525.294ZM982.064 552.152V569.115C980.533 568.611 979.084 567.886 977.762 566.964C972.661 563.096 968.623 558.001 966.023 552.152H982.064ZM992.512 569.115V551.906H1008.61C1005.64 559.387 999.925 565.453 992.635 568.869L992.512 569.115ZM992.512 541.704V521.484H1015.93C1015.6 528.334 1014.47 535.121 1012.55 541.704H992.512ZM1026.44 510.974C1026.44 509.376 1026.44 507.778 1026.13 506.242C1025.64 501.016 1024.74 495.837 1023.43 490.754H1034.73C1037.55 495.995 1039.48 501.664 1040.45 507.533C1040.45 508.7 1040.45 509.807 1040.82 510.974H1026.44ZM1027.42 480.244H1020.23C1018.77 476.599 1017 473.083 1014.94 469.735C1016.3 470.595 1017.71 471.456 1019 472.439C1022.12 474.698 1024.99 477.296 1027.54 480.183L1027.42 480.244ZM959.816 469.796C957.774 473.13 956.006 476.624 954.53 480.244H947.093C950.822 476.115 955.153 472.572 959.938 469.735L959.816 469.796ZM947.155 551.968H954.592C956.051 555.626 957.84 559.144 959.938 562.477C955.202 559.622 950.932 556.057 947.278 551.906L947.155 551.968ZM1014.76 562.416C1016.8 559.082 1018.57 555.588 1020.05 551.968H1027.42C1023.78 556.033 1019.56 559.534 1014.88 562.354L1014.76 562.416Z" fill="white"/>
<path d="M2075.3 191.753C2075.25 189.697 2075.09 187.645 2074.81 185.607C2073.26 176.03 2068.4 167.299 2061.08 160.932C2053.76 154.565 2044.44 150.966 2034.74 150.76H2032.65C2030.82 150.804 2028.99 150.969 2027.18 151.252C2017.5 152.835 2008.7 157.797 2002.33 165.257C1995.96 172.717 1992.44 182.191 1992.39 191.999C1992.39 194.058 1992.56 196.113 1992.89 198.145C1994.35 207.942 1999.27 216.893 2006.75 223.384C2014.23 229.875 2023.79 233.479 2033.7 233.546C2035.9 233.545 2038.1 233.36 2040.27 232.993C2049.95 231.412 2058.75 226.462 2065.13 219.016C2071.51 211.57 2075.04 202.11 2075.12 192.307L2075.3 191.753ZM2064.43 208.163H2057.17C2058.26 203.878 2058.9 199.49 2059.08 195.072H2068.36C2067.94 199.656 2066.6 204.109 2064.43 208.163ZM2002.97 175.344H2010.22C2009.16 179.614 2008.52 183.978 2008.31 188.373H1999.28C1999.7 183.81 2001.04 179.379 2003.21 175.344H2002.97ZM2052.13 185.915C2052.13 186.775 2052.13 187.574 2052.13 188.373H2037.01V175.344H2049.92C2051.02 178.785 2051.78 182.325 2052.19 185.915H2052.13ZM2037.14 168.583V157.582C2038.12 157.954 2039.05 158.449 2039.9 159.057C2043.19 161.538 2045.79 164.816 2047.46 168.583H2037.14ZM2030.38 157.643V168.583H2019.99C2021.94 163.733 2025.68 159.817 2030.44 157.643H2030.38ZM2030.38 175.344V188.373H2015.26C2015.49 183.96 2016.24 179.588 2017.47 175.344H2030.38ZM1999.65 197.285C1999.65 196.547 1999.65 195.81 1999.65 195.072H2008.93V198.145C2009.26 201.526 2009.85 204.876 2010.71 208.163H2003.4C2001.49 204.784 2000.18 201.105 1999.52 197.285H1999.65ZM2015.63 197.285C2015.63 196.486 2015.63 195.687 2015.63 194.826H2030.75V207.917H2017.84C2016.71 204.543 2015.93 201.063 2015.5 197.531L2015.63 197.285ZM2030.44 215.108V226.109C2029.47 225.737 2028.54 225.263 2027.67 224.696C2024.39 222.186 2021.79 218.889 2020.11 215.108H2030.44ZM2037.2 226.109V215.108H2047.59C2045.6 219.871 2041.89 223.712 2037.2 225.863V226.109ZM2037.2 208.409V195.072H2052.32C2052.1 199.504 2051.38 203.896 2050.17 208.163L2037.2 208.409ZM2058.89 188.373V185.3C2058.56 181.944 2057.99 178.617 2057.17 175.344H2064.43C2066.28 178.705 2067.53 182.366 2068.11 186.161C2068.11 186.898 2068.11 187.636 2068.11 188.373H2058.89ZM2059.57 168.583H2054.71C2053.79 166.236 2052.66 163.974 2051.33 161.823L2053.98 163.544C2056.07 165.015 2058.01 166.705 2059.75 168.583H2059.57ZM2015.87 161.884C2014.53 164.012 2013.38 166.254 2012.43 168.583H2007.64C2010.02 165.939 2012.8 163.679 2015.87 161.884ZM2007.94 215.108H2012.74C2013.69 217.477 2014.84 219.76 2016.18 221.93C2013.1 220.091 2010.32 217.79 2007.94 215.108ZM2051.58 221.869C2052.89 219.711 2054.02 217.45 2054.96 215.108H2059.75C2057.37 217.68 2054.62 219.876 2051.58 221.623V221.869Z" fill="white"/>
<path d="M2481.56 840.725C2494.74 785.281 2460.49 729.644 2405.05 716.456C2349.6 703.268 2293.96 737.523 2280.78 792.967C2267.59 848.41 2301.84 904.047 2357.29 917.236C2412.73 930.424 2468.37 896.169 2481.56 840.725Z" fill="#407BFF"/>
<path d="M2429.8 771.193H2332.64C2327.75 771.193 2323.06 773.136 2319.6 776.594C2316.14 780.052 2314.2 784.741 2314.2 789.631V839.782C2314.2 844.672 2316.14 849.362 2319.6 852.82C2323.06 856.278 2327.75 858.22 2332.64 858.22H2403.93L2403.44 875.736L2421.44 858.22H2429.8C2434.69 858.22 2439.38 856.278 2442.84 852.82C2446.3 849.362 2448.24 844.672 2448.24 839.782V789.754C2448.26 787.323 2447.79 784.912 2446.87 782.661C2445.95 780.409 2444.6 778.362 2442.88 776.637C2441.17 774.912 2439.13 773.543 2436.89 772.609C2434.64 771.674 2432.24 771.193 2429.8 771.193ZM2330.42 792.827C2330.44 791.452 2331 790.139 2331.98 789.173C2332.95 788.206 2334.27 787.665 2335.65 787.665H2357.96C2359.33 787.665 2360.64 788.209 2361.61 789.177C2362.58 790.145 2363.12 791.458 2363.12 792.827C2363.12 794.196 2362.58 795.51 2361.61 796.478C2360.64 797.446 2359.33 797.99 2357.96 797.99H2335.46C2334.12 797.942 2332.85 797.38 2331.91 796.418C2330.97 795.457 2330.44 794.171 2330.42 792.827ZM2424.27 841.38H2385.61C2384.89 841.459 2384.16 841.385 2383.47 841.164C2382.78 840.942 2382.15 840.577 2381.61 840.093C2381.07 839.608 2380.63 839.016 2380.34 838.353C2380.04 837.691 2379.89 836.974 2379.89 836.248C2379.89 835.523 2380.04 834.806 2380.34 834.143C2380.63 833.481 2381.07 832.888 2381.61 832.404C2382.15 831.92 2382.78 831.555 2383.47 831.333C2384.16 831.111 2384.89 831.037 2385.61 831.116H2424.27C2424.99 831.037 2425.72 831.111 2426.41 831.333C2427.1 831.555 2427.74 831.92 2428.28 832.404C2428.82 832.888 2429.25 833.481 2429.55 834.143C2429.84 834.806 2430 835.523 2430 836.248C2430 836.974 2429.84 837.691 2429.55 838.353C2429.25 839.016 2428.82 839.608 2428.28 840.093C2427.74 840.577 2427.1 840.942 2426.41 841.164C2425.72 841.385 2424.99 841.459 2424.27 841.38ZM2424.27 819.685H2340.81C2339.55 819.546 2338.38 818.946 2337.53 817.999C2336.68 817.052 2336.21 815.825 2336.21 814.553C2336.21 813.281 2336.68 812.054 2337.53 811.107C2338.38 810.16 2339.55 809.56 2340.81 809.421H2424.27C2424.99 809.342 2425.72 809.416 2426.41 809.638C2427.1 809.86 2427.74 810.225 2428.28 810.709C2428.82 811.193 2429.25 811.786 2429.55 812.448C2429.84 813.111 2430 813.828 2430 814.553C2430 815.279 2429.84 815.996 2429.55 816.658C2429.25 817.321 2428.82 817.913 2428.28 818.397C2427.74 818.882 2427.1 819.247 2426.41 819.468C2425.72 819.69 2424.99 819.764 2424.27 819.685ZM2424.27 797.99H2375.1C2373.74 797.99 2372.42 797.446 2371.45 796.478C2370.49 795.51 2369.94 794.196 2369.94 792.827C2369.94 791.458 2370.49 790.145 2371.45 789.177C2372.42 788.209 2373.74 787.665 2375.1 787.665H2424.27C2425.64 787.665 2426.95 788.209 2427.92 789.177C2428.89 790.145 2429.43 791.458 2429.43 792.827C2429.43 794.196 2428.89 795.51 2427.92 796.478C2426.95 797.446 2425.64 797.99 2424.27 797.99Z" fill="white"/>
<path d="M748.271 538.754H678.576C675.044 538.77 671.661 540.18 669.163 542.678C666.666 545.175 665.255 548.558 665.239 552.091V588.106C665.255 591.638 666.666 595.021 669.163 597.518C671.661 600.016 675.044 601.426 678.576 601.442H729.71L729.342 613.734L742.248 601.442H748.394C751.926 601.426 755.309 600.016 757.807 597.518C760.304 595.021 761.715 591.638 761.731 588.106V552.091C761.723 550.331 761.368 548.59 760.687 546.968C760.007 545.345 759.013 543.873 757.763 542.635C756.513 541.396 755.032 540.416 753.403 539.75C751.774 539.084 750.031 538.746 748.271 538.754ZM676.978 554.119C676.978 553.124 677.373 552.171 678.076 551.468C678.779 550.765 679.733 550.37 680.727 550.37H696.768C697.672 550.486 698.502 550.928 699.104 551.612C699.706 552.296 700.038 553.177 700.038 554.088C700.038 554.999 699.706 555.879 699.104 556.564C698.502 557.248 697.672 557.69 696.768 557.806H680.727C679.743 557.806 678.799 557.42 678.098 556.73C677.396 556.04 676.994 555.102 676.978 554.119ZM744.583 588.905H716.804C716.284 588.972 715.755 588.928 715.254 588.775C714.752 588.622 714.289 588.364 713.895 588.018C713.501 587.672 713.185 587.246 712.969 586.768C712.753 586.291 712.641 585.772 712.641 585.248C712.641 584.724 712.753 584.205 712.969 583.727C713.185 583.25 713.501 582.824 713.895 582.477C714.289 582.131 714.752 581.873 715.254 581.72C715.755 581.568 716.284 581.524 716.804 581.591H744.583C745.104 581.524 745.632 581.568 746.134 581.72C746.635 581.873 747.098 582.131 747.492 582.477C747.886 582.824 748.202 583.25 748.418 583.727C748.634 584.205 748.746 584.724 748.746 585.248C748.746 585.772 748.634 586.291 748.418 586.768C748.202 587.246 747.886 587.672 747.492 588.018C747.098 588.364 746.635 588.622 746.134 588.775C745.632 588.928 745.104 588.972 744.583 588.905ZM744.583 573.355H684.722C683.744 573.355 682.806 572.967 682.114 572.275C681.423 571.584 681.034 570.646 681.034 569.668C681.034 568.69 681.423 567.752 682.114 567.06C682.806 566.369 683.744 565.98 684.722 565.98H744.583C745.562 565.98 746.499 566.369 747.191 567.06C747.883 567.752 748.271 568.69 748.271 569.668C748.271 570.646 747.883 571.584 747.191 572.275C746.499 572.967 745.562 573.355 744.583 573.355ZM744.583 557.806H709.121C708.217 557.69 707.387 557.248 706.785 556.564C706.183 555.879 705.851 554.999 705.851 554.088C705.851 553.177 706.183 552.296 706.785 551.612C707.387 550.928 708.217 550.486 709.121 550.37H744.583C745.487 550.486 746.318 550.928 746.92 551.612C747.522 552.296 747.854 553.177 747.854 554.088C747.854 554.999 747.522 555.879 746.92 556.564C746.318 557.248 745.487 557.69 744.583 557.806Z" fill="white"/>
<path d="M1343.2 112.225H1286.72C1283.88 112.241 1281.15 113.368 1279.13 115.367C1277.11 117.366 1275.95 120.076 1275.9 122.919V152.051C1275.92 154.914 1277.06 157.656 1279.09 159.682C1281.11 161.707 1283.85 162.851 1286.72 162.868H1328.14V173.07L1338.65 162.868H1343.51C1346.37 162.851 1349.11 161.707 1351.14 159.682C1353.16 157.656 1354.31 154.914 1354.32 152.051V122.919C1354.3 121.485 1353.99 120.07 1353.42 118.755C1352.85 117.44 1352.02 116.252 1350.99 115.258C1349.95 114.264 1348.73 113.485 1347.4 112.964C1346.06 112.443 1344.63 112.192 1343.2 112.225ZM1285.43 124.517C1285.43 123.718 1285.74 122.952 1286.31 122.387C1286.87 121.823 1287.64 121.505 1288.44 121.505H1301.47C1301.86 121.505 1302.25 121.584 1302.61 121.736C1302.97 121.888 1303.3 122.11 1303.58 122.391C1303.85 122.671 1304.07 123.004 1304.21 123.369C1304.36 123.734 1304.43 124.124 1304.42 124.517C1304.42 125.305 1304.11 126.062 1303.56 126.625C1303.01 127.188 1302.26 127.512 1301.47 127.528H1288.44C1287.67 127.514 1286.93 127.209 1286.37 126.674C1285.81 126.138 1285.47 125.412 1285.43 124.64V124.517ZM1339.82 152.85H1317.33C1316.51 152.85 1315.73 152.526 1315.15 151.95C1314.58 151.373 1314.25 150.592 1314.25 149.777C1314.25 148.962 1314.58 148.18 1315.15 147.604C1315.73 147.027 1316.51 146.704 1317.33 146.704H1339.82C1340.63 146.704 1341.42 147.027 1341.99 147.604C1342.57 148.18 1342.89 148.962 1342.89 149.777C1342.89 150.592 1342.57 151.373 1341.99 151.95C1341.42 152.526 1340.63 152.85 1339.82 152.85ZM1339.82 140.25H1291.27C1290.48 140.234 1289.73 139.91 1289.18 139.347C1288.62 138.784 1288.32 138.027 1288.32 137.239C1288.32 136.852 1288.39 136.468 1288.54 136.11C1288.69 135.752 1288.91 135.427 1289.18 135.153C1289.45 134.879 1289.78 134.662 1290.14 134.513C1290.5 134.365 1290.88 134.289 1291.27 134.289H1339.82C1340.21 134.28 1340.6 134.351 1340.96 134.496C1341.32 134.642 1341.65 134.859 1341.92 135.134C1342.2 135.41 1342.42 135.738 1342.56 136.1C1342.71 136.462 1342.78 136.849 1342.77 137.239C1342.78 137.631 1342.71 138.022 1342.56 138.387C1342.42 138.752 1342.2 139.084 1341.93 139.365C1341.65 139.645 1341.32 139.868 1340.96 140.02C1340.6 140.172 1340.21 140.251 1339.82 140.25ZM1339.82 127.959H1311.06C1310.27 127.942 1309.52 127.618 1308.97 127.055C1308.41 126.492 1308.11 125.735 1308.11 124.947C1308.1 124.554 1308.17 124.164 1308.31 123.799C1308.46 123.434 1308.67 123.102 1308.95 122.821C1309.22 122.541 1309.55 122.318 1309.91 122.166C1310.27 122.014 1310.66 121.935 1311.06 121.935H1339.82C1340.21 121.935 1340.6 122.014 1340.96 122.166C1341.32 122.318 1341.65 122.541 1341.93 122.821C1342.2 123.102 1342.42 123.434 1342.56 123.799C1342.71 124.164 1342.78 124.554 1342.77 124.947C1342.69 125.681 1342.35 126.362 1341.81 126.86C1341.26 127.359 1340.56 127.64 1339.82 127.651V127.959Z" fill="white"/>
<path d="M1253.75 366.408C1284.16 335.998 1284.16 286.694 1253.75 256.285C1223.34 225.875 1174.04 225.875 1143.63 256.285C1113.22 286.694 1113.22 335.998 1143.63 366.408C1174.04 396.818 1223.34 396.818 1253.75 366.408Z" fill="#407BFF"/>
<path opacity="0.4" d="M1253.75 366.408C1284.16 335.998 1284.16 286.694 1253.75 256.285C1223.34 225.875 1174.04 225.875 1143.63 256.285C1113.22 286.694 1113.22 335.998 1143.63 366.408C1174.04 396.818 1223.34 396.818 1253.75 366.408Z" fill="black"/>
<path d="M1210.75 298.447C1192.32 292.854 1180.82 272.757 1180.82 272.757C1180.82 272.757 1174.68 272.388 1174.68 277.674C1174.59 281.224 1175.23 284.753 1176.55 288.049C1177.87 291.345 1179.85 294.339 1182.36 296.849L1173.51 296.358C1170.34 296.19 1167.17 296.522 1164.11 297.341L1161.16 298.14C1158.71 298.818 1156.62 300.423 1155.33 302.614C1154.05 304.806 1153.67 307.411 1154.27 309.879L1158.51 327.087C1159.76 332.292 1162.92 336.84 1167.35 339.832C1171.79 342.825 1177.19 344.045 1182.48 343.251C1191.52 341.961 1205.59 339.871 1207.99 339.441L1214.44 338.888L1216.65 300.23L1210.75 298.447Z" fill="white"/>
<path d="M1239.76 293.1H1214.87C1212.94 293.1 1211.37 294.669 1211.37 296.604V340.609C1211.37 342.543 1212.94 344.112 1214.87 344.112H1239.76C1241.7 344.112 1243.27 342.543 1243.27 340.609V296.604C1243.27 294.669 1241.7 293.1 1239.76 293.1Z" fill="#407BFF"/>
<path opacity="0.4" d="M1239.76 293.1H1214.87C1212.94 293.1 1211.37 294.669 1211.37 296.604V340.609C1211.37 342.543 1212.94 344.112 1214.87 344.112H1239.76C1241.7 344.112 1243.27 342.543 1243.27 340.609V296.604C1243.27 294.669 1241.7 293.1 1239.76 293.1Z" fill="white"/>
<path d="M1567.59 222.914H1482.53C1478.43 222.946 1474.51 224.588 1471.61 227.485C1468.71 230.383 1467.07 234.304 1467.04 238.401V290.642C1467.05 294.745 1468.69 298.675 1471.59 301.576C1474.49 304.477 1478.42 306.114 1482.53 306.13H1567.59C1571.69 306.13 1575.63 304.498 1578.54 301.593C1581.44 298.689 1583.07 294.75 1583.07 290.642V238.401C1583.06 234.299 1581.42 230.369 1578.52 227.468C1575.62 224.567 1571.69 222.93 1567.59 222.914ZM1511.53 286.401V242.704L1549.33 264.276L1511.53 286.401Z" fill="white"/>
<path d="M2368.59 647.721C2403.01 647.721 2430.91 619.82 2430.91 585.401C2430.91 550.983 2403.01 523.082 2368.59 523.082C2334.17 523.082 2306.27 550.983 2306.27 585.401C2306.27 619.82 2334.17 647.721 2368.59 647.721Z" fill="#407BFF"/>
<path opacity="0.2" d="M2368.59 647.721C2403.01 647.721 2430.91 619.82 2430.91 585.401C2430.91 550.983 2403.01 523.082 2368.59 523.082C2334.17 523.082 2306.27 550.983 2306.27 585.401C2306.27 619.82 2334.17 647.721 2368.59 647.721Z" fill="black"/>
<path d="M2395.57 560.142H2343.94C2341.46 560.158 2339.07 561.154 2337.31 562.914C2335.55 564.674 2334.56 567.056 2334.54 569.545V601.258C2334.56 603.747 2335.55 606.129 2337.31 607.889C2339.07 609.649 2341.46 610.645 2343.94 610.661H2395.57C2398.06 610.645 2400.44 609.649 2402.2 607.889C2403.96 606.129 2404.96 603.747 2404.97 601.258V569.545C2404.96 567.056 2403.96 564.674 2402.2 562.914C2400.44 561.154 2398.06 560.158 2395.57 560.142ZM2361.52 598.677V572.188L2384.45 585.401L2361.52 598.677Z" fill="white"/>
<path d="M988.147 1170.56H936.521C934.037 1170.57 931.661 1171.57 929.911 1173.33C928.161 1175.1 927.179 1177.48 927.179 1179.96V1211.67C927.179 1212.9 927.42 1214.12 927.89 1215.25C928.359 1216.38 929.047 1217.41 929.915 1218.28C930.782 1219.15 931.812 1219.84 932.946 1220.3C934.079 1220.77 935.294 1221.02 936.521 1221.02H988.147C990.63 1221.02 993.012 1220.03 994.774 1218.28C996.536 1216.53 997.534 1214.16 997.55 1211.67V1180.02C997.55 1177.52 996.561 1175.12 994.799 1173.35C993.038 1171.58 990.646 1170.57 988.147 1170.56ZM954.098 1209.09V1182.54L977.084 1195.82L954.098 1209.09Z" fill="white"/>
<path d="M2188.5 905.744C2218.91 875.335 2218.91 826.031 2188.5 795.621C2158.09 765.211 2108.79 765.211 2078.38 795.621C2047.97 826.031 2047.97 875.335 2078.38 905.744C2108.79 936.154 2158.1 936.154 2188.5 905.744Z" fill="#407BFF"/>
<path opacity="0.2" d="M2188.5 905.744C2218.91 875.335 2218.91 826.031 2188.5 795.621C2158.09 765.211 2108.79 765.211 2078.38 795.621C2047.97 826.031 2047.97 875.335 2078.38 905.744C2108.79 936.154 2158.1 936.154 2188.5 905.744Z" fill="white"/>
<path d="M2133.44 803.583C2122.06 803.645 2111.09 807.873 2102.61 815.47C2094.13 823.066 2088.73 833.504 2087.42 844.813C2086.11 856.122 2088.99 867.519 2095.51 876.851C2102.03 886.183 2111.74 892.804 2122.81 895.465L2133.44 908.986L2144.08 895.465C2155.25 892.914 2165.09 886.329 2171.71 876.971C2178.32 867.614 2181.26 856.144 2179.94 844.759C2178.62 833.374 2173.15 822.875 2164.57 815.277C2155.99 807.678 2144.91 803.514 2133.44 803.583ZM2133.44 869.529C2129.6 869.529 2125.85 868.39 2122.65 866.256C2119.46 864.122 2116.97 861.088 2115.5 857.54C2114.03 853.991 2113.65 850.086 2114.4 846.319C2115.15 842.551 2117 839.091 2119.71 836.375C2122.43 833.659 2125.89 831.809 2129.66 831.059C2133.42 830.31 2137.33 830.695 2140.88 832.165C2144.43 833.635 2147.46 836.124 2149.59 839.318C2151.73 842.511 2152.87 846.266 2152.87 850.108C2152.87 852.66 2152.38 855.189 2151.4 857.549C2150.43 859.909 2149 862.053 2147.2 863.858C2145.39 865.664 2143.25 867.094 2140.89 868.067C2138.53 869.04 2136 869.537 2133.44 869.529Z" fill="white"/>
<path d="M1864.07 264.276C1852.44 263.98 1841.12 268.048 1832.33 275.679C1823.55 283.309 1817.94 293.951 1816.6 305.509C1815.27 317.068 1818.31 328.707 1825.13 338.137C1831.94 347.567 1842.04 354.105 1853.44 356.465L1864.07 369.986L1874.52 356.465C1886.03 354.261 1896.29 347.789 1903.24 338.345C1910.19 328.901 1913.32 317.181 1912 305.53C1910.68 293.879 1905.01 283.156 1896.12 275.507C1887.23 267.858 1875.79 263.846 1864.07 264.276ZM1864.07 330.222C1860.23 330.222 1856.47 329.083 1853.28 326.949C1850.08 324.815 1847.6 321.781 1846.13 318.233C1844.66 314.684 1844.27 310.779 1845.02 307.012C1845.77 303.244 1847.62 299.784 1850.34 297.068C1853.05 294.352 1856.51 292.502 1860.28 291.752C1864.05 291.003 1867.95 291.388 1871.5 292.858C1875.05 294.328 1878.08 296.817 1880.22 300.011C1882.35 303.204 1883.49 306.959 1883.49 310.8C1883.53 313.374 1883.06 315.929 1882.1 318.318C1881.14 320.706 1879.72 322.88 1877.91 324.711C1876.1 326.542 1873.94 327.994 1871.57 328.983C1869.19 329.971 1866.64 330.476 1864.07 330.468V330.222Z" fill="white"/>
<path d="M2410.75 953.114C2074.44 936.335 1859.15 1058.46 1729.29 1191.21C1884.1 837.201 2245.85 609.555 2245.85 609.555C1946.73 687.24 1775.69 854.717 1679.07 1016.72C1789.27 622.769 2069.9 304.532 2069.9 304.532C1811.77 470.472 1687.06 683.307 1626.77 867.624C1652.71 455.169 1763.52 264.276 1763.52 264.276C1763.52 264.276 1556.83 335.2 1536.86 937.442C1516.94 335.446 1310.26 264.276 1310.26 264.276C1310.26 264.276 1420.88 454.8 1446.94 867.378C1386.65 682.999 1261.76 470.042 1003.88 304.286C1003.88 304.286 1284.44 622.523 1394.7 1016.48C1298.09 854.471 1127.05 686.994 827.922 609.309C827.922 609.309 1189.67 836.709 1344.18 1190.96C1214.32 1058.21 999.025 936.089 662.719 952.868C662.719 952.868 1445.9 1098.77 1407.12 1743.18C1394.82 1951.03 1347.75 2087.35 1312.41 2219.92H1736.97C1749.26 2079.3 1698.13 1881.89 1670.65 1736.29C1582.71 1114.14 2410.75 953.114 2410.75 953.114Z" fill="#407BFF"/>
<path opacity="0.5" d="M2410.75 953.114C2074.44 936.335 1859.15 1058.46 1729.29 1191.21C1884.1 837.201 2245.85 609.555 2245.85 609.555C1946.73 687.24 1775.69 854.717 1679.07 1016.72C1789.27 622.769 2069.9 304.532 2069.9 304.532C1811.77 470.472 1687.06 683.307 1626.77 867.624C1652.71 455.169 1763.52 264.276 1763.52 264.276C1763.52 264.276 1556.83 335.2 1536.86 937.442C1516.94 335.446 1310.26 264.276 1310.26 264.276C1310.26 264.276 1420.88 454.8 1446.94 867.378C1386.65 682.999 1261.76 470.042 1003.88 304.286C1003.88 304.286 1284.44 622.523 1394.7 1016.48C1298.09 854.471 1127.05 686.994 827.922 609.309C827.922 609.309 1189.67 836.709 1344.18 1190.96C1214.32 1058.21 999.025 936.089 662.719 952.868C662.719 952.868 1445.9 1098.77 1407.12 1743.18C1394.82 1951.03 1347.75 2087.35 1312.41 2219.92H1736.97C1749.26 2079.3 1698.13 1881.89 1670.65 1736.29C1582.71 1114.14 2410.75 953.114 2410.75 953.114Z" fill="white"/>
<path d="M2371.41 1242.96C2411.71 1202.67 2411.71 1137.33 2371.41 1097.03C2331.11 1056.73 2265.77 1056.73 2225.48 1097.03C2185.18 1137.33 2185.18 1202.67 2225.48 1242.96C2265.77 1283.26 2331.11 1283.26 2371.41 1242.96Z" fill="#407BFF"/>
<path opacity="0.5" d="M2371.41 1242.96C2411.71 1202.67 2411.71 1137.33 2371.41 1097.03C2331.11 1056.73 2265.77 1056.73 2225.48 1097.03C2185.18 1137.33 2185.18 1202.67 2225.48 1242.96C2265.77 1283.26 2331.11 1283.26 2371.41 1242.96Z" fill="white"/>
<path d="M2315 1151.69C2289.92 1144.01 2274.37 1116.72 2274.37 1116.72C2274.37 1116.72 2266.44 1116.29 2266.08 1123.48C2265.97 1128.26 2266.84 1133.01 2268.62 1137.45C2270.41 1141.89 2273.07 1145.92 2276.46 1149.29L2264.17 1148.62C2259.86 1148.36 2255.54 1148.82 2251.39 1149.97L2247.39 1151.01C2244.08 1151.95 2241.26 1154.13 2239.52 1157.1C2237.78 1160.06 2237.25 1163.59 2238.05 1166.93L2243.83 1190.35C2245.53 1197.4 2249.81 1203.57 2255.83 1207.63C2261.84 1211.69 2269.16 1213.35 2276.34 1212.29C2288.63 1210.51 2307.75 1207.74 2311.06 1207.13L2319.79 1206.39L2322.8 1153.84L2315 1151.69Z" fill="white"/>
<path d="M2354.21 1144.44H2320.47C2317.82 1144.44 2315.67 1146.58 2315.67 1149.23V1208.91C2315.67 1211.56 2317.82 1213.7 2320.47 1213.7H2354.21C2356.85 1213.7 2359 1211.56 2359 1208.91V1149.23C2359 1146.58 2356.85 1144.44 2354.21 1144.44Z" fill="#407BFF"/>
<path opacity="0.3" d="M2354.21 1144.44H2320.47C2317.82 1144.44 2315.67 1146.58 2315.67 1149.23V1208.91C2315.67 1211.56 2317.82 1213.7 2320.47 1213.7H2354.21C2356.85 1213.7 2359 1211.56 2359 1208.91V1149.23C2359 1146.58 2356.85 1144.44 2354.21 1144.44Z" fill="black"/>
<path d="M714.336 860.182C724.273 818.34 698.41 776.365 656.567 766.428C614.725 756.49 572.75 782.354 562.812 824.196C552.875 866.038 578.739 908.014 620.581 917.951C662.423 927.889 704.399 902.025 714.336 860.182Z" fill="#407BFF"/>
<path opacity="0.1" d="M714.336 860.182C724.273 818.34 698.41 776.365 656.567 766.428C614.725 756.49 572.75 782.354 562.812 824.196C552.875 866.038 578.739 908.014 620.581 917.951C662.423 927.889 704.399 902.025 714.336 860.182Z" fill="white"/>
<path d="M647.723 829.088C629.285 823.434 617.854 803.337 617.854 803.337C617.854 803.337 611.708 803.03 611.708 808.315C611.618 811.866 612.252 815.397 613.573 818.694C614.894 821.991 616.874 824.984 619.39 827.49L610.54 826.999C607.373 826.798 604.194 827.13 601.137 827.982L598.187 828.781C595.744 829.446 593.657 831.039 592.371 833.22C591.085 835.401 590.702 837.999 591.303 840.458L595.544 857.728C596.204 860.458 597.395 863.03 599.051 865.298C600.707 867.565 602.794 869.483 605.193 870.942C609.482 873.553 614.543 874.596 619.513 873.892C628.548 872.54 642.622 870.512 645.019 870.082L651.165 869.529L653.316 830.809L647.723 829.088Z" fill="white"/>
<path d="M676.669 823.741H651.778C649.843 823.741 648.274 825.31 648.274 827.245V871.25C648.274 873.184 649.843 874.753 651.778 874.753H676.669C678.603 874.753 680.172 873.184 680.172 871.25V827.245C680.172 825.31 678.603 823.741 676.669 823.741Z" fill="#407BFF"/>
<path opacity="0.4" d="M676.669 823.741H651.778C649.843 823.741 648.274 825.31 648.274 827.245V871.25C648.274 873.184 649.843 874.753 651.778 874.753H676.669C678.603 874.753 680.172 873.184 680.172 871.25V827.245C680.172 825.31 678.603 823.741 676.669 823.741Z" fill="black"/>
<path d="M1274.79 1751.1C1273.81 1756.27 1273.01 1759.95 1272.03 1764.26L1268.89 1776.55C1266.74 1784.66 1264.47 1792.59 1262.07 1800.52C1257.09 1816.25 1251.69 1831.8 1245.66 1847.04C1239.64 1862.28 1233.37 1877.28 1226.67 1892.15C1223.35 1899.59 1219.79 1906.97 1216.22 1914.28L1213.52 1919.75L1212.04 1922.82C1211.25 1924.36 1210.51 1925.89 1209.65 1927.25C1206.47 1932.71 1202.58 1937.73 1198.09 1942.18C1190.36 1949.69 1181.48 1955.91 1171.79 1960.62C1163.36 1964.77 1154.61 1968.2 1145.61 1970.88C1128.98 1975.73 1111.95 1979.04 1094.72 1980.78C1061.8 1984.22 1028.62 1984.22 995.707 1980.78L996.26 1949.74C1011.26 1948.14 1026.99 1946.42 1042.11 1943.59C1057.23 1940.77 1072.41 1938.43 1087.04 1935.05C1101.22 1931.82 1115.13 1927.51 1128.64 1922.15C1139.65 1918.3 1149.64 1912 1157.84 1903.71C1158.92 1902.47 1159.81 1901.08 1160.48 1899.59L1163.86 1890.92C1166.69 1883.73 1169.39 1876.48 1172.16 1869.23C1177.69 1854.79 1182.73 1840.16 1187.71 1825.59C1192.68 1811.03 1197.36 1796.4 1201.66 1781.77C1203.93 1774.52 1206.02 1767.21 1207.8 1759.95L1210.63 1749.08L1213.09 1739.06L1274.79 1751.1Z" fill="#E4897B"/>
<path d="M1232.88 1673.97C1208.29 1680.12 1190.84 1782.08 1190.84 1782.08L1259 1828.42C1259 1828.42 1324.39 1725.72 1305.34 1698.56C1285.55 1670.22 1269.02 1664.81 1232.88 1673.97Z" fill="#407BFF"/>
<path opacity="0.6" d="M1232.88 1673.97C1208.29 1680.12 1190.84 1782.08 1190.84 1782.08L1259 1828.42C1259 1828.42 1324.39 1725.72 1305.34 1698.56C1285.55 1670.22 1269.02 1664.81 1232.88 1673.97Z" fill="black"/>
<path opacity="0.4" d="M1230.67 1710.97L1283.58 1723.26L1288.68 1775.01C1279.7 1793.31 1269.8 1811.13 1259 1828.42L1217.64 1800.33C1219.42 1776.55 1223.91 1727.01 1230.67 1710.97Z" fill="black"/>
<path d="M1266.43 1819.2C1266.13 1819.28 1265.81 1819.28 1265.51 1819.2L1192.87 1770.03C1192.51 1769.78 1192.27 1769.41 1192.19 1768.98C1192.11 1768.56 1192.2 1768.12 1192.44 1767.76C1192.67 1767.41 1193.04 1767.17 1193.46 1767.09C1193.87 1767.01 1194.3 1767.09 1194.65 1767.33L1267.36 1816.5C1267.71 1816.74 1267.95 1817.12 1268.03 1817.55C1268.11 1817.97 1268.03 1818.41 1267.79 1818.77C1267.61 1818.94 1267.39 1819.06 1267.16 1819.14C1266.93 1819.21 1266.68 1819.23 1266.43 1819.2Z" fill="white"/>
<path d="M1232.88 1673.97C1232.88 1673.97 1204.61 1683.99 1261.58 2036.21H1505.33C1501.21 1937.02 1501.09 1875.81 1548.35 1672.25C1514.23 1665.2 1479.64 1660.64 1444.85 1658.61C1408.02 1655.96 1371.05 1655.96 1334.22 1658.61C1286.78 1662.97 1232.88 1673.97 1232.88 1673.97Z" fill="#407BFF"/>
<path opacity="0.6" d="M1232.88 1673.97C1232.88 1673.97 1204.61 1683.99 1261.58 2036.21H1505.33C1501.21 1937.02 1501.09 1875.81 1548.35 1672.25C1514.23 1665.2 1479.64 1660.64 1444.85 1658.61C1408.02 1655.96 1371.05 1655.96 1334.22 1658.61C1286.78 1662.97 1232.88 1673.97 1232.88 1673.97Z" fill="black"/>
<path d="M1652.65 2104.86C1646.5 2026.01 1534.34 2029.76 1458.68 2039.47L1448.42 2040.89C1446.2 2036.09 1440.8 2033.82 1431.82 2035.11C1369.99 2033.57 1286.47 2036.21 1286.47 2036.21C1247.14 2027.92 1171.17 2022.45 1113.46 2022.14C1058.7 2021.77 982.308 2022.14 942.298 2033.57C907.266 2043.71 871.558 2050.9 865.043 2082.74C858.528 2114.58 865.842 2190.66 928.838 2205.66C998.718 2222.44 1083.41 2228.28 1157.96 2241.49C1157.96 2241.49 1165.7 2214.88 1177.99 2178.86L1179.47 2179.48H1180.02C1201.01 2182.65 1222.28 2183.48 1243.45 2181.93C1250.05 2181.47 1256.59 2183.48 1261.79 2187.57C1266.99 2191.66 1270.49 2197.54 1271.6 2204.06C1276.88 2235.77 1308.78 2272.96 1456.71 2268.59C1604.65 2264.23 1659.04 2183.72 1652.65 2104.86Z" fill="#407BFF"/>
<path opacity="0.2" d="M1652.65 2104.86C1646.5 2026.01 1534.34 2029.76 1458.68 2039.47L1448.42 2040.89C1446.2 2036.09 1440.8 2033.82 1431.82 2035.11C1369.99 2033.57 1286.47 2036.21 1286.47 2036.21C1247.14 2027.92 1171.17 2022.45 1113.46 2022.14C1058.7 2021.77 982.308 2022.14 942.298 2033.57C907.266 2043.71 871.558 2050.9 865.043 2082.74C858.528 2114.58 865.842 2190.66 928.838 2205.66C998.718 2222.44 1083.41 2228.28 1157.96 2241.49C1157.96 2241.49 1165.7 2214.88 1177.99 2178.86L1179.47 2179.48H1180.02C1201.01 2182.65 1222.28 2183.48 1243.45 2181.93C1250.05 2181.47 1256.59 2183.48 1261.79 2187.57C1266.99 2191.66 1270.49 2197.54 1271.6 2204.06C1276.88 2235.77 1308.78 2272.96 1456.71 2268.59C1604.65 2264.23 1659.04 2183.72 1652.65 2104.86Z" fill="black"/>
<path d="M1508.95 2022.02L1510.92 2043.84C1511.78 2045.56 1509.75 2047.28 1506.93 2047.28H1260.35C1258.2 2047.28 1256.36 2046.17 1256.23 2044.82L1254.02 2023C1254.02 2021.46 1255.74 2020.17 1258.2 2020.17H1505.02C1505.78 2020.11 1506.54 2020.25 1507.23 2020.57C1507.92 2020.89 1508.52 2021.39 1508.95 2022.02Z" fill="#407BFF"/>
<path opacity="0.7" d="M1508.95 2022.02L1510.92 2043.84C1511.78 2045.56 1509.75 2047.28 1506.93 2047.28H1260.35C1258.2 2047.28 1256.36 2046.17 1256.23 2044.82L1254.02 2023C1254.02 2021.46 1255.74 2020.17 1258.2 2020.17H1505.02C1505.78 2020.11 1506.54 2020.25 1507.23 2020.57C1507.92 2020.89 1508.52 2021.39 1508.95 2022.02Z" fill="white"/>
<path d="M1475.83 2049.49H1482.41C1483.76 2049.49 1484.74 2048.81 1484.68 2048.01L1481.54 2019.62C1481.54 2018.82 1480.32 2018.15 1479.02 2018.15H1472.39C1471.1 2018.15 1470.05 2018.82 1470.17 2019.62L1473.25 2048.01C1473.37 2048.81 1474.48 2049.49 1475.83 2049.49Z" fill="#407BFF"/>
<path d="M1278.97 2049.49H1285.55C1286.9 2049.49 1287.88 2048.81 1287.76 2048.01L1284.69 2019.62C1284.69 2018.82 1283.46 2018.15 1282.11 2018.15H1275.53C1274.18 2018.15 1273.2 2018.82 1273.26 2019.62L1276.39 2048.01C1276.45 2048.81 1277.62 2049.49 1278.97 2049.49Z" fill="#407BFF"/>
<path d="M1377.37 2049.49H1384.01C1385.3 2049.49 1386.28 2048.81 1386.22 2048.01L1383.15 2019.62C1383.15 2018.82 1381.86 2018.15 1380.56 2018.15H1373.93C1372.64 2018.15 1371.65 2018.82 1371.71 2019.62L1374.85 2048.01C1374.91 2048.81 1376.08 2049.49 1377.37 2049.49Z" fill="#407BFF"/>
<g opacity="0.6">
<path d="M1475.83 2049.49H1482.4C1483.75 2049.49 1484.74 2048.81 1484.68 2048.01L1481.54 2019.62C1481.54 2018.82 1480.31 2018.15 1479.02 2018.15H1472.38C1471.09 2018.15 1470.05 2018.82 1470.17 2019.62L1473.24 2048.01C1473.37 2048.81 1474.47 2049.49 1475.83 2049.49Z" fill="black"/>
<path d="M1278.97 2049.49H1285.55C1286.9 2049.49 1287.88 2048.81 1287.76 2048.01L1284.69 2019.62C1284.69 2018.82 1283.46 2018.15 1282.11 2018.15H1275.53C1274.18 2018.15 1273.2 2018.82 1273.26 2019.62L1276.39 2048.01C1276.45 2048.81 1277.62 2049.49 1278.97 2049.49Z" fill="black"/>
<path d="M1377.37 2049.49H1384.01C1385.3 2049.49 1386.28 2048.81 1386.22 2048.01L1383.15 2019.62C1383.15 2018.82 1381.86 2018.15 1380.56 2018.15H1373.93C1372.64 2018.15 1371.65 2018.82 1371.71 2019.62L1374.85 2048.01C1374.91 2048.81 1376.08 2049.49 1377.37 2049.49Z" fill="black"/>
</g>
<path d="M1005.11 1949.43L962.517 1906.41L956.924 1967.2C956.924 1967.2 988.883 1988.77 1010.95 1977.15L1005.11 1949.43Z" fill="#E4897B"/>
<path d="M912.489 1899.84L910.584 1950.97L956.924 1967.07L962.517 1906.29L912.489 1899.84Z" fill="#E4897B"/>
<path opacity="0.6" d="M1491.19 1766.78L1522.6 1793.51C1515.9 1829.16 1511.41 1858.84 1508.52 1885.21C1502.62 1858.72 1487.69 1787 1491.19 1766.78Z" fill="black"/>
<path d="M1515.96 1597.52C1496.91 1564.27 1478.1 1524.07 1495.99 1467.9C1516.51 1403.37 1505.33 1371.47 1492.36 1356.04C1480.62 1342.09 1462.12 1335.82 1440.12 1338.16C1434.17 1338.23 1428.3 1339.59 1422.93 1342.16C1417.56 1344.73 1412.81 1348.44 1409.02 1353.03C1409.02 1353.03 1314 1361.14 1253.16 1431.39C1272.83 1488.61 1244.68 1558.18 1208.48 1584.61C1323.84 1682.39 1447.49 1651.79 1487.93 1633.78C1507.36 1625.05 1514.24 1612.94 1510 1593.4L1513.32 1599.24C1513.44 1599.48 1513.62 1599.67 1513.85 1599.82C1514.08 1599.96 1514.34 1600.03 1514.61 1600.04C1514.87 1600.1 1515.14 1600.1 1515.41 1600.04C1515.65 1599.95 1515.86 1599.8 1516.03 1599.6C1516.2 1599.41 1516.31 1599.18 1516.37 1598.93C1516.42 1598.68 1516.42 1598.42 1516.34 1598.17C1516.27 1597.92 1516.14 1597.7 1515.96 1597.52ZM1490.02 1357.82C1496.39 1365.86 1500.62 1375.37 1502.32 1385.48C1498.61 1375.47 1492.83 1366.36 1485.35 1358.74C1477.87 1351.13 1468.87 1345.18 1458.93 1341.29C1471.04 1342.89 1482.13 1348.93 1490.02 1358.25V1357.82ZM1488.49 1463.35C1493.85 1453.97 1498.18 1444.04 1501.39 1433.73C1499.33 1444.92 1496.53 1455.96 1493.04 1466.79C1484.6 1491.64 1483.42 1518.37 1489.66 1543.86C1479.33 1518.05 1474.23 1488.98 1488.49 1463.53V1463.35Z" fill="#263238"/>
<path d="M1463.35 1523.27C1463.35 1525.33 1462.54 1527.3 1461.08 1528.75C1459.63 1530.2 1457.66 1531.02 1455.61 1531.02C1453.55 1531.02 1451.58 1530.2 1450.13 1528.75C1448.68 1527.3 1447.86 1525.33 1447.86 1523.27C1447.86 1521.22 1448.68 1519.25 1450.13 1517.8C1451.58 1516.35 1453.55 1515.53 1455.61 1515.53C1457.66 1515.53 1459.63 1516.35 1461.08 1517.8C1462.54 1519.25 1463.35 1521.22 1463.35 1523.27Z" fill="white"/>
<path d="M1369.13 1715.76C1357.52 1715.76 1322.24 1715.76 1310.19 1690.75C1308.05 1685.99 1306.89 1680.85 1306.77 1675.64C1306.66 1670.42 1307.59 1665.24 1309.52 1660.39C1309.67 1659.99 1309.97 1659.66 1310.36 1659.47C1310.75 1659.29 1311.2 1659.27 1311.61 1659.41C1312.01 1659.56 1312.34 1659.86 1312.52 1660.25C1312.71 1660.64 1312.73 1661.09 1312.59 1661.5C1310.81 1665.93 1309.94 1670.68 1310.02 1675.47C1310.11 1680.25 1311.15 1684.96 1313.08 1689.34C1324.27 1712.57 1358.01 1712.57 1369.13 1712.57C1448.05 1712.57 1461.69 1665.24 1462.24 1663.4L1463.23 1659.65C1463.34 1659.24 1463.61 1658.89 1463.98 1658.68C1464.34 1658.46 1464.78 1658.39 1465.2 1658.48C1465.41 1658.53 1465.61 1658.63 1465.79 1658.76C1465.96 1658.89 1466.11 1659.05 1466.22 1659.24C1466.33 1659.43 1466.4 1659.65 1466.42 1659.86C1466.45 1660.08 1466.43 1660.3 1466.36 1660.51L1465.38 1664.2C1464.76 1666.23 1450.44 1715.76 1369.13 1715.76Z" fill="white"/>
<path d="M1434.03 1533.97C1427.09 1569.61 1420.08 1634.82 1445.04 1658.61C1445.04 1658.61 1435.26 1694.75 1369.13 1694.75C1305.46 1694.75 1334.35 1658.61 1334.35 1658.61C1374.05 1649.14 1373.01 1619.64 1366.12 1591.99L1434.03 1533.97Z" fill="#E4897B"/>
<path d="M1406.38 1557.63L1366.12 1591.8C1367.83 1598.23 1368.98 1604.78 1369.57 1611.41C1384.75 1609.26 1405.58 1592.6 1407.18 1576.68C1408.05 1570.33 1407.78 1563.88 1406.38 1557.63Z" fill="#CE6F64"/>
<path d="M1438.15 1440.12C1445.03 1499.3 1449.21 1524.2 1425.06 1559.53C1388.68 1612.7 1314.43 1608.15 1289.85 1552.28C1267.85 1501.95 1260.29 1413.63 1313.45 1380.2C1325.12 1372.69 1338.52 1368.29 1352.36 1367.43C1366.21 1366.57 1380.05 1369.28 1392.56 1375.29C1405.06 1381.3 1415.82 1390.41 1423.8 1401.76C1431.79 1413.11 1436.73 1426.32 1438.15 1440.12Z" fill="#E4897B"/>
<path d="M1381.67 1389.41C1368.21 1415.35 1270.06 1446.51 1223.23 1443.62C1230.04 1440.17 1236.26 1435.67 1241.67 1430.29C1241.67 1410.07 1241.67 1365.94 1271.91 1340.8C1289.75 1325.47 1311.17 1314.87 1334.19 1309.98C1357.2 1305.09 1381.08 1306.08 1403.61 1312.84C1412.53 1315.44 1420.67 1320.19 1427.33 1326.67C1433.98 1333.16 1438.95 1341.17 1441.78 1350.02L1445.1 1360.22L1381.67 1389.41Z" fill="#263238"/>
<path d="M1402.57 1369.5L1376.69 1384.13C1376.69 1384.13 1359.61 1475.52 1443.38 1473.18C1443.07 1473.18 1442.27 1382.84 1402.57 1369.5Z" fill="#263238"/>
<path d="M1463.23 1481.85C1462.03 1493.28 1456.54 1503.82 1447.86 1511.35C1436.25 1521.18 1424.69 1512.46 1423.28 1498.32C1421.87 1485.54 1426.11 1465.07 1440.06 1460.71C1454.01 1456.34 1464.52 1467.9 1463.23 1481.85Z" fill="#E4897B"/>
<path d="M1166.44 2232.52L1183.77 2167.37C1184.04 2166.24 1184.71 2165.24 1185.66 2164.57C1186.61 2163.9 1187.78 2163.61 1188.94 2163.74L1242.47 2169.89C1243.84 2170.08 1245.16 2170.56 1246.33 2171.31C1247.5 2172.06 1248.49 2173.05 1249.24 2174.22C1249.98 2175.39 1250.47 2176.71 1250.66 2178.08C1250.85 2179.45 1250.74 2180.85 1250.33 2182.18C1243.88 2204.8 1239.64 2215.37 1231.9 2244.01C1227.22 2261.65 1219.6 2298.59 1212.9 2322.92C1206.21 2347.26 1182.17 2342.16 1182.17 2331.47C1184.51 2283.4 1176.03 2261.96 1166.99 2243.21C1165.55 2239.82 1165.36 2236.03 1166.44 2232.52Z" fill="#263238"/>
<path d="M1298.64 2246.04L1315.97 2180.89C1316.29 2179.77 1316.19 2178.57 1315.69 2177.52C1315.2 2176.47 1314.33 2175.64 1313.27 2175.17L1263.67 2154.03C1262.41 2153.55 1261.05 2153.33 1259.7 2153.4C1258.35 2153.47 1257.03 2153.83 1255.83 2154.44C1254.62 2155.06 1253.56 2155.92 1252.71 2156.97C1251.85 2158.02 1251.23 2159.24 1250.89 2160.55C1245.23 2183.41 1243.63 2194.72 1236.01 2223.36C1231.34 2241 1219.79 2276.95 1213.27 2301.29C1206.76 2325.63 1230.54 2333.37 1235.4 2323.78C1257.28 2280.76 1275.53 2266.63 1292.49 2254.76C1295.48 2252.65 1297.65 2249.56 1298.64 2246.04Z" fill="#263238"/>
<path d="M1352.42 1472.39C1353.28 1477.18 1351.44 1481.48 1348.3 1482.03C1345.17 1482.59 1342.15 1479.15 1341.11 1474.41C1340.07 1469.68 1342.09 1465.32 1345.23 1464.76C1348.36 1464.21 1351.56 1467.59 1352.42 1472.39Z" fill="#263238"/>
<path d="M1298.52 1482.03C1299.38 1486.77 1297.53 1491.07 1294.46 1491.68C1291.39 1492.3 1288.32 1488.79 1287.27 1484.06C1286.23 1479.33 1288.25 1474.97 1291.33 1474.41C1294.4 1473.86 1297.72 1477.24 1298.52 1482.03Z" fill="#263238"/>
<path d="M1292.8 1474.41L1280.51 1473.18C1280.51 1473.18 1288.19 1481.17 1292.8 1474.41Z" fill="#263238"/>
<path d="M1314.25 1487.69C1312.03 1499.3 1308.22 1510.55 1302.94 1521.12C1305.7 1522.4 1308.7 1523.06 1311.73 1523.06C1314.77 1523.06 1317.77 1522.4 1320.52 1521.12L1314.25 1487.69Z" fill="#DE5753"/>
<path d="M1344.8 1534.4C1344.57 1534.44 1344.33 1534.39 1344.14 1534.25C1343.95 1534.12 1343.82 1533.92 1343.78 1533.69C1343.74 1533.46 1343.79 1533.23 1343.93 1533.04C1344.06 1532.85 1344.26 1532.72 1344.49 1532.68C1353.83 1528.89 1361.42 1521.74 1365.75 1512.64C1365.79 1512.53 1365.86 1512.43 1365.94 1512.34C1366.02 1512.25 1366.12 1512.18 1366.23 1512.14C1366.34 1512.09 1366.46 1512.07 1366.58 1512.07C1366.7 1512.07 1366.81 1512.1 1366.92 1512.15C1367.04 1512.2 1367.14 1512.27 1367.23 1512.35C1367.31 1512.44 1367.38 1512.55 1367.43 1512.66C1367.47 1512.77 1367.5 1512.9 1367.49 1513.02C1367.49 1513.14 1367.46 1513.27 1367.41 1513.38C1362.92 1522.97 1354.94 1530.49 1345.1 1534.4H1344.8Z" fill="#263238"/>
<path d="M1358.99 1441.84C1358.55 1441.82 1358.12 1441.67 1357.76 1441.41C1354.99 1438.9 1351.66 1437.08 1348.05 1436.12C1344.43 1435.16 1340.64 1435.07 1336.99 1435.88C1336.52 1436.01 1336.03 1435.96 1335.6 1435.73C1335.18 1435.5 1334.86 1435.11 1334.72 1434.65C1334.6 1434.18 1334.66 1433.69 1334.89 1433.27C1335.11 1432.85 1335.49 1432.53 1335.94 1432.37C1340.18 1431.4 1344.58 1431.45 1348.8 1432.52C1353.01 1433.59 1356.9 1435.65 1360.16 1438.52C1360.49 1438.86 1360.68 1439.31 1360.68 1439.78C1360.68 1440.25 1360.49 1440.71 1360.16 1441.04C1360.03 1441.25 1359.86 1441.42 1359.66 1441.56C1359.46 1441.7 1359.23 1441.79 1358.99 1441.84Z" fill="#263238"/>
<path d="M1267.79 1462.74C1267.41 1462.72 1267.05 1462.59 1266.74 1462.37C1266.36 1462.08 1266.1 1461.66 1266.02 1461.19C1265.94 1460.72 1266.04 1460.24 1266.31 1459.85C1268.69 1456.2 1271.92 1453.18 1275.72 1451.04C1279.52 1448.9 1283.77 1447.7 1288.13 1447.56C1288.61 1447.57 1289.06 1447.77 1289.39 1448.12C1289.73 1448.46 1289.91 1448.92 1289.91 1449.4C1289.84 1449.87 1289.62 1450.3 1289.27 1450.62C1288.92 1450.95 1288.48 1451.14 1288.01 1451.18C1284.32 1451.36 1280.72 1452.41 1277.52 1454.25C1274.31 1456.09 1271.59 1458.66 1269.57 1461.75C1269.39 1462.07 1269.13 1462.33 1268.82 1462.5C1268.5 1462.68 1268.15 1462.76 1267.79 1462.74Z" fill="#263238"/>
<path d="M1346.64 1464.76L1334.35 1463.53C1334.35 1463.53 1342.09 1471.4 1346.64 1464.76Z" fill="#263238"/>
<path d="M1571.52 1739.3C1577.66 1757.25 1583.01 1774.89 1588.3 1792.83C1593.58 1810.78 1597.95 1828.91 1602.25 1847.23C1606.55 1865.54 1610.24 1884.1 1613 1903.4C1614.42 1912.99 1615.52 1922.76 1616.08 1933.09C1616.08 1938.25 1616.45 1943.53 1616.08 1949.06V1953.31V1955.64L1615.77 1958.84C1615.3 1963.01 1614.42 1967.13 1613.13 1971.13C1608.62 1984.04 1600.95 1995.62 1590.82 2004.81C1582.8 2012.27 1574.05 2018.9 1564.7 2024.6C1547.68 2034.7 1529.76 2043.19 1511.17 2049.98C1475.69 2063.11 1439.03 2072.8 1401.71 2078.93L1394.27 2048.81C1427.81 2036.86 1460.64 2023.01 1492.6 2007.33C1507.64 1999.89 1522.03 1991.22 1535.63 1981.39C1541.64 1977.14 1547.18 1972.26 1552.16 1966.83C1555.54 1963.38 1558.02 1959.16 1559.41 1954.53C1559.41 1948.94 1559.04 1943.36 1558.3 1937.82C1557.32 1929.89 1555.85 1921.53 1554.19 1913.23C1550.93 1896.39 1546.57 1879.19 1541.9 1862.04C1537.22 1844.89 1532.37 1827.62 1527.27 1810.47C1522.17 1793.33 1516.82 1775.87 1511.66 1759.16L1571.52 1739.3Z" fill="#E4897B"/>
<path d="M1406.56 2050.6L1349.59 2036.21L1376.69 2090.85C1376.69 2090.85 1415.17 2092.51 1427.89 2071.06L1406.56 2050.6Z" fill="#E4897B"/>
<path d="M1303.62 2056.99L1328.82 2101.48L1376.75 2090.85L1349.59 2036.21L1303.62 2056.99Z" fill="#E4897B"/>
<path d="M1166.25 2244.13L1188.75 2159.75L1159.13 2147.52L1117.39 2238.11L1166.25 2244.13Z" fill="#407BFF"/>
<path opacity="0.7" d="M1166.25 2244.13L1188.75 2159.75L1159.13 2147.52L1117.39 2238.11L1166.25 2244.13Z" fill="white"/>
<path d="M1295.87 2245.24L1310.01 2166.2L1344.55 2164.91L1341.85 2265.52L1295.87 2245.24Z" fill="#407BFF"/>
<path opacity="0.7" d="M1295.87 2245.24L1310.01 2166.2L1344.55 2164.91L1341.85 2265.52L1295.87 2245.24Z" fill="white"/>
<path d="M1159.25 2270.99C1158.22 2270.99 1157.19 2270.78 1156.24 2270.38C1155.56 2270.15 1154.95 2269.76 1154.46 2269.23C1153.98 2268.7 1153.64 2268.06 1153.47 2267.36C1151.57 2259.44 1169.39 2239.65 1171.42 2237.37C1171.59 2237.27 1171.78 2237.21 1171.97 2237.21C1172.17 2237.21 1172.36 2237.27 1172.53 2237.37C1172.73 2237.45 1172.9 2237.6 1173.01 2237.79C1173.12 2237.98 1173.17 2238.2 1173.14 2238.42C1172.53 2248.19 1170.44 2265.34 1163.25 2270.01C1162.04 2270.71 1160.65 2271.05 1159.25 2270.99ZM1170.93 2241C1164.78 2248 1154.15 2261.71 1155.44 2266.93C1155.53 2267.31 1155.72 2267.66 1155.99 2267.94C1156.26 2268.22 1156.6 2268.42 1156.98 2268.53C1157.81 2268.88 1158.72 2269.02 1159.62 2268.94C1160.52 2268.85 1161.39 2268.54 1162.14 2268.04C1166.5 2265.21 1169.7 2255.19 1170.93 2241Z" fill="#407BFF"/>
<path d="M1148.49 2252.67C1147.65 2252.7 1146.82 2252.55 1146.04 2252.24C1144.68 2251.63 1143.15 2250.09 1143.76 2246.47C1143.96 2245.12 1144.44 2243.82 1145.17 2242.67C1145.9 2241.51 1146.86 2240.52 1148 2239.77C1155.87 2234.18 1171.66 2236.94 1172.59 2237.06C1172.76 2237.1 1172.92 2237.18 1173.05 2237.3C1173.18 2237.42 1173.27 2237.57 1173.32 2237.74C1173.4 2237.89 1173.44 2238.06 1173.44 2238.23C1173.44 2238.4 1173.4 2238.57 1173.32 2238.72C1168.59 2244.01 1155.44 2252.67 1148.49 2252.67ZM1162.69 2238.29C1157.98 2238.02 1153.28 2239.11 1149.17 2241.43C1148.25 2242.03 1147.47 2242.81 1146.88 2243.73C1146.29 2244.66 1145.89 2245.69 1145.73 2246.77C1145.3 2249.66 1146.47 2250.22 1146.83 2250.4C1150.95 2252.24 1164.1 2245.05 1170.13 2238.78C1167.66 2238.48 1165.18 2238.32 1162.69 2238.29Z" fill="#407BFF"/>
<path d="M1289.48 2284.02H1288.62C1287.41 2283.86 1286.25 2283.41 1285.26 2282.71C1284.26 2282 1283.45 2281.06 1282.91 2279.96C1278.97 2272.34 1285.67 2256.42 1289.97 2247.64C1290.06 2247.45 1290.19 2247.3 1290.36 2247.19C1290.53 2247.08 1290.72 2247.02 1290.93 2247.02C1291.13 2247.02 1291.32 2247.08 1291.49 2247.19C1291.66 2247.3 1291.8 2247.45 1291.88 2247.64C1292.55 2250.59 1298.02 2276.64 1292.49 2282.54C1292.13 2282.99 1291.67 2283.36 1291.15 2283.61C1290.63 2283.87 1290.06 2284.01 1289.48 2284.02ZM1290.53 2251.14C1287.27 2258.27 1281.43 2272.65 1284.69 2278.98C1285.09 2279.79 1285.69 2280.49 1286.43 2281.01C1287.17 2281.54 1288.03 2281.88 1288.93 2281.99C1289.31 2282.08 1289.72 2282.07 1290.1 2281.95C1290.47 2281.83 1290.81 2281.61 1291.08 2281.31C1294.77 2277.44 1292.31 2260.3 1290.65 2251.14H1290.53Z" fill="#407BFF"/>
<path d="M1306.94 2273.26H1306.57C1299.87 2272.59 1291.2 2255.81 1289.91 2248.19C1289.87 2248.02 1289.88 2247.83 1289.95 2247.67C1290.02 2247.5 1290.13 2247.36 1290.28 2247.27C1290.43 2247.17 1290.6 2247.12 1290.77 2247.12C1290.95 2247.12 1291.12 2247.17 1291.26 2247.27C1291.88 2247.27 1307 2252.92 1311.05 2261.65C1311.64 2262.88 1311.96 2264.22 1312.02 2265.58C1312.07 2266.94 1311.85 2268.3 1311.36 2269.58C1310.19 2272.53 1308.41 2273.26 1306.94 2273.26ZM1292.25 2249.42C1294.46 2257.84 1302.27 2270.56 1306.75 2270.99C1307.18 2270.99 1308.47 2270.99 1309.46 2268.47C1309.88 2267.5 1310.09 2266.45 1310.09 2265.4C1310.09 2264.34 1309.88 2263.29 1309.46 2262.32C1306.26 2255.99 1296.3 2251.32 1292.25 2249.42Z" fill="#407BFF"/>
<path d="M1548.78 1672.25C1573.36 1679.69 1610.24 1775.5 1610.24 1775.5L1515.53 1843.11C1515.53 1843.11 1472.94 1761.18 1483.2 1729.59C1493.96 1696.84 1520.63 1663.77 1548.78 1672.25Z" fill="#407BFF"/>
<path opacity="0.6" d="M1548.78 1672.25C1573.36 1679.69 1610.24 1775.5 1610.24 1775.5L1515.53 1843.11C1515.53 1843.11 1472.94 1761.18 1483.2 1729.59C1493.96 1696.84 1520.63 1663.77 1548.78 1672.25Z" fill="black"/>
<path d="M1509.88 1833.21C1509.54 1833.2 1509.21 1833.09 1508.94 1832.88C1508.67 1832.68 1508.47 1832.4 1508.36 1832.08C1508.25 1831.76 1508.25 1831.41 1508.34 1831.09C1508.44 1830.76 1508.63 1830.48 1508.89 1830.26L1604.4 1761.98C1604.57 1761.85 1604.76 1761.76 1604.96 1761.71C1605.17 1761.66 1605.38 1761.65 1605.59 1761.69C1605.79 1761.72 1605.99 1761.8 1606.17 1761.91C1606.35 1762.03 1606.5 1762.18 1606.61 1762.35C1606.74 1762.52 1606.84 1762.72 1606.89 1762.93C1606.94 1763.14 1606.95 1763.35 1606.91 1763.57C1606.88 1763.78 1606.8 1763.98 1606.69 1764.16C1606.57 1764.35 1606.42 1764.5 1606.24 1764.62L1510.8 1832.91C1510.54 1833.11 1510.21 1833.22 1509.88 1833.21Z" fill="white"/>
<path d="M824.848 1867.75H1252.61L1314.62 2120.35H886.86L824.848 1867.75Z" fill="#407BFF"/>
<path d="M1041.55 2073.27L1303.19 2134.3L1471.09 2087.23L1469.37 2073.27H1041.55Z" fill="#407BFF"/>
<path d="M811.696 1867.75H1239.45L1301.41 2120.35H873.709L811.696 1867.75Z" fill="#407BFF"/>
<path opacity="0.5" d="M811.696 1867.75H1239.45L1301.41 2120.35H873.709L811.696 1867.75Z" fill="white"/>
<path d="M873.709 2120.35L875.43 2134.3H1303.19L1301.47 2120.35H873.709Z" fill="#407BFF"/>
<path opacity="0.5" d="M873.709 2120.35L875.43 2134.3H1303.19L1301.47 2120.35H873.709Z" fill="white"/>
</svg>
