<svg width="3023" height="2252" viewBox="0 0 3023 2252" fill="none" xmlns="http://www.w3.org/2000/svg" >
<path d="M3022.19 1978.93H0V1980.44H3022.19V1978.93Z" fill="#E0E0E0"/>
<path d="M2618.42 2073.7H2347.27V2075.22H2618.42V2073.7Z" fill="#E0E0E0"/>
<path d="M2307.5 2073.7H2254.98V2075.22H2307.5V2073.7Z" fill="#E0E0E0"/>
<path d="M1809.2 2052.85H1692.18V2054.36H1809.2V2052.85Z" fill="#E0E0E0"/>
<path d="M750.228 2052.07H489.171V2053.58H750.228V2052.07Z" fill="#E0E0E0"/>
<path d="M435.376 2052.07H397.115V2053.58H435.376V2052.07Z" fill="#E0E0E0"/>
<path d="M1710.44 2016.28H1144.2V2017.79H1710.44V2016.28Z" fill="#E0E0E0"/>
<path d="M1432.52 1709.35H265.409C256.265 1709.33 247.502 1705.69 241.043 1699.22C234.583 1692.75 230.956 1683.98 230.956 1674.84V34.2112C231.035 25.1206 234.698 16.4285 241.149 10.0229C247.6 3.61731 256.318 0.0155727 265.409 0H1432.52C1441.67 0 1450.45 3.63622 1456.92 10.1087C1463.39 16.5813 1467.03 25.3599 1467.03 34.5134V1674.84C1467.03 1683.99 1463.39 1692.77 1456.92 1699.24C1450.45 1705.71 1441.67 1709.35 1432.52 1709.35ZM265.409 1.20888C256.666 1.22489 248.287 4.70896 242.111 10.8964C235.935 17.0838 232.467 25.4689 232.467 34.2112V1674.84C232.467 1683.58 235.935 1691.96 242.111 1698.15C248.287 1704.34 256.666 1707.82 265.409 1707.84H1432.52C1441.26 1707.82 1449.65 1704.34 1455.84 1698.15C1462.02 1691.97 1465.5 1683.58 1465.52 1674.84V34.2112C1465.5 25.4633 1462.02 17.0783 1455.84 10.8927C1449.65 4.707 1441.26 1.22486 1432.52 1.20888H265.409Z" fill="#E0E0E0"/>
<path d="M2739.98 1709.35H1572.81C1563.66 1709.33 1554.89 1705.69 1548.42 1699.22C1541.95 1692.75 1538.31 1683.98 1538.29 1674.84V34.2112C1538.39 25.1151 1542.07 16.423 1548.53 10.0191C1554.99 3.61519 1563.71 0.0154028 1572.81 0H2739.98C2749.06 0.0314579 2757.76 3.64022 2764.2 10.0441C2770.63 16.448 2774.29 25.131 2774.37 34.2112V1674.84C2774.37 1683.97 2770.75 1692.73 2764.3 1699.2C2757.86 1705.67 2749.11 1709.32 2739.98 1709.35ZM1572.81 1.20888C1564.06 1.22486 1555.67 4.707 1549.49 10.8927C1543.3 17.0783 1539.82 25.4633 1539.8 34.2112V1674.84C1539.82 1683.58 1543.3 1691.97 1549.49 1698.15C1555.67 1704.34 1564.06 1707.82 1572.81 1707.84H2739.98C2748.72 1707.82 2757.11 1704.34 2763.29 1698.15C2769.48 1691.97 2772.96 1683.58 2772.98 1674.84V34.2112C2772.96 25.4633 2769.48 17.0783 2763.29 10.8927C2757.11 4.707 2748.72 1.22486 2739.98 1.20888H1572.81Z" fill="#E0E0E0"/>
<path d="M1420.73 381.461H698.065V1979.65H1420.73V381.461Z" fill="#E6E6E6"/>
<path d="M1420.73 381.461H732.336V1979.65H1420.73V381.461Z" fill="#F0F0F0"/>
<path d="M1384.46 1943.39V417.727L768.602 417.727L768.602 1943.39H1384.46Z" fill="#EBEBEB"/>
<path d="M1384.46 1943.45V417.787H1375.03V1943.45H1384.46Z" fill="#E6E6E6"/>
<path d="M1302.2 1145.41C1319.26 1145.41 1333.09 1131.58 1333.09 1114.52C1333.09 1097.46 1319.26 1083.64 1302.2 1083.64C1285.14 1083.64 1271.31 1097.46 1271.31 1114.52C1271.31 1131.58 1285.14 1145.41 1302.2 1145.41Z" fill="#E6E6E6"/>
<path d="M1314.29 1139C1331.35 1139 1345.18 1125.17 1345.18 1108.12C1345.18 1091.06 1331.35 1077.23 1314.29 1077.23C1297.23 1077.23 1283.4 1091.06 1283.4 1108.12C1283.4 1125.17 1297.23 1139 1314.29 1139Z" fill="#FAFAFA"/>
<path d="M2558.34 184.716H1738.12V1412.33H2558.34V184.716Z" fill="#E0E0E0"/>
<path d="M2576.54 184.716H1756.31V1412.33H2576.54V184.716Z" fill="#F0F0F0"/>
<path d="M2543.84 1375.58V221.466L1789.07 221.466V1375.58H2543.84Z" fill="#FAFAFA"/>
<path d="M2543.84 1375.58V221.466H2530.05V1375.58H2543.84Z" fill="#E0E0E0"/>
<path d="M2563 581.288H1769.85V630.61H2563V581.288Z" fill="#F0F0F0"/>
<path d="M2612.2 123.91H1702.46C1701.13 123.91 1699.85 124.438 1698.91 125.379C1697.97 126.32 1697.44 127.596 1697.44 128.927C1697.44 130.263 1697.97 131.545 1698.91 132.495C1699.85 133.446 1701.12 133.988 1702.46 134.004H2612.2C2613.54 133.988 2614.82 133.448 2615.77 132.499C2616.72 131.551 2617.26 130.268 2617.28 128.927C2617.26 127.59 2616.72 126.314 2615.77 125.375C2614.82 124.436 2613.53 123.91 2612.2 123.91Z" fill="#E0E0E0"/>
<path d="M2642.42 128.927C2642.43 133.914 2640.96 138.793 2638.2 142.946C2635.44 147.099 2631.51 150.339 2626.9 152.256C2622.3 154.173 2617.23 154.681 2612.33 153.715C2607.44 152.749 2602.94 150.354 2599.41 146.831C2595.88 143.308 2593.48 138.817 2592.5 133.927C2591.52 129.036 2592.02 123.965 2593.92 119.355C2595.83 114.746 2599.06 110.806 2603.21 108.034C2607.35 105.262 2612.23 103.782 2617.21 103.782C2623.89 103.782 2630.29 106.429 2635.02 111.143C2639.74 115.857 2642.4 122.252 2642.42 128.927Z" fill="#E0E0E0"/>
<path d="M1744.89 157.154C1743.09 157.138 1741.37 156.411 1740.1 155.132C1738.83 153.853 1738.12 152.125 1738.12 150.324V135.757C1738.12 133.956 1738.83 132.227 1740.1 130.948C1741.37 129.669 1743.09 128.942 1744.89 128.927C1746.7 128.942 1748.42 129.667 1749.7 130.944C1750.98 132.222 1751.7 133.95 1751.72 135.757V150.324C1751.7 152.13 1750.98 153.858 1749.7 155.136C1748.42 156.413 1746.7 157.138 1744.89 157.154Z" fill="#E0E0E0"/>
<path d="M2536.28 157.154C2534.47 157.138 2532.75 156.413 2531.47 155.136C2530.19 153.858 2529.47 152.13 2529.45 150.324V135.757C2529.47 133.95 2530.19 132.222 2531.47 130.944C2532.75 129.667 2534.47 128.942 2536.28 128.927C2538.08 128.942 2539.8 129.669 2541.07 130.948C2542.34 132.227 2543.05 133.956 2543.05 135.757V150.324C2543.05 152.125 2542.34 153.853 2541.07 155.132C2539.8 156.411 2538.08 157.138 2536.28 157.154Z" fill="#E0E0E0"/>
<path opacity="0.4" d="M2610.63 128.927H1769.85V481.495H2610.63V128.927Z" fill="#E0E0E0"/>
<path d="M1851.09 128.927C1851.1 133.914 1849.63 138.793 1846.87 142.946C1844.11 147.099 1840.18 150.339 1835.57 152.256C1830.97 154.173 1825.9 154.681 1821 153.715C1816.11 152.749 1811.61 150.354 1808.08 146.831C1804.55 143.308 1802.15 138.817 1801.17 133.927C1800.19 129.036 1800.69 123.965 1802.59 119.355C1804.5 114.746 1807.73 110.806 1811.88 108.034C1816.02 105.262 1820.9 103.782 1825.88 103.782C1832.56 103.782 1838.96 106.429 1843.69 111.143C1848.41 115.857 1851.07 122.252 1851.09 128.927Z" fill="#E0E0E0"/>
<path d="M1866.26 1597.23H1704.39V1956.2H1866.26V1597.23Z" fill="#E6E6E6"/>
<path d="M2533.92 1956.2H1735.52V1978.93H2533.92V1956.2Z" fill="#E6E6E6"/>
<path d="M1866.26 1956.2H2564.93V1597.23H1866.26V1956.2Z" fill="#F0F0F0"/>
<path d="M1929.91 1759.15H2501.28V1641.41H1929.91V1759.15Z" fill="#E6E6E6"/>
<path d="M1929.91 1911.96H2501.28V1794.21H1929.91V1911.96Z" fill="#E6E6E6"/>
<path d="M2288.46 1692.18H2142.85C2138.91 1692.18 2135.72 1695.38 2135.72 1699.32V1701.19C2135.72 1705.13 2138.91 1708.32 2142.85 1708.32H2288.46C2292.4 1708.32 2295.59 1705.13 2295.59 1701.19V1699.32C2295.59 1695.38 2292.4 1692.18 2288.46 1692.18Z" fill="#F0F0F0"/>
<path d="M2288.46 1845.05H2142.85C2138.91 1845.05 2135.72 1848.24 2135.72 1852.18V1854.05C2135.72 1857.99 2138.91 1861.18 2142.85 1861.18H2288.46C2292.4 1861.18 2295.59 1857.99 2295.59 1854.05V1852.18C2295.59 1848.24 2292.4 1845.05 2288.46 1845.05Z" fill="#F0F0F0"/>
<path d="M2067.9 1544.28C2087.6 1544.28 2103.56 1528.31 2103.56 1508.62C2103.56 1488.92 2087.6 1472.95 2067.9 1472.95C2048.21 1472.95 2032.24 1488.92 2032.24 1508.62C2032.24 1528.31 2048.21 1544.28 2067.9 1544.28Z" fill="#F0F0F0"/>
<path d="M2123.99 1537.57C2143.69 1537.57 2159.66 1521.6 2159.66 1501.91C2159.66 1482.21 2143.69 1466.24 2123.99 1466.24C2104.3 1466.24 2088.33 1482.21 2088.33 1501.91C2088.33 1521.6 2104.3 1537.57 2123.99 1537.57Z" fill="#F0F0F0"/>
<path d="M2332.22 1518.41C2332.22 1525.46 2330.13 1532.36 2326.21 1538.22C2322.29 1544.08 2316.72 1548.66 2310.21 1551.35C2303.69 1554.05 2296.52 1554.76 2289.6 1553.38C2282.69 1552.01 2276.33 1548.61 2271.34 1543.62C2266.36 1538.64 2262.96 1532.28 2261.58 1525.36C2260.21 1518.45 2260.91 1511.28 2263.61 1504.76C2266.31 1498.24 2270.88 1492.67 2276.75 1488.76C2282.61 1484.84 2289.51 1482.75 2296.56 1482.75C2306.02 1482.75 2315.09 1486.5 2321.78 1493.19C2328.46 1499.88 2332.22 1508.95 2332.22 1518.41Z" fill="#F0F0F0"/>
<path d="M2240.17 1534.85C2240.18 1541.92 2238.09 1548.83 2234.17 1554.72C2230.25 1560.6 2224.67 1565.19 2218.14 1567.9C2211.61 1570.61 2204.42 1571.32 2197.49 1569.95C2190.55 1568.57 2184.18 1565.17 2179.18 1560.17C2174.18 1555.17 2170.78 1548.8 2169.41 1541.86C2168.03 1534.93 2168.74 1527.74 2171.45 1521.21C2174.16 1514.68 2178.75 1509.1 2184.64 1505.18C2190.52 1501.26 2197.43 1499.17 2204.5 1499.19C2213.96 1499.19 2223.03 1502.94 2229.72 1509.63C2236.41 1516.32 2240.17 1525.39 2240.17 1534.85Z" fill="#F0F0F0"/>
<path d="M1964.42 1515.14C1964.42 1515.14 1970.47 1597.23 2191.69 1597.23C2412.91 1597.23 2418.96 1515.14 2418.96 1515.14H1964.42Z" fill="#E6E6E6"/>
<path d="M373.542 1470.78H263.354V1948.65H373.542V1470.78Z" fill="#E6E6E6"/>
<path d="M827.898 1948.65H284.509V1978.93H827.898V1948.65Z" fill="#E6E6E6"/>
<path d="M373.482 1948.65H848.993L848.993 1470.78H373.482L373.482 1948.65Z" fill="#F0F0F0"/>
<path d="M416.881 1686.38H805.715V1529.65H416.881V1686.38Z" fill="#E6E6E6"/>
<path d="M416.881 1889.83H805.715V1733.1H416.881V1889.83Z" fill="#E6E6E6"/>
<path d="M654.908 1618.74H567.627C566.199 1618.74 564.785 1618.46 563.468 1617.91C562.15 1617.36 560.956 1616.55 559.955 1615.53C558.953 1614.51 558.164 1613.3 557.635 1611.98C557.105 1610.65 556.844 1609.23 556.868 1607.8C556.868 1604.95 558.002 1602.21 560.019 1600.2C562.037 1598.18 564.774 1597.04 567.627 1597.04H654.908C657.761 1597.04 660.498 1598.18 662.516 1600.2C664.533 1602.21 665.667 1604.95 665.667 1607.8C665.691 1609.23 665.431 1610.65 664.901 1611.98C664.371 1613.3 663.582 1614.51 662.581 1615.53C661.579 1616.55 660.385 1617.36 659.068 1617.91C657.75 1618.46 656.336 1618.74 654.908 1618.74Z" fill="#F0F0F0"/>
<path d="M654.908 1822.2H567.627C564.774 1822.2 562.037 1821.06 560.019 1819.05C558.002 1817.03 556.868 1814.29 556.868 1811.44C556.884 1808.6 558.025 1805.87 560.041 1803.87C562.057 1801.87 564.784 1800.74 567.627 1800.74H654.908C657.751 1800.74 660.478 1801.87 662.494 1803.87C664.51 1805.87 665.651 1808.6 665.667 1811.44C665.667 1814.29 664.533 1817.03 662.516 1819.05C660.498 1821.06 657.761 1822.2 654.908 1822.2Z" fill="#F0F0F0"/>
<path d="M588.48 1378.9C588.48 1378.9 497.815 1222.29 623.719 1097.6C623.719 1097.6 656.6 1119 656.117 1147.83C655.633 1176.66 620.878 1184.09 628.313 1208.27C635.747 1232.45 668.568 1255.96 647.05 1275.85C625.532 1295.73 650.496 1313.44 649.045 1337.8C647.594 1362.16 588.48 1378.9 588.48 1378.9Z" fill="#F0F0F0"/>
<path d="M456.169 1353.94C456.169 1353.94 459.191 1470.78 575.062 1470.78C690.932 1470.78 693.894 1353.94 693.894 1353.94H456.169Z" fill="#E6E6E6"/>
<path d="M595.371 1393.23C595.371 1393.23 632.242 1215.95 473.275 1137.37C473.275 1137.37 449.097 1168.08 458.406 1195.28C467.714 1222.47 503.194 1218.43 503.738 1243.63C504.282 1268.84 480.528 1301.54 507.244 1313.62C533.96 1325.71 515.827 1350.43 524.894 1373.1C533.96 1395.77 595.371 1393.23 595.371 1393.23Z" fill="#E6E6E6"/>
<path d="M540.548 519.151H359.157V975.441H540.548V519.151Z" fill="#E0E0E0"/>
<path d="M577.238 519.151H384.725V975.441H577.238V519.151Z" fill="#F0F0F0"/>
<path d="M547.923 946.126V548.467H414.04V946.126H547.923Z" fill="#FAFAFA"/>
<path d="M1511.09 2251.89C2158.34 2251.89 2683.04 2221.26 2683.04 2183.47C2683.04 2145.68 2158.34 2115.05 1511.09 2115.05C863.847 2115.05 339.15 2145.68 339.15 2183.47C339.15 2221.26 863.847 2251.89 1511.09 2251.89Z" fill="#F5F5F5"/>
<path d="M2216.23 848.57C2215.26 865.554 2213.21 881.149 2210.91 897.348C2208.61 913.547 2205.29 929.262 2201.78 945.098C2194.59 977.408 2183.91 1008.84 2169.93 1038.85C2165 1048.28 2158.21 1056.63 2149.98 1063.39C2143.23 1069.14 2136.03 1074.35 2128.47 1078.98C2114.35 1087.63 2099.62 1095.25 2084.4 1101.77C2054.86 1114.43 2024.39 1124.8 1993.25 1132.78L1985.76 1110.35C1999.66 1104.31 2013.93 1097.6 2027.71 1090.77C2041.49 1083.94 2055.27 1077.05 2068.45 1069.55C2081.47 1062.41 2094.05 1054.48 2106.1 1045.8C2111.65 1041.82 2116.91 1037.43 2121.82 1032.68C2125.57 1029.24 2128.67 1025.15 2130.94 1020.59C2136.47 1007.07 2141.21 993.25 2145.15 979.189C2149.02 964.743 2152.58 950.176 2155.61 935.367C2158.63 920.558 2161.05 905.568 2163.22 890.518C2165.4 875.467 2167.15 860.296 2168.48 845.789L2216.23 848.57Z" fill="#E58A7B"/>
<path d="M2183.65 791.813C2164.37 796.709 2150.89 876.072 2150.89 876.072L2204.02 912.338C2204.02 912.338 2254.98 832.31 2240.29 811.155C2224.69 788.61 2211.82 784.379 2183.65 791.813Z" fill="#407BFF"/>
<path opacity="0.5" d="M2183.65 791.813C2164.37 796.709 2150.89 876.072 2150.89 876.072L2204.02 912.338C2204.02 912.338 2254.98 832.31 2240.29 811.155C2224.69 788.61 2211.82 784.379 2183.65 791.813Z" fill="black"/>
<path d="M2185.4 809.281L2170.6 889.248L2200.45 909.497L2185.4 809.281Z" fill="#407BFF"/>
<path opacity="0.7" d="M2185.4 809.281L2170.6 889.248L2200.45 909.497L2185.4 809.281Z" fill="black"/>
<path d="M1996.7 1109.14L1963.52 1075.54L1959.16 1122.92C1959.16 1122.92 1984.01 1139.73 2001.47 1130.72L1996.7 1109.14Z" fill="#E58A7B"/>
<path d="M1924.47 1070.52L1922.96 1110.35L1959.16 1122.92L1963.52 1075.54L1924.47 1070.52Z" fill="#E58A7B"/>
<path d="M2287.98 2126.89H2241.19L2238.05 2018.58H2284.83L2287.98 2126.89Z" fill="#E58A7B"/>
<path d="M2700.75 1909.66L2665.09 1939.94L2583.49 1867.11L2619.15 1836.83L2700.75 1909.66Z" fill="#E58A7B"/>
<path d="M2655.35 1936.32L2689.75 1896.72C2690.32 1896.02 2691.13 1895.56 2692.02 1895.42C2692.92 1895.29 2693.83 1895.5 2694.58 1896L2729.82 1918.85C2730.69 1919.45 2731.42 1920.23 2731.97 1921.14C2732.51 1922.05 2732.86 1923.06 2732.98 1924.11C2733.11 1925.16 2733.01 1926.23 2732.69 1927.24C2732.38 1928.25 2731.85 1929.18 2731.15 1929.97C2719.06 1943.57 2712.23 1949.49 2697.06 1966.9C2687.69 1977.6 2675.12 1994.22 2662.25 2009.21C2649.37 2024.2 2634.02 2011.99 2638.07 2004.68C2656.2 1971.92 2651.85 1960.37 2652.15 1944.23C2652.22 1941.29 2653.36 1938.48 2655.35 1936.32Z" fill="#263238"/>
<path d="M2239.56 2121.58H2292.15C2293.05 2121.57 2293.93 2121.89 2294.62 2122.47C2295.31 2123.06 2295.76 2123.88 2295.9 2124.78L2301.94 2166.36C2302.05 2167.41 2301.94 2168.47 2301.61 2169.47C2301.28 2170.48 2300.75 2171.4 2300.04 2172.18C2299.34 2172.96 2298.47 2173.58 2297.51 2174.01C2296.54 2174.43 2295.5 2174.65 2294.45 2174.65C2276.31 2174.65 2267.25 2173.25 2244.16 2173.25C2229.95 2173.25 2200.52 2174.77 2180.93 2174.77C2161.35 2174.77 2160.2 2155.3 2168.42 2153.55C2205.05 2145.69 2219.49 2134.81 2231.83 2124.42C2234.01 2122.62 2236.74 2121.62 2239.56 2121.58Z" fill="#263238"/>
<path d="M2238.05 2018.64L2239.68 2074.49H2286.47L2284.89 2018.64H2238.05Z" fill="#CF6F64"/>
<path d="M2619.21 1836.83L2583.55 1867.11L2625.62 1904.64L2661.28 1874.36L2619.21 1836.83Z" fill="#CF6F64"/>
<path d="M2183.65 791.813C2183.65 791.813 2161.41 799.671 2206.02 1074.15H2395.99C2392.79 996.838 2392.73 949.148 2429.66 790.423C2403.08 784.9 2376.13 781.325 2349.03 779.724C2320.29 777.637 2291.45 777.637 2262.71 779.724C2225.66 782.988 2183.65 791.813 2183.65 791.813Z" fill="#407BFF"/>
<path opacity="0.5" d="M2183.65 791.813C2183.65 791.813 2161.41 799.671 2206.02 1074.15H2395.99C2392.79 996.838 2392.73 949.148 2429.66 790.423C2403.08 784.9 2376.13 781.325 2349.03 779.724C2320.29 777.637 2291.45 777.637 2262.71 779.724C2225.66 782.988 2183.65 791.813 2183.65 791.813Z" fill="black"/>
<path d="M2290.82 799.429L2307.98 834.486C2307.98 834.486 2379.97 812.485 2370.54 780.812L2346.37 778.032L2290.82 799.429Z" fill="#407BFF"/>
<path opacity="0.6" d="M2290.82 799.429L2307.98 834.486C2307.98 834.486 2379.97 812.485 2370.54 780.812L2346.37 778.032L2290.82 799.429Z" fill="#FAFAFA"/>
<path d="M2289.49 796.165L2265.31 831.948C2265.31 831.948 2214.05 809.704 2249.41 779.785L2264.46 778.032L2289.49 796.165Z" fill="#407BFF"/>
<path opacity="0.6" d="M2289.49 796.165L2265.31 831.948C2265.31 831.948 2214.05 809.704 2249.41 779.785L2264.46 778.032L2289.49 796.165Z" fill="#FAFAFA"/>
<path d="M2366.68 537.949C2388.86 516.613 2367.58 416.337 2425.97 449.52C2500.2 491.831 2548.13 436.464 2523.35 415.43C2575.45 419.117 2570.37 478.412 2548.67 510.266C2493.61 591.321 2382.51 514.255 2381.85 555.418C2381.18 596.58 2366.68 537.949 2366.68 537.949Z" fill="#263238"/>
<path d="M2334.64 523.503C2360.09 503.376 2447.01 520.119 2387.41 601.174L2334.64 523.503Z" fill="#407BFF"/>
<path opacity="0.3" d="M2334.64 523.503C2360.09 503.376 2447.01 520.119 2387.41 601.174L2334.64 523.503Z" fill="black"/>
<path d="M2348.06 561.16C2422.16 572.221 2427.36 692.625 2312.34 711.302L2348.06 561.16Z" fill="#263238"/>
<path d="M2340.44 682.47C2335 710.214 2329.56 761.047 2349.03 779.603C2349.03 779.603 2341.41 807.71 2289.85 807.71C2233.15 807.71 2262.71 779.603 2262.71 779.603C2293.66 772.169 2292.93 749.382 2287.49 727.682L2340.44 682.47Z" fill="#E58A7B"/>
<path d="M2318.86 701.147L2287.49 727.864C2288.87 732.884 2289.76 738.025 2290.15 743.216C2302.24 741.464 2318.26 728.468 2319.53 716.138C2320.22 711.142 2320 706.062 2318.86 701.147Z" fill="#CF6F64"/>
<path d="M2223.48 650.314C2197.92 617.372 2164.61 532.389 2264.28 524.229L2223.48 650.314Z" fill="#263238"/>
<path d="M2338.57 611.63C2344.61 657.688 2348.24 677.03 2329.87 704.835C2302.24 746.722 2244.34 744.244 2224.63 700.966C2206.8 662.04 2199.79 593.316 2240.71 566.479C2249.71 560.516 2260.09 556.954 2270.86 556.13C2281.62 555.307 2292.42 557.249 2302.23 561.773C2312.03 566.297 2320.52 573.252 2326.88 581.978C2333.24 590.704 2337.26 600.911 2338.57 611.63Z" fill="#E58A7B"/>
<path d="M2206.2 1073.9C2206.2 1073.9 2169.33 1434.21 2172.35 1576.86C2175.55 1725.25 2229.95 2063.67 2229.95 2063.67H2293.18C2293.18 2063.67 2283.14 1733.89 2288.76 1588.22C2294.81 1429.31 2345.34 1073.9 2345.34 1073.9H2206.2Z" fill="#407BFF"/>
<path opacity="0.6" d="M2206.2 1073.9C2206.2 1073.9 2169.33 1434.21 2172.35 1576.86C2175.55 1725.25 2229.95 2063.67 2229.95 2063.67H2293.18C2293.18 2063.67 2283.14 1733.89 2288.76 1588.22C2294.81 1429.31 2345.34 1073.9 2345.34 1073.9H2206.2Z" fill="#FAFAFA"/>
<path d="M2298.49 2065.91H2224.27L2218.83 2042.27L2301.94 2039.37L2298.49 2065.91Z" fill="#407BFF"/>
<path opacity="0.4" d="M2298.49 2065.91H2224.27L2218.83 2042.27L2301.94 2039.37L2298.49 2065.91Z" fill="#FAFAFA"/>
<path d="M2287.98 1163.54C2241.31 1257.41 2278.61 1428.65 2295.11 1492.36C2303.57 1396.67 2317.84 1279.72 2328.96 1193.82C2321.89 1145.23 2309.5 1120.26 2287.98 1163.54Z" fill="#407BFF"/>
<path opacity="0.4" d="M2287.98 1163.54C2241.31 1257.41 2278.61 1428.65 2295.11 1492.36C2303.57 1396.67 2317.84 1279.72 2328.96 1193.82C2321.89 1145.23 2309.5 1120.26 2287.98 1163.54Z" fill="#FAFAFA"/>
<path d="M2256.18 1073.9C2256.18 1073.9 2299.22 1448.66 2331.74 1568.76C2370.3 1711.59 2609.78 1903.74 2609.78 1903.74L2658.44 1862.39C2658.44 1862.39 2484.72 1653.68 2455.23 1578.31C2392.24 1417.77 2446.16 1178.53 2395.81 1073.78L2256.18 1073.9Z" fill="#407BFF"/>
<path opacity="0.6" d="M2256.18 1073.9C2256.18 1073.9 2299.22 1448.66 2331.74 1568.76C2370.3 1711.59 2609.78 1903.74 2609.78 1903.74L2658.44 1862.39C2658.44 1862.39 2484.72 1653.68 2455.23 1578.31C2392.24 1417.77 2446.16 1178.53 2395.81 1073.78L2256.18 1073.9Z" fill="#FAFAFA"/>
<path d="M2666.36 1860.22L2606.03 1911.41L2583.55 1897.93L2651.73 1834.47L2666.36 1860.22Z" fill="#407BFF"/>
<path opacity="0.4" d="M2666.36 1860.22L2606.03 1911.41L2583.55 1897.93L2651.73 1834.47L2666.36 1860.22Z" fill="#FAFAFA"/>
<path d="M2272.08 637.923C2272.81 641.61 2271.42 644.995 2269 645.479C2266.58 645.962 2264.04 643.303 2263.32 639.434C2262.59 635.566 2263.98 632.362 2266.4 631.879C2268.82 631.395 2271.36 634.176 2272.08 637.923Z" fill="#263238"/>
<path d="M2230.37 646.144C2231.1 649.831 2229.71 653.216 2227.29 653.699C2224.87 654.183 2222.34 651.523 2221.61 647.655C2220.88 643.786 2222.21 640.583 2224.63 640.099C2227.05 639.616 2229.53 642.396 2230.37 646.144Z" fill="#263238"/>
<path d="M2225.66 640.281L2216.23 639.434C2216.23 639.434 2222.15 645.479 2225.66 640.281Z" fill="#263238"/>
<path d="M2242.46 650.314C2240.83 659.406 2237.96 668.231 2233.94 676.547C2236.08 677.534 2238.41 678.045 2240.77 678.045C2243.13 678.045 2245.46 677.534 2247.6 676.547L2242.46 650.314Z" fill="#DF5753"/>
<path d="M2263.38 688.454C2263.09 688.454 2262.81 688.34 2262.61 688.136C2262.4 687.932 2262.29 687.655 2262.29 687.366C2262.29 687.078 2262.4 686.801 2262.61 686.597C2262.81 686.393 2263.09 686.278 2263.38 686.278C2268 685.47 2272.37 683.582 2276.13 680.768C2279.89 677.953 2282.94 674.291 2285.02 670.079C2285.07 669.944 2285.15 669.822 2285.26 669.718C2285.36 669.615 2285.48 669.533 2285.62 669.477C2285.75 669.421 2285.9 669.392 2286.04 669.391C2286.19 669.391 2286.33 669.419 2286.47 669.475C2286.6 669.531 2286.72 669.612 2286.83 669.715C2286.93 669.818 2287.01 669.94 2287.07 670.075C2287.13 670.21 2287.15 670.354 2287.15 670.5C2287.16 670.646 2287.13 670.791 2287.07 670.926C2284.88 675.5 2281.63 679.48 2277.58 682.531C2273.53 685.581 2268.8 687.613 2263.8 688.454H2263.38Z" fill="#263238"/>
<path d="M2224.33 582.799C2224.33 582.799 2263.68 642.457 2336.21 650.314C2336.21 650.314 2411.1 582.315 2365.04 535.169C2290.46 458.889 2201.48 556.083 2224.33 582.799Z" fill="#263238"/>
<path d="M2354.34 647.232C2354.25 651.672 2353.27 656.048 2351.46 660.105C2349.65 664.162 2347.06 667.82 2343.83 670.865C2335.12 679.025 2325.33 672.558 2323.16 661.496C2321.22 651.523 2323.16 635.324 2334.34 631.275C2336.75 630.464 2339.33 630.271 2341.83 630.713C2344.34 631.155 2346.7 632.218 2348.69 633.805C2350.68 635.392 2352.24 637.453 2353.23 639.798C2354.21 642.143 2354.6 644.699 2354.34 647.232Z" fill="#E58A7B"/>
<path d="M2281.63 621.966C2281.08 621.973 2280.54 621.779 2280.12 621.422C2278.1 619.514 2275.65 618.109 2272.98 617.322C2270.32 616.534 2267.5 616.386 2264.77 616.889C2264.48 616.971 2264.19 616.995 2263.9 616.959C2263.61 616.924 2263.33 616.83 2263.07 616.683C2262.82 616.536 2262.6 616.34 2262.42 616.105C2262.24 615.87 2262.12 615.602 2262.05 615.317C2261.9 614.748 2261.98 614.144 2262.27 613.635C2262.57 613.126 2263.05 612.753 2263.62 612.597C2267.07 611.891 2270.63 612.022 2274.02 612.979C2277.41 613.936 2280.51 615.691 2283.08 618.098C2283.49 618.516 2283.73 619.081 2283.73 619.669C2283.73 620.258 2283.49 620.822 2283.08 621.241C2282.71 621.661 2282.19 621.92 2281.63 621.966Z" fill="#263238"/>
<path d="M2207.04 630.61C2206.76 630.672 2206.48 630.672 2206.2 630.61C2205.92 630.504 2205.67 630.343 2205.46 630.138C2205.25 629.934 2205.09 629.688 2204.97 629.417C2204.86 629.146 2204.8 628.855 2204.81 628.561C2204.81 628.267 2204.87 627.977 2204.99 627.708C2206.26 624.429 2208.3 621.503 2210.94 619.178C2213.58 616.853 2216.75 615.197 2220.16 614.35C2220.44 614.289 2220.73 614.287 2221.02 614.343C2221.3 614.399 2221.57 614.513 2221.81 614.677C2222.05 614.841 2222.25 615.053 2222.4 615.298C2222.55 615.543 2222.66 615.817 2222.7 616.103C2222.76 616.389 2222.76 616.685 2222.71 616.972C2222.65 617.26 2222.54 617.533 2222.37 617.776C2222.21 618.018 2222 618.225 2221.75 618.385C2221.51 618.544 2221.23 618.652 2220.95 618.702C2218.23 619.4 2215.71 620.734 2213.61 622.594C2211.51 624.454 2209.88 626.787 2208.86 629.401C2208.69 629.744 2208.43 630.036 2208.11 630.249C2207.79 630.461 2207.43 630.585 2207.04 630.61Z" fill="#263238"/>
<path d="M2496.33 1023.49V1018.11C2496.33 1010.86 2495.3 1003.91 2494.57 996.899C2490.91 969.752 2485.13 942.934 2477.29 916.69C2469.7 890.697 2460.66 865.149 2450.21 840.168L2405.66 858.301C2414.67 881.633 2423.19 906.233 2430.99 930.411C2434.73 942.499 2438.3 954.588 2441.38 966.677C2444.47 978.766 2447.43 990.854 2449.54 1002.94L2450.81 1010.98C2446.64 1009.59 2442.35 1008.08 2438 1006.27C2415.15 996.959 2391.82 984.87 2368.79 973.265L2355.43 992.789C2375.93 1010.59 2398.02 1026.45 2421.44 1040.18C2427.73 1043.82 2434.25 1047.05 2440.96 1049.85C2444.72 1051.48 2448.6 1052.83 2452.57 1053.9C2454.93 1054.57 2457.33 1055.07 2459.76 1055.41C2462.99 1055.82 2466.26 1055.82 2469.49 1055.41C2474.82 1054.94 2479.92 1053.02 2484.24 1049.85C2489.61 1045.86 2493.4 1040.1 2494.94 1033.59C2495.85 1030.3 2496.32 1026.91 2496.33 1023.49ZM2463.81 1014.49H2464.9C2465.56 1014.43 2464.71 1014.55 2463.51 1014.49H2463.81Z" fill="#E58A7B"/>
<path d="M2429.84 790.181C2448.88 796.226 2471.73 861.505 2471.73 861.505L2397.92 914.333C2397.92 914.333 2370.97 859.631 2379.01 835.03C2387.11 809.402 2407.96 783.593 2429.84 790.181Z" fill="#407BFF"/>
<path opacity="0.5" d="M2429.84 790.181C2448.88 796.226 2471.73 861.505 2471.73 861.505L2397.92 914.333C2397.92 914.333 2370.97 859.631 2379.01 835.03C2387.11 809.402 2407.96 783.593 2429.84 790.181Z" fill="black"/>
<path d="M2642.54 1958.86C2641.58 1958.83 2640.63 1958.59 2639.77 1958.15C2638.92 1957.71 2638.17 1957.09 2637.58 1956.32C2637.12 1955.84 2636.8 1955.24 2636.65 1954.6C2636.5 1953.95 2636.53 1953.27 2636.74 1952.64C2638.43 1946.89 2654.87 1942.24 2656.5 1941.76C2656.72 1941.69 2656.95 1941.69 2657.16 1941.76C2657.38 1941.82 2657.57 1941.95 2657.71 1942.12C2657.82 1942.3 2657.87 1942.51 2657.87 1942.72C2657.87 1942.93 2657.82 1943.14 2657.71 1943.33C2654.81 1948.83 2649.01 1958.14 2643.14 1958.86H2642.54ZM2654.63 1944.66C2648.16 1946.71 2639.82 1950.28 2638.91 1953.3C2638.82 1953.57 2638.81 1953.87 2638.88 1954.15C2638.96 1954.43 2639.12 1954.68 2639.34 1954.87C2639.75 1955.47 2640.32 1955.95 2640.97 1956.25C2641.63 1956.56 2642.36 1956.69 2643.08 1956.62C2646.17 1956.26 2650.4 1951.85 2654.57 1944.66H2654.63Z" fill="#407BFF"/>
<path d="M2649.43 1944.84C2644.6 1945.34 2639.76 1943.98 2635.89 1941.03C2635.33 1940.35 2635.03 1939.49 2635.03 1938.61C2635.03 1937.73 2635.33 1936.88 2635.89 1936.19C2636.37 1935.5 2636.99 1934.92 2637.71 1934.49C2638.43 1934.05 2639.23 1933.77 2640.06 1933.66C2646.71 1932.87 2656.99 1941.57 2657.41 1942C2657.57 1942.11 2657.68 1942.27 2657.75 1942.46C2657.81 1942.64 2657.82 1942.84 2657.77 1943.02C2657.75 1943.22 2657.66 1943.4 2657.53 1943.55C2657.41 1943.7 2657.24 1943.81 2657.05 1943.87C2654.57 1944.56 2652 1944.89 2649.43 1944.84ZM2641.21 1935.77H2640.49C2639.95 1935.83 2639.43 1936.01 2638.97 1936.29C2638.51 1936.57 2638.12 1936.95 2637.83 1937.4C2637.04 1938.55 2637.34 1939.22 2637.83 1939.64C2639.82 1942.24 2649.01 1943.21 2654.63 1942.24C2650.86 1938.96 2646.3 1936.73 2641.39 1935.77H2641.21Z" fill="#407BFF"/>
<path d="M2222.03 2129.67C2218.02 2130.04 2214.01 2129.02 2210.67 2126.77C2209.92 2126.11 2209.34 2125.27 2208.99 2124.34C2208.65 2123.4 2208.54 2122.39 2208.68 2121.39C2208.71 2120.78 2208.9 2120.19 2209.23 2119.67C2209.56 2119.15 2210.01 2118.73 2210.55 2118.43C2216.29 2115.35 2234.73 2124.84 2237.02 2125.93C2237.23 2126.04 2237.4 2126.2 2237.5 2126.41C2237.61 2126.61 2237.65 2126.85 2237.63 2127.08C2237.6 2127.3 2237.51 2127.51 2237.36 2127.67C2237.2 2127.84 2237 2127.94 2236.78 2127.98C2231.93 2129.03 2226.99 2129.6 2222.03 2129.67ZM2213.69 2120C2212.98 2119.96 2212.27 2120.11 2211.64 2120.43C2211.42 2120.53 2211.24 2120.69 2211.11 2120.9C2210.98 2121.1 2210.91 2121.34 2210.91 2121.58C2210.79 2122.23 2210.85 2122.9 2211.07 2123.53C2211.29 2124.15 2211.68 2124.71 2212.18 2125.14C2215.02 2127.68 2222.7 2128.16 2233.09 2126.41C2227.04 2123.19 2220.48 2121.02 2213.69 2120Z" fill="#407BFF"/>
<path d="M2236.42 2128.04H2235.94C2230.37 2125.5 2219.37 2115.47 2220.22 2109.91C2220.22 2108.64 2221.31 2107.07 2224.39 2106.77C2225.48 2106.65 2226.58 2106.76 2227.62 2107.09C2228.66 2107.42 2229.62 2107.97 2230.43 2108.7C2236.48 2113.6 2237.45 2126.17 2237.45 2126.83C2237.48 2127.02 2237.45 2127.21 2237.38 2127.38C2237.3 2127.55 2237.18 2127.7 2237.02 2127.8C2236.85 2127.95 2236.64 2128.03 2236.42 2128.04ZM2225.3 2109.06H2224.63C2222.58 2109.06 2222.46 2110.03 2222.4 2110.33C2221.91 2113.48 2229.35 2121.45 2235.03 2124.9C2234.61 2119.56 2232.49 2114.5 2228.98 2110.45C2227.98 2109.62 2226.73 2109.13 2225.42 2109.06H2225.3Z" fill="#407BFF"/>
<path d="M2375.44 978.645L2359.72 930.592L2334.7 971.029C2334.7 971.029 2349.45 997.201 2368.91 996.778L2375.44 978.645Z" fill="#E58A7B"/>
<path d="M2326.9 908.711L2307.8 943.708L2334.52 971.029L2359.54 930.592L2326.9 908.711Z" fill="#E58A7B"/>
<path d="M2267.49 632.06L2258.12 631.214C2258.12 631.214 2264.04 637.258 2267.49 632.06Z" fill="#263238"/>
<path d="M2398.83 1062.72L2403.73 1079.77C2404.39 1081.04 2402.82 1082.43 2400.58 1082.43H2205.11C2203.36 1082.43 2201.97 1081.58 2201.85 1080.49L2200.15 1063.81C2200.15 1062.6 2201.48 1061.63 2203.36 1061.63H2395.75C2396.31 1061.55 2396.89 1061.6 2397.43 1061.79C2397.97 1061.98 2398.45 1062.3 2398.83 1062.72Z" fill="#263238"/>
<path d="M2373.02 1084.24H2378.16C2379.19 1084.24 2379.97 1083.7 2379.91 1083.09L2377.49 1060.97C2377.49 1060.3 2376.53 1059.82 2375.5 1059.82H2370.36C2369.33 1059.82 2368.55 1060.3 2368.61 1060.97L2371.03 1083.09C2371.09 1083.7 2371.99 1084.24 2373.02 1084.24Z" fill="#407BFF"/>
<path opacity="0.6" d="M2373.02 1084.24H2378.16C2379.19 1084.24 2379.97 1083.7 2379.91 1083.09L2377.49 1060.97C2377.49 1060.3 2376.53 1059.82 2375.5 1059.82H2370.36C2369.33 1059.82 2368.55 1060.3 2368.61 1060.97L2371.03 1083.09C2371.09 1083.7 2371.99 1084.24 2373.02 1084.24Z" fill="#FAFAFA"/>
<path d="M2219.56 1084.24H2224.69C2225.72 1084.24 2226.51 1083.7 2226.45 1083.09L2224.03 1060.97C2224.03 1060.3 2223.06 1059.82 2222.03 1059.82H2216.9C2215.87 1059.82 2215.08 1060.3 2215.14 1060.97L2217.56 1083.09C2217.62 1083.7 2218.29 1084.24 2219.56 1084.24Z" fill="#407BFF"/>
<path opacity="0.6" d="M2219.56 1084.24H2224.69C2225.72 1084.24 2226.51 1083.7 2226.45 1083.09L2224.03 1060.97C2224.03 1060.3 2223.06 1059.82 2222.03 1059.82H2216.9C2215.87 1059.82 2215.08 1060.3 2215.14 1060.97L2217.56 1083.09C2217.62 1083.7 2218.29 1084.24 2219.56 1084.24Z" fill="#FAFAFA"/>
<path d="M2296.26 1084.24H2301.46C2302.48 1084.24 2303.27 1083.7 2303.15 1083.09L2300.73 1060.97C2300.73 1060.3 2299.76 1059.82 2298.74 1059.82H2293.6C2292.57 1059.82 2291.79 1060.3 2291.85 1060.97L2294.26 1083.09C2294.43 1083.47 2294.71 1083.79 2295.07 1083.99C2295.43 1084.2 2295.85 1084.29 2296.26 1084.24Z" fill="#407BFF"/>
<path opacity="0.6" d="M2296.26 1084.24H2301.46C2302.48 1084.24 2303.27 1083.7 2303.15 1083.09L2300.73 1060.97C2300.73 1060.3 2299.76 1059.82 2298.74 1059.82H2293.6C2292.57 1059.82 2291.79 1060.3 2291.85 1060.97L2294.26 1083.09C2294.43 1083.47 2294.71 1083.79 2295.07 1083.99C2295.43 1084.2 2295.85 1084.29 2296.26 1084.24Z" fill="#FAFAFA"/>
<path d="M1690.01 2183.47H2089.84C2099.17 2183.58 2108.41 2181.74 2116.99 2178.06C2125.56 2174.39 2133.27 2168.96 2139.62 2162.13C2145.97 2155.3 2150.83 2147.22 2153.87 2138.4C2156.91 2129.59 2158.08 2120.23 2157.3 2110.94L2061.68 743.458C2060.02 723.904 2051.16 705.661 2036.82 692.262C2022.49 678.862 2003.69 671.26 1984.07 670.926H1584.23C1574.9 670.817 1565.66 672.659 1557.09 676.334C1548.51 680.009 1540.8 685.435 1534.45 692.265C1528.1 699.095 1523.25 707.177 1520.2 715.993C1517.16 724.809 1515.99 734.164 1516.78 743.458L1612.4 2111C1614.07 2130.54 1622.93 2148.77 1637.27 2162.16C1651.6 2175.54 1670.4 2183.14 1690.01 2183.47Z" fill="#407BFF"/>
<path opacity="0.2" d="M1690.01 2183.47H2089.84C2099.17 2183.58 2108.41 2181.74 2116.99 2178.06C2125.56 2174.39 2133.27 2168.96 2139.62 2162.13C2145.97 2155.3 2150.83 2147.22 2153.87 2138.4C2156.91 2129.59 2158.08 2120.23 2157.3 2110.94L2061.68 743.458C2060.02 723.904 2051.16 705.661 2036.82 692.262C2022.49 678.862 2003.69 671.26 1984.07 670.926H1584.23C1574.9 670.817 1565.66 672.659 1557.09 676.334C1548.51 680.009 1540.8 685.435 1534.45 692.265C1528.1 699.095 1523.25 707.177 1520.2 715.993C1517.16 724.809 1515.99 734.164 1516.78 743.458L1612.4 2111C1614.07 2130.54 1622.93 2148.77 1637.27 2162.16C1651.6 2175.54 1670.4 2183.14 1690.01 2183.47Z" fill="black"/>
<path d="M1478.8 1165.13L1472.77 1165.55L1479.43 1260.82L1485.46 1260.4L1478.8 1165.13Z" fill="#407BFF"/>
<path opacity="0.5" d="M1478.8 1165.13L1472.77 1165.55L1479.43 1260.82L1485.46 1260.4L1478.8 1165.13Z" fill="black"/>
<path d="M1637.66 2183.47H2037.44C2046.76 2183.58 2056.01 2181.74 2064.58 2178.06C2073.16 2174.39 2080.86 2168.96 2087.22 2162.13C2093.57 2155.3 2098.42 2147.22 2101.47 2138.4C2104.51 2129.59 2105.68 2120.23 2104.89 2110.94L2009.27 743.458C2007.61 723.904 1998.76 705.661 1984.42 692.262C1970.08 678.862 1951.28 671.26 1931.66 670.926H1531.89C1522.56 670.817 1513.31 672.659 1504.74 676.334C1496.17 680.009 1488.46 685.435 1482.11 692.265C1475.76 699.095 1470.9 707.177 1467.86 715.993C1464.81 724.809 1463.65 734.164 1464.43 743.458L1560.05 2110.94C1561.71 2130.49 1570.57 2148.73 1584.9 2162.13C1599.24 2175.53 1618.04 2183.14 1637.66 2183.47Z" fill="#407BFF"/>
<path opacity="0.5" d="M1637.66 2183.47H2037.44C2046.76 2183.58 2056.01 2181.74 2064.58 2178.06C2073.16 2174.39 2080.86 2168.96 2087.22 2162.13C2093.57 2155.3 2098.42 2147.22 2101.47 2138.4C2104.51 2129.59 2105.68 2120.23 2104.89 2110.94L2009.27 743.458C2007.61 723.904 1998.76 705.661 1984.42 692.262C1970.08 678.862 1951.28 671.26 1931.66 670.926H1531.89C1522.56 670.817 1513.31 672.659 1504.74 676.334C1496.17 680.009 1488.46 685.435 1482.11 692.265C1475.76 699.095 1470.9 707.177 1467.86 715.993C1464.81 724.809 1463.65 734.164 1464.43 743.458L1560.05 2110.94C1561.71 2130.49 1570.57 2148.73 1584.9 2162.13C1599.24 2175.53 1618.04 2183.14 1637.66 2183.47Z" fill="black"/>
<path d="M1711.89 1106.48H1785.87C1787.61 1106.55 1789.35 1106.25 1790.96 1105.59C1792.57 1104.93 1794.02 1103.92 1795.21 1102.65C1796.4 1101.37 1797.3 1099.86 1797.84 1098.2C1798.39 1096.55 1798.58 1094.8 1798.38 1093.06L1780.67 839.805C1780.37 836.181 1778.73 832.798 1776.07 830.317C1773.41 827.836 1769.92 826.435 1766.29 826.387H1692.43C1690.69 826.324 1688.96 826.636 1687.36 827.302C1685.75 827.968 1684.31 828.972 1683.13 830.245C1681.95 831.518 1681.05 833.032 1680.51 834.681C1679.96 836.331 1679.78 838.079 1679.97 839.805L1697.68 1093.06C1697.98 1096.66 1699.59 1100.02 1702.22 1102.49C1704.84 1104.97 1708.28 1106.39 1711.89 1106.48Z" fill="#407BFF"/>
<path opacity="0.2" d="M1711.89 1106.48H1785.87C1787.61 1106.55 1789.35 1106.25 1790.96 1105.59C1792.57 1104.93 1794.02 1103.92 1795.21 1102.65C1796.4 1101.37 1797.3 1099.86 1797.84 1098.2C1798.39 1096.55 1798.58 1094.8 1798.38 1093.06L1780.67 839.805C1780.37 836.181 1778.73 832.798 1776.07 830.317C1773.41 827.836 1769.92 826.435 1766.29 826.387H1692.43C1690.69 826.324 1688.96 826.636 1687.36 827.302C1685.75 827.968 1684.31 828.972 1683.13 830.245C1681.95 831.518 1681.05 833.032 1680.51 834.681C1679.96 836.331 1679.78 838.079 1679.97 839.805L1697.68 1093.06C1697.98 1096.66 1699.59 1100.02 1702.22 1102.49C1704.84 1104.97 1708.28 1106.39 1711.89 1106.48Z" fill="black"/>
<path d="M1258.74 2183.47H858.906C849.579 2183.58 840.333 2181.74 831.761 2178.06C823.189 2174.39 815.479 2168.96 809.127 2162.13C802.776 2155.3 797.922 2147.22 794.878 2138.4C791.834 2129.59 790.666 2120.23 791.45 2110.94L887.072 743.458C888.744 723.909 897.604 705.674 911.938 692.277C926.273 678.88 945.065 671.273 964.682 670.926H1364.52C1373.84 670.817 1383.09 672.659 1391.66 676.334C1400.23 680.009 1407.94 685.435 1414.3 692.265C1420.65 699.095 1425.5 707.177 1428.55 715.993C1431.59 724.809 1432.76 734.164 1431.97 743.458L1336.35 2110.94C1334.69 2130.49 1325.84 2148.73 1311.5 2162.13C1297.16 2175.53 1278.36 2183.14 1258.74 2183.47Z" fill="#407BFF"/>
<path opacity="0.5" d="M1258.74 2183.47H858.906C849.579 2183.58 840.333 2181.74 831.761 2178.06C823.189 2174.39 815.479 2168.96 809.127 2162.13C802.776 2155.3 797.922 2147.22 794.878 2138.4C791.834 2129.59 790.666 2120.23 791.45 2110.94L887.072 743.458C888.744 723.909 897.604 705.674 911.938 692.277C926.273 678.88 945.065 671.273 964.682 670.926H1364.52C1373.84 670.817 1383.09 672.659 1391.66 676.334C1400.23 680.009 1407.94 685.435 1414.3 692.265C1420.65 699.095 1425.5 707.177 1428.55 715.993C1431.59 724.809 1432.76 734.164 1431.97 743.458L1336.35 2110.94C1334.69 2130.49 1325.84 2148.73 1311.5 2162.13C1297.16 2175.53 1278.36 2183.14 1258.74 2183.47Z" fill="black"/>
<path d="M1090.59 649.71H1068.04V655.754H1090.59V649.71Z" fill="#407BFF"/>
<path opacity="0.3" d="M1090.59 649.71H1068.04V655.754H1090.59V649.71Z" fill="black"/>
<path d="M1027.6 649.71H956.704V655.754H1027.6V649.71Z" fill="#407BFF"/>
<path opacity="0.3" d="M1027.6 649.71H956.704V655.754H1027.6V649.71Z" fill="black"/>
<path d="M1206.34 2183.47H806.561C797.235 2183.58 787.989 2181.74 779.417 2178.06C770.844 2174.39 763.135 2168.96 756.783 2162.13C750.431 2155.3 745.578 2147.22 742.534 2138.4C739.489 2129.59 738.322 2120.23 739.106 2110.94L834.728 743.458C836.387 723.904 845.242 705.661 859.58 692.262C873.917 678.862 892.717 671.26 912.338 670.926H1312.11C1321.44 670.817 1330.69 672.659 1339.26 676.334C1347.83 680.009 1355.54 685.435 1361.89 692.265C1368.24 699.095 1373.1 707.177 1376.14 715.993C1379.18 724.809 1380.35 734.164 1379.57 743.458L1283.95 2110.94C1282.29 2130.49 1273.43 2148.73 1259.09 2162.13C1244.76 2175.53 1225.96 2183.14 1206.34 2183.47Z" fill="#407BFF"/>
<path opacity="0.3" d="M1206.34 2183.47H806.561C797.235 2183.58 787.989 2181.74 779.417 2178.06C770.844 2174.39 763.135 2168.96 756.783 2162.13C750.431 2155.3 745.578 2147.22 742.534 2138.4C739.489 2129.59 738.322 2120.23 739.106 2110.94L834.728 743.458C836.387 723.904 845.242 705.661 859.58 692.262C873.917 678.862 892.717 671.26 912.338 670.926H1312.11C1321.44 670.817 1330.69 672.659 1339.26 676.334C1347.83 680.009 1355.54 685.435 1361.89 692.265C1368.24 699.095 1373.1 707.177 1376.14 715.993C1379.18 724.809 1380.35 734.164 1379.57 743.458L1283.95 2110.94C1282.29 2130.49 1273.43 2148.73 1259.09 2162.13C1244.76 2175.53 1225.96 2183.14 1206.34 2183.47Z" fill="black"/>
<path d="M1266.3 2104.77H739.892C738.63 2104.77 737.382 2104.5 736.226 2104C735.07 2103.49 734.03 2102.75 733.169 2101.83C732.308 2100.91 731.646 2099.82 731.222 2098.63C730.798 2097.44 730.622 2096.18 730.704 2094.92L823.848 762.8C824.017 760.464 825.065 758.28 826.781 756.687C828.498 755.094 830.754 754.211 833.096 754.217H1359.44C1360.71 754.214 1361.96 754.472 1363.12 754.974C1364.29 755.476 1365.34 756.212 1366.2 757.136C1367.07 758.06 1367.74 759.152 1368.17 760.345C1368.59 761.537 1368.77 762.805 1368.69 764.069L1275.36 2096.19C1275.21 2098.5 1274.19 2100.67 1272.51 2102.26C1270.83 2103.85 1268.61 2104.75 1266.3 2104.77Z" fill="#407BFF"/>
<path opacity="0.9" d="M1266.3 2104.77H739.892C738.63 2104.77 737.382 2104.5 736.226 2104C735.07 2103.49 734.03 2102.75 733.169 2101.83C732.308 2100.91 731.646 2099.82 731.222 2098.63C730.798 2097.44 730.622 2096.18 730.704 2094.92L823.848 762.8C824.017 760.464 825.065 758.28 826.781 756.687C828.498 755.094 830.754 754.211 833.096 754.217H1359.44C1360.71 754.214 1361.96 754.472 1363.12 754.974C1364.29 755.476 1365.34 756.212 1366.2 757.136C1367.07 758.06 1367.74 759.152 1368.17 760.345C1368.59 761.537 1368.77 762.805 1368.69 764.069L1275.36 2096.19C1275.21 2098.5 1274.19 2100.67 1272.51 2102.26C1270.83 2103.85 1268.61 2104.75 1266.3 2104.77Z" fill="#FAFAFA"/>
<path d="M1253.48 890.578H911.794C902.506 890.739 893.607 894.338 886.819 900.68C880.031 907.021 875.835 915.655 875.044 924.91L839.443 1433.85C839.071 1438.25 839.625 1442.68 841.069 1446.86C842.513 1451.03 844.814 1454.86 847.826 1458.09C850.837 1461.33 854.492 1463.9 858.555 1465.63C862.618 1467.37 866.999 1468.24 871.417 1468.18H895.111L883.023 1505.47C910.978 1502.95 936.829 1489.56 955.011 1468.18H1213.11C1222.39 1468.02 1231.29 1464.42 1238.08 1458.08C1244.87 1451.74 1249.06 1443.1 1249.86 1433.85L1285.46 924.91C1285.82 920.509 1285.26 916.081 1283.81 911.909C1282.36 907.737 1280.06 903.913 1277.05 900.682C1274.04 897.451 1270.39 894.883 1266.33 893.143C1262.27 891.403 1257.9 890.53 1253.48 890.578Z" fill="#407BFF"/>
<path opacity="0.6" d="M1253.48 890.578H911.794C902.506 890.739 893.607 894.338 886.819 900.68C880.031 907.021 875.835 915.655 875.044 924.91L839.443 1433.85C839.071 1438.25 839.625 1442.68 841.069 1446.86C842.513 1451.03 844.814 1454.86 847.826 1458.09C850.837 1461.33 854.492 1463.9 858.555 1465.63C862.618 1467.37 866.999 1468.24 871.417 1468.18H895.111L883.023 1505.47C910.978 1502.95 936.829 1489.56 955.011 1468.18H1213.11C1222.39 1468.02 1231.29 1464.42 1238.08 1458.08C1244.87 1451.74 1249.06 1443.1 1249.86 1433.85L1285.46 924.91C1285.82 920.509 1285.26 916.081 1283.81 911.909C1282.36 907.737 1280.06 903.913 1277.05 900.682C1274.04 897.451 1270.39 894.883 1266.33 893.143C1262.27 891.403 1257.9 890.53 1253.48 890.578Z" fill="#FAFAFA"/>
<path d="M864.345 1570.63H1206.03C1210.45 1570.57 1214.83 1571.44 1218.9 1573.18C1222.96 1574.91 1226.61 1577.48 1229.63 1580.71C1232.64 1583.95 1234.94 1587.78 1236.38 1591.95C1237.83 1596.13 1238.38 1600.56 1238.01 1604.96L1222.72 1823.59C1221.92 1832.84 1217.73 1841.48 1210.94 1847.82C1204.15 1854.16 1195.25 1857.76 1185.97 1857.92H1162.21L1168.86 1895.21C1155.76 1894.12 1143.04 1890.22 1131.57 1883.79C1120.1 1877.35 1110.14 1868.53 1102.37 1857.92H844.157C839.739 1857.98 835.358 1857.11 831.295 1855.37C827.232 1853.64 823.577 1851.07 820.565 1847.84C817.554 1844.6 815.252 1840.77 813.809 1836.6C812.365 1832.42 811.811 1827.99 812.182 1823.59L827.475 1604.96C828.268 1595.69 832.481 1587.04 839.295 1580.69C846.108 1574.35 855.036 1570.76 864.345 1570.63Z" fill="#407BFF"/>
<path opacity="0.6" d="M864.345 1570.63H1206.03C1210.45 1570.57 1214.83 1571.44 1218.9 1573.18C1222.96 1574.91 1226.61 1577.48 1229.63 1580.71C1232.64 1583.95 1234.94 1587.78 1236.38 1591.95C1237.83 1596.13 1238.38 1600.56 1238.01 1604.96L1222.72 1823.59C1221.92 1832.84 1217.73 1841.48 1210.94 1847.82C1204.15 1854.16 1195.25 1857.76 1185.97 1857.92H1162.21L1168.86 1895.21C1155.76 1894.12 1143.04 1890.22 1131.57 1883.79C1120.1 1877.35 1110.14 1868.53 1102.37 1857.92H844.157C839.739 1857.98 835.358 1857.11 831.295 1855.37C827.232 1853.64 823.577 1851.07 820.565 1847.84C817.554 1844.6 815.252 1840.77 813.809 1836.6C812.365 1832.42 811.811 1827.99 812.182 1823.59L827.475 1604.96C828.268 1595.69 832.481 1587.04 839.295 1580.69C846.108 1574.35 855.036 1570.76 864.345 1570.63Z" fill="#FAFAFA"/>
<path d="M1172.91 709.187C1172.67 712.251 1171.3 715.117 1169.07 717.228C1166.83 719.339 1163.89 720.545 1160.82 720.61C1159.35 720.633 1157.89 720.346 1156.54 719.77C1155.18 719.193 1153.97 718.338 1152.96 717.262C1151.96 716.185 1151.2 714.91 1150.72 713.519C1150.24 712.128 1150.06 710.652 1150.18 709.187C1150.45 706.132 1151.83 703.281 1154.06 701.175C1156.28 699.069 1159.21 697.855 1162.27 697.763C1163.74 697.74 1165.2 698.027 1166.56 698.604C1167.91 699.18 1169.13 700.035 1170.13 701.111C1171.13 702.188 1171.9 703.463 1172.38 704.854C1172.86 706.245 1173.04 707.721 1172.91 709.187Z" fill="#407BFF"/>
<path opacity="0.5" d="M1172.91 709.187C1172.67 712.251 1171.3 715.117 1169.07 717.228C1166.83 719.339 1163.89 720.545 1160.82 720.61C1159.35 720.633 1157.89 720.346 1156.54 719.77C1155.18 719.193 1153.97 718.338 1152.96 717.262C1151.96 716.185 1151.2 714.91 1150.72 713.519C1150.24 712.128 1150.06 710.652 1150.18 709.187C1150.45 706.132 1151.83 703.281 1154.06 701.175C1156.28 699.069 1159.21 697.855 1162.27 697.763C1163.74 697.74 1165.2 698.027 1166.56 698.604C1167.91 699.18 1169.13 700.035 1170.13 701.111C1171.13 702.188 1171.9 703.463 1172.38 704.854C1172.86 706.245 1173.04 707.721 1172.91 709.187Z" fill="black"/>
<path d="M1114.04 720.61H1034.31C1032.84 720.623 1031.39 720.331 1030.04 719.751C1028.69 719.171 1027.48 718.316 1026.48 717.242C1025.48 716.167 1024.71 714.896 1024.23 713.509C1023.75 712.122 1023.56 710.65 1023.68 709.186C1023.93 706.127 1025.3 703.269 1027.53 701.16C1029.76 699.052 1032.69 697.842 1035.76 697.763H1115.49C1116.96 697.75 1118.41 698.042 1119.76 698.622C1121.11 699.202 1122.32 700.057 1123.32 701.131C1124.33 702.206 1125.09 703.477 1125.57 704.864C1126.06 706.251 1126.24 707.723 1126.13 709.186C1125.87 712.246 1124.5 715.104 1122.27 717.213C1120.04 719.321 1117.11 720.531 1114.04 720.61Z" fill="#407BFF"/>
<path opacity="0.5" d="M1114.04 720.61H1034.31C1032.84 720.623 1031.39 720.331 1030.04 719.751C1028.69 719.171 1027.48 718.316 1026.48 717.242C1025.48 716.167 1024.71 714.896 1024.23 713.509C1023.75 712.122 1023.56 710.65 1023.68 709.186C1023.93 706.127 1025.3 703.269 1027.53 701.16C1029.76 699.052 1032.69 697.842 1035.76 697.763H1115.49C1116.96 697.75 1118.41 698.042 1119.76 698.622C1121.11 699.202 1122.32 700.057 1123.32 701.131C1124.33 702.206 1125.09 703.477 1125.57 704.864C1126.06 706.251 1126.24 707.723 1126.13 709.186C1125.87 712.246 1124.5 715.104 1122.27 717.213C1120.04 719.321 1117.11 720.531 1114.04 720.61Z" fill="black"/>
<path d="M688.394 983.238L697.883 1001.79C701.208 1007.84 704.593 1014.43 708.098 1020.65C715.11 1033.17 722.242 1045.56 729.737 1057.58C744.043 1081.28 760.427 1103.65 778.697 1124.44C783.23 1128.97 788.126 1134.41 791.269 1136.89C795.661 1140.43 800.353 1143.59 805.292 1146.32C817.062 1152.52 829.311 1157.78 841.921 1162.03C869.092 1171.05 896.761 1178.5 924.789 1184.33L922.855 1217.64C891.378 1219.48 859.792 1217.64 828.744 1212.14C812.202 1209.27 795.999 1204.72 780.389 1198.54C771.703 1195.07 763.399 1190.72 755.607 1185.54C751.574 1182.86 747.737 1179.89 744.123 1176.66L734.573 1168.26C711.509 1145.88 691.031 1120.98 673.525 1094.03C664.76 1080.92 656.479 1067.62 648.924 1053.96C645.116 1047.13 641.369 1040.24 637.802 1033.29C634.236 1026.33 630.851 1019.57 627.285 1011.71L688.394 983.238Z" fill="#E58A7B"/>
<path d="M912.7 1184.33L939.598 1165.36L953.802 1220.24C953.802 1220.24 930.108 1228.58 912.277 1216.55L912.7 1184.33Z" fill="#E58A7B"/>
<path d="M976.71 1152.9L986.261 1198.84L953.742 1220.24L939.538 1165.36L976.71 1152.9Z" fill="#E58A7B"/>
<path d="M1147.58 1104.25L1140.27 1102.92C1132.63 1101.6 1124.79 1102.07 1117.36 1104.31L1096.27 1110.71C1107.04 1088.46 1111.07 1063.54 1107.87 1039.03C1105.33 1020.53 1091.43 1024.76 1091.43 1024.76C1091.43 1024.76 1071.06 1101.65 1028.75 1131.14L1015.45 1140.39L1034.43 1275.85L1050.09 1274.4C1056.13 1274.4 1090.53 1274.4 1112.71 1274.4C1119.23 1274.12 1125.6 1272.37 1131.35 1269.3C1137.11 1266.22 1142.1 1261.89 1145.95 1256.63C1157.26 1241.67 1163.73 1223.62 1164.51 1204.89L1168.5 1141.84C1169.47 1123.23 1160.52 1106.48 1147.58 1104.25Z" fill="#407BFF"/>
<path opacity="0.9" d="M1147.58 1104.25L1140.27 1102.92C1132.63 1101.6 1124.79 1102.07 1117.36 1104.31L1096.27 1110.71C1107.04 1088.46 1111.07 1063.54 1107.87 1039.03C1105.33 1020.53 1091.43 1024.76 1091.43 1024.76C1091.43 1024.76 1071.06 1101.65 1028.75 1131.14L1015.45 1140.39L1034.43 1275.85L1050.09 1274.4C1056.13 1274.4 1090.53 1274.4 1112.71 1274.4C1119.23 1274.12 1125.6 1272.37 1131.35 1269.3C1137.11 1266.22 1142.1 1261.89 1145.95 1256.63C1157.26 1241.67 1163.73 1223.62 1164.51 1204.89L1168.5 1141.84C1169.47 1123.23 1160.52 1106.48 1147.58 1104.25Z" fill="#FAFAFA"/>
<path d="M975.683 1307.28L1035.28 1294.28C1039.93 1293.31 1043.2 1286.91 1042.47 1280.08L1026.94 1124.92C1026.21 1118.09 1021.86 1113.37 1017.21 1114.34L957.61 1127.34C952.956 1128.3 949.692 1134.71 950.417 1141.54L965.951 1296.7C966.677 1303.53 971.029 1308.24 975.683 1307.28Z" fill="#407BFF"/>
<path d="M860.84 795.802C860.114 799.308 861.384 802.512 863.681 802.995C865.978 803.479 868.456 801.061 869.181 797.555C869.906 794.05 868.637 790.786 866.34 790.302C864.043 789.818 861.565 792.297 860.84 795.802Z" fill="#263238"/>
<path d="M861.082 802.451C863.027 814.037 866.545 825.303 871.538 835.937C868.798 837.158 865.823 837.758 862.824 837.695C859.825 837.632 856.877 836.908 854.191 835.574L861.082 802.451Z" fill="#DF5753"/>
<path d="M870.39 774.345C869.98 774.338 869.581 774.212 869.241 773.982C866.921 772.727 864.337 772.039 861.699 771.976C859.062 771.913 856.447 772.476 854.07 773.62C853.564 773.847 852.99 773.866 852.47 773.674C851.95 773.482 851.526 773.093 851.29 772.592C851.171 772.339 851.104 772.065 851.095 771.785C851.086 771.506 851.133 771.228 851.235 770.968C851.337 770.707 851.491 770.471 851.687 770.272C851.884 770.073 852.119 769.916 852.378 769.812C855.39 768.377 858.704 767.688 862.039 767.804C865.374 767.92 868.632 768.836 871.538 770.476C871.773 770.623 871.975 770.816 872.133 771.043C872.291 771.271 872.402 771.527 872.458 771.798C872.515 772.069 872.516 772.349 872.462 772.62C872.407 772.892 872.299 773.149 872.143 773.378C871.957 773.675 871.699 773.92 871.392 774.089C871.085 774.258 870.74 774.346 870.39 774.345Z" fill="#263238"/>
<path d="M736.446 807.045C742.491 839.503 749.139 899.04 726.413 920.679C726.413 920.679 735.298 953.681 795.681 953.681C862.169 953.681 827.354 920.679 827.354 920.679C791.087 912.036 792.115 885.199 798.401 860.236L736.446 807.045Z" fill="#E58A7B"/>
<path d="M717.225 929.988C712.873 919.349 713.599 899.766 716.802 899.463C729.374 898.617 796.467 898.436 818.65 906.958C821.584 907.884 824.304 909.383 826.653 911.369C829.002 913.355 830.933 915.789 832.334 918.528C833.734 921.267 834.576 924.257 834.811 927.324C835.045 930.391 834.668 933.474 833.7 936.395L717.225 929.988Z" fill="#407BFF"/>
<path d="M568.957 2145.75C565.055 2145.73 561.166 2145.31 557.352 2144.48C557.156 2144.45 556.975 2144.36 556.835 2144.22C556.694 2144.07 556.6 2143.89 556.566 2143.7C556.539 2143.5 556.563 2143.29 556.637 2143.1C556.711 2142.91 556.832 2142.74 556.989 2142.61C557.533 2142.25 569.803 2133.91 576.27 2135.36C576.969 2135.51 577.627 2135.81 578.201 2136.24C578.774 2136.66 579.249 2137.21 579.595 2137.83C580.121 2138.57 580.404 2139.44 580.404 2140.34C580.404 2141.24 580.121 2142.12 579.595 2142.85C578.105 2144.02 576.396 2144.88 574.569 2145.38C572.742 2145.88 570.834 2146 568.957 2145.75ZM560.313 2142.97C566.962 2144.06 576.029 2144.06 577.963 2141.52C577.963 2141.52 578.688 2140.55 577.963 2138.86C577.767 2138.49 577.492 2138.17 577.158 2137.92C576.824 2137.67 576.438 2137.5 576.029 2137.41C570.341 2137.69 564.867 2139.67 560.313 2143.09V2142.97Z" fill="#407BFF"/>
<path d="M557.593 2144.67H557.049C556.882 2144.57 556.746 2144.43 556.66 2144.26C556.574 2144.08 556.541 2143.89 556.566 2143.7C556.566 2143.15 557.654 2130.34 562.61 2126.11C563.238 2125.59 563.963 2125.21 564.741 2124.98C565.52 2124.75 566.337 2124.68 567.143 2124.78C567.932 2124.79 568.692 2125.08 569.298 2125.58C569.903 2126.09 570.316 2126.79 570.468 2127.56C571.374 2132.52 562.489 2142.19 557.956 2144.73L557.593 2144.67ZM566.539 2126.53C565.67 2126.54 564.833 2126.86 564.182 2127.44C561.041 2131.42 559.204 2136.28 558.923 2141.34C563.456 2137.9 569.138 2130.58 568.594 2127.62C568.594 2127.62 568.594 2126.71 567.022 2126.53H566.539Z" fill="#407BFF"/>
<path d="M506.337 2143.58H550.763L591.684 2040.76H547.318L506.337 2143.58Z" fill="#E58A7B"/>
<path d="M554.269 2138.44H504.403C503.513 2138.45 502.651 2138.75 501.959 2139.31C501.268 2139.87 500.787 2140.65 500.595 2141.52L491.831 2180.99C491.63 2181.95 491.649 2182.95 491.887 2183.9C492.124 2184.85 492.573 2185.74 493.2 2186.49C493.827 2187.25 494.617 2187.85 495.51 2188.26C496.403 2188.67 497.377 2188.87 498.358 2188.85C515.766 2188.55 524.228 2187.52 546.169 2187.52C559.648 2187.52 587.453 2188.97 606.13 2188.97C624.807 2188.97 627.164 2170.84 619.548 2168.84C585.337 2161.35 572.462 2151.01 561.522 2141.22C559.535 2139.42 556.949 2138.43 554.269 2138.44Z" fill="#263238"/>
<path d="M915.783 963.896C929.02 988.074 942.076 1012.86 954.951 1037.4L993.514 1111.08L1003.18 1129.21C1005.23 1133.61 1007.66 1137.81 1010.44 1141.78C1017.19 1149.92 1025.39 1156.75 1034.62 1161.91C1056.95 1174.66 1080.68 1184.8 1105.33 1192.13L1101.59 1225.26C1094 1225.42 1086.42 1225.17 1078.86 1224.53C1071.35 1224.05 1063.86 1223.18 1056.44 1221.93C1041.07 1219.56 1026.01 1215.51 1011.53 1209.84C995.034 1203.65 979.948 1194.22 967.16 1182.1C960.797 1175.51 955.219 1168.21 950.538 1160.34L939.175 1142.21C924.306 1118.03 909.98 1093.73 896.199 1069.31C882.479 1044.71 869.181 1020.05 856.427 994.844L915.783 963.896Z" fill="#E58A7B"/>
<path d="M613.746 957.489C595.612 996.234 653.578 1118.57 653.578 1118.57L752.585 1072.63C741.78 1037.93 728.322 1004.1 712.329 971.452C686.459 920.135 632.12 917.899 613.746 957.489Z" fill="#407BFF"/>
<path opacity="0.8" d="M613.746 957.489C595.612 996.234 653.578 1118.57 653.578 1118.57L752.585 1072.63C741.78 1037.93 728.322 1004.1 712.329 971.452C686.459 920.135 632.12 917.899 613.746 957.489Z" fill="#FAFAFA"/>
<path d="M666.875 965.408L644.511 1098.08C649.83 1110.59 653.578 1118.57 653.578 1118.57L752.585 1072.63C752.585 1072.63 707.856 995.327 666.875 965.408Z" fill="#407BFF"/>
<path opacity="0.7" d="M666.875 965.408L644.511 1098.08C649.83 1110.59 653.578 1118.57 653.578 1118.57L752.585 1072.63C752.585 1072.63 707.856 995.327 666.875 965.408Z" fill="#FAFAFA"/>
<path d="M895.655 933.01C895.655 933.01 942.922 986.442 898.315 1316.83H660.831C659.139 1280.56 682.047 1102.55 646.929 930.713C673.18 925.658 699.73 922.306 726.413 920.679C760.032 918.744 793.735 918.744 827.354 920.679C850.403 923.036 873.237 927.159 895.655 933.01Z" fill="#407BFF"/>
<path opacity="0.8" d="M895.655 933.01C895.655 933.01 942.922 986.442 898.315 1316.83H660.831C659.139 1280.56 682.047 1102.55 646.929 930.713C673.18 925.658 699.73 922.306 726.413 920.679C760.032 918.744 793.735 918.744 827.354 920.679C850.403 923.036 873.237 927.159 895.655 933.01Z" fill="#FAFAFA"/>
<path d="M914.816 1011.65L878.126 1102.31L914.816 1155.68C918.442 1107.74 918.442 1059.59 914.816 1011.65Z" fill="#407BFF"/>
<path opacity="0.7" d="M914.816 1011.65L878.126 1102.31L914.816 1155.68C918.442 1107.74 918.442 1059.59 914.816 1011.65Z" fill="#FAFAFA"/>
<path d="M837.871 962.325C823.244 1002.22 881.995 1123.23 881.995 1123.23L988.376 1069.61C974.749 1033.34 957.282 998.63 936.273 966.072C904.42 919.531 853.949 918.745 837.871 962.325Z" fill="#407BFF"/>
<path opacity="0.8" d="M837.871 962.325C823.244 1002.22 881.995 1123.23 881.995 1123.23L988.376 1069.61C974.749 1033.34 957.282 998.63 936.273 966.072C904.42 919.531 853.949 918.745 837.871 962.325Z" fill="#FAFAFA"/>
<path d="M1096.51 1193.7L1140.03 1176.3L1152.12 1228.76C1152.12 1228.76 1117.54 1241.27 1092.4 1223.08L1096.51 1193.7Z" fill="#E58A7B"/>
<path d="M1188.02 1176.84L1181.31 1223.74L1152.06 1228.76L1140.03 1176.3L1188.02 1176.84Z" fill="#E58A7B"/>
<path d="M547.258 2040.82H591.684L562.248 2114.68L521.146 2106.34L547.258 2040.82Z" fill="#CF6F64"/>
<path d="M745.453 764.009C739.408 807.589 733.364 832.794 750.348 859.45C776.158 899.524 833.398 890.88 852.619 850.021C869.967 813.271 877.401 748.112 838.838 722.182C830.334 716.511 820.531 713.088 810.345 712.236C800.159 711.383 789.923 713.127 780.594 717.305C771.265 721.483 763.149 727.959 757.003 736.127C750.857 744.295 746.883 753.888 745.453 764.009Z" fill="#E58A7B"/>
<path d="M913.002 690.751C875.406 655.996 905.145 647.171 905.145 647.171C905.145 647.171 863.922 630.126 880.242 666.634C903.029 717.528 839.201 701.873 808.616 666.634C789.758 644.874 740.133 667.178 742.551 688.394C744.969 709.61 666.996 693.169 702.295 739.469C702.96 787.824 721.758 834.849 746.722 847.603C789.516 869.423 821.611 808.375 833.579 759.476C898.133 790.483 951.928 726.715 913.002 690.751Z" fill="#263238"/>
<path d="M800.94 788.61C801.182 799.609 805.026 810.225 811.88 818.831C821.007 829.953 831.403 823.848 833.821 810.974C835.997 799.369 833.821 779.603 822.337 773.136C810.853 766.669 800.879 775.433 800.94 788.61Z" fill="#E58A7B"/>
<path d="M702.719 694.197C722.117 693.459 741.144 699.652 756.393 711.665C756.393 711.665 745.452 664.881 702.719 694.197Z" fill="#263238"/>
<path d="M794.291 1316.83C794.291 1316.83 803.176 1496.71 835.997 1655.31C846.454 1705.54 839.624 1759.34 810.188 1801.34C723.693 1924.71 586.546 2089 586.546 2089L514.678 2080.96C514.678 2080.96 631.032 1865.23 690.63 1758.07C704.169 1733.89 716.137 1711.77 705.922 1685.53C607.218 1434.99 660.589 1316.83 660.589 1316.83H794.291Z" fill="#407BFF"/>
<path opacity="0.3" d="M794.291 1316.83C794.291 1316.83 803.176 1496.71 835.997 1655.31C846.454 1705.54 839.624 1759.34 810.188 1801.34C723.693 1924.71 586.546 2089 586.546 2089L514.678 2080.96C514.678 2080.96 631.032 1865.23 690.63 1758.07C704.169 1733.89 716.137 1711.77 705.922 1685.53C607.218 1434.99 660.589 1316.83 660.589 1316.83H794.291Z" fill="black"/>
<path d="M807.649 1472.29L738.864 1390.21C736.265 1427.02 758.508 1564.71 834.788 1649.33C822.639 1589.67 813.875 1526.75 807.649 1472.29Z" fill="#407BFF"/>
<path opacity="0.4" d="M807.649 1472.29L738.864 1390.21C736.265 1427.02 758.508 1564.71 834.788 1649.33C822.639 1589.67 813.875 1526.75 807.649 1472.29Z" fill="black"/>
<path d="M606.794 2078.06L592.711 2107.19L506.095 2084.95L512.986 2057.93L606.794 2078.06Z" fill="#407BFF"/>
<path opacity="0.1" d="M606.794 2078.06L592.711 2107.19L506.095 2084.95L512.986 2057.93L606.794 2078.06Z" fill="black"/>
<path d="M864.889 2143.58H909.255L922.25 2040.76H877.885L864.889 2143.58Z" fill="#E58A7B"/>
<path d="M928.718 2145.75C924.135 2145.75 919.562 2145.33 915.058 2144.48C914.846 2144.45 914.651 2144.35 914.499 2144.2C914.347 2144.04 914.247 2143.85 914.212 2143.64C914.175 2143.42 914.207 2143.2 914.305 2143C914.403 2142.81 914.561 2142.65 914.756 2142.55C915.42 2142.19 930.894 2133.36 938.329 2135.36C939.023 2135.52 939.677 2135.82 940.249 2136.25C940.821 2136.68 941.299 2137.22 941.653 2137.84C942.126 2138.51 942.381 2139.31 942.381 2140.13C942.381 2140.95 942.126 2141.76 941.653 2142.43C939.9 2145.09 934.4 2145.75 928.718 2145.75ZM918.443 2142.97C926.784 2144.12 938.026 2143.94 940.021 2141.16C940.021 2140.8 940.565 2140.19 940.021 2138.86C939.8 2138.49 939.502 2138.17 939.148 2137.92C938.794 2137.67 938.391 2137.5 937.966 2137.41C933.191 2136.26 923.883 2140.31 918.745 2143.09L918.443 2142.97Z" fill="#407BFF"/>
<path d="M915.239 2144.67C915.041 2144.72 914.832 2144.72 914.635 2144.67C914.495 2144.55 914.385 2144.4 914.312 2144.23C914.239 2144.06 914.204 2143.88 914.211 2143.7C914.211 2143.15 915.481 2131.19 921.102 2126.59C921.919 2125.87 922.882 2125.34 923.926 2125.02C924.969 2124.71 926.068 2124.63 927.146 2124.78C930.048 2125.08 930.833 2126.53 931.015 2127.74C931.861 2132.76 921.223 2142.37 915.904 2144.73L915.239 2144.67ZM926.119 2126.53C924.76 2126.52 923.447 2127.02 922.432 2127.92C919.067 2131.75 916.957 2136.52 916.387 2141.58C921.888 2138.32 929.081 2130.76 928.476 2127.74C928.476 2127.74 928.476 2126.77 926.421 2126.53H926.119Z" fill="#407BFF"/>
<path d="M910.524 2138.44H862.169C861.284 2138.44 860.425 2138.74 859.741 2139.31C859.057 2139.87 858.591 2140.65 858.422 2141.52L849.597 2180.99C849.387 2181.94 849.396 2182.93 849.622 2183.88C849.847 2184.83 850.285 2185.71 850.901 2186.47C851.517 2187.23 852.296 2187.83 853.18 2188.24C854.064 2188.66 855.029 2188.86 856.004 2188.85C873.533 2188.55 898.798 2187.52 920.739 2187.52C946.488 2187.52 968.671 2188.97 998.833 2188.97C1016.97 2188.97 1022.1 2170.84 1014.49 2168.84C979.732 2161.23 951.384 2160.44 921.344 2141.95C918.149 2139.76 914.393 2138.54 910.524 2138.44Z" fill="#263238"/>
<path d="M877.885 2040.82H922.311L912.761 2115.71L869.241 2109L877.885 2040.82Z" fill="#CF6F64"/>
<path d="M898.315 1316.83C898.315 1316.83 935.488 1441.1 996.899 1600.91C1016.91 1652.89 1024.64 1702.94 1010.74 1746.95C967.644 1883.55 930.411 2089 930.411 2089L856.367 2080.96C856.367 2080.96 853.526 1871.4 879.759 1763.39C893.238 1707.96 888.644 1687.77 874.802 1669.46C686.218 1418.55 736.87 1317.01 736.87 1317.01L898.315 1316.83Z" fill="#407BFF"/>
<path opacity="0.3" d="M898.315 1316.83C898.315 1316.83 935.488 1441.1 996.899 1600.91C1016.91 1652.89 1024.64 1702.94 1010.74 1746.95C967.644 1883.55 930.411 2089 930.411 2089L856.367 2080.96C856.367 2080.96 853.526 1871.4 879.759 1763.39C893.238 1707.96 888.644 1687.77 874.802 1669.46C686.218 1418.55 736.87 1317.01 736.87 1317.01L898.315 1316.83Z" fill="black"/>
<path d="M943.225 2076.42L939.356 2105.92L851.955 2091.11L849.355 2064.15L943.225 2076.42Z" fill="#407BFF"/>
<path opacity="0.1" d="M943.225 2076.42L939.356 2105.92L851.955 2091.11L849.355 2064.15L943.225 2076.42Z" fill="black"/>
<path d="M1585.62 566.6H1510.07V572.644H1585.62V566.6Z" fill="#407BFF"/>
<path opacity="0.2" d="M1585.62 566.6H1510.07V572.644H1585.62V566.6Z" fill="black"/>
<path d="M1365.06 317.209H1774.45C1785.36 317.225 1795.82 321.567 1803.54 329.283C1811.25 336.999 1815.59 347.459 1815.61 358.371V510.327C1815.59 521.239 1811.25 531.699 1803.54 539.415C1795.82 547.131 1785.36 551.473 1774.45 551.489H1746.04L1757.1 596.157C1741.05 594.696 1725.46 589.982 1711.28 582.303C1697.11 574.624 1684.65 564.14 1674.65 551.489H1365.06C1354.15 551.457 1343.7 547.11 1335.99 539.397C1328.28 531.685 1323.93 521.234 1323.9 510.327V358.371C1323.93 347.464 1328.28 337.013 1335.99 329.3C1343.7 321.588 1354.15 317.241 1365.06 317.209Z" fill="#407BFF"/>
<path opacity="0.2" d="M1365.06 317.209H1774.45C1785.36 317.225 1795.82 321.567 1803.54 329.283C1811.25 336.999 1815.59 347.459 1815.61 358.371V510.327C1815.59 521.239 1811.25 531.699 1803.54 539.415C1795.82 547.131 1785.36 551.473 1774.45 551.489H1746.04L1757.1 596.157C1741.05 594.696 1725.46 589.982 1711.28 582.303C1697.11 574.624 1684.65 564.14 1674.65 551.489H1365.06C1354.15 551.457 1343.7 547.11 1335.99 539.397C1328.28 531.685 1323.93 521.234 1323.9 510.327V358.371C1323.93 347.464 1328.28 337.013 1335.99 329.3C1343.7 321.588 1354.15 317.241 1365.06 317.209Z" fill="black"/>
<path d="M1590.94 103.782H1584.9V154.132H1590.94V103.782Z" fill="#407BFF"/>
<path opacity="0.1" d="M1590.94 103.782H1584.9V154.132H1590.94V103.782Z" fill="#FAFAFA"/>
<path d="M1528.62 37.5356H1119.24C1108.35 37.5514 1097.9 41.8767 1090.19 49.5666C1082.48 57.2564 1078.12 67.6859 1078.07 78.5769V230.653C1078.09 241.565 1082.43 252.026 1090.15 259.742C1097.86 267.458 1108.32 271.8 1119.24 271.816H1147.65L1136.34 316.483C1152.42 315.077 1168.05 310.407 1182.27 302.758C1196.49 295.109 1208.99 284.642 1219.03 271.997H1528.62C1539.53 271.965 1549.98 267.618 1557.69 259.906C1565.41 252.193 1569.75 241.742 1569.78 230.835V78.5769C1569.72 67.6908 1565.36 57.2705 1557.65 49.5841C1549.94 41.8976 1539.51 37.5673 1528.62 37.5356Z" fill="#407BFF"/>
<path opacity="0.1" d="M1528.62 37.5356H1119.24C1108.35 37.5514 1097.9 41.8767 1090.19 49.5666C1082.48 57.2564 1078.12 67.6859 1078.07 78.5769V230.653C1078.09 241.565 1082.43 252.026 1090.15 259.742C1097.86 267.458 1108.32 271.8 1119.24 271.816H1147.65L1136.34 316.483C1152.42 315.077 1168.05 310.407 1182.27 302.758C1196.49 295.109 1208.99 284.642 1219.03 271.997H1528.62C1539.53 271.965 1549.98 267.618 1557.69 259.906C1565.41 252.193 1569.75 241.742 1569.78 230.835V78.5769C1569.72 67.6908 1565.36 57.2705 1557.65 49.5841C1549.94 41.8976 1539.51 37.5673 1528.62 37.5356Z" fill="#FAFAFA"/>
</svg>
