<svg width="36" height="25" viewBox="0 0 36 25" fill="none" xmlns="http://www.w3.org/2000/svg">
<path d="M14.1567 17.5081L23.2392 12.2581L14.1567 7.00806V17.5081ZM34.3867 3.80556C34.6142 4.62806 34.7717 5.73056 34.8767 7.13056C34.9992 8.53056 35.0517 9.73806 35.0517 10.7881L35.1567 12.2581C35.1567 16.0906 34.8767 18.9081 34.3867 20.7106C33.9492 22.2856 32.9342 23.3006 31.3592 23.7381C30.5367 23.9656 29.0317 24.1231 26.7217 24.2281C24.4467 24.3506 22.3642 24.4031 20.4392 24.4031L17.6567 24.5081C10.3242 24.5081 5.75668 24.2281 3.95418 23.7381C2.37918 23.3006 1.36418 22.2856 0.926677 20.7106C0.699177 19.8881 0.541677 18.7856 0.436677 17.3856C0.314177 15.9856 0.261677 14.7781 0.261677 13.7281L0.156677 12.2581C0.156677 8.42556 0.436677 5.60806 0.926677 3.80556C1.36418 2.23056 2.37918 1.21556 3.95418 0.778057C4.77668 0.550557 6.28168 0.393056 8.59168 0.288056C10.8667 0.165556 12.9492 0.113057 14.8742 0.113057L17.6567 0.00805664C24.9892 0.00805664 29.5567 0.288057 31.3592 0.778057C32.9342 1.21556 33.9492 2.23056 34.3867 3.80556Z" fill="#0281DE"/>
</svg>
