<svg width="36" height="36" viewBox="0 0 36 36" fill="none" xmlns="http://www.w3.org/2000/svg">
<path d="M31.9968 0.850342C33.0282 0.850342 34.0173 1.26006 34.7467 1.98937C35.476 2.71868 35.8857 3.70783 35.8857 4.73923V31.9615C35.8857 32.9928 35.476 33.982 34.7467 34.7113C34.0173 35.4406 33.0282 35.8503 31.9968 35.8503H4.77457C3.74317 35.8503 2.75402 35.4406 2.02471 34.7113C1.2954 33.982 0.885681 32.9928 0.885681 31.9615V4.73923C0.885681 3.70783 1.2954 2.71868 2.02471 1.98937C2.75402 1.26006 3.74317 0.850342 4.77457 0.850342H31.9968ZM31.0246 30.9892V20.6837C31.0246 19.0025 30.3567 17.3902 29.168 16.2014C27.9792 15.0126 26.3669 14.3448 24.6857 14.3448C23.0329 14.3448 21.1079 15.3559 20.1746 16.8726V14.7142H14.7496V30.9892H20.1746V21.4031C20.1746 19.9059 21.3801 18.6809 22.8773 18.6809C23.5993 18.6809 24.2917 18.9677 24.8022 19.4782C25.3128 19.9887 25.5996 20.6811 25.5996 21.4031V30.9892H31.0246ZM8.43013 11.6615C9.2965 11.6615 10.1274 11.3173 10.74 10.7047C11.3526 10.0921 11.6968 9.26116 11.6968 8.39479C11.6968 6.58645 10.2385 5.10868 8.43013 5.10868C7.55859 5.10868 6.72276 5.45489 6.10649 6.07115C5.49023 6.68742 5.14401 7.52326 5.14401 8.39479C5.14401 10.2031 6.62179 11.6615 8.43013 11.6615ZM11.1329 30.9892V14.7142H5.74679V30.9892H11.1329Z" fill="#0281DE"/>
</svg>
