<svg width="36" height="41" viewBox="0 0 36 41" fill="none" xmlns="http://www.w3.org/2000/svg">
<path d="M28.1955 6.77096C26.6697 5.02905 25.8288 2.79202 25.8295 0.476318H18.9321V28.1549C18.8789 29.6527 18.2466 31.0714 17.1682 32.1123C16.0899 33.1532 14.6497 33.735 13.1509 33.7352C9.98124 33.7352 7.34732 31.146 7.34732 27.9317C7.34732 24.0924 11.0527 21.2129 14.8696 22.396V15.3424C7.16875 14.3156 0.427673 20.2977 0.427673 27.9317C0.427673 35.3647 6.58839 40.6549 13.1286 40.6549C20.1375 40.6549 25.8295 34.9629 25.8295 27.9317V13.8915C28.6263 15.9001 31.9843 16.9778 35.4277 16.9719V10.0745C35.4277 10.0745 31.2312 10.2754 28.1955 6.77096Z" fill="#0281DE"/>
</svg>
