<svg width="36" height="35" viewBox="0 0 36 35" fill="none" xmlns="http://www.w3.org/2000/svg">
<path d="M35.3437 17.5657C35.3437 7.89802 27.5048 0.0656738 17.8437 0.0656738C8.17603 0.0656738 0.343689 7.89802 0.343689 17.5657C0.343689 26.2982 6.74103 33.5388 15.1093 34.8502V22.6254H10.6654V17.5668H15.1093V13.7091C15.1093 9.32427 17.7179 6.9027 21.7167 6.9027C23.6318 6.9027 25.6367 7.24396 25.6367 7.24396V11.55H23.4262C21.2562 11.55 20.5781 12.9008 20.5781 14.2844V17.5657H25.431L24.6512 22.6243H20.5781V34.8491C28.9398 33.5377 35.3437 26.2971 35.3437 17.5646V17.5657Z" fill="#0281DE"/>
</svg>
