<svg width="36" height="36" viewBox="0 0 36 36" fill="none" xmlns="http://www.w3.org/2000/svg">
<path d="M17.5732 0.0656738C12.8159 0.0656738 12.223 0.0886455 10.3612 0.167405C8.49173 0.259292 7.2272 0.549172 6.11144 0.982351C4.96067 1.43303 3.98054 2.03139 3.01245 3.00495C2.0378 3.97304 1.43398 4.95316 0.989858 6.10393C0.556679 7.21969 0.266799 8.48423 0.174913 10.3537C0.0906833 12.2166 0.0731812 12.8084 0.0731812 17.5657C0.0731812 22.323 0.0961528 22.9159 0.174913 24.7777C0.266799 26.6417 0.556679 27.9117 0.989858 29.0274C1.44054 30.1782 2.0389 31.1583 3.01245 32.1264C3.98054 33.1011 4.96067 33.7049 6.11144 34.149C7.2272 34.5767 8.4972 34.8721 10.3612 34.9639C12.2241 35.0482 12.8159 35.0657 17.5732 35.0657C22.3305 35.0657 22.9234 35.0427 24.7852 34.9639C26.6492 34.8721 27.9192 34.5756 29.0349 34.149C30.1857 33.6983 31.1658 33.1 32.1339 32.1264C33.1086 31.1583 33.7124 30.1837 34.1565 29.0274C34.5842 27.9117 34.8796 26.6417 34.9714 24.7777C35.0557 22.9148 35.0732 22.323 35.0732 17.5657C35.0732 12.8084 35.0502 12.2155 34.9714 10.3537C34.8796 8.4897 34.5831 7.21313 34.1565 6.10393C33.7058 4.95316 33.1075 3.97304 32.1339 3.00495C31.1658 2.03029 30.1912 1.42647 29.0349 0.982351C27.9192 0.549172 26.6492 0.259292 24.7852 0.167405C22.9223 0.083176 22.3305 0.0656738 17.5732 0.0656738ZM17.5732 3.21607C22.2452 3.21607 22.8031 3.23904 24.6495 3.3178C26.3527 3.39765 27.2803 3.68206 27.8962 3.92272C28.7177 4.24104 29.292 4.61734 29.9133 5.2321C30.5226 5.8414 30.8989 6.42225 31.2172 7.24376C31.4579 7.85962 31.7423 8.78723 31.8221 10.4904C31.9009 12.3369 31.9239 12.8959 31.9239 17.5668C31.9239 22.2377 31.9009 22.7966 31.8156 24.6431C31.7237 26.3463 31.4393 27.2739 31.1997 27.8898C30.8683 28.7113 30.4985 29.2856 29.8882 29.9069C29.2723 30.5162 28.686 30.8925 27.871 31.2108C27.2628 31.4515 26.3221 31.7359 24.6123 31.8157C22.756 31.8945 22.2091 31.9175 17.5251 31.9175C12.841 31.9175 12.2952 31.8945 10.4367 31.8092C8.73348 31.7173 7.79383 31.4329 7.17798 31.1933C6.34662 30.8619 5.77671 30.4921 5.16632 29.8817C4.55046 29.2659 4.15885 28.6796 3.85694 27.8646C3.6119 27.2564 3.33187 26.3157 3.24108 24.6059C3.17873 22.7715 3.14919 22.2027 3.14919 17.5405C3.14919 12.8806 3.17873 12.3106 3.24108 10.4532C3.33187 8.74348 3.6119 7.80492 3.85694 7.19453C4.15885 6.36209 4.55155 5.79327 5.16632 5.17741C5.77561 4.56811 6.34662 4.17431 7.17798 3.86584C7.79383 3.62628 8.71051 3.34187 10.4203 3.25654C12.2766 3.18981 12.8235 3.16575 17.501 3.16575L17.5732 3.21607ZM17.5732 8.58377C12.6058 8.58377 8.58909 12.606 8.58909 17.5679C8.58909 22.5352 12.6113 26.552 17.5732 26.552C22.5405 26.552 26.5573 22.5297 26.5573 17.5679C26.5573 12.6005 22.5351 8.58377 17.5732 8.58377ZM17.5732 23.4016C14.3484 23.4016 11.7395 20.7926 11.7395 17.5679C11.7395 14.3431 14.3484 11.7342 17.5732 11.7342C20.798 11.7342 23.4069 14.3431 23.4069 17.5679C23.4069 20.7926 20.798 23.4016 17.5732 23.4016ZM29.0196 8.22498C29.0196 9.38778 28.0734 10.3263 26.9161 10.3263C25.7533 10.3263 24.8147 9.38668 24.8147 8.22498C24.8147 7.06874 25.7598 6.12799 26.9161 6.12799C28.0723 6.12799 29.0196 7.06874 29.0196 8.22498Z" fill="#0281DE"/>
</svg>
